<svg width="107" height="60" viewBox="0 0 107 60" fill="none" xmlns="http://www.w3.org/2000/svg">
<path d="M103.249 31L99.2627 29.6667C97.1295 28.9581 95.2474 27.6463 93.8444 25.89L93.6394 25.6317C92.2379 23.8705 90.4564 22.4491 88.4279 21.4739C86.3995 20.4986 84.1768 19.9948 81.926 20H65.4627L40.8594 5.23834C40.6002 5.08249 40.3035 5.0001 40.0011 5.00001H31.6677C31.3381 5.00008 31.016 5.09786 30.742 5.281C30.4679 5.46415 30.2544 5.72442 30.1283 6.02892C30.0021 6.33342 29.9691 6.66847 30.0334 6.99173C30.0977 7.31498 30.2564 7.61192 30.4894 7.84501L42.6444 20H22.5594L9.72605 0.741674C9.57333 0.512775 9.36632 0.325249 9.12348 0.195834C8.88065 0.0664191 8.60955 -0.000857521 8.33438 8.2515e-06H1.66771C1.40363 -5.53458e-05 1.14331 0.0626372 0.908203 0.18292C0.673099 0.303202 0.469943 0.477631 0.315478 0.691832C0.161012 0.906033 0.0596582 1.15388 0.019769 1.41493C-0.0201203 1.67599 0.00259683 1.94279 0.0860482 2.19334L6.02105 20H4.90105C3.84207 19.9998 2.81151 20.3426 1.96373 20.9772C1.11594 21.6118 0.496551 22.504 0.198322 23.5201C-0.0999069 24.5362 -0.0609237 25.6216 0.309433 26.6137C0.67979 27.6058 1.36159 28.4512 2.25271 29.0233L4.78605 30.6517L0.286048 37.4083C0.118817 37.659 0.0226638 37.9503 0.00781835 38.2512C-0.00702706 38.5522 0.059991 38.8515 0.201742 39.1174C0.343493 39.3833 0.554673 39.6058 0.812815 39.7612C1.07096 39.9166 1.3664 39.9991 1.66771 40H5.00105C5.36167 40 5.71255 39.883 6.00105 39.6667L19.3344 29.6667C19.6142 29.4568 19.8209 29.1642 19.9252 28.8303C20.0295 28.4964 20.0261 28.1381 19.9155 27.8063C19.8049 27.4744 19.5927 27.1858 19.3089 26.9813C19.0251 26.7767 18.6842 26.6667 18.3344 26.6667H8.33438C8.06006 26.6666 7.78997 26.7343 7.54808 26.8637C7.30618 26.9931 7.09996 27.1801 6.94772 27.4083L6.63438 27.8783L4.05605 26.2117C3.7743 26.0277 3.55928 25.7578 3.44283 25.4421C3.32638 25.1264 3.31469 24.7815 3.40948 24.4587C3.50427 24.1358 3.70051 23.852 3.96915 23.6493C4.23778 23.4466 4.56454 23.3358 4.90105 23.3333H81.926C84.0404 23.3331 86.1148 23.9093 87.9261 25H87.5011C86.396 25 85.3362 25.439 84.5548 26.2204C83.7734 27.0018 83.3344 28.0616 83.3344 29.1667C83.3344 30.2717 83.7734 31.3316 84.5548 32.113C85.3362 32.8944 86.396 33.3333 87.5011 33.3333H99.6277C99.6511 33.3333 99.6711 33.3217 99.6927 33.32L102.193 34.1533C102.525 34.2639 102.814 34.4762 103.018 34.7601C103.223 35.044 103.333 35.3851 103.333 35.735V35.9317C103.333 36.2816 103.223 36.6227 103.018 36.9066C102.814 37.1905 102.525 37.4028 102.193 37.5133L98.5777 38.7167C96.0274 39.5678 93.3563 40.0012 90.6677 40H65.5561L66.0011 39.6667C66.2809 39.4568 66.4876 39.1642 66.5919 38.8303C66.6962 38.4964 66.6928 38.1381 66.5822 37.8063C66.4716 37.4744 66.2593 37.1858 65.9756 36.9813C65.6918 36.7767 65.3509 36.6667 65.0011 36.6667H46.6677C46.4367 36.6666 46.2083 36.7146 45.9968 36.8076C45.7854 36.9006 45.5955 37.0365 45.4394 37.2067L42.8794 40H32.8344C28.0405 40.0026 23.3473 38.6243 19.316 36.03L18.2544 35.3467C18.0703 35.2282 17.8647 35.147 17.6493 35.108C17.4339 35.0689 17.2129 35.0727 16.9989 35.119C16.785 35.1654 16.5822 35.2534 16.4023 35.3781C16.2223 35.5028 16.0687 35.6618 15.9502 35.8458C15.8317 36.0299 15.7506 36.2355 15.7115 36.4509C15.6725 36.6663 15.6762 36.8873 15.7226 37.1013C15.7689 37.3153 15.857 37.518 15.9817 37.6979C16.1064 37.8779 16.2653 38.0315 16.4494 38.15L17.511 38.8333C22.0806 41.774 27.4004 43.3363 32.8344 43.3333H39.8244L27.1077 57.2067C26.8891 57.445 26.7445 57.7417 26.6917 58.0608C26.6388 58.3798 26.6798 58.7074 26.8099 59.0035C26.9399 59.2996 27.1533 59.5514 27.424 59.7284C27.6947 59.9053 28.011 59.9997 28.3344 60H38.3344C38.695 60 39.0459 59.883 39.3344 59.6667L61.1127 43.3333H90.6677C93.7133 43.334 96.7389 42.8427 99.6277 41.8783L103.244 40.6733C104.241 40.3423 105.107 39.7063 105.722 38.8552C106.336 38.0042 106.667 36.9813 106.668 35.9317V35.735C106.666 34.6871 106.335 33.6662 105.722 32.8166C105.108 31.9669 104.243 31.3315 103.249 31ZM9.22605 30H13.3344L5.11771 36.1667L9.22605 30ZM9.53605 20L3.97938 3.33334H7.44272L18.5527 20H9.53605ZM47.3577 20L35.6911 8.33334H39.5394L58.9844 20H47.3577ZM86.6677 29.1667C86.6677 28.9457 86.7555 28.7337 86.9118 28.5774C87.0681 28.4211 87.28 28.3333 87.5011 28.3333H91.5777C92.0938 28.932 92.6561 29.4893 93.2594 30H87.5011C87.28 30 87.0681 29.9122 86.9118 29.7559C86.7555 29.5996 86.6677 29.3877 86.6677 29.1667ZM37.7794 56.6667H32.1227L47.4011 40H60.0011L37.7794 56.6667Z" fill="#C4C4C4"/>
<path d="M76.6673 31.6668V30.0002C76.6673 29.5581 76.4917 29.1342 76.1792 28.8217C75.8666 28.5091 75.4427 28.3335 75.0007 28.3335C74.5586 28.3335 74.1347 28.5091 73.8221 28.8217C73.5096 29.1342 73.334 29.5581 73.334 30.0002V31.6668C73.334 32.1089 73.5096 32.5328 73.8221 32.8453C74.1347 33.1579 74.5586 33.3335 75.0007 33.3335C75.4427 33.3335 75.8666 33.1579 76.1792 32.8453C76.4917 32.5328 76.6673 32.1089 76.6673 31.6668Z" fill="#C4C4C4"/>
<path d="M68.3341 33.3335C68.7762 33.3335 69.2001 33.1579 69.5127 32.8453C69.8252 32.5328 70.0008 32.1089 70.0008 31.6668V30.0002C70.0008 29.5581 69.8252 29.1342 69.5127 28.8217C69.2001 28.5091 68.7762 28.3335 68.3341 28.3335C67.8921 28.3335 67.4682 28.5091 67.1556 28.8217C66.8431 29.1342 66.6675 29.5581 66.6675 30.0002V31.6668C66.6675 32.1089 66.8431 32.5328 67.1556 32.8453C67.4682 33.1579 67.8921 33.3335 68.3341 33.3335Z" fill="#C4C4C4"/>
<path d="M63.3343 31.6668V30.0002C63.3343 29.5581 63.1587 29.1342 62.8462 28.8217C62.5336 28.5091 62.1097 28.3335 61.6676 28.3335C61.2256 28.3335 60.8017 28.5091 60.4891 28.8217C60.1766 29.1342 60.001 29.5581 60.001 30.0002V31.6668C60.001 32.1089 60.1766 32.5328 60.4891 32.8453C60.8017 33.1579 61.2256 33.3335 61.6676 33.3335C62.1097 33.3335 62.5336 33.1579 62.8462 32.8453C63.1587 32.5328 63.3343 32.1089 63.3343 31.6668Z" fill="#C4C4C4"/>
<path d="M56.6673 31.6668V30.0002C56.6673 29.5581 56.4917 29.1342 56.1792 28.8217C55.8666 28.5091 55.4427 28.3335 55.0007 28.3335C54.5586 28.3335 54.1347 28.5091 53.8221 28.8217C53.5096 29.1342 53.334 29.5581 53.334 30.0002V31.6668C53.334 32.1089 53.5096 32.5328 53.8221 32.8453C54.1347 33.1579 54.5586 33.3335 55.0007 33.3335C55.4427 33.3335 55.8666 33.1579 56.1792 32.8453C56.4917 32.5328 56.6673 32.1089 56.6673 31.6668Z" fill="#C4C4C4"/>
<path d="M50.0008 31.6668V30.0002C50.0008 29.5581 49.8252 29.1342 49.5127 28.8217C49.2001 28.5091 48.7762 28.3335 48.3341 28.3335C47.8921 28.3335 47.4682 28.5091 47.1556 28.8217C46.8431 29.1342 46.6675 29.5581 46.6675 30.0002V31.6668C46.6675 32.1089 46.8431 32.5328 47.1556 32.8453C47.4682 33.1579 47.8921 33.3335 48.3341 33.3335C48.7762 33.3335 49.2001 33.1579 49.5127 32.8453C49.8252 32.5328 50.0008 32.1089 50.0008 31.6668Z" fill="#C4C4C4"/>
<path d="M43.3343 31.6668V30.0002C43.3343 29.5581 43.1587 29.1342 42.8462 28.8217C42.5336 28.5091 42.1097 28.3335 41.6676 28.3335C41.2256 28.3335 40.8017 28.5091 40.4891 28.8217C40.1766 29.1342 40.001 29.5581 40.001 30.0002V31.6668C40.001 32.1089 40.1766 32.5328 40.4891 32.8453C40.8017 33.1579 41.2256 33.3335 41.6676 33.3335C42.1097 33.3335 42.5336 33.1579 42.8462 32.8453C43.1587 32.5328 43.3343 32.1089 43.3343 31.6668Z" fill="#C4C4C4"/>
<path d="M36.6673 31.6668V30.0002C36.6673 29.5581 36.4917 29.1342 36.1792 28.8217C35.8666 28.5091 35.4427 28.3335 35.0007 28.3335C34.5586 28.3335 34.1347 28.5091 33.8221 28.8217C33.5096 29.1342 33.334 29.5581 33.334 30.0002V31.6668C33.334 32.1089 33.5096 32.5328 33.8221 32.8453C34.1347 33.1579 34.5586 33.3335 35.0007 33.3335C35.4427 33.3335 35.8666 33.1579 36.1792 32.8453C36.4917 32.5328 36.6673 32.1089 36.6673 31.6668Z" fill="#C4C4C4"/>
<path d="M30.0008 31.6668V30.0002C30.0008 29.5581 29.8252 29.1342 29.5127 28.8217C29.2001 28.5091 28.7762 28.3335 28.3341 28.3335C27.8921 28.3335 27.4682 28.5091 27.1556 28.8217C26.8431 29.1342 26.6675 29.5581 26.6675 30.0002V31.6668C26.6675 32.1089 26.8431 32.5328 27.1556 32.8453C27.4682 33.1579 27.8921 33.3335 28.3341 33.3335C28.7762 33.3335 29.2001 33.1579 29.5127 32.8453C29.8252 32.5328 30.0008 32.1089 30.0008 31.6668Z" fill="#C4C4C4"/>
</svg>
