<svg width="64" height="92" viewBox="0 0 64 92" fill="none" xmlns="http://www.w3.org/2000/svg">
<path d="M25.787 39.66C25.7477 39.3327 25.5898 39.0312 25.3432 38.8124C25.0966 38.5936 24.7784 38.4727 24.4488 38.4727H2.88368C2.55412 38.4728 2.23603 38.5937 1.98957 38.8124C1.74312 39.0312 1.58538 39.3328 1.54621 39.66L0.0994037 51.7195C-0.292327 54.9445 0.481635 58.2034 2.28161 60.9078C4.08158 63.6123 6.78899 65.5843 9.91522 66.4679L9.49019 85.3557L5.44236 89.6384C5.26152 89.8297 5.14071 90.0699 5.09483 90.3291C5.04895 90.5884 5.08003 90.8554 5.18421 91.0972C5.28839 91.3389 5.46112 91.5449 5.68106 91.6896C5.901 91.8343 6.15851 91.9114 6.42178 91.9114H20.9114C21.1746 91.9113 21.432 91.8341 21.6519 91.6893C21.8717 91.5445 22.0443 91.3386 22.1484 91.0968C22.2525 90.855 22.2835 90.5881 22.2376 90.3289C22.1917 90.0698 22.0709 89.8297 21.8901 89.6384L17.8492 85.3642L17.4165 66.4694C20.5431 65.5863 23.2509 63.6144 25.0512 60.9099C26.8515 58.2054 27.6256 54.9463 27.2338 51.7211L25.787 39.66ZM23.2537 41.1676L24.0037 47.4199H3.32951L4.07948 41.1676H23.2537ZM9.54794 89.2149L11.3674 87.2899H15.9604L17.7807 89.2149H9.54794ZM15.1342 84.595H12.2029L12.6002 66.9545C12.9544 66.9823 13.3086 67.0115 13.6666 67.0115C14.0247 67.0115 14.3781 66.9823 14.7323 66.9545L15.1342 84.595ZM21.8701 60.6275C20.3187 62.375 18.2498 63.5814 15.9648 64.071C13.6799 64.5606 11.2984 64.3077 9.16716 63.3493C7.03597 62.3909 5.26652 60.7769 4.11661 58.7427C2.96671 56.7084 2.49645 54.3601 2.77435 52.0399L3.00534 50.1149H24.3263L24.5573 52.0399C24.7416 53.5797 24.5976 55.1411 24.1348 56.6213C23.672 58.1015 22.901 59.4669 21.8724 60.6275H21.8701Z" fill="#C4C4C4"/>
<path d="M58.0104 25.8357C57.9819 25.8041 57.9518 25.774 57.9203 25.7456C56.286 24.2665 54.9796 22.4616 54.0853 20.447C53.1909 18.4324 52.7284 16.2528 52.7275 14.0487V7.96113C53.0475 7.91576 53.3404 7.75658 53.5525 7.51276C53.7646 7.26895 53.8818 6.95685 53.8825 6.63367V2.01374C53.8825 1.65637 53.7405 1.31363 53.4878 1.06093C53.2351 0.808226 52.8924 0.66626 52.535 0.66626H40.9851C40.8082 0.666159 40.6329 0.700943 40.4694 0.768625C40.3058 0.836306 40.1572 0.935557 40.0321 1.0607C39.907 1.18585 39.8077 1.33443 39.74 1.49796C39.6723 1.66149 39.6376 1.83676 39.6377 2.01374V6.63367C39.638 6.95703 39.755 7.2694 39.9672 7.51341C40.1794 7.75741 40.4725 7.91666 40.7926 7.9619V14.5838C40.7977 16.6494 40.395 18.6958 39.6076 20.6054C38.8203 22.5151 37.6637 24.2506 36.2043 25.7125L36.0256 25.8926C34.3172 27.6039 32.9632 29.6353 32.041 31.8706C31.1189 34.106 30.6469 36.5013 30.6519 38.9193V85.9425C30.6537 87.5246 31.283 89.0414 32.4017 90.1601C33.5204 91.2788 35.0372 91.9081 36.6193 91.9099H58.0327C59.6148 91.9081 61.1316 91.2788 62.2503 90.1601C63.369 89.0414 63.9983 87.5246 64.0001 85.9425V39.4506C63.9989 36.8902 63.4658 34.3579 62.4348 32.0142C61.4037 29.6706 59.8971 27.5666 58.0104 25.8357ZM33.3469 47.6356H39.5399C39.7662 47.6355 39.9888 47.5785 40.1873 47.4698C40.3858 47.3611 40.5537 47.2041 40.6756 47.0134C41.3866 45.8937 42.3689 44.9716 43.5314 44.3327C44.6938 43.6939 45.9988 43.3589 47.3252 43.3589C48.6517 43.3589 49.9566 43.6939 51.1191 44.3327C52.2815 44.9716 53.2638 45.8937 53.9749 47.0134C54.0966 47.2041 54.2643 47.361 54.4627 47.4698C54.6611 47.5785 54.8836 47.6355 55.1098 47.6356H61.3052V75.5939H55.1098C54.8837 75.5938 54.6611 75.6506 54.4628 75.7592C54.2644 75.8678 54.0966 76.0247 53.9749 76.2152C53.2639 77.335 52.2817 78.2571 51.1193 78.896C49.9569 79.5348 48.652 79.8698 47.3256 79.8698C45.9992 79.8698 44.6943 79.5348 43.5319 78.896C42.3695 78.2571 41.3873 77.335 40.6764 76.2152C40.5544 76.0247 40.3864 75.8679 40.188 75.7593C39.9895 75.6507 39.7669 75.5938 39.5406 75.5939H33.3469V47.6356ZM42.3303 3.36122H51.1852V5.28619H42.3303V3.36122ZM37.9352 27.7907L38.1146 27.6105C39.8234 25.8988 41.1776 23.8667 42.0996 21.6306C43.0216 19.3946 43.4933 16.9986 43.4876 14.58V7.98115H50.0325V14.0487C50.0338 16.6093 50.5669 19.1417 51.5981 21.4855C52.6293 23.8293 54.1361 25.9334 56.023 27.6644C56.0515 27.6952 56.0815 27.7252 56.1131 27.7537C57.7472 29.2328 59.0535 31.0378 59.9477 33.0524C60.8419 35.0669 61.3043 37.2465 61.3052 39.4506V44.9406H55.8167C54.8336 43.6141 53.5534 42.5363 52.0787 41.7937C50.6041 41.0511 48.9759 40.6643 47.3249 40.6643C45.6738 40.6643 44.0456 41.0511 42.571 41.7937C41.0963 42.5363 39.8161 43.6141 38.833 44.9406H33.3469V38.9193C33.3418 36.8537 33.7445 34.8074 34.5319 32.8977C35.3192 30.988 36.4758 29.2525 37.9352 27.7907ZM58.0319 89.215H36.6193C35.7517 89.214 34.9199 88.8689 34.3065 88.2554C33.693 87.6419 33.3479 86.8101 33.3469 85.9425V78.2888H38.8338C39.8169 79.6152 41.097 80.6928 42.5716 81.4353C44.0462 82.1778 45.6743 82.5646 47.3252 82.5646C48.9762 82.5646 50.6042 82.1778 52.0788 81.4353C53.5534 80.6928 54.8336 79.6152 55.8167 78.2888H61.3052V85.9425C61.3041 86.8101 60.959 87.6419 60.3455 88.2554C59.7321 88.8689 58.9003 89.214 58.0327 89.215H58.0319Z" fill="#C4C4C4"/>
<path d="M52.7531 30.9375C53.0155 31.1737 53.3602 31.2975 53.713 31.2821C54.0658 31.2668 54.3984 31.1135 54.6394 30.8554C54.8804 30.5973 55.0104 30.2549 55.0015 29.9019C54.9926 29.5489 54.8455 29.2135 54.5918 28.9679C53.4756 27.9259 52.4797 26.7621 51.6227 25.4983C51.5236 25.3517 51.3965 25.2261 51.2488 25.1285C51.1011 25.031 50.9356 24.9636 50.7619 24.93C50.5881 24.8964 50.4094 24.8974 50.236 24.9329C50.0626 24.9684 49.8979 25.0377 49.7513 25.1368C49.6046 25.236 49.479 25.363 49.3815 25.5107C49.2839 25.6584 49.2165 25.8239 49.1829 25.9977C49.1493 26.1715 49.1503 26.3502 49.1858 26.5235C49.2213 26.6969 49.2906 26.8617 49.3897 27.0083C50.36 28.44 51.4882 29.758 52.7531 30.9375Z" fill="#C4C4C4"/>
<path d="M47.3221 69.1222C48.8069 69.1222 50.2584 68.6819 51.493 67.857C52.7276 67.0321 53.6898 65.8596 54.258 64.4878C54.8262 63.116 54.9749 61.6065 54.6852 60.1502C54.3955 58.6939 53.6805 57.3562 52.6306 56.3063C51.5807 55.2564 50.243 54.5414 48.7867 54.2517C47.3304 53.962 45.8209 54.1107 44.4491 54.6789C43.0773 55.2471 41.9048 56.2093 41.0799 57.4439C40.255 58.6785 39.8147 60.13 39.8147 61.6148C39.8169 63.6052 40.6086 65.5134 42.016 66.9209C43.4235 68.3283 45.3317 69.12 47.3221 69.1222ZM47.3221 56.8024C48.2739 56.8024 49.2043 57.0846 49.9957 57.6134C50.7871 58.1422 51.404 58.8938 51.7682 59.7732C52.1324 60.6525 52.2277 61.6202 52.042 62.5537C51.8564 63.4872 51.398 64.3447 50.725 65.0177C50.052 65.6907 49.1945 66.1491 48.2609 66.3348C47.3274 66.5205 46.3598 66.4252 45.4805 66.0609C44.6011 65.6967 43.8495 65.0799 43.3207 64.2885C42.7919 63.4971 42.5097 62.5666 42.5097 61.6148C42.5111 60.3389 43.0186 59.1157 43.9208 58.2135C44.823 57.3113 46.0462 56.8038 47.3221 56.8024Z" fill="#C4C4C4"/>
</svg>
