<svg width="25" height="19" viewBox="0 0 25 19" fill="none" xmlns="http://www.w3.org/2000/svg">
<path fill-rule="evenodd" clip-rule="evenodd" d="M0 9.04087C0 8.77449 0.0940626 8.51901 0.261495 8.33065C0.428928 8.14229 0.656015 8.03647 0.8928 8.03647H21.9504L16.3311 1.71678C16.1635 1.52818 16.0693 1.27239 16.0693 1.00567C16.0693 0.738949 16.1635 0.483153 16.3311 0.294553C16.4987 0.105954 16.7261 6.28414e-09 16.9632 0C17.2003 -6.28414e-09 17.4277 0.105954 17.5953 0.294553L24.7377 8.32975C24.8209 8.42305 24.8868 8.53389 24.9318 8.65592C24.9768 8.77794 25 8.90876 25 9.04087C25 9.17298 24.9768 9.3038 24.9318 9.42582C24.8868 9.54785 24.8209 9.65868 24.7377 9.75198L17.5953 17.7872C17.4277 17.9758 17.2003 18.0817 16.9632 18.0817C16.7261 18.0817 16.4987 17.9758 16.3311 17.7872C16.1635 17.5986 16.0693 17.3428 16.0693 17.0761C16.0693 16.8094 16.1635 16.5536 16.3311 16.365L21.9504 10.0453H0.8928C0.656015 10.0453 0.428928 9.93945 0.261495 9.75109C0.0940626 9.56273 0 9.30725 0 9.04087Z" fill="#1E1D1D"/>
</svg>
