<svg width="76" height="76" viewBox="0 0 76 76" fill="none" xmlns="http://www.w3.org/2000/svg">
<path d="M37.9999 0.837402C23.8899 0.837402 12.4106 12.414 12.4106 26.6437C12.4104 28.216 12.5525 29.785 12.835 31.3317C12.8359 31.3435 12.8359 31.3553 12.8374 31.3671C12.8722 31.6629 12.9326 31.9551 13.0179 32.2404C13.705 35.361 14.9659 38.3267 16.7366 40.9866L16.7272 40.9926L30.7385 62.9613C30.5273 62.9925 30.3344 63.0985 30.1948 63.26C30.0553 63.4215 29.9783 63.6278 29.9781 63.8413V71.81C29.9791 72.6988 30.3326 73.5509 30.9611 74.1793C31.5896 74.8078 32.4417 75.1613 33.3305 75.1623H42.6684C43.5572 75.1613 44.4094 74.8078 45.0378 74.1793C45.6663 73.5509 46.0199 72.6988 46.0209 71.81V63.8411C46.0209 63.6058 45.9278 63.3801 45.7619 63.2132C45.5961 63.0464 45.3709 62.9519 45.1356 62.9505L59.4937 40.654L59.4842 40.6479C62.1711 36.4721 63.5964 31.6099 63.5892 26.6443C63.5892 12.414 52.1098 0.837402 37.9999 0.837402ZM45.9599 4.00135C49.7983 9.46385 52.2324 15.1916 53.1934 21.0288C53.8724 25.1709 53.8229 29.3997 53.047 33.5248C52.494 35.4208 50.6539 36.9004 48.8506 36.8244C48.291 36.7991 47.742 36.6631 47.2353 36.4242C46.7286 36.1853 46.2744 35.8484 45.8987 35.4328C45.2843 34.7707 44.9401 33.9025 44.9339 32.9992C44.9535 32.8344 44.9663 32.6676 44.9709 32.4984C44.9709 32.4712 44.9709 32.4443 44.9689 32.4176C45.3368 27.9175 45.2994 23.3934 44.8572 18.9C44.2566 13.0513 42.8984 7.64044 40.8202 2.78787C42.5737 2.99754 44.2978 3.40461 45.9599 4.00135ZM40.4833 62.9505H35.5166C35.249 61.0138 34.7476 59.1167 34.0234 57.3007L41.9751 57.3041C41.2517 59.1191 40.7507 61.015 40.4833 62.9505ZM40.8329 64.7317V66.7257H38.7144V64.7317H40.8329ZM36.9331 64.7317V66.7257H34.9718V64.7317H36.9331ZM39.76 50.6029C39.1787 50.6459 38.592 50.6678 37.9999 50.6686C37.4727 50.6686 36.95 50.6493 36.4312 50.6152C35.1105 45.9322 34.0968 41.168 33.3966 36.353C34.5554 37.382 36.0341 37.9792 37.5825 38.0437L37.8668 38.0617C37.8769 38.0624 37.887 38.0629 37.8965 38.0632C37.9841 38.0656 38.0716 38.0669 38.1589 38.067C39.8906 38.067 41.5106 37.5653 42.7385 36.6622C42.1384 41.3844 41.142 46.0477 39.76 50.6029ZM40.6669 52.3099C40.2764 53.3472 39.7732 54.695 39.4806 55.5216H38.8868L38.8946 52.4325C39.4905 52.4118 40.0813 52.371 40.6669 52.31V52.3099ZM37.1132 52.4325L37.1054 55.52H36.5188C36.2263 54.6932 35.7233 53.3463 35.3331 52.3096C35.9206 52.3716 36.514 52.4127 37.1132 52.4326V52.4325ZM34.5284 50.4123C32.8592 50.1652 31.2215 49.7385 29.6439 49.1397C29.5152 48.9564 29.4323 48.8428 29.4079 48.8103C29.4026 48.8031 29.3968 48.7955 29.3911 48.7885C29.3509 48.7373 25.424 43.6805 23.4537 35.8125C24.4574 36.5743 25.6777 36.9968 26.9376 37.0186C27.0078 37.0186 27.0783 37.0171 27.1486 37.0141C28.7699 36.9571 30.3034 36.2632 31.4166 35.083C32.0892 40.2601 33.1291 45.3828 34.5284 50.4124V50.4123ZM33.3178 52.0154C33.7482 53.1514 34.2695 54.5424 34.6258 55.5197H33.2741C32.6483 54.1478 31.9472 52.8114 31.174 51.5168C31.877 51.7127 32.5916 51.8789 33.3178 52.0154ZM41.373 55.5225C41.7293 54.5451 42.2513 53.1526 42.6821 52.0154C43.4079 51.8795 44.1224 51.7131 44.8258 51.5162C44.0519 52.8121 43.3502 54.1498 42.7238 55.5231L41.373 55.5225ZM41.695 50.3789C43.0149 45.8665 43.968 41.2549 44.545 36.589C44.5558 36.6013 44.5659 36.614 44.5769 36.6261C45.1117 37.217 45.7583 37.6961 46.4793 38.0356C47.2003 38.3751 47.9815 38.5683 48.7777 38.6041C48.8455 38.6067 48.9129 38.6082 48.9806 38.6082C50.0702 38.5929 51.1319 38.2621 52.0374 37.6558C49.9699 44.462 46.6457 48.7415 46.6093 48.7881C46.6034 48.7955 46.5977 48.8029 46.5921 48.8105C46.5677 48.8434 46.4848 48.9565 46.3561 49.1399C44.8492 49.7123 43.2872 50.1277 41.695 50.3795V50.3789ZM38.4614 2.62459C38.576 2.62687 38.6904 2.62998 38.8045 2.63394C43.5292 13.0657 43.8568 24.5433 43.1378 32.9597C43.0123 33.7038 42.6421 34.3848 42.0858 34.8948C41.1048 35.822 39.6029 36.3279 37.9637 36.2834L37.6805 36.2654C37.6704 36.2654 37.6602 36.2644 37.6501 36.2641C35.4087 36.1988 33.3884 34.412 32.9149 32.286C32.3174 25.9774 32.4187 19.4123 33.841 13.3137C35.3291 6.93343 37.7063 3.57207 38.4614 2.62459ZM36.2211 2.6856C35.0781 4.42454 33.3515 7.66686 32.1478 12.7329C31.0418 17.388 30.604 22.6464 30.8444 28.362C30.8856 29.3406 30.9476 30.3335 31.0302 31.3407C31.0302 31.4446 31.0327 31.5481 31.0376 31.6512C31.0092 32.467 30.6893 33.2456 30.1359 33.8456C29.7425 34.2678 29.2695 34.6079 28.744 34.8463C28.2186 35.0847 27.6511 35.2167 27.0743 35.2347C24.9049 35.3217 22.7294 33.3105 22.5926 31.0903C22.5889 31.0293 22.579 30.9688 22.5629 30.9098C22.1872 27.6167 22.27 24.2874 22.8087 21.017C23.7712 15.1834 26.2043 9.46058 30.0403 4.00135C32.0317 3.28597 34.1109 2.84337 36.2211 2.6856ZM14.7459 31.8C13.6237 26.6525 14.2162 21.2793 16.4329 16.5C18.6496 11.7207 22.3689 7.79765 27.0233 5.32942C23.9156 10.3125 21.9066 15.4963 21.0427 20.777C20.4982 24.1109 20.4053 27.5029 20.7666 30.8616C20.7677 30.881 20.7681 30.9006 20.7705 30.9209C20.8725 31.7912 20.6575 32.6131 20.1809 33.1758C19.7154 33.7251 19.031 34.0257 18.1464 34.0689C16.2767 34.1581 15.1432 33.0464 14.7459 31.8ZM15.847 35.4466C16.5068 35.7216 17.2154 35.8604 17.9301 35.8547C18.0299 35.8547 18.1309 35.8522 18.2331 35.8473C19.4981 35.7857 20.5649 35.3361 21.3396 34.5446C21.4253 34.9636 21.5154 35.3825 21.6151 35.8011C22.6113 39.985 24.2543 43.9878 26.4847 47.6651C21.6352 44.9418 17.8768 40.6249 15.847 35.4466ZM23.0287 47.5591C24.7144 48.7909 26.545 49.8111 28.4794 50.5966C29.7428 52.4831 32.9936 57.7483 33.7193 62.9508H32.8456L23.0287 47.5591ZM33.1906 64.7317V66.7257H31.7601V64.7317H33.1906ZM44.2404 71.8098C44.2398 72.2263 44.074 72.6256 43.7795 72.9201C43.485 73.2146 43.0857 73.3803 42.6692 73.3809H33.331C32.9145 73.3803 32.5152 73.2146 32.2207 72.9201C31.9261 72.6256 31.7604 72.2263 31.7598 71.8098V68.507H44.2401L44.2404 71.8098ZM44.2404 66.7257H42.6141V64.7317H44.2401L44.2404 66.7257ZM43.0171 62.9505H42.2806C43.0057 57.748 46.2565 52.4827 47.5204 50.5963C49.4236 49.8236 51.2266 48.8238 52.89 47.6187L43.0171 62.9505ZM49.5145 47.6651C51.6993 44.0617 53.3204 40.1456 54.3217 36.0523C55.0774 36.8715 56.1489 37.3363 57.4337 37.3971C57.5227 37.4014 57.6114 37.4035 57.6998 37.4035C58.2899 37.4067 58.8759 37.3047 59.4303 37.1023C57.2869 41.5569 53.8254 45.2446 49.5151 47.6651H49.5145ZM61.0671 32.59C60.745 33.7361 59.8836 35.6225 57.704 35.6224C57.6436 35.6224 57.5818 35.6209 57.5193 35.6179C56.6662 35.5776 56.0113 35.2954 55.573 34.7793C55.118 34.2437 54.9225 33.473 55.0224 32.6075C55.0272 32.5635 55.0287 32.5193 55.0269 32.4751C55.6119 28.6 55.5893 24.6574 54.9599 20.7893C54.0971 15.505 52.0872 10.3163 48.9779 5.32942C53.7495 7.8608 57.5346 11.9188 59.7282 16.8548C61.9218 21.7907 62.3973 27.3196 61.0785 32.5576C61.0738 32.5684 61.0695 32.5788 61.0671 32.59Z" fill="#C4C4C4"/>
</svg>
