<svg width="80" height="80" viewBox="0 0 80 80" fill="none" xmlns="http://www.w3.org/2000/svg">
<g clip-path="url(#clip0_609_23)">
<path d="M61.1558 17.3382H62.44V18.6224C62.44 19.2696 62.9645 19.7943 63.6119 19.7943C64.2592 19.7943 64.7837 19.2696 64.7837 18.6224V17.3382H66.068C66.7153 17.3382 67.2398 16.8135 67.2398 16.1663C67.2398 15.5191 66.7153 14.9944 66.068 14.9944H64.7837V13.7102C64.7837 13.063 64.2592 12.5383 63.6119 12.5383C62.9645 12.5383 62.44 13.063 62.44 13.7102V14.9944H61.1558C60.5084 14.9944 59.9839 15.5191 59.9839 16.1663C59.9839 16.8135 60.5086 17.3382 61.1558 17.3382Z" fill="#C4C4C4"/>
<path d="M8.47937 35.9568H9.76359V37.241C9.76359 37.8882 10.2881 38.4129 10.9355 38.4129C11.5828 38.4129 12.1073 37.8882 12.1073 37.241V35.9568H13.3916C14.0389 35.9568 14.5634 35.4321 14.5634 34.785C14.5634 34.1378 14.0389 33.6131 13.3916 33.6131H12.1073V32.3289C12.1073 31.6817 11.5828 31.157 10.9355 31.157C10.2881 31.157 9.76359 31.6817 9.76359 32.3289V33.6131H8.47937C7.83203 33.6131 7.3075 34.1378 7.3075 34.785C7.3075 35.4321 7.83203 35.9568 8.47937 35.9568V35.9568Z" fill="#C4C4C4"/>
<path d="M68.7216 57.0062H65.0523V43.8228C65.0523 42.0448 63.6058 40.5983 61.8278 40.5983H58.9281V29.6197C58.9281 27.8417 57.4816 26.3952 55.7036 26.3952H53.0631V15.9733C53.0631 14.1953 51.6166 12.7488 49.8386 12.7488H45.2223C45.5841 12.4589 45.9414 12.1486 46.2847 11.8158C48.2312 9.92813 49.2184 7.86172 49.2189 5.67406C49.2197 2.52187 46.6998 -0.000156243 43.5462 7.25985e-09C42.1458 7.25985e-09 40.9026 0.481406 39.9817 1.36781C39.0084 0.444531 37.7209 -0.0360937 36.2892 0.00218751C33.2364 0.0848438 30.7655 2.645 30.7812 5.70906C30.7923 7.88812 31.7831 9.94625 33.7261 11.8263C34.0661 12.1552 34.4198 12.4619 34.7776 12.7488H30.1614C28.3834 12.7488 26.9369 14.1953 26.9369 15.9733V26.3952H24.2964C22.5184 26.3952 21.0719 27.8417 21.0719 29.6197V40.5983H18.1722C16.3942 40.5983 14.9477 42.0448 14.9477 43.8228V57.0062H11.2784C9.08874 57.0062 7.3075 58.7877 7.3075 60.9772C7.3075 63.1667 9.08874 64.9481 11.2784 64.9481H36.2644V65.9266C36.2644 68.9603 33.9872 71.4666 30.9673 71.7566L26.4094 72.1942C23.4752 72.4759 21.2625 74.9114 21.2625 77.8591C21.2625 79.0397 22.2228 80.0002 23.4034 80.0002H56.5969C57.7775 80.0002 58.7378 79.0397 58.7378 77.8591C58.7378 74.9114 56.5251 72.4759 53.5909 72.1942L49.0328 71.7566C46.0131 71.4667 43.7359 68.9603 43.7359 65.9266V64.9481H68.7217C70.9114 64.9481 72.6927 63.1667 72.6927 60.9772C72.6927 58.7877 70.9112 57.0062 68.7216 57.0062V57.0062ZM33.125 5.69703C33.1156 3.89719 34.5636 2.39359 36.3527 2.34516C37.2895 2.32 38.0461 2.64594 38.598 3.31453C39.3291 4.19984 40.6797 4.18969 41.3837 3.30234C41.8883 2.66641 42.6159 2.34391 43.5462 2.34375C45.403 2.34375 46.8756 3.81594 46.8753 5.67359C46.8745 9.19828 42.8934 11.7181 40.9234 12.7488H39.0766C37.1125 11.7211 33.1428 9.20969 33.125 5.69703ZM30.1614 15.0925H49.8387C50.3244 15.0925 50.7195 15.4877 50.7195 15.9733V21.722C49.4722 21.2537 48.6878 19.7181 45.9827 19.7181C42.7078 19.7181 42.4073 21.9016 40.1378 21.9016C37.8744 21.9016 37.5627 19.7181 34.2933 19.7181C31.7916 19.7181 30.6103 21.0963 29.2809 21.71V15.9733C29.2806 15.4877 29.6758 15.0925 30.1614 15.0925V15.0925ZM24.2964 28.7389H31.953C32.6003 28.7389 33.1248 28.2142 33.1248 27.567C33.1248 26.9198 32.6003 26.3952 31.953 26.3952H29.2806V24.1941C31.4769 23.6139 32.2662 22.0619 34.293 22.0619C36.5581 22.0619 36.8637 24.2453 40.1375 24.2453C43.412 24.2453 43.713 22.0619 45.9823 22.0619C48.0666 22.0619 48.3017 23.6897 50.7192 24.1452V26.3952H37.427C36.7797 26.3952 36.2552 26.9198 36.2552 27.567C36.2552 28.2142 36.7797 28.7389 37.427 28.7389H55.7036C56.1892 28.7389 56.5844 29.1341 56.5844 29.6197V33.7162C54.2425 34.2002 53.843 35.7787 51.7591 35.7787C49.4955 35.7787 49.1837 33.5953 45.9141 33.5953C42.6395 33.5953 42.3387 35.7787 40.0694 35.7787C37.8042 35.7787 37.4986 33.5953 34.2248 33.5953C30.9503 33.5953 30.6503 35.7787 28.3809 35.7787C26.2927 35.7787 25.7492 34.2284 23.4158 33.7281V29.6197C23.4156 29.1341 23.8108 28.7389 24.2964 28.7389V28.7389ZM23.4156 36.1661C24.7436 36.6811 25.7683 38.1225 28.3808 38.1225C31.6551 38.1225 31.9555 35.9391 34.2247 35.9391C36.4881 35.9391 36.7998 38.1225 40.0692 38.1225C43.3437 38.1225 43.6445 35.9391 45.9139 35.9391C48.1792 35.9391 48.4848 38.1225 51.7589 38.1225C54.3969 38.1225 55.3347 36.6433 56.5842 36.1508V40.5984H23.4156V36.1661ZM18.1723 42.942H61.828C62.3136 42.942 62.7087 43.3372 62.7087 43.8228V49.2333C62.3827 49.0783 62.0986 48.8666 61.7692 48.6208C60.9616 48.0183 59.9564 47.2683 58.0675 47.2683C54.7191 47.2683 54.4125 49.5094 52.0683 49.5094C49.6761 49.5094 49.4605 47.2683 46.0687 47.2683C42.7203 47.2683 42.4137 49.5094 40.0695 49.5094C37.6764 49.5094 37.4608 47.2683 34.0703 47.2683C30.7222 47.2683 30.4158 49.5094 28.0719 49.5094C25.6787 49.5094 25.4633 47.2683 22.0728 47.2683C19.3572 47.2683 18.512 48.797 17.2914 49.2953V43.823C17.2916 43.3372 17.6866 42.942 18.1723 42.942V42.942ZM48.8087 74.0895L53.3669 74.5272C55.0248 74.6864 56.2912 76.0147 56.3881 77.6562H23.612C23.7089 76.0147 24.9753 74.6864 26.6333 74.5272L31.1912 74.0895C35.4197 73.6834 38.6081 70.1742 38.6081 65.9266V64.9481H41.392V65.9266C41.392 70.1742 44.5805 73.6834 48.8087 74.0895V74.0895ZM68.7216 62.6044H11.2784C10.3812 62.6044 9.65125 61.8744 9.65125 60.9772C9.65125 60.08 10.3812 59.35 11.2784 59.35H20.8162C21.4636 59.35 21.9881 58.8253 21.9881 58.1781C21.9881 57.5309 21.4636 57.0062 20.8162 57.0062H17.2916V51.733C19.6731 51.2427 19.9475 49.612 22.073 49.612C24.4603 49.612 24.687 51.8531 28.072 51.8531C31.4183 51.8531 31.7289 49.612 34.0705 49.612C36.4636 49.612 36.6792 51.8531 40.0697 51.8531C43.4181 51.8531 43.7247 49.612 46.0689 49.612C48.4622 49.612 48.678 51.8531 52.0684 51.8531C55.4169 51.8531 55.7234 49.612 58.0676 49.612C59.1787 49.612 59.6777 49.9842 60.368 50.4992C60.953 50.9358 61.6475 51.4525 62.7089 51.702V57.0062H26.372C25.7247 57.0062 25.2002 57.5309 25.2002 58.1781C25.2002 58.8253 25.7247 59.35 26.372 59.35H68.7216C69.6187 59.35 70.3487 60.08 70.3487 60.9772C70.3487 61.8744 69.6189 62.6044 68.7216 62.6044V62.6044Z" fill="#C4C4C4"/>
</g>
<defs>
<clipPath id="clip0_609_23">
<rect width="80" height="80" fill="white"/>
</clipPath>
</defs>
</svg>
