<svg width="70" height="70" viewBox="0 0 70 70" fill="none" xmlns="http://www.w3.org/2000/svg">
<path d="M15.7792 39.4852C13.5429 39.1566 11.2912 38.9429 9.033 38.845C8.04279 38.7838 6.73758 39.3 6.51154 41.7967C6.46936 42.4245 6.52995 43.055 6.69091 43.6633C6.8409 44.2986 7.17906 44.8738 7.66118 45.3137C8.1433 45.7537 8.74694 46.038 9.39321 46.1294L19.0459 47.4886C19.0941 47.4965 19.1429 47.5004 19.1917 47.5002C19.3803 47.5004 19.5657 47.4518 19.7299 47.3592C19.8942 47.2666 20.0317 47.1331 20.1291 46.9717C20.2265 46.8103 20.2806 46.6264 20.286 46.438C20.2915 46.2495 20.2481 46.0628 20.1601 45.8961C16.9853 39.8571 16.1715 39.6063 15.7792 39.4852ZM9.698 43.9638C9.48595 43.9313 9.28852 43.836 9.13123 43.6902C8.97393 43.5443 8.86402 43.3546 8.8157 43.1456C8.71396 42.771 8.67164 42.3828 8.69029 41.995C8.69375 41.663 8.76886 41.3357 8.9105 41.0354H8.94112C11.4349 41.1915 14.2392 41.4175 14.999 41.5517C15.8201 42.6504 16.5544 43.8113 17.1953 45.024L9.698 43.9638Z" fill="#C4C4C4"/>
<path d="M60.6099 38.8448C58.3517 38.9427 56.1 39.1564 53.8637 39.485C53.4714 39.6061 52.6562 39.8569 49.477 45.9017C49.389 46.0685 49.3456 46.2551 49.351 46.4436C49.3565 46.6321 49.4105 46.8159 49.508 46.9774C49.6054 47.1388 49.7429 47.2723 49.9071 47.3649C50.0714 47.4575 50.2568 47.506 50.4453 47.5059C50.4942 47.5061 50.543 47.5022 50.5912 47.4942L60.2439 46.135C60.8901 46.0436 61.4938 45.7594 61.9759 45.3194C62.458 44.8794 62.7962 44.3042 62.9462 43.669C63.1066 43.0606 63.1672 42.4302 63.1255 41.8023C62.9039 39.2998 61.5914 38.785 60.6099 38.8448ZM60.8272 43.1454C60.7789 43.3544 60.669 43.5441 60.5117 43.69C60.3544 43.8358 60.157 43.9311 59.9449 43.9636L52.4476 45.0194C53.0889 43.8073 53.8227 42.6464 54.6424 41.5471C55.4153 41.4115 58.2226 41.1854 60.7149 41.0309C60.8739 41.3271 60.9557 41.6586 60.9526 41.9948C60.9713 42.3826 60.929 42.7708 60.8272 43.1454Z" fill="#C4C4C4"/>
<path d="M49.9625 40.5031C49.8523 40.3457 49.7027 40.22 49.5287 40.1387C49.3546 40.0573 49.1622 40.023 48.9708 40.0394C48.8702 40.0481 38.8237 40.9144 34.825 40.9144C30.8262 40.9144 20.7783 40.0394 20.6791 40.0394C20.4876 40.0225 20.2951 40.0565 20.1209 40.1379C19.9467 40.2192 19.7971 40.3451 19.6872 40.5029C19.5772 40.6606 19.5109 40.8445 19.4948 41.0361C19.4787 41.2277 19.5135 41.4201 19.5956 41.594L22.4758 47.7058C22.56 47.8835 22.6904 48.0352 22.8533 48.1453C23.0162 48.2553 23.2056 48.3196 23.4019 48.3315L34.8191 48.9848L46.2539 48.3315C46.4502 48.3199 46.6398 48.2557 46.8028 48.1457C46.9657 48.0356 47.096 47.8836 47.18 47.7058L50.0602 41.594C50.1417 41.4197 50.1755 41.227 50.1584 41.0354C50.1412 40.8438 50.0736 40.6601 49.9625 40.5031ZM45.4737 46.1906L34.8221 46.806L24.1762 46.1906L22.381 42.3815C25.5296 42.6381 31.7712 43.1106 34.8264 43.1106C37.8816 43.1106 44.1248 42.6381 47.2748 42.3815L45.4737 46.1906Z" fill="#C4C4C4"/>
<path d="M41.109 7.27641L42.7219 7.88016C43.2493 8.07731 43.7282 8.38527 44.1265 8.78325C44.5247 9.18124 44.833 9.66 45.0304 10.1872L45.6342 11.806C45.713 12.0129 45.8528 12.1911 46.0351 12.3167C46.2174 12.4424 46.4336 12.5097 46.655 12.5097C46.8765 12.5097 47.0927 12.4424 47.275 12.3167C47.4573 12.1911 47.5971 12.0129 47.6759 11.806L48.2796 10.1931C48.4774 9.66622 48.7855 9.18776 49.1835 8.78984C49.5814 8.39192 50.0598 8.08374 50.5867 7.886L52.1996 7.28225C52.4066 7.20347 52.5847 7.06366 52.7103 6.88135C52.836 6.69904 52.9033 6.48284 52.9033 6.26141C52.9033 6.03998 52.836 5.82378 52.7103 5.64147C52.5847 5.45916 52.4066 5.31935 52.1996 5.24058L50.5867 4.63683C50.0595 4.43935 49.5807 4.13109 49.1827 3.73285C48.7847 3.33461 48.4768 2.85566 48.2796 2.32829L47.6817 0.703704C47.6029 0.496761 47.4631 0.318646 47.2808 0.192972C47.0985 0.0672978 46.8823 0 46.6609 0C46.4394 0 46.2232 0.0672978 46.0409 0.192972C45.8586 0.318646 45.7188 0.496761 45.64 0.703704L45.0304 2.31662C44.8333 2.84399 44.5253 3.32295 44.1274 3.72118C43.7294 4.11942 43.2506 4.42768 42.7234 4.62516L41.1104 5.22891C40.9035 5.30769 40.7254 5.4475 40.5997 5.62981C40.474 5.81212 40.4067 6.02832 40.4067 6.24975C40.4067 6.47118 40.474 6.68738 40.5997 6.86969C40.7254 7.052 40.9035 7.19181 41.1104 7.27058L41.109 7.27641ZM46.6579 3.97912C47.199 4.92607 47.9834 5.71105 48.93 6.25266C47.9831 6.79388 47.1986 7.57895 46.6579 8.52621C46.1161 7.57942 45.3312 6.79453 44.3844 6.25266C45.3312 5.7108 46.1161 4.92591 46.6579 3.97912Z" fill="#C4C4C4"/>
<path d="M53.4056 14.0649L54.6277 14.5228C54.9919 14.6595 55.3226 14.8726 55.5975 15.1478C55.8725 15.423 56.0853 15.7539 56.2216 16.1182L56.6796 17.3403C56.7576 17.549 56.8975 17.7289 57.0806 17.8559C57.2637 17.9829 57.4812 18.051 57.704 18.051C57.9269 18.051 58.1444 17.9829 58.3275 17.8559C58.5106 17.7289 58.6505 17.549 58.7285 17.3403L59.185 16.1182C59.3216 15.7538 59.5347 15.4228 59.8098 15.1477C60.085 14.8725 60.416 14.6594 60.7804 14.5228L62.0025 14.0649C62.2088 13.9855 62.3863 13.8455 62.5114 13.6632C62.6366 13.481 62.7036 13.2651 62.7036 13.044C62.7036 12.823 62.6366 12.6071 62.5114 12.4248C62.3863 12.2426 62.2088 12.1026 62.0025 12.0232L60.7804 11.5594C60.4162 11.4238 60.0855 11.2114 59.8107 10.9366C59.536 10.6618 59.3235 10.3311 59.1879 9.96695L58.7285 8.74341C58.6505 8.53469 58.5106 8.35479 58.3275 8.22778C58.1444 8.10077 57.9269 8.03271 57.704 8.03271C57.4812 8.03271 57.2637 8.10077 57.0806 8.22778C56.8975 8.35479 56.7576 8.53469 56.6796 8.74341L56.2216 9.96695C56.0853 10.3311 55.8724 10.6618 55.5975 10.9367C55.3225 11.2117 54.9918 11.4245 54.6277 11.5609L53.4041 12.0188C53.1972 12.0976 53.0191 12.2374 52.8934 12.4197C52.7677 12.602 52.7004 12.8182 52.7004 13.0397C52.7004 13.2611 52.7677 13.4773 52.8934 13.6596C53.0191 13.8419 53.1972 13.9817 53.4041 14.0605L53.4056 14.0649ZM57.7033 11.8059C58.0362 12.286 58.4526 12.7024 58.9327 13.0353C58.4536 13.3688 58.0374 13.7845 57.7033 14.2632C57.3702 13.7842 56.9544 13.3684 56.4754 13.0353C56.9551 12.7024 57.371 12.286 57.7033 11.8059Z" fill="#C4C4C4"/>
<path d="M60.2379 7.27631L61.46 7.73422C61.824 7.87045 62.1546 8.08306 62.4295 8.35775C62.7045 8.63245 62.9174 8.96285 63.0539 9.32672L63.5118 10.5488C63.5899 10.7575 63.7298 10.9374 63.9129 11.0644C64.096 11.1914 64.3135 11.2595 64.5363 11.2595C64.7591 11.2595 64.9767 11.1914 65.1598 11.0644C65.3428 10.9374 65.4828 10.7575 65.5608 10.5488L66.0187 9.32672C66.1548 8.96263 66.3673 8.63195 66.642 8.35698C66.9168 8.08201 67.2473 7.86915 67.6112 7.73276L68.8348 7.27485C69.0417 7.19607 69.2198 7.05626 69.3455 6.87395C69.4712 6.69164 69.5385 6.47544 69.5385 6.25402C69.5385 6.03259 69.4712 5.81639 69.3455 5.63408C69.2198 5.45177 69.0417 5.31196 68.8348 5.23318L67.6127 4.77381C67.2488 4.63766 66.9184 4.42506 66.6436 4.15034C66.3689 3.87562 66.1563 3.54518 66.0202 3.18131L65.5623 1.95776C65.4842 1.74905 65.3443 1.56915 65.1612 1.44214C64.9781 1.31513 64.7606 1.24707 64.5378 1.24707C64.315 1.24707 64.0974 1.31513 63.9144 1.44214C63.7313 1.56915 63.5913 1.74905 63.5133 1.95776L63.0554 3.18131C62.919 3.54528 62.7061 3.87577 62.4312 4.15048C62.1562 4.4252 61.8255 4.63775 61.4614 4.77381L60.2379 5.23318C60.0309 5.31196 59.8528 5.45177 59.7272 5.63408C59.6015 5.81639 59.5342 6.03259 59.5342 6.25402C59.5342 6.47544 59.6015 6.69164 59.7272 6.87395C59.8528 7.05626 60.0309 7.19607 60.2379 7.27485V7.27631ZM64.5356 5.02464C64.8695 5.50299 65.2852 5.91867 65.7635 6.25256C65.2852 6.58644 64.8695 7.00212 64.5356 7.48047C64.2024 7.00151 63.7866 6.58571 63.3077 6.25256C63.7863 5.91902 64.2021 5.50329 64.5356 5.02464Z" fill="#C4C4C4"/>
<path d="M66.6299 61.7847C66.3398 61.7847 66.0616 61.8999 65.8565 62.105C65.6514 62.3102 65.5361 62.5884 65.5361 62.8784V67.4197C65.5361 67.5222 65.4954 67.6205 65.4229 67.693C65.3505 67.7654 65.2522 67.8061 65.1497 67.8061H59.468C59.3655 67.8061 59.2672 67.7654 59.1947 67.693C59.1223 67.6205 59.0815 67.5222 59.0815 67.4197V65.5472C59.0815 65.2571 58.9663 64.9789 58.7612 64.7738C58.5561 64.5687 58.2779 64.4534 57.9878 64.4534C57.6977 64.4534 57.4195 64.5687 57.2144 64.7738C57.0093 64.9789 56.894 65.2571 56.894 65.5472V67.4197C56.8948 68.1021 57.1663 68.7564 57.6488 69.2389C58.1313 69.7214 58.7856 69.9929 59.468 69.9936H65.1555C65.8379 69.9929 66.4922 69.7214 66.9747 69.2389C67.4573 68.7564 67.7287 68.1021 67.7295 67.4197V62.8784C67.7295 62.7343 67.701 62.5916 67.6457 62.4585C67.5903 62.3254 67.5092 62.2046 67.4071 62.103C67.3049 62.0013 67.1836 61.9209 67.0502 61.8663C66.9169 61.8116 66.774 61.7839 66.6299 61.7847Z" fill="#C4C4C4"/>
<path d="M11.5791 64.452C11.289 64.452 11.0108 64.5672 10.8057 64.7723C10.6006 64.9774 10.4853 65.2556 10.4853 65.5457V67.4182C10.4853 67.5205 10.4448 67.6185 10.3727 67.691C10.3005 67.7634 10.2026 67.8043 10.1003 67.8047H4.41283C4.31059 67.8043 4.21267 67.7634 4.14051 67.691C4.06835 67.6185 4.02783 67.5205 4.02783 67.4182V62.8784C4.02783 62.5883 3.9126 62.3101 3.70748 62.105C3.50236 61.8999 3.22416 61.7847 2.93408 61.7847C2.644 61.7847 2.3658 61.8999 2.16068 62.105C1.95557 62.3101 1.84033 62.5883 1.84033 62.8784V67.4197C1.84072 68.1015 2.11142 68.7553 2.59311 69.2378C3.07479 69.7203 3.72814 69.9921 4.40992 69.9936H10.0974C10.7797 69.9929 11.4338 69.7214 11.9161 69.2388C12.3984 68.7562 12.6695 68.102 12.6699 67.4197V65.5472C12.6703 65.2573 12.5556 64.9792 12.3511 64.7739C12.1466 64.5685 11.8689 64.4527 11.5791 64.452Z" fill="#C4C4C4"/>
<path d="M67.531 27.4905L63.8852 26.8605C63.3525 26.7622 62.8023 26.8483 62.3251 27.1047C61.8479 27.361 61.4723 27.7723 61.2602 28.2707L61.0633 28.7082L58.4792 22.6124C57.895 21.2146 56.9627 19.9898 55.7711 19.0544C54.5794 18.1191 53.1681 17.5044 51.6717 17.269C46.0955 16.4225 40.4621 16.01 34.8221 16.0353C29.1821 16.0105 23.5486 16.4235 17.9725 17.2705C16.4762 17.5058 15.065 18.1202 13.8734 19.0553C12.6818 19.9903 11.7494 21.2149 11.165 22.6124L8.57208 28.714L8.38833 28.2853C8.17786 27.7847 7.80323 27.3708 7.32611 27.1115C6.84899 26.8523 6.29782 26.7632 5.76333 26.859L2.1175 27.4905C1.52584 27.5886 0.98823 27.8936 0.600439 28.3511C0.212648 28.8086 -0.000133963 29.3889 6.32762e-08 29.9886V30.7047C0.000546253 31.282 0.197491 31.8419 0.558462 32.2925C0.919433 32.743 1.42295 33.0574 1.98625 33.1838L5.44833 33.9655L3.91417 36.3061C2.58484 38.3286 1.87755 40.6963 1.87979 43.1165V55.5561C1.87979 60.2505 5.14938 63.2853 10.2127 63.2853H59.4315C64.4948 63.2853 67.7644 60.252 67.7644 55.5561V43.1107C67.7666 40.6905 67.0593 38.3227 65.73 36.3003L64.1958 33.9669L67.6462 33.1882C68.2112 33.0633 68.7167 32.7497 69.0796 32.299C69.4425 31.8484 69.6411 31.2876 69.6427 30.709V29.993C69.6444 29.3933 69.433 28.8124 69.0463 28.3541C68.6595 27.8958 68.1225 27.5897 67.531 27.4905ZM2.45729 31.043C2.38053 31.0257 2.31195 30.9828 2.26289 30.9213C2.21384 30.8597 2.18724 30.7833 2.1875 30.7047V29.9886C2.18631 29.906 2.21527 29.8258 2.26896 29.763C2.32264 29.7002 2.39737 29.6591 2.47917 29.6474L6.14104 29.0144C6.19241 29.0052 6.24538 29.0149 6.29016 29.0417C6.33494 29.0685 6.36848 29.1106 6.38458 29.1603L7.27854 31.1815L6.73313 32.0128L2.45729 31.043ZM65.5769 52.1582H6.83958C6.5495 52.1582 6.2713 52.2734 6.06619 52.4786C5.86107 52.6837 5.74583 52.9619 5.74583 53.252C5.74583 53.542 5.86107 53.8202 6.06619 54.0254C6.2713 54.2305 6.5495 54.3457 6.83958 54.3457H65.5769V55.5561C65.5769 59.024 63.28 61.0978 59.4315 61.0978H10.2127C6.36417 61.0978 4.06729 59.0255 4.06729 55.5561V43.1107C4.06576 41.1166 4.64828 39.1658 5.74292 37.499L9.19042 32.2403H56.9085C57.1986 32.2403 57.4768 32.125 57.6819 31.9199C57.8871 31.7148 58.0023 31.4366 58.0023 31.1465C58.0023 30.8564 57.8871 30.5782 57.6819 30.3731C57.4768 30.168 57.1986 30.0528 56.9085 30.0528H10.3848L13.179 23.4728C13.6187 22.4171 14.3218 21.4917 15.221 20.785C16.1201 20.0783 17.1855 19.6139 18.3152 19.4361C23.7777 18.604 29.2966 18.1984 34.8221 18.2228C40.3474 18.1969 45.8664 18.6011 51.329 19.4317C52.4592 19.6099 53.5248 20.075 54.424 20.7825C55.3233 21.49 56.026 22.4162 56.4652 23.4728L59.6619 31.008C59.6867 31.0683 59.7175 31.1259 59.7537 31.1801L63.9012 37.5049C64.9959 39.1716 65.5784 41.1225 65.5769 43.1165V52.1582ZM67.4552 30.7047C67.4552 30.7849 67.4274 30.8627 67.3767 30.9249C67.3259 30.987 67.2553 31.0298 67.1767 31.0459L62.9154 32.0084L62.37 31.1772L63.2698 29.1355C63.29 29.0913 63.3243 29.055 63.3673 29.0323C63.4103 29.0096 63.4596 29.0018 63.5075 29.0101L67.1621 29.643C67.2439 29.6547 67.3186 29.6958 67.3723 29.7586C67.426 29.8214 67.4549 29.9016 67.4538 29.9842L67.4552 30.7047Z" fill="#C4C4C4"/>
</svg>
