<svg width="75" height="75" viewBox="0 0 75 75" fill="none" xmlns="http://www.w3.org/2000/svg">
<g clip-path="url(#clip0_607_2)">
<path d="M73.9746 68.5184H69.1407V43.4626C69.2169 43.4079 69.2883 43.3467 69.3539 43.2797L74.045 38.3438C74.6707 37.6905 75.0155 36.8178 75.0052 35.9132C74.9949 35.0086 74.6304 34.1441 73.9899 33.5051C73.3198 32.8452 72.4155 32.4777 71.475 32.4833H71.3127C70.4934 32.4862 69.6872 32.6887 68.9637 33.0733C68.275 26.3723 65.4632 20.0667 60.9385 15.0763C56.4138 10.0859 50.4129 6.67184 43.8112 5.33209C44.1451 4.8074 44.3318 4.20259 44.3518 3.58098C44.3718 2.95937 44.2244 2.34381 43.9249 1.79873C43.6254 1.25366 43.1849 0.799115 42.6495 0.482679C42.1141 0.166243 41.5034 -0.00044754 40.8815 5.49138e-05H40.6647C39.5129 0.00409191 38.3969 0.400021 37.5 1.12271C36.6024 0.399394 35.4852 0.00342689 34.3325 5.49138e-05H34.1696C33.2291 -0.00516883 32.3248 0.362482 31.6547 1.02252C31.0966 1.57978 30.7457 2.31115 30.6605 3.09526C30.5752 3.87936 30.7606 4.66905 31.186 5.33326C24.5848 6.6732 18.5843 10.0872 14.06 15.0774C9.53558 20.0675 6.72396 26.3728 6.0352 33.0733C5.31176 32.6887 4.5055 32.4862 3.68618 32.4833H3.52505C2.58445 32.4776 1.68004 32.8454 1.0102 33.5057C0.369902 34.1446 0.00551624 35.009 -0.0047806 35.9135C-0.0150774 36.818 0.329535 37.6905 0.955126 38.3438L5.64731 43.2809C5.71274 43.3474 5.7837 43.4081 5.85942 43.4626V68.5184H1.02544C0.89076 68.5183 0.757388 68.5448 0.632947 68.5963C0.508506 68.6478 0.395437 68.7233 0.300206 68.8186C0.204974 68.9138 0.129447 69.0269 0.077944 69.1513C0.0264406 69.2757 -2.93226e-05 69.4091 4.77023e-05 69.5438V73.9729C-0.00026067 74.1077 0.0260385 74.2413 0.0774384 74.3659C0.128838 74.4906 0.204328 74.6038 0.299583 74.6993C0.394838 74.7947 0.507985 74.8704 0.63254 74.922C0.757096 74.9736 0.890612 75.0001 1.02544 75H73.9746C74.1093 75.0001 74.2427 74.9737 74.3671 74.9222C74.4916 74.8706 74.6047 74.7951 74.6999 74.6999C74.7951 74.6047 74.8706 74.4916 74.9221 74.3671C74.9736 74.2427 75.0001 74.1093 75 73.9747V69.5456C75.0003 69.4107 74.974 69.2772 74.9226 69.1525C74.8712 69.0279 74.7958 68.9146 74.7005 68.8192C74.6052 68.7238 74.4921 68.6481 74.3675 68.5965C74.243 68.5449 74.1095 68.5183 73.9746 68.5184V68.5184ZM59.1985 53.6895C58.9653 53.5498 58.6863 53.5083 58.4226 53.5742C58.1589 53.6401 57.9322 53.8081 57.7922 54.0411L55.6471 57.6235C54.0292 60.3246 53.1744 63.414 53.1739 66.5625V68.5161H50.2682C50.4283 63.1259 51.8137 57.8429 54.3195 53.0679C56.8253 48.2929 60.3856 44.1513 64.7303 40.9571L66.937 43.2792C66.9852 43.3259 67.0362 43.3695 67.0899 43.4098V68.5166H55.2247V66.5625C55.2249 63.7847 55.9788 61.059 57.4061 58.6758L59.5512 55.0934C59.6903 54.8604 59.7312 54.5817 59.6651 54.3185C59.599 54.0553 59.4312 53.8291 59.1985 53.6895V53.6895ZM26.7821 68.5184C26.625 62.8495 25.187 57.2897 22.5756 52.2557C19.9643 47.2216 16.2474 42.8439 11.7036 39.4506L12.7553 38.3438C13.2848 37.7832 13.6108 37.061 13.6811 36.293C19.0939 33.9352 23.9092 30.3937 27.7726 25.9292C31.636 21.4646 34.4492 16.1907 36.0053 10.4954L36.2907 10.796C36.4464 10.9598 36.6339 11.0902 36.8416 11.1794C37.0494 11.2685 37.2731 11.3145 37.4992 11.3145C37.7252 11.3145 37.9489 11.2685 38.1567 11.1794C38.3644 11.0902 38.5519 10.9598 38.7077 10.796L38.9924 10.4965C40.5485 16.1919 43.3617 21.4658 47.2252 25.9303C51.0886 30.3949 55.9038 33.9363 61.3166 36.2942C61.3875 37.0621 61.7137 37.7842 62.243 38.345L63.2977 39.4518C58.7537 42.845 55.0366 47.2226 52.4252 52.2567C49.8137 57.2908 48.3756 62.8506 48.2186 68.5196L26.7821 68.5184ZM71.3133 34.534H71.4756C71.8697 34.5273 72.2505 34.6766 72.535 34.9495C72.7975 35.2109 72.9471 35.5649 72.9516 35.9354C72.9561 36.3059 72.8152 36.6634 72.559 36.9311L68.1446 41.5752L63.7313 36.9305C63.4898 36.6779 63.3503 36.345 63.3395 35.9958C63.3287 35.6465 63.4473 35.3056 63.6727 35.0385V35.0385C63.8057 34.8804 63.9717 34.7534 64.1591 34.6663C64.3465 34.5793 64.5507 34.5343 64.7573 34.5346H64.9741C65.4288 34.5362 65.8773 34.6409 66.2858 34.841C66.6942 35.041 67.0519 35.3312 67.3319 35.6895C67.3389 35.6983 67.3483 35.7042 67.3553 35.7129C67.3623 35.7217 67.3729 35.7311 67.3823 35.7399C67.4851 35.8463 67.6091 35.9299 67.7463 35.9855C67.8834 36.0411 68.0307 36.0673 68.1786 36.0626C68.3265 36.0578 68.4718 36.0222 68.6051 35.9579C68.7384 35.8937 68.8567 35.8022 68.9526 35.6895C69.2327 35.3307 69.5907 35.0402 69.9996 34.84C70.4085 34.6398 70.8575 34.5352 71.3127 34.534H71.3133ZM66.8789 32.8647C66.4267 32.6779 65.9496 32.558 65.4627 32.509L64.7883 30.8426C63.6653 28.0662 62.3009 25.3937 60.7108 22.8557L59.5389 20.9883C59.4673 20.8743 59.374 20.7754 59.2643 20.6974C59.1545 20.6194 59.0304 20.5638 58.8992 20.5337C58.7679 20.5036 58.632 20.4997 58.4992 20.5222C58.3665 20.5447 58.2394 20.593 58.1253 20.6646C58.0113 20.7362 57.9124 20.8295 57.8344 20.9393C57.7564 21.049 57.7008 21.1731 57.6707 21.3043C57.6406 21.4356 57.6367 21.5715 57.6592 21.7043C57.6817 21.8371 57.73 21.9641 57.8016 22.0782L58.9735 23.945C60.4995 26.3813 61.8092 28.9465 62.8875 31.6114L63.3604 32.7803C62.8768 32.9932 62.4483 33.3139 62.1077 33.7178C61.974 33.8776 61.8548 34.049 61.7514 34.2299C56.5177 31.8803 51.8943 28.3586 48.2388 23.9371C44.5832 19.5156 41.9933 14.3126 40.6694 8.73052L42.1987 7.12212C48.5547 8.13947 54.4048 11.2044 58.8594 15.8509C63.3141 20.4974 66.1298 26.4714 66.8784 32.8647H66.8789ZM33.1108 2.46568C33.395 2.19292 33.7757 2.04378 34.1696 2.05084H34.3325C34.7872 2.05242 35.2357 2.15724 35.644 2.3574C36.0523 2.55756 36.4099 2.84782 36.6897 3.2063C36.7894 3.32404 36.9135 3.41865 37.0534 3.48353C37.1934 3.54842 37.3458 3.58204 37.5 3.58204C37.6543 3.58204 37.8067 3.54842 37.9467 3.48353C38.0866 3.41865 38.2107 3.32404 38.3104 3.2063C38.5902 2.84782 38.9477 2.55756 39.3561 2.3574C39.7644 2.15724 40.2129 2.05242 40.6676 2.05084H40.8844C41.0911 2.05047 41.2954 2.0954 41.4829 2.18246C41.6703 2.26952 41.8365 2.39659 41.9696 2.55474C42.195 2.82197 42.3137 3.16309 42.3029 3.51255C42.2921 3.862 42.1525 4.19513 41.911 4.44791L41.0743 5.32798L41.0596 5.34322L38.7944 7.72857L38.7891 7.73443L37.5 9.09087L36.211 7.73091L33.934 5.33794L33.0868 4.44615C32.8307 4.1786 32.6898 3.82131 32.6943 3.45101C32.6988 3.08071 32.8483 2.72693 33.1108 2.46568V2.46568ZM32.802 7.12388L34.3307 8.73052C33.0066 14.3124 30.4168 19.515 26.7614 23.9363C23.1059 28.3576 18.4828 31.8792 13.2493 34.2288C13.1452 34.0478 13.0252 33.8764 12.8907 33.7167C12.5499 33.3129 12.1214 32.9922 11.6379 32.7792L12.1108 31.6102C13.1892 28.9455 14.4987 26.3802 16.0243 23.9438L17.1961 22.077C17.3407 21.8466 17.3877 21.5683 17.327 21.3032C17.2663 21.0381 17.1028 20.808 16.8724 20.6634C16.642 20.5189 16.3637 20.4718 16.0986 20.5325C15.8335 20.5932 15.6034 20.7568 15.4588 20.9872L14.287 22.8545C12.6969 25.3925 11.3325 28.0651 10.2094 30.8415L9.53501 32.5079C9.04815 32.5569 8.57105 32.6767 8.1188 32.8635C8.86808 26.4702 11.6845 20.4965 16.1398 15.8505C20.5951 11.2044 26.4457 8.14029 32.802 7.12388V7.12388ZM2.44165 36.9305C2.1856 36.663 2.04468 36.3057 2.04917 35.9354C2.05366 35.5651 2.2032 35.2113 2.46567 34.9501C2.74984 34.6767 3.13079 34.5271 3.52505 34.534H3.68735C4.14204 34.5356 4.59043 34.6404 4.99875 34.8405C5.40707 35.0405 5.76466 35.3306 6.04458 35.6889C6.14052 35.802 6.2591 35.8936 6.39265 35.958C6.52621 36.0224 6.67179 36.058 6.81998 36.0627C6.96817 36.0673 7.11569 36.0408 7.25301 35.9849C7.39034 35.929 7.51441 35.845 7.61723 35.7381L7.64126 35.7141C7.64888 35.7047 7.65884 35.6983 7.66645 35.6889C7.94637 35.3306 8.30397 35.0405 8.71228 34.8405C9.1206 34.6404 9.56899 34.5356 10.0237 34.534H10.2411C10.4477 34.5337 10.6518 34.5787 10.8392 34.6657C11.0266 34.7528 11.1926 34.8798 11.3256 35.0379V35.0379C11.551 35.3051 11.6697 35.6461 11.6589 35.9955C11.6481 36.3448 11.5085 36.6778 11.267 36.9305L6.85552 41.5752L2.44165 36.9305ZM7.9102 43.4116C7.96423 43.3708 8.01569 43.3268 8.0643 43.2797L10.2698 40.9571C14.6146 44.1513 18.1749 48.2931 20.6807 53.0682C23.1865 57.8433 24.5719 63.1264 24.7319 68.5166H21.8262V66.5625C21.826 63.4134 20.9712 60.3233 19.353 57.6217L17.2079 54.0393C17.0641 53.8145 16.8383 53.6546 16.5785 53.5935C16.3187 53.5325 16.0453 53.5752 15.8165 53.7125C15.5876 53.8498 15.4213 54.0709 15.3529 54.3289C15.2845 54.5868 15.3193 54.8613 15.45 55.094L17.5952 58.6764C19.022 61.0595 19.7755 63.785 19.7754 66.5625V68.5161H7.9102V43.4116ZM72.9493 72.9475H2.05083V70.5692H72.9493V72.9475Z" fill="#C4C4C4"/>
</g>
<defs>
<clipPath id="clip0_607_2">
<rect width="75" height="75" fill="white"/>
</clipPath>
</defs>
</svg>
