<svg width="85" height="85" viewBox="0 0 85 85" fill="none" xmlns="http://www.w3.org/2000/svg">
<path d="M79.6875 64.7595V31.8751C79.6913 30.4332 79.2245 29.0293 78.358 27.8768C77.4915 26.7242 76.2726 25.8858 74.8864 25.4889C73.5001 25.092 72.0222 25.1582 70.677 25.6775C69.3318 26.1967 68.1928 27.1408 67.4328 28.3662L67.3452 28.2799C67.0962 28.0308 66.7584 27.8908 66.4062 27.8907H63.75C63.3977 27.8908 63.06 28.0308 62.811 28.2799L59.2157 31.8751H55.0029L49.1406 26.0128V19.922C49.1405 19.5698 49.0005 19.232 48.7514 18.983L42.5 12.7315V9.84682L47.9705 4.38291C53.9915 5.23982 59.7235 7.5125 64.6958 11.0144C69.6682 14.5163 73.7391 19.1475 76.5743 24.5279L78.9225 23.2848C76.3371 18.3897 72.7918 14.0659 68.4982 10.5715C64.2046 7.0772 59.2508 4.48399 53.9326 2.94682C48.6145 1.40964 43.0411 0.960017 37.5453 1.6248C32.0496 2.28959 26.7441 4.05515 21.9459 6.81604L23.274 9.11635C26.3813 7.32993 29.7241 5.98871 33.2044 5.13198V8.74713L28.281 13.6705C28.1575 13.7937 28.0594 13.94 27.9924 14.1011C27.9254 14.2622 27.8908 14.435 27.8906 14.6095V20.7003L21.6391 26.9517C21.39 27.2007 21.25 27.5385 21.25 27.8907V31.8751C21.25 32.2273 21.39 32.5651 21.6391 32.8141L27.8906 39.0656V41.9502L23.3564 46.4845H12.5029L8.90769 42.8892C8.65867 42.6401 8.32091 42.5002 7.9687 42.5001H3.98433C3.9819 35.7519 5.75252 29.1214 9.11886 23.2728L6.81855 21.9447C2.26432 29.8364 0.457399 39.0162 1.681 48.0452C2.9046 57.0741 7.08955 65.4419 13.5799 71.8368C20.0702 78.2318 28.499 82.2924 37.5451 83.3822C46.5912 84.472 55.7433 82.5293 63.5667 77.8588C64.288 79.291 65.3257 80.5405 66.6011 81.5126C67.8765 82.4847 69.3562 83.1541 70.9285 83.4701C71.6204 83.6041 72.3235 83.6717 73.0282 83.672C75.2295 83.6741 77.3771 82.9925 79.1743 81.7213C80.9714 80.4501 82.3294 78.6521 83.0604 76.5757C83.7915 74.4994 83.8597 72.2473 83.2554 70.1305C82.6512 68.0138 81.4045 66.137 79.6875 64.7595V64.7595ZM7.41886 45.1563L11.0141 48.7516C11.2631 49.0007 11.6009 49.1406 11.9531 49.1407H23.9062C24.2584 49.1406 24.5962 49.0007 24.8452 48.7516L30.1577 43.4391C30.4068 43.1901 30.5468 42.8523 30.5468 42.5001V38.5157C30.5468 38.1635 30.4068 37.8257 30.1577 37.5767L23.9062 31.3253V28.4406L30.1577 22.1891C30.4068 21.9401 30.5468 21.6023 30.5468 21.2501V15.1593L35.4702 10.236C35.7193 9.98695 35.8593 9.64919 35.8593 9.29698V4.57815C38.0516 4.18935 40.2734 3.99072 42.5 3.98448C43.1826 3.98448 43.86 4.01901 44.536 4.05487L40.2328 8.35799C39.9838 8.60701 39.8438 8.94476 39.8437 9.29698V13.2813C39.8438 13.6336 39.9838 13.9713 40.2328 14.2203L46.4843 20.4718V26.5626C46.4844 26.9148 46.6244 27.2526 46.8735 27.5016L53.5141 34.1422C53.7631 34.3913 54.1009 34.5313 54.4531 34.5313H59.7656C60.1178 34.5313 60.4555 34.3913 60.7046 34.1422L64.2998 30.547H65.8564L66.4779 31.1685C66.4412 31.4026 66.4173 31.6384 66.4062 31.8751V57.8877L63.2001 61.0938H60.3154L56.7202 57.4986C56.4712 57.2495 56.1334 57.1095 55.7812 57.1095H47.8125C47.4602 57.1095 47.1225 57.2495 46.8735 57.4986L41.9501 62.422H39.8437C39.4915 62.422 39.1537 62.562 38.9047 62.8111L35.3095 66.4063H33.7529L27.5014 60.1548C27.2524 59.9058 26.9147 59.7658 26.5625 59.7657H18.5937C18.2415 59.7658 17.9037 59.9058 17.6547 60.1548L11.9252 65.8844C7.32651 59.8986 4.59943 52.6872 4.08659 45.1563H7.41886ZM42.5 81.0157C37.0335 81.0165 31.6298 79.851 26.6498 77.5968C21.6698 75.3427 17.228 72.0519 13.6212 67.9443L19.1435 62.422H26.0126L32.2641 68.6734C32.5131 68.9225 32.8509 69.0625 33.2031 69.0626H35.8593C36.2115 69.0625 36.5493 68.9225 36.7983 68.6734L40.3935 65.0782H42.5C42.8522 65.0781 43.1899 64.9382 43.4389 64.6891L48.3623 59.7657H55.2314L58.8266 63.3609C59.0756 63.61 59.4134 63.75 59.7656 63.7501H63.75C64.1022 63.75 64.4399 63.61 64.6889 63.3609L66.4062 61.6437V64.7581C64.8904 65.9643 63.7347 67.5635 63.0651 69.3813C62.3956 71.1991 62.2378 73.1658 62.6091 75.067C62.6237 75.1467 62.6542 75.2224 62.6715 75.3021C56.6079 79.041 49.6236 81.0193 42.5 81.0157V81.0157ZM78.111 79.2002C77.1897 79.9525 76.1131 80.4915 74.9588 80.7783C73.8044 81.0651 72.6008 81.0927 71.4345 80.859C69.9087 80.5437 68.5088 79.788 67.4079 78.6854C66.3071 77.5828 65.5536 76.1817 65.2407 74.6554C64.9278 73.1291 65.0692 71.5446 65.6475 70.0978C66.2257 68.651 67.2153 67.4055 68.494 66.5152C68.6698 66.3926 68.8133 66.2293 68.9123 66.0392C69.0113 65.8491 69.0628 65.6379 69.0625 65.4235V31.8751C69.0625 30.8184 69.4822 29.8049 70.2295 29.0577C70.9767 28.3105 71.9901 27.8907 73.0468 27.8907C74.1035 27.8907 75.117 28.3105 75.8642 29.0577C76.6114 29.8049 77.0312 30.8184 77.0312 31.8751V34.5313H73.0468V37.1876H77.0312V39.8438H73.0468V42.5001H77.0312V45.1563H73.0468V47.8126H77.0312V50.4688H71.7187V53.1251H77.0312V55.7813H73.0468V58.4376H77.0312V61.0938H73.0468V63.7501H77.0312V65.4235C77.0315 65.6372 77.0833 65.8476 77.1822 66.037C77.2812 66.2264 77.4244 66.389 77.5996 66.5113C78.6088 67.2144 79.4416 68.1416 80.0326 69.2202C80.6237 70.2989 80.957 71.4997 81.0066 72.7287C81.0561 73.9577 80.8205 75.1815 80.3181 76.3042C79.8157 77.4269 79.0603 78.4181 78.111 79.2002V79.2002Z" fill="#C4C4C4"/>
<path d="M35.8858 49.4065C35.9251 49.6052 36.0094 49.7922 36.1321 49.9534C36.2547 50.1145 36.4127 50.2454 36.5937 50.3362L41.9062 52.9924C42.0912 53.082 42.2944 53.1275 42.4999 53.1252H47.8124C48.0227 53.1251 48.23 53.075 48.4172 52.979C48.6044 52.8831 48.7661 52.744 48.889 52.5734C49.012 52.4027 49.0926 52.2053 49.1243 51.9974C49.1561 51.7895 49.1379 51.577 49.0715 51.3774L48.009 48.1726L50.0835 46.0955C50.3311 45.8458 50.4696 45.5081 50.4687 45.1565V39.844C50.4687 39.6448 50.424 39.4482 50.3378 39.2686C50.2516 39.0891 50.1261 38.9312 49.9706 38.8067L43.33 33.4942C43.1753 33.3703 42.9948 33.2826 42.8018 33.2375C42.6088 33.1924 42.4082 33.191 42.2146 33.2336C42.021 33.2761 41.8394 33.3614 41.6831 33.4833C41.5268 33.6052 41.3997 33.7604 41.3112 33.9378L38.8144 38.9342L35.1222 41.3952C34.9025 41.5417 34.7315 41.7503 34.6309 41.9945C34.5304 42.2386 34.5049 42.5072 34.5577 42.7658L35.8858 49.4065ZM40.5808 40.9543C40.7725 40.8252 40.928 40.6492 41.0323 40.443L42.9528 36.6007L47.8124 40.4815V44.6066L45.5453 46.8737C45.3711 47.0482 45.2489 47.2677 45.1924 47.5076C45.1358 47.7476 45.1472 47.9986 45.2252 48.2324L45.969 50.469H42.8133L38.3628 48.243L37.3362 43.1125L40.5808 40.9543Z" fill="#C4C4C4"/>
<path d="M73.0469 67.7344C71.9962 67.7344 70.969 68.0459 70.0954 68.6297C69.2218 69.2134 68.5409 70.0431 68.1388 71.0139C67.7367 71.9846 67.6315 73.0528 67.8365 74.0833C68.0414 75.1138 68.5474 76.0604 69.2904 76.8034C70.0333 77.5464 70.9799 78.0523 72.0105 78.2573C73.041 78.4623 74.1092 78.3571 75.0799 77.955C76.0506 77.5529 76.8803 76.872 77.4641 75.9984C78.0478 75.1247 78.3594 74.0976 78.3594 73.0469C78.3594 71.6379 77.7997 70.2867 76.8034 69.2904C75.8071 68.2941 74.4558 67.7344 73.0469 67.7344ZM73.0469 75.7031C72.5215 75.7031 72.008 75.5474 71.5711 75.2555C71.1343 74.9636 70.7939 74.5488 70.5928 74.0634C70.3918 73.578 70.3392 73.0439 70.4417 72.5287C70.5442 72.0134 70.7971 71.5401 71.1686 71.1686C71.5401 70.7971 72.0134 70.5442 72.5287 70.4417C73.0439 70.3392 73.578 70.3918 74.0634 70.5928C74.5488 70.7939 74.9636 71.1343 75.2555 71.5711C75.5474 72.008 75.7031 72.5215 75.7031 73.0469C75.7031 73.7514 75.4233 74.427 74.9251 74.9251C74.427 75.4233 73.7514 75.7031 73.0469 75.7031Z" fill="#C4C4C4"/>
<path d="M11.9531 17.2656C13.0038 17.2656 14.031 16.9541 14.9046 16.3703C15.7782 15.7866 16.4591 14.9569 16.8612 13.9861C17.2633 13.0154 17.3685 11.9472 17.1635 10.9167C16.9586 9.88619 16.4526 8.93959 15.7096 8.19662C14.9667 7.45366 14.0201 6.94769 12.9895 6.74271C11.959 6.53772 10.8909 6.64293 9.92012 7.04502C8.94939 7.44711 8.11969 8.12802 7.53594 9.00166C6.9522 9.8753 6.64063 10.9024 6.64062 11.9531C6.64063 13.3621 7.20033 14.7133 8.19662 15.7096C9.19291 16.7059 10.5442 17.2656 11.9531 17.2656ZM11.9531 9.29688C12.4785 9.29688 12.992 9.45266 13.4289 9.74454C13.8657 10.0364 14.2061 10.4513 14.4072 10.9366C14.6082 11.422 14.6608 11.9561 14.5583 12.4713C14.4558 12.9866 14.2029 13.4599 13.8314 13.8314C13.4599 14.2029 12.9866 14.4558 12.4713 14.5583C11.9561 14.6608 11.422 14.6082 10.9366 14.4072C10.4513 14.2061 10.0364 13.8657 9.74453 13.4289C9.45266 12.992 9.29687 12.4785 9.29687 11.9531C9.29687 11.2486 9.57673 10.573 10.0749 10.0749C10.573 9.57673 11.2486 9.29688 11.9531 9.29688Z" fill="#C4C4C4"/>
<path d="M22.5781 10.625H18.5938V13.2812H22.5781V10.625Z" fill="#C4C4C4"/>
<path d="M5.3125 10.625H1.32812V13.2812H5.3125V10.625Z" fill="#C4C4C4"/>
<path d="M13.2812 18.5938H10.625V22.5781H13.2812V18.5938Z" fill="#C4C4C4"/>
<path d="M13.2812 1.32812H10.625V5.3125H13.2812V1.32812Z" fill="#C4C4C4"/>
<path d="M18.9824 3.04557L16.3265 5.70142L18.2048 7.57967L20.8606 4.92382L18.9824 3.04557Z" fill="#C4C4C4"/>
<path d="M4.92342 3.04558L3.04517 4.92383L5.70101 7.57968L7.57927 5.70142L4.92342 3.04558Z" fill="#C4C4C4"/>
<path d="M18.2049 16.3268L16.3267 18.2051L18.9825 20.8609L20.8608 18.9827L18.2049 16.3268Z" fill="#C4C4C4"/>
<path d="M5.70114 16.3268L3.04529 18.9827L4.92354 20.8609L7.57939 18.2051L5.70114 16.3268Z" fill="#C4C4C4"/>
</svg>
