<svg width="74" height="74" viewBox="0 0 74 74" fill="none" xmlns="http://www.w3.org/2000/svg">
<path d="M43.8334 70.1495C42.2694 70.1495 40.8719 69.0064 39.5145 67.8964C38.685 67.2173 37.5481 66.2877 36.9992 66.2877C36.4512 66.2877 35.3142 67.2173 34.4848 67.8964C32.9978 69.112 31.3112 70.4941 29.4543 70.0686C27.538 69.6331 26.5999 67.6181 25.772 65.8413C25.3589 64.9526 24.733 63.609 24.2882 63.3939C23.8164 63.1635 22.3519 63.5188 21.3829 63.7516C19.4967 64.2056 17.3599 64.7175 15.8491 63.5127C14.3329 62.3017 14.3599 60.0963 14.3853 58.1515C14.3976 57.1595 14.4161 55.661 14.097 55.2601C13.7817 54.8655 12.3225 54.5533 11.3567 54.3467C9.44656 53.9381 7.2836 53.4749 6.43568 51.7174C5.6001 49.9868 6.5752 48.0243 7.43391 46.293C7.88022 45.3958 8.55393 44.0383 8.436 43.518C8.32962 43.0517 7.16875 42.1506 6.401 41.5539C4.84622 40.3483 3.08333 38.9793 3.08333 36.9998C3.08333 35.0203 4.84622 33.6521 6.40177 32.445C7.16952 31.8491 8.33039 30.948 8.43677 30.4809C8.5547 29.9606 7.881 28.6032 7.43545 27.7051C6.57597 25.9738 5.60164 24.0121 6.438 22.28C7.28591 20.5233 9.44887 20.06 11.3582 19.6515C12.3241 19.4449 13.7833 19.1327 14.0978 18.7388C14.4184 18.3372 14.3999 16.8379 14.3876 15.8459C14.3629 13.9011 14.336 11.6965 15.8514 10.4855C17.3615 9.27991 19.4998 9.79329 21.3852 10.2465C22.3557 10.4793 23.8187 10.8316 24.2897 10.605C24.7353 10.3899 25.3604 9.04712 25.7744 8.15758C26.6015 6.38004 27.5388 4.36585 29.4551 3.93033C31.3097 3.50946 32.9994 4.88616 34.4855 6.10254C35.3157 6.78164 36.4527 7.71127 37.0008 7.71127C37.5488 7.71127 38.6858 6.78164 39.5152 6.10331C41.0029 4.88617 42.6888 3.50637 44.5465 3.93033C46.462 4.36585 47.4001 6.38081 48.228 8.15835C48.6419 9.04712 49.267 10.3907 49.7126 10.6057C50.1851 10.8331 51.6474 10.4801 52.6163 10.2473C54.5025 9.79406 56.6401 9.28069 58.1509 10.4863C59.6671 11.6972 59.6401 13.9018 59.6147 15.8474C59.6024 16.8395 59.5839 18.3387 59.903 18.7388C60.2183 19.1327 61.6775 19.4457 62.6433 19.6522C64.5534 20.0608 66.7164 20.5233 67.5643 22.2808C68.3999 24.0121 67.4248 25.9746 66.5661 27.7059C66.1198 28.6039 65.4461 29.9606 65.564 30.4809C65.6704 30.948 66.8313 31.8491 67.599 32.445C69.1538 33.6521 70.9167 35.0203 70.9167 36.9998C70.9167 38.9793 69.1538 40.3476 67.5982 41.5547C66.8305 42.1506 65.6696 43.0509 65.5632 43.5196C65.4453 44.0399 66.119 45.3965 66.5645 46.2946C67.424 48.0258 68.3984 49.9876 67.562 51.7197C66.7141 53.4764 64.5511 53.9397 62.6418 54.3474C61.6759 54.5548 60.2167 54.867 59.9015 55.2609C59.5816 55.6625 59.6001 57.1618 59.6124 58.1538C59.6371 60.0979 59.664 62.3025 58.1486 63.5134C56.6385 64.719 54.5002 64.2049 52.6148 63.7524C51.6443 63.5196 50.1812 63.1658 49.7103 63.3947C49.2647 63.609 48.6396 64.9526 48.2256 65.8413C47.3985 67.6197 46.4612 69.6338 44.5449 70.0694C44.3044 70.1241 44.067 70.1495 43.8334 70.1495V70.1495ZM23.811 60.2405C24.4501 60.2405 25.0629 60.3438 25.6279 60.6159C27.064 61.3081 27.8286 62.9507 28.5679 64.5394C28.934 65.3257 29.6956 66.9614 30.1373 67.0616C30.5481 67.134 31.8894 66.0341 32.5322 65.5083C33.9182 64.3752 35.3504 63.2036 36.9992 63.2036C38.648 63.2036 40.081 64.376 41.4662 65.5083C42.1091 66.0341 43.4103 67.1124 43.8627 67.0616C44.3029 66.9606 45.0652 65.3257 45.4306 64.5394C46.1691 62.9507 46.9337 61.3096 48.3706 60.6159C49.8321 59.9106 51.6111 60.3399 53.334 60.7538C54.1626 60.9527 55.89 61.3682 56.223 61.103C56.5614 60.8332 56.5391 59.0488 56.5283 58.1916C56.5059 56.4248 56.4828 54.5987 57.4911 53.3361C58.4931 52.0812 60.273 51.7004 61.995 51.3319C62.8383 51.1516 64.592 50.7762 64.7839 50.3792C64.9628 50.0069 64.178 48.4251 63.8011 47.6651C63.011 46.0733 62.1931 44.4268 62.5554 42.8358C62.9062 41.2926 64.3299 40.1872 65.7058 39.1189C66.4505 38.5423 67.8333 37.4693 67.8333 36.9998C67.8333 36.5304 66.4505 35.4574 65.7074 34.8801C64.3307 33.8117 62.9069 32.7071 62.5562 31.1631C62.1947 29.5721 63.0125 27.9256 63.8027 26.3338C64.1796 25.5738 64.9651 23.9928 64.7855 23.6197C64.5935 23.222 62.8399 22.8473 61.9974 22.667C60.2753 22.2985 58.4947 21.9177 57.4926 20.6636C56.4851 19.4017 56.5083 17.5749 56.5306 15.8089C56.5414 14.9517 56.5638 13.1665 56.2254 12.8967C55.8939 12.6315 54.1657 13.047 53.3355 13.2459C51.6135 13.6598 49.8344 14.0884 48.3721 13.3831C46.936 12.6901 46.1714 11.0482 45.4321 9.46029C45.066 8.67404 44.3052 7.03833 43.8627 6.93812C43.4388 6.86489 42.1099 7.96564 41.467 8.49058C40.0818 9.62448 38.6496 10.7961 37.0008 10.7961C35.352 10.7961 33.9197 9.62371 32.5338 8.49058C31.8909 7.96487 30.5497 6.86952 30.1373 6.93735C29.6964 7.03756 28.934 8.67327 28.5686 9.45952C27.8294 11.0474 27.0655 12.6893 25.6294 13.3823C24.1679 14.0868 22.3889 13.6598 20.6653 13.2451C19.8366 13.0454 18.1076 12.6307 17.7762 12.8951C17.4378 13.1657 17.4601 14.9502 17.4709 15.8073C17.4933 17.5741 17.5164 19.401 16.5082 20.662C15.5061 21.917 13.7262 22.2977 12.0042 22.6662C11.1609 22.8466 9.40725 23.222 9.21531 23.619C9.03647 23.9913 9.82118 25.573 10.1981 26.3331C10.9882 27.9248 11.8061 29.5713 11.4438 31.1623C11.0931 32.7055 9.66933 33.8109 8.29339 34.8793C7.54954 35.4574 6.16666 36.5304 6.16666 36.9998C6.16666 37.4693 7.54954 38.5431 8.29262 39.1196C9.66933 40.188 11.0931 41.2918 11.4438 42.8358C11.8053 44.4268 10.9875 46.0726 10.1974 47.6651C9.82041 48.4251 9.03493 50.0061 9.21454 50.3792C9.40648 50.7777 11.1601 51.1523 12.0034 51.3327C13.7247 51.7012 15.5053 52.082 16.5074 53.3369C17.5149 54.5987 17.4917 56.4248 17.4694 58.1916C17.4586 59.0488 17.4362 60.834 17.7746 61.1038C18.1061 61.3651 19.8343 60.9535 20.6645 60.7538C21.7198 60.4995 22.7982 60.2405 23.811 60.2405V60.2405ZM27.2983 48.8815L48.8816 27.2981C49.4836 26.6961 49.4836 25.7202 48.8816 25.1182C48.2796 24.5162 47.3037 24.5162 46.7017 25.1182L25.1184 46.7016C24.5164 47.3036 24.5164 48.2794 25.1184 48.8815C25.4198 49.1829 25.8137 49.3332 26.2083 49.3332C26.603 49.3332 26.9969 49.1829 27.2983 48.8815ZM29.2917 34.6873C26.317 34.6873 23.8958 32.2669 23.8958 29.2915C23.8958 26.3161 26.317 23.8957 29.2917 23.8957C32.2663 23.8957 34.6875 26.3161 34.6875 29.2915C34.6875 32.2669 32.2663 34.6873 29.2917 34.6873ZM29.2917 26.979C28.0167 26.979 26.9792 28.0166 26.9792 29.2915C26.9792 30.5665 28.0167 31.604 29.2917 31.604C30.5666 31.604 31.6042 30.5665 31.6042 29.2915C31.6042 28.0166 30.5666 26.979 29.2917 26.979ZM44.7083 50.104C41.7337 50.104 39.3125 47.6828 39.3125 44.7082C39.3125 41.7335 41.7337 39.3123 44.7083 39.3123C47.683 39.3123 50.1042 41.7335 50.1042 44.7082C50.1042 47.6828 47.683 50.104 44.7083 50.104ZM44.7083 42.3957C43.4334 42.3957 42.3958 43.4332 42.3958 44.7082C42.3958 45.9831 43.4334 47.0207 44.7083 47.0207C45.9833 47.0207 47.0208 45.9831 47.0208 44.7082C47.0208 43.4332 45.9833 42.3957 44.7083 42.3957Z" fill="#C4C4C4"/>
</svg>
