<svg width="66" height="87" viewBox="0 0 66 87" fill="none" xmlns="http://www.w3.org/2000/svg">
<path d="M37.3048 45.9054C37.3048 45.113 36.6625 44.4707 35.8701 44.4707H30.131C29.3386 44.4707 28.6963 45.113 28.6963 45.9054C28.6963 46.6979 29.3386 47.3401 30.131 47.3401H35.8701C36.6625 47.3403 37.3048 46.6979 37.3048 45.9054Z" fill="#C4C4C4"/>
<path d="M27.2614 31.5586H24.3918C23.5993 31.5586 22.957 32.201 22.957 32.9933C22.957 33.7857 23.5995 34.428 24.3918 34.428C24.3918 35.2205 25.0342 35.8628 25.8265 35.8628C26.6189 35.8628 27.2612 35.2203 27.2612 34.428C28.0536 34.428 28.6959 33.7856 28.6959 32.9933C28.6961 32.2009 28.0538 31.5586 27.2614 31.5586Z" fill="#C4C4C4"/>
<path d="M41.609 31.5586H38.7394C37.947 31.5586 37.3047 32.201 37.3047 32.9933C37.3047 33.7857 37.947 34.428 38.7394 34.428C38.7394 35.2205 39.3819 35.8628 40.1741 35.8628C40.9666 35.8628 41.6088 35.2203 41.6088 34.428C42.4013 34.428 43.0436 33.7856 43.0436 32.9933C43.0439 32.2009 42.4015 31.5586 41.609 31.5586Z" fill="#C4C4C4"/>
<path d="M31.5656 41.6014H34.4352C35.2276 41.6014 35.8699 40.9589 35.8699 40.1667C35.8699 39.3742 35.2275 38.7319 34.4352 38.7319H31.5656C30.7731 38.7319 30.1309 39.3744 30.1309 40.1667C30.1309 40.9591 30.7731 41.6014 31.5656 41.6014Z" fill="#C4C4C4"/>
<path d="M28.6957 30.1229C29.4882 30.1229 30.1305 29.4806 30.1305 28.6881C30.1305 27.8957 29.488 27.2534 28.6957 27.2534H22.9567C22.1643 27.2534 21.522 27.8959 21.522 28.6881C21.522 29.4804 22.1644 30.1229 22.9567 30.1229H28.6957Z" fill="#C4C4C4"/>
<path d="M37.3043 30.1229H43.0434C43.8358 30.1229 44.4781 29.4806 44.4781 28.6881C44.4781 27.8957 43.8358 27.2534 43.0434 27.2534H37.3043C36.5119 27.2534 35.8696 27.8959 35.8696 28.6881C35.8696 29.4804 36.5119 30.1229 37.3043 30.1229Z" fill="#C4C4C4"/>
<path d="M5.73939 86.0794H60.261C63.4305 86.0794 66 83.5099 66 80.3404V76.036C65.9978 74.2124 64.8489 72.5874 63.1304 71.977V67.0787C63.1383 65.664 62.6073 64.2995 61.6454 63.2621C61.3515 59.8175 58.8809 56.9499 55.5174 56.1499L48.5086 54.398C47.2356 53.3457 45.8604 52.4233 44.4037 51.6448L47.7611 48.7135C49.3244 47.3468 50.2201 45.3707 50.2174 43.2944V41.4578C54.0911 40.6763 56.5979 36.9026 55.8164 33.0289C55.3347 30.6408 53.671 28.662 51.4011 27.7771C52.6842 24.926 53.2624 21.808 53.087 18.6864C53.087 11.4092 46.0079 7.83091 42.573 6.52515C42.7786 6.37248 42.9992 6.24117 43.2316 6.13339C44.3109 5.64478 44.7896 4.37383 44.301 3.29472C44.0779 2.80208 43.677 2.41183 43.1785 2.20216C28.0286 -4.29149 20.509 5.43495 19.0828 7.57417C16.2287 8.96399 14.0878 11.4866 13.1802 14.5285C11.7454 19.4526 13.7325 24.8589 15.0295 27.6209C11.2624 28.817 9.17797 32.8406 10.3741 36.6077C11.1613 39.0872 13.2323 40.9443 15.7828 41.4578V43.2944C15.7818 45.3689 16.6773 47.3425 18.2391 48.7077L21.595 51.6448C20.138 52.4251 18.7628 53.3494 17.49 54.4039L10.4826 56.15C7.11778 56.9505 4.64666 59.8202 4.3546 63.2665C3.3937 64.3027 2.86272 65.6655 2.86961 67.0787V71.977C1.15124 72.5874 0.00235393 74.2124 0 76.036V80.3404C0.000336276 83.5099 2.56982 86.0794 5.73939 86.0794ZM28.6958 62.7886C26.7398 62.5045 24.8541 61.8573 23.1359 60.8804C24.6265 59.6665 26.3292 58.7392 28.1577 58.1457C28.2722 58.1102 28.397 58.1339 28.4906 58.2087C28.6154 58.2958 28.6914 58.4369 28.6958 58.5889V62.7886ZM21.0198 62.932C23.3426 64.4068 25.9647 65.3455 28.6958 65.6796V67.4272C27.1322 68.6025 26.1148 70.3639 25.8779 72.3054L18.6524 76.4892V76.0357C18.6497 74.8244 18.1335 73.671 17.2319 72.8619C17.3116 69.2143 18.6499 65.7063 21.0198 62.932ZM18.6524 81.7751V79.577C19.01 79.5136 19.3547 79.3916 19.6725 79.2155L27.9798 74.409C28.4232 74.1524 28.6961 73.6787 28.6958 73.1664C28.6983 71.6312 29.5185 70.2136 30.8479 69.446C31.2923 69.1895 31.5659 68.7151 31.5654 68.2022V58.5892C31.5623 57.5194 31.0483 56.5154 30.1823 55.8876C29.3486 55.27 28.2675 55.0941 27.2812 55.4156C20.0955 57.765 15.0213 64.1968 14.4084 71.7319C14.3869 71.7319 14.3682 71.7319 14.3482 71.7319H11.5304C11.6319 70.1263 11.9169 68.5378 12.3798 66.9971C15.7841 55.609 27.7757 49.1368 39.1639 52.5411C46.1128 54.6185 51.548 60.0559 53.6224 67.0057C54.0852 68.5433 54.3697 70.1292 54.4703 71.7319H51.6525C51.6325 71.7319 51.6151 71.7319 51.5951 71.7319C51.0349 64.2282 46.0044 57.803 38.8543 55.4587C37.8267 55.1123 36.6951 55.2804 35.8125 55.9106C34.9414 56.5297 34.4272 57.535 34.4351 58.6037V68.2023C34.4346 68.7155 34.7082 69.1898 35.1526 69.4462C36.4821 70.2138 37.3022 71.6313 37.3047 73.1666C37.3047 73.6793 37.5781 74.1529 38.0222 74.4091L46.3438 79.2157C46.6567 79.3887 46.9962 79.5089 47.3481 79.5715V81.7753C47.3528 82.2652 47.4421 82.7506 47.6121 83.21H46.2433C45.9652 82.5751 45.4931 82.0446 44.8947 81.6949L36.573 76.8883C36.1239 76.6291 35.5699 76.6324 35.1238 76.8969C33.808 77.6488 32.1927 77.6488 30.8768 76.8969C30.4308 76.6324 29.8768 76.6291 29.4277 76.8883L21.0801 81.702C20.4937 82.0564 20.0308 82.583 19.7544 83.21H18.3884C18.5582 82.7503 18.6477 82.2649 18.6524 81.7751ZM37.3044 65.6798C40.0461 65.345 42.6778 64.4002 45.0063 62.9149C47.3771 65.693 48.708 69.2091 48.7711 72.8608C47.8682 73.6697 47.351 74.8238 47.3478 76.0359V76.4821L40.1222 72.3054C39.886 70.3636 38.8684 68.602 37.3044 67.4272V65.6798ZM37.3044 62.7886V58.6033C37.3016 58.4616 37.37 58.3279 37.4867 58.2476C37.6215 58.1546 37.793 58.1322 37.9472 58.1874C39.7396 58.7785 41.4109 59.6873 42.8814 60.8703C41.1591 61.8536 39.2673 62.5043 37.3044 62.7886ZM41.7796 83.2098H24.2078L30.1893 79.7663C31.9852 80.5282 34.0135 80.5282 35.8093 79.7663L41.7796 83.2098ZM63.1304 76.0359V80.3402C63.1304 81.9251 61.8456 83.2098 60.2608 83.2098H51.6521C50.8597 83.2098 50.2174 82.5674 50.2174 81.7751V76.036C50.2174 75.2436 50.8599 74.6013 51.6521 74.6013H55.9565C56.7489 74.6013 57.3912 73.959 57.3912 73.1666C57.3961 70.8029 57.0524 68.4513 56.3711 66.1879C56.3237 66.0271 56.2606 65.8736 56.209 65.7144C56.4753 65.2184 56.9216 64.8431 57.4557 64.6656C58.0903 64.4485 58.7914 64.5655 59.3209 64.9769C59.9452 65.4925 60.2927 66.2699 60.2606 67.0788V73.1666C60.2606 73.959 60.9031 74.6013 61.6953 74.6013C62.4876 74.6013 63.1304 75.2434 63.1304 76.0359ZM58.3183 61.7283C57.7231 61.6897 57.1257 61.7611 56.5564 61.9392C56.0128 62.13 55.5053 62.4113 55.0556 62.7713C54.3015 61.1864 53.3774 59.6885 52.2993 58.3034L54.8217 58.9332C56.343 59.3023 57.6232 60.3256 58.3183 61.7283ZM15.9391 15.3233C16.6732 12.9199 18.4227 10.9584 20.727 9.95584C20.9853 9.82604 21.199 9.62225 21.3411 9.37038C21.5793 8.93995 27.1719 -0.757739 40.7422 4.31431C40.3001 4.65798 39.9067 5.06 39.5728 5.50943C39.1507 6.05689 39.0172 6.77366 39.2141 7.43629C39.4189 8.11137 39.9373 8.64588 40.6058 8.87101C42.8612 9.60561 50.2174 12.4752 50.2174 18.6864C50.2742 20.798 50.0185 22.9067 49.4584 24.9435C48.8669 23.5676 47.8488 22.4184 46.5545 21.665C46.3021 21.5357 46.0166 21.4856 45.7352 21.5215C38.0577 22.4799 35.8998 21.4613 32.3257 19.7726C30.3667 18.8107 28.347 17.9775 26.2796 17.2789C24.1683 16.4031 21.7579 16.6496 19.8677 17.9347C18.1471 19.3553 16.957 21.3154 16.4903 23.4973C15.5117 20.885 15.3202 18.0433 15.9391 15.3233ZM20.1273 46.5455C19.1892 45.7255 18.6515 44.5401 18.6524 43.2942V40.1665C18.6524 39.3741 18.0099 38.7318 17.2177 38.7318C14.8548 38.7516 12.9232 36.8522 12.9034 34.4893C12.8879 32.6524 14.0469 31.0107 15.7829 30.4101V32.9927C15.7829 33.7852 16.4254 34.4275 17.2177 34.4275C18.0099 34.4275 18.6524 33.785 18.6524 32.9927V28.6884C18.6524 26.9252 19.1718 21.978 21.5449 20.2677C22.6953 19.5412 24.1343 19.443 25.3728 20.0066C27.3308 20.6714 29.2435 21.4627 31.0991 22.3755C34.7866 24.1173 37.4695 25.3885 45.566 24.4416C46.7953 25.4978 47.4556 27.0713 47.348 28.6886V32.9929C47.348 33.7854 47.9902 34.4276 48.7827 34.4276C49.5751 34.4276 50.2174 33.7852 50.2174 32.9929V30.4103C52.4504 31.1829 53.6345 33.6196 52.8619 35.8526C52.2613 37.5886 50.6196 38.7474 48.7827 38.7321C47.9902 38.7321 47.348 39.3746 47.348 40.1669V43.2947C47.3488 44.5406 46.8111 45.726 45.8731 46.546L41.5185 50.3538C36.0335 48.2551 29.9669 48.2551 24.4819 50.3538L20.1273 46.5455ZM11.1786 58.9334L13.6995 58.3035C12.6211 59.6878 11.6974 61.1861 10.9448 62.7715C10.4953 62.411 9.98789 62.1295 9.44397 61.9394C8.87465 61.7611 8.27726 61.6897 7.68205 61.7285C8.37697 60.3256 9.65717 59.3023 11.1786 58.9334ZM2.86978 76.0359C2.86978 75.2434 3.51206 74.6012 4.3045 74.6012C5.09693 74.6012 5.73922 73.9589 5.73922 73.1664V67.0787C5.70694 66.2703 6.0533 65.4931 6.67608 64.9768C7.20589 64.5658 7.90668 64.4488 8.54124 64.6654C9.07558 64.8429 9.52165 65.2182 9.78798 65.7142C9.73771 65.8706 9.67465 66.0199 9.62875 66.1776C8.94678 68.4445 8.60311 70.7994 8.60866 73.1664C8.60866 73.9589 9.25111 74.6012 10.0434 74.6012H14.3477C15.1401 74.6012 15.7824 75.2434 15.7824 76.0359V81.7749C15.7824 82.5674 15.1401 83.2096 14.3477 83.2096H5.73905C4.15418 83.2096 2.86944 81.9249 2.86944 80.34V76.0359H2.86978Z" fill="#C4C4C4"/>
<path d="M33.0001 74.6014C33.7925 74.6014 34.4349 73.959 34.4349 73.1667C34.4349 72.3743 33.7925 71.7319 33.0001 71.7319C32.2078 71.7319 31.5654 72.3743 31.5654 73.1667C31.5654 73.959 32.2078 74.6014 33.0001 74.6014Z" fill="#C4C4C4"/>
</svg>
