<svg width="25" height="21" viewBox="0 0 25 21" fill="none" xmlns="http://www.w3.org/2000/svg">
<path d="M25 5.76391V15.9414C25.0001 16.9791 24.6031 17.9774 23.8904 18.7317C23.1778 19.4859 22.2035 19.9389 21.1675 19.9977L20.9375 20.0039H4.0625C3.02483 20.004 2.02646 19.607 1.27221 18.8943C0.517958 18.1817 0.0649983 17.2074 0.00625014 16.1714L0 15.9414V5.76391L12.065 12.0839C12.1992 12.1542 12.3485 12.1909 12.5 12.1909C12.6515 12.1909 12.8008 12.1542 12.935 12.0839L25 5.76391ZM4.0625 0.00390628H20.9375C21.9445 0.00378498 22.9156 0.377651 23.6625 1.05299C24.4095 1.72833 24.879 2.65701 24.98 3.65891L12.5 10.1964L0.02 3.65891C0.116904 2.6968 0.553812 1.8008 1.25219 1.13198C1.95056 0.463167 2.8646 0.06539 3.83 0.0101564L4.0625 0.00390628H20.9375H4.0625Z" fill="white"/>
</svg>
