<svg width="80" height="80" viewBox="0 0 80 80" fill="none" xmlns="http://www.w3.org/2000/svg">
<g clip-path="url(#clip0_575_32)">
<path d="M58.75 43.125C59.6129 43.125 60.3125 42.4254 60.3125 41.5625C60.3125 40.6996 59.6129 40 58.75 40C57.8871 40 57.1875 40.6996 57.1875 41.5625C57.1875 42.4254 57.8871 43.125 58.75 43.125Z" fill="#C4C4C4"/>
<path d="M57.1093 36.0375C57.7187 35.4281 57.7187 34.4391 57.1093 33.8281C56.4984 33.2187 55.5093 33.2187 54.9 33.8281C54.289 34.4391 54.289 35.4281 54.9 36.0375C55.5093 36.6484 56.4984 36.6484 57.1093 36.0375Z" fill="#C4C4C4"/>
<path d="M54.9 49.297C55.5093 49.9063 56.4984 49.9063 57.1093 49.297C57.7187 48.686 57.7187 47.697 57.1093 47.0876C56.4984 46.4767 55.5093 46.4767 54.9 47.0876C54.289 47.697 54.289 48.686 54.9 49.297Z" fill="#C4C4C4"/>
<path d="M49.375 33.75C50.2379 33.75 50.9375 33.0504 50.9375 32.1875C50.9375 31.3246 50.2379 30.625 49.375 30.625C48.5121 30.625 47.8125 31.3246 47.8125 32.1875C47.8125 33.0504 48.5121 33.75 49.375 33.75Z" fill="#C4C4C4"/>
<path d="M49.375 52.5C50.2379 52.5 50.9375 51.8004 50.9375 50.9375C50.9375 50.0746 50.2379 49.375 49.375 49.375C48.5121 49.375 47.8125 50.0746 47.8125 50.9375C47.8125 51.8004 48.5121 52.5 49.375 52.5Z" fill="#C4C4C4"/>
<path d="M43.85 33.8281C43.2406 33.2187 42.2516 33.2187 41.6406 33.8281C41.0313 34.4391 41.0313 35.4281 41.6406 36.0375C42.2516 36.6484 43.2406 36.6484 43.85 36.0375C44.4609 35.4281 44.4609 34.4391 43.85 33.8281Z" fill="#C4C4C4"/>
<path d="M43.85 49.297C44.4609 48.686 44.4609 47.697 43.85 47.0876C43.2406 46.4767 42.2516 46.4767 41.6406 47.0876C41.0313 47.697 41.0313 48.686 41.6406 49.297C42.2516 49.9063 43.2406 49.9063 43.85 49.297Z" fill="#C4C4C4"/>
<path d="M40 43.125C40.8629 43.125 41.5625 42.4254 41.5625 41.5625C41.5625 40.6996 40.8629 40 40 40C39.1371 40 38.4375 40.6996 38.4375 41.5625C38.4375 42.4254 39.1371 43.125 40 43.125Z" fill="#C4C4C4"/>
<path d="M74.375 44.6875C75.2379 44.6875 75.9375 43.9879 75.9375 43.125C75.9375 42.2621 75.2379 41.5625 74.375 41.5625C73.5121 41.5625 72.8125 42.2621 72.8125 43.125C72.8125 43.9879 73.5121 44.6875 74.375 44.6875Z" fill="#C4C4C4"/>
<path d="M75.1969 23.0467C74.7369 22.762 74.1616 22.7355 73.677 22.977C73.6411 22.995 70.4967 24.5466 66.5625 25.395V14.5312C66.5625 13.9902 66.282 13.4878 65.822 13.203C65.3617 12.9183 64.7866 12.8919 64.3023 13.1333C64.282 13.1433 62.6661 13.9417 60.3125 14.7052V4.6875C60.3125 4.1525 60.0389 3.65484 59.5872 3.36828C59.1356 3.08187 58.5686 3.04594 58.0847 3.27391C58.0214 3.30359 51.6883 6.25 45.4688 6.25C39.2711 6.25 32.9153 3.30312 32.8528 3.27375C32.5687 3.14016 25.8167 0 18.9062 0C14.3116 0 9.7875 1.38812 7.1875 2.35766V1.5625C7.1875 0.699688 6.48781 0 5.625 0C4.76219 0 4.0625 0.699688 4.0625 1.5625V78.4375C4.0625 79.3003 4.76219 80 5.625 80C6.48781 80 7.1875 79.3003 7.1875 78.4375V41.0286C8.39703 40.5344 10.7147 39.6711 13.4375 39.0778V78.4375C13.4375 79.3003 14.1372 80 15 80C15.8628 80 16.5625 79.3003 16.5625 78.4375V50.3791C17.7638 49.8586 20.0992 48.9402 22.8125 48.3552V78.4375C22.8125 79.3003 23.5122 80 24.375 80C25.2378 80 25.9375 79.3003 25.9375 78.4375V59.7545C27.7987 58.9492 32.3839 57.1875 36.875 57.1875C42.6666 57.1875 48.6178 60.1184 48.6763 60.1475C48.9448 60.2819 55.3314 63.4375 61.875 63.4375C68.4186 63.4375 74.8052 60.2819 75.0737 60.1475C75.6031 59.8828 75.9375 59.3419 75.9375 58.75V50.1562C75.9375 49.2934 75.2378 48.5938 74.375 48.5938C73.5122 48.5938 72.8125 49.2934 72.8125 50.1562V57.7456C70.9497 58.5514 66.3642 60.3125 61.875 60.3125C56.0834 60.3125 50.1322 57.3816 50.0737 57.3525C49.8052 57.2181 43.4186 54.0625 36.875 54.0625C32.6136 54.0625 28.4194 55.4008 25.9375 56.3714V25.3795C27.7987 24.5742 32.3839 22.8125 36.875 22.8125C42.6666 22.8125 48.6178 25.7434 48.6763 25.7725C48.9448 25.9069 55.3314 29.0625 61.875 29.0625C65.4967 29.0625 69.4122 28.0816 72.8125 26.753V36.0938C72.8125 36.9566 73.5122 37.6562 74.375 37.6562C75.2378 37.6562 75.9375 36.9566 75.9375 36.0938V24.375C75.9375 23.8339 75.657 23.3314 75.1969 23.0467V23.0467ZM7.1875 37.6717V5.71516C9.15609 4.90984 14.0653 3.125 18.9062 3.125C25.1039 3.125 31.4597 6.07188 31.5222 6.10125C31.8063 6.23484 38.5583 9.375 45.4688 9.375C50.0631 9.375 54.5873 7.98703 57.1875 7.01734V15.5494C55.5183 15.9087 53.9448 16.0938 52.5 16.0938C46.7084 16.0938 40.7572 13.1628 40.6987 13.1337C40.4302 12.9994 34.0436 9.84375 27.5 9.84375C23.2386 9.84375 19.0444 11.182 16.5625 12.1527V11.4062C16.5625 10.5434 15.8628 9.84375 15 9.84375C14.1372 9.84375 13.4375 10.5434 13.4375 11.4062V35.8862C10.9353 36.3802 8.72484 37.0991 7.1875 37.6717V37.6717ZM50.0737 22.9775C49.8052 22.8431 43.4186 19.6875 36.875 19.6875C32.6136 19.6875 28.4194 21.0258 25.9375 21.9964V21.25C25.9375 20.3872 25.2378 19.6875 24.375 19.6875C23.5122 19.6875 22.8125 20.3872 22.8125 21.25V45.1656C20.3278 45.6437 18.1116 46.3919 16.5625 46.9973V15.5358C18.4237 14.7305 23.0089 12.9688 27.5 12.9688C33.2916 12.9688 39.2428 15.8997 39.3012 15.9288C39.5698 16.0631 45.9564 19.2188 52.5 19.2188C56.1559 19.2188 60.0736 18.2217 63.4375 16.9078V25.8681C62.8998 25.9128 62.3764 25.9375 61.875 25.9375C56.0834 25.9375 50.1322 23.0066 50.0737 22.9775V22.9775Z" fill="#C4C4C4"/>
</g>
<defs>
<clipPath id="clip0_575_32">
<rect width="80" height="80" fill="white"/>
</clipPath>
</defs>
</svg>
