<svg width="100" height="86" viewBox="0 0 100 86" fill="none" xmlns="http://www.w3.org/2000/svg">
<path d="M30.7172 67.2371H69.2823C71.7797 67.2371 74.1748 66.245 75.9407 64.4791C77.7067 62.7132 78.6987 60.3181 78.6987 57.8207C78.6987 55.3233 77.7067 52.9282 75.9407 51.1623C74.1748 49.3964 71.7797 48.4043 69.2823 48.4043H30.7172C28.2198 48.4043 25.8247 49.3964 24.0588 51.1623C22.2929 52.9282 21.3008 55.3233 21.3008 57.8207C21.3008 60.3181 22.2929 62.7132 24.0588 64.4791C25.8247 66.245 28.2198 67.2371 30.7172 67.2371V67.2371ZM54.1937 51.6842L49.9998 55.582L45.8058 51.6842H54.1937ZM30.7172 51.6842H40.9874L48.8834 59.022C49.1868 59.3039 49.5856 59.4606 49.9998 59.4606C50.4139 59.4606 50.8128 59.3039 51.1162 59.022L59.0121 51.6842H69.2823C70.6234 51.6861 71.9271 52.1265 72.9946 52.9383C74.0621 53.7502 74.8348 54.8889 75.1948 56.1808H57.2307C56.7958 56.1808 56.3787 56.3535 56.0711 56.6611C55.7636 56.9686 55.5908 57.3858 55.5908 57.8207C55.5908 58.2556 55.7636 58.6728 56.0711 58.9803C56.3787 59.2879 56.7958 59.4607 57.2307 59.4607H75.1948C74.8348 60.7525 74.0621 61.8912 72.9946 62.7031C71.9271 63.5149 70.6234 63.9553 69.2823 63.9572H30.7172C29.3761 63.9553 28.0724 63.5149 27.0049 62.7031C25.9374 61.8912 25.1648 60.7525 24.8047 59.4607H42.7895C43.2244 59.4607 43.6416 59.2879 43.9491 58.9803C44.2567 58.6728 44.4295 58.2556 44.4295 57.8207C44.4295 57.3858 44.2567 56.9686 43.9491 56.6611C43.6416 56.3535 43.2244 56.1808 42.7895 56.1808H24.8047C25.1648 54.8889 25.9374 53.7502 27.0049 52.9383C28.0724 52.1265 29.3761 51.6861 30.7172 51.6842V51.6842Z" fill="#C4C4C4"/>
<path d="M85.6421 72.125C85.3194 71.8346 84.8949 71.6838 84.4613 71.7054C84.0277 71.7271 83.6204 71.9195 83.3283 72.2407C82.842 72.7736 81.2294 74.1596 79.6257 74.1596C78.022 74.1596 76.4091 72.7743 75.9274 72.2456C75.6521 71.9381 73.1395 69.2397 69.786 69.2397C66.4325 69.2397 63.9197 71.9379 63.6489 72.2407C63.1626 72.7736 61.5499 74.1596 59.9463 74.1596C58.3426 74.1596 56.7297 72.7743 56.248 72.2456C55.9726 71.9381 53.46 69.2397 50.1065 69.2397C46.753 69.2397 44.2402 71.9379 43.9694 72.2407C43.4832 72.7736 41.8705 74.1596 40.2668 74.1596C38.6632 74.1596 37.0503 72.7743 36.5685 72.2456C36.2932 71.9381 33.7806 69.2397 30.4271 69.2397C27.0736 69.2397 24.5608 71.9379 24.29 72.2407C23.8037 72.7736 22.1911 74.1596 20.5874 74.1596C18.9837 74.1596 17.3719 72.7753 16.8852 72.2411C16.5938 71.9202 16.1872 71.7277 15.7543 71.7058C15.3214 71.6838 14.8974 71.8342 14.575 72.1239C14.2526 72.4137 14.058 72.8192 14.0338 73.252C14.0096 73.6848 14.1577 74.1096 14.4458 74.4335C14.7211 74.741 17.2337 77.4395 20.5874 77.4395C23.9411 77.4395 26.4535 74.7412 26.7243 74.4384C27.2105 73.9054 28.8232 72.5197 30.4271 72.5197C32.031 72.5197 33.6435 73.9048 34.1252 74.4335C34.4005 74.741 36.9131 77.4395 40.2668 77.4395C43.6205 77.4395 46.1329 74.7412 46.4037 74.4384C46.89 73.9054 48.5027 72.5197 50.1065 72.5197C51.7104 72.5197 53.3229 73.9048 53.8046 74.4335C54.0799 74.741 56.5925 77.4395 59.9463 77.4395C63.3 77.4395 65.8124 74.7412 66.0832 74.4384C66.5694 73.9054 68.1821 72.5197 69.786 72.5197C71.3898 72.5197 73.0023 73.9048 73.4841 74.4335C73.7594 74.741 76.272 77.4395 79.6257 77.4395C82.9794 77.4395 85.4918 74.7412 85.7671 74.4335C86.0561 74.1105 86.2053 73.6862 86.1819 73.2534C86.1584 72.8206 85.9643 72.4149 85.6421 72.125V72.125Z" fill="#C4C4C4"/>
<path d="M69.7859 77.29C66.4326 77.29 63.9196 79.9884 63.6443 80.2961C63.1997 80.7926 61.5659 82.2099 59.9462 82.2099C58.3423 82.2099 56.7297 80.8248 56.2479 80.2961C55.9726 79.9886 53.46 77.29 50.1065 77.29C46.753 77.29 44.2396 79.9884 43.9649 80.2961C43.5202 80.7926 41.8864 82.2099 40.2668 82.2099C38.6629 82.2099 37.0502 80.8248 36.5685 80.2961C36.2932 79.9886 33.7806 77.29 30.4271 77.29C29.9921 77.29 29.575 77.4628 29.2674 77.7704C28.9599 78.0779 28.7871 78.495 28.7871 78.93C28.7871 79.3649 28.9599 79.7821 29.2674 80.0896C29.575 80.3972 29.9921 80.5699 30.4271 80.5699C32.0307 80.5699 33.6434 81.9551 34.1252 82.484C34.4005 82.7915 36.9131 85.4898 40.2668 85.4898C43.6205 85.4898 46.1329 82.7915 46.4082 82.484C46.8528 81.9875 48.4866 80.5699 50.1065 80.5699C51.7102 80.5699 53.3229 81.9551 53.8046 82.484C54.0799 82.7915 56.5925 85.4898 59.9462 85.4898C63.2999 85.4898 65.8123 82.7915 66.0876 82.484C66.5323 81.9875 68.1661 80.5699 69.7859 80.5699C70.2209 80.5699 70.638 80.3972 70.9456 80.0896C71.2531 79.7821 71.4259 79.3649 71.4259 78.93C71.4259 78.495 71.2531 78.0779 70.9456 77.7704C70.638 77.4628 70.2209 77.29 69.7859 77.29Z" fill="#C4C4C4"/>
<path d="M50.0589 47.0246C49.624 47.0246 49.2068 46.8519 48.8993 46.5443C48.5917 46.2368 48.4189 45.8196 48.4189 45.3847V35.8377C48.4189 35.4028 48.5917 34.9856 48.8993 34.6781C49.2068 34.3705 49.624 34.1978 50.0589 34.1978C50.4938 34.1978 50.911 34.3705 51.2185 34.6781C51.5261 34.9856 51.6989 35.4028 51.6989 35.8377V45.3847C51.6989 45.8196 51.5261 46.2368 51.2185 46.5443C50.911 46.8519 50.4938 47.0246 50.0589 47.0246Z" fill="#C4C4C4"/>
<path d="M99.8453 12.5286L95.8049 3.88277C95.6207 3.48879 95.2876 3.18409 94.8788 3.0357C94.47 2.88731 94.019 2.90738 93.625 3.09149L80.0521 9.43504C79.6593 9.61863 79.3552 9.9503 79.2063 10.3575L77.8038 14.1909C77.3544 13.6579 76.599 13.283 75.5 13.283C73.2246 13.283 68.7967 15.0121 68.7967 18.1823V19.9631L65.3596 21.5688C64.079 20.4472 62.4348 19.8287 60.7325 19.8282H55.2081V17.0608C56.0727 16.001 56.6564 14.7167 56.6601 13.3309L56.6627 11.8068C57.2863 11.2103 58.2121 10.2284 58.6456 9.28416C60.9416 4.28333 57.792 0.875093 57.6569 0.732417C57.5014 0.559961 57.3105 0.423008 57.0973 0.330864C56.8842 0.238721 56.6536 0.193546 56.4214 0.198408C56.1924 0.203405 55.9672 0.258305 55.7616 0.35928C55.556 0.460256 55.3748 0.604875 55.2308 0.783051C55.0702 0.968028 54.8624 1.10597 54.6296 1.18217C54.2423 1.09272 53.8613 0.977806 53.4892 0.838194C52.0015 0.272186 50.4214 -0.0119239 48.8297 0.000383377H48.7887C43.1013 0.000383377 41.5553 3.18435 41.1402 5.08526C40.3975 8.48817 42.3207 10.8056 43.4449 11.8296L43.4402 13.2965C43.4365 14.6236 43.9475 15.9377 44.8956 17.0936V19.8276H38.8588C37.5813 19.8296 36.3193 20.1068 35.1586 20.6402L31.5147 22.3222C31.1269 22.5089 30.8281 22.8405 30.6826 23.2455C30.5372 23.6505 30.5567 24.0964 30.7371 24.4872C30.9174 24.8779 31.2442 25.182 31.6467 25.334C32.0493 25.4861 32.4956 25.4737 32.8891 25.2997L36.5331 23.6188C37.2626 23.2833 38.0558 23.1091 38.8588 23.1079H40.6385C40.747 24.0146 40.7636 25.3293 40.2624 26.5664C39.6726 28.0219 37.5952 29.0878 36.7666 29.4084L29.2995 31.3676C28.9673 31.4547 28.6709 31.6438 28.452 31.9084C28.2331 32.173 28.1027 32.4996 28.0794 32.8422C28.056 33.1848 28.1407 33.526 28.3216 33.8179C28.5025 34.1098 28.7705 34.3375 29.0877 34.4689L36.33 37.4688C36.5047 37.5243 36.661 37.6262 36.7822 37.7638C36.7865 37.8073 36.7344 38.045 36.4052 38.4163C35.9618 38.9165 35.091 39.2467 33.9529 39.3464C33.4972 39.3832 33.0393 39.3099 32.6179 39.1327L20.1529 33.9687C19.9573 33.886 19.78 33.7654 19.6312 33.614C19.4824 33.4625 19.3649 33.2832 19.2855 33.0862C19.2114 32.9119 19.1728 32.7245 19.1722 32.5351C19.1716 32.3456 19.2089 32.158 19.2818 31.9832C19.3607 31.8002 19.4761 31.6353 19.6209 31.4984C19.7657 31.3615 19.9368 31.2556 20.124 31.1872C20.1624 31.1735 20.2001 31.1577 20.2373 31.1398L28.6158 27.2726C28.8151 27.1848 28.9949 27.0583 29.1447 26.9003C29.2946 26.7423 29.4114 26.556 29.4885 26.3524C29.5656 26.1487 29.6014 25.9318 29.5937 25.7142C29.5861 25.4966 29.5352 25.2827 29.444 25.0849C29.3528 24.8872 29.2232 24.7096 29.0626 24.5625C28.902 24.4155 28.7138 24.3018 28.5089 24.2282C28.3039 24.1547 28.0864 24.1227 27.8689 24.1341C27.6515 24.1455 27.4385 24.2001 27.2424 24.2947L18.9141 28.1387C18.3283 28.363 17.7933 28.7023 17.3405 29.1365C16.8878 29.5707 16.5265 30.0911 16.278 30.667C16.0294 31.2429 15.8985 31.8628 15.8931 32.49C15.8876 33.1173 16.0077 33.7393 16.2463 34.3195C16.49 34.9187 16.8497 35.4639 17.3047 35.9238C17.7597 36.3837 18.301 36.7491 18.8977 36.9992L26.0237 39.9511L21.4972 42.0664L15.7689 40.0029C15.3608 39.8561 14.9113 39.8767 14.5184 40.0601L0.945728 46.4029C0.750604 46.494 0.57535 46.6228 0.429972 46.7817C0.284594 46.9406 0.171941 47.1265 0.0984443 47.329C0.0249475 47.5314 -0.00795307 47.7464 0.00162135 47.9615C0.0111958 48.1767 0.0630577 48.3879 0.154246 48.583L4.19468 57.2288C4.2857 57.424 4.41433 57.5994 4.5732 57.7449C4.73207 57.8903 4.91806 58.003 5.12054 58.0765C5.32301 58.15 5.538 58.1829 5.75318 58.1732C5.96837 58.1635 6.17953 58.1115 6.37459 58.0201L19.9479 51.6774C20.3407 51.4938 20.6448 51.1621 20.7937 50.7549L22.886 45.0372L30.1309 41.6513L31.3632 42.1617C32.1118 42.4726 32.9141 42.6334 33.7247 42.6351C33.8969 42.6351 34.0685 42.6276 34.2396 42.6125C34.7065 42.5723 35.1699 42.4984 35.6262 42.3915V45.3845C35.6262 45.8194 35.799 46.2365 36.1066 46.5441C36.4141 46.8516 36.8312 47.0244 37.2662 47.0244C37.7011 47.0244 38.1182 46.8516 38.4258 46.5441C38.7333 46.2365 38.9061 45.8194 38.9061 45.3845V43.1859H45.1035C45.5385 43.1859 45.9556 43.0131 46.2631 42.7056C46.5707 42.398 46.7435 41.9809 46.7435 41.5459C46.7435 41.111 46.5707 40.6939 46.2631 40.3863C45.9556 40.0788 45.5385 39.906 45.1035 39.906H39.3813C39.8072 39.276 40.0432 38.5369 40.0611 37.7767H45.1039C45.5128 37.7746 45.9062 37.6198 46.2069 37.3426C46.5076 37.0655 46.6939 36.686 46.7293 36.2786C46.7646 35.8712 46.6465 35.4653 46.3981 35.1405C46.1497 34.8157 45.7888 34.5954 45.3864 34.5228L64.5724 25.5568L69.2008 30.8766C69.42 31.1286 69.711 31.3076 70.0348 31.3897C70.3586 31.4718 70.6997 31.4531 71.0126 31.336C71.3254 31.219 71.5951 31.0092 71.7854 30.7347C71.9758 30.4603 72.0778 30.1342 72.0779 29.8002V22.7031C73.0388 23.0184 74.0752 23.0184 75.0361 22.7031V38.1246C75.0414 38.5171 74.8933 38.8962 74.6233 39.1813C74.3533 39.4663 73.9828 39.6347 73.5905 39.6508C73.2215 39.6563 72.8435 39.6012 72.2253 38.8556C72.2168 38.8456 72.2084 38.8351 72.1998 38.8257L64.4242 29.8957C64.2783 29.7282 64.0999 29.5921 63.8998 29.4956L62.4087 28.7762C62.0173 28.5899 61.568 28.5661 61.1592 28.7101C60.7503 28.854 60.415 29.154 60.2267 29.5445C60.0384 29.9349 60.0123 30.3841 60.1541 30.7937C60.296 31.2033 60.5943 31.5401 60.9838 31.7304L61.5473 32.0022V34.4968H55.3503C54.9154 34.4968 54.4983 34.6696 54.1907 34.9771C53.8832 35.2847 53.7104 35.7018 53.7104 36.1368C53.7104 36.5717 53.8832 36.9888 54.1907 37.2964C54.4983 37.6039 54.9154 37.7767 55.3503 37.7767H61.5473V39.906H55.3503C54.9154 39.906 54.4983 40.0788 54.1907 40.3863C53.8832 40.6939 53.7104 41.111 53.7104 41.5459C53.7104 41.9809 53.8832 42.398 54.1907 42.7056C54.4983 43.0131 54.9154 43.1859 55.3503 43.1859H61.5473V45.3845C61.5473 45.8194 61.7201 46.2365 62.0276 46.5441C62.3352 46.8516 62.7523 47.0244 63.1873 47.0244C63.6222 47.0244 64.0393 46.8516 64.3469 46.5441C64.6544 46.2365 64.8272 45.8194 64.8272 45.3845V35.3539L69.7126 40.9654C70.8145 42.2874 72.0725 42.9311 73.5559 42.9311H73.6467C74.8975 42.8962 76.0853 42.3744 76.9571 41.4768C77.829 40.5793 78.3161 39.3769 78.3148 38.1256V18.9792L84.2311 21.1099C84.6391 21.2571 85.0888 21.2365 85.4816 21.0527L99.0543 14.7099C99.2494 14.6188 99.4246 14.4901 99.57 14.3312C99.7154 14.1722 99.8281 13.9863 99.9015 13.7838C99.975 13.5814 100.008 13.3664 99.9984 13.1513C99.9888 12.9361 99.9369 12.7249 99.8458 12.5298L99.8453 12.5286ZM35.6258 33.626L34.8454 33.3027L35.6258 33.0977V33.626ZM17.9459 48.9926L6.47216 54.3544L3.82057 48.6801L15.2945 43.3187L19.4719 44.8234L17.9459 48.9926ZM44.3446 5.78429C44.4799 5.16398 44.8907 3.28009 48.7881 3.28009H48.8209C50.0495 3.26931 51.269 3.49192 52.4146 3.93607C52.9251 4.12527 53.4481 4.27891 53.9798 4.39587C54.642 4.5268 55.3283 4.45654 55.9504 4.19415C56.2456 5.03586 56.3886 6.2851 55.7021 7.83178C55.4728 7.44093 55.1232 7.13468 54.7056 6.95871C54.3909 6.82411 54.0467 6.77329 53.7065 6.81119C53.3663 6.84909 53.0417 6.97442 52.7643 7.17497C51.8267 7.83588 51.4384 8.10975 50.04 7.91193C49.2657 7.80709 48.5195 7.55157 47.8435 7.15981C47.6435 7.02439 47.4161 6.9348 47.1775 6.89745C46.9389 6.8601 46.695 6.87591 46.4632 6.94374C46.2326 7.01414 46.0198 7.13323 45.8392 7.29298C45.6586 7.45273 45.5144 7.6494 45.4163 7.8697C45.2898 8.14357 45.1638 8.40719 44.9975 8.69316C44.6833 8.2852 44.462 7.81345 44.3492 7.31098C44.2364 6.8085 44.2349 6.28744 44.3446 5.78429V5.78429ZM50.0334 16.6338H50.0312C49.6734 16.6338 48.8012 16.3058 47.9827 15.5834C47.1787 14.8735 46.7187 14.0433 46.7207 13.3053L46.7248 11.7771C46.8097 11.6935 46.8991 11.6039 46.9931 11.5047C47.2311 11.247 47.4449 10.9681 47.6319 10.6714C48.2627 10.9021 48.916 11.066 49.581 11.1605C51.2392 11.395 52.3402 11.1605 53.2914 10.6964C53.3275 10.8628 53.358 11.0313 53.384 11.1943L53.3803 13.3236C53.3756 15.0631 50.9704 16.6336 50.0334 16.6336V16.6338ZM51.9282 19.4988V22.38C51.873 22.7326 51.5918 23.7865 50.2097 23.7865C49.75 23.7944 49.3007 23.6492 48.9326 23.3737C48.5645 23.0982 48.2984 22.7081 48.1764 22.2648V19.5154C48.7614 19.7613 49.387 19.8963 50.0213 19.9135H50.0307C50.6838 19.8964 51.3277 19.7556 51.9282 19.4984V19.4988ZM38.9057 33.93V32.0399C40.2421 31.3727 42.4093 30.0005 43.302 27.7978C43.8758 26.3051 44.0917 24.6987 43.9324 23.1075H45.0033C45.4364 24.6185 46.9636 27.0662 50.2101 27.0662C53.4566 27.0662 54.7868 24.6848 55.1248 23.1075H56.5188C56.4424 23.9613 56.4638 24.821 56.5826 25.67L38.9057 33.93ZM59.7536 24.1868C59.7512 23.8259 59.7713 23.4651 59.8139 23.1067H60.7316C61.0767 23.1083 61.4199 23.1577 61.7515 23.2533L59.7536 24.1868ZM68.7963 25.4168L67.6615 24.1124L68.7963 23.5821V25.4168ZM73.5551 19.6597C73.1644 19.6593 72.7899 19.5044 72.5129 19.2289C72.236 18.9535 72.0792 18.5797 72.0766 18.1891C72.0924 18.1227 72.2611 17.8201 72.8443 17.4435C73.5132 17.0242 74.2567 16.7379 75.0341 16.6004V18.1809C75.0336 18.5729 74.8778 18.9487 74.6007 19.2259C74.3236 19.5031 73.9478 19.6591 73.5559 19.6597H73.5551ZM84.7051 17.7943L80.5277 16.2896L82.0533 12.1198L93.5278 6.75802L96.1794 12.4325L84.7051 17.7943Z" fill="#C4C4C4"/>
</svg>
