<svg width="75" height="75" viewBox="0 0 75 75" fill="none" xmlns="http://www.w3.org/2000/svg">
<g clip-path="url(#clip0_609_5)">
<path d="M1.09863 3.46914H3.23027L8.77588 11.4732C9.11777 11.9668 9.68042 12.2616 10.281 12.2616C10.8816 12.2616 11.4441 11.9668 11.7861 11.4732V11.4733L17.0858 3.82393L22.3854 11.4732C22.7273 11.9668 23.29 12.2616 23.8906 12.2616C24.4912 12.2616 25.0537 11.9668 25.3957 11.4732V11.4733L30.6954 3.82393L35.995 11.4732C36.3369 11.9668 36.8996 12.2616 37.5001 12.2616C38.1007 12.2616 38.6632 11.9668 39.0053 11.4732V11.4733L44.3049 3.82393L49.6046 11.4732C49.9465 11.9668 50.5091 12.2616 51.1097 12.2616C51.7103 12.2616 52.2728 11.9668 52.6148 11.4732V11.4733L57.9145 3.82393L63.2142 11.4733C63.5562 11.967 64.1188 12.2616 64.7193 12.2616C65.3197 12.2616 65.8824 11.9668 66.2243 11.4732V11.4733L71.7697 3.46899H73.9014C74.5081 3.46899 75 2.97725 75 2.37036C75 1.76348 74.5081 1.27173 73.9014 1.27173H1.09863C0.491895 1.27173 0 1.76348 0 2.37036C0 2.97725 0.491895 3.46914 1.09863 3.46914V3.46914ZM69.0965 3.46914L64.719 9.7876L60.3415 3.46914H69.0965ZM55.4871 3.46914L51.1096 9.7876L46.732 3.46914H55.4871ZM41.8775 3.46914L37.5 9.78745L33.1225 3.46899H41.8775V3.46914ZM28.268 3.46914L23.8904 9.7876L19.5129 3.46914H28.268ZM14.6584 3.46914L10.281 9.78745L5.90347 3.46914H14.6584Z" fill="#C4C4C4"/>
<path d="M16.0203 14.1921C16.0202 14.1923 16.0202 14.1923 16.0203 14.1921L13.7529 16.4596C13.1621 17.0503 13.1621 18.0117 13.7529 18.6025L16.0203 20.8699C16.3158 21.1652 16.7037 21.3127 17.0916 21.3127C17.4796 21.3127 17.8676 21.1649 18.163 20.8698L20.4302 18.6025C20.7166 18.3162 20.8742 17.9357 20.8742 17.5309C20.8742 17.1262 20.7166 16.7456 20.4304 16.4596L18.163 14.1921C17.5723 13.6018 16.6111 13.6015 16.0203 14.1921V14.1921ZM17.0916 18.8338L15.7887 17.5309L17.0916 16.2281L18.3944 17.5309L17.0916 18.8338Z" fill="#C4C4C4"/>
<path d="M46.7297 16.6825L44.4624 18.9498C44.1761 19.236 44.0184 19.6166 44.0184 20.0213C44.0184 20.426 44.176 20.8066 44.4623 21.0927L46.7297 23.3601C47.025 23.6554 47.4131 23.8029 47.801 23.8029C48.1888 23.8029 48.5769 23.6553 48.8723 23.3601L51.1398 21.0927C51.7305 20.5019 51.7305 19.5405 51.1398 18.9498L48.8723 16.6823C48.2816 16.0917 47.3203 16.092 46.7297 16.6825V16.6825ZM47.8011 21.324L46.4983 20.0212L47.8011 18.7183L49.1039 20.0212L47.8011 21.324Z" fill="#C4C4C4"/>
<path d="M5.84251 29.2957L8.10994 31.5632C8.4054 31.8585 8.79329 32.006 9.18118 32.006C9.56922 32.006 9.95726 31.8582 10.2526 31.563L12.5199 29.2957C12.8062 29.0095 12.9638 28.6289 12.9638 28.2242C12.9638 27.8195 12.8062 27.4389 12.52 27.1528L10.2526 24.8854C9.66194 24.2949 8.70086 24.2946 8.10994 24.8852C8.10994 24.8854 8.10994 24.8854 8.1098 24.8854L5.84236 27.1528C5.25174 27.7436 5.25174 28.705 5.84251 29.2957ZM9.18133 26.9215L10.4842 28.2243L9.18133 29.5272L7.8785 28.2243L9.18133 26.9215Z" fill="#C4C4C4"/>
<path d="M30.5644 16.4062V18.9921H27.9785C27.3717 18.9921 26.8798 19.4839 26.8798 20.0908V22.6767H24.2939C23.6872 22.6767 23.1953 23.1684 23.1953 23.7753V28.0958C23.1953 28.7027 23.6872 29.1945 24.2939 29.1945C24.9007 29.1945 25.3926 28.7027 25.3926 28.0958V24.8739H27.9785C28.5852 24.8739 29.0771 24.3822 29.0771 23.7753V21.1894H31.663C32.2697 21.1894 32.7616 20.6977 32.7616 20.0908V16.4062C32.7616 15.7995 32.2697 15.3076 31.663 15.3076C31.0564 15.3076 30.5644 15.7995 30.5644 16.4062Z" fill="#C4C4C4"/>
<path d="M60.2521 17.488C60.4581 17.694 60.7376 17.8097 61.0289 17.8097H64.2032C64.81 17.8097 65.3019 17.318 65.3019 16.7111C65.3019 16.1042 64.81 15.6125 64.2032 15.6125H62.1276V13.5368C62.1276 13.2454 62.0118 12.9661 61.8057 12.7598C61.5998 12.5539 61.3203 12.4381 61.0289 12.4381H58.9532V10.3623C58.9532 9.75542 58.4614 9.26367 57.8546 9.26367C57.2479 9.26367 56.756 9.75542 56.756 10.3623V13.5368C56.756 14.1437 57.2479 14.6354 57.8546 14.6354H59.9303V16.7111C59.9304 17.0024 60.0462 17.2819 60.2521 17.488Z" fill="#C4C4C4"/>
<path d="M54.9316 27.7588C55.5384 27.7588 56.0303 27.2669 56.0303 26.6602C56.0303 26.0534 55.5384 25.5615 54.9316 25.5615C54.3249 25.5615 53.833 26.0534 53.833 26.6602C53.833 27.2669 54.3249 27.7588 54.9316 27.7588Z" fill="#C4C4C4"/>
<path d="M70.166 15.7476C70.7728 15.7476 71.2646 15.2557 71.2646 14.6489C71.2646 14.0422 70.7728 13.5503 70.166 13.5503C69.5593 13.5503 69.0674 14.0422 69.0674 14.6489C69.0674 15.2557 69.5593 15.7476 70.166 15.7476Z" fill="#C4C4C4"/>
<path d="M36.7676 25.415C37.3743 25.415 37.8662 24.9232 37.8662 24.3164C37.8662 23.7096 37.3743 23.2178 36.7676 23.2178C36.1608 23.2178 35.6689 23.7096 35.6689 24.3164C35.6689 24.9232 36.1608 25.415 36.7676 25.415Z" fill="#C4C4C4"/>
<path d="M7.32422 17.3589C7.93098 17.3589 8.42285 16.867 8.42285 16.2603C8.42285 15.6535 7.93098 15.1616 7.32422 15.1616C6.71746 15.1616 6.22559 15.6535 6.22559 16.2603C6.22559 16.867 6.71746 17.3589 7.32422 17.3589Z" fill="#C4C4C4"/>
<path d="M73.1689 50.7077H69.7544V38.7718C69.7544 36.7377 68.6827 34.8512 66.9727 33.7877V24.4033C66.9727 23.3936 66.1513 22.5723 65.1416 22.5723H62.6325C61.6228 22.5723 60.8014 23.3936 60.8014 24.4033V33.7877C59.0914 34.8515 58.0197 36.7379 58.0197 38.7718V50.7077H54.415V47.3262C55.8432 46.862 56.8789 45.519 56.8789 43.9379V38.1359C56.8789 37.529 56.387 37.0373 55.7802 37.0373H50.8525C50.2458 37.0373 49.7539 37.529 49.7539 38.1359V43.9379C49.7539 45.5189 50.7895 46.862 52.2177 47.3262V50.7077H50.8384V48.9621C50.8384 47.9524 50.0171 47.1311 49.0074 47.1311H48.797C48.6271 45.3772 48.0527 43.6865 47.1083 42.1877C46.7849 41.6744 46.1065 41.5202 45.5931 41.8437C45.0798 42.1672 44.9257 42.8455 45.2492 43.359C45.9721 44.5064 46.427 45.7932 46.5882 47.1311H28.4115C28.956 42.5996 32.8244 39.0756 37.5 39.0756C39.0448 39.0756 40.5731 39.4688 41.9193 40.2125C42.4506 40.5065 43.1188 40.3133 43.4123 39.7821C43.7057 39.251 43.513 38.5827 42.9819 38.2893C41.6316 37.5433 40.1344 37.082 38.5986 36.9323V36.2284C38.5986 35.6215 38.1067 35.1298 37.5 35.1298C36.8933 35.1298 36.4014 35.6215 36.4014 36.2284V36.9326C31.0175 37.4521 26.7223 41.7474 26.2027 47.1312H25.9926C24.9829 47.1312 24.1616 47.9526 24.1616 48.9623V50.7078H23.1001V47.3262C24.5284 46.862 25.564 45.519 25.564 43.9379V38.1359C25.564 37.529 25.0721 37.0373 24.4654 37.0373H19.5376C18.9309 37.0373 18.439 37.529 18.439 38.1359V43.9379C18.439 45.5189 19.4747 46.862 20.9029 47.3262V50.7077H15.5914C16.5448 49.5636 17.1624 48.1284 17.2783 46.551C17.3092 46.1291 17.1612 45.7089 16.8724 45.3979C16.632 45.1392 16.3085 44.9737 15.9624 44.9234C15.7251 43.6247 14.8274 42.5539 13.6296 42.0759C13.2502 40.3774 11.7319 39.1036 9.9208 39.1036C8.10967 39.1036 6.59136 40.3774 6.21196 42.0759C5.01401 42.5539 4.11636 43.6247 3.87905 44.9234C3.53306 44.9737 3.20962 45.1392 2.96924 45.3979C2.68037 45.7087 2.53242 46.129 2.56333 46.551C2.6792 48.1284 3.29678 49.5636 4.25024 50.7077H1.83105C0.821338 50.7077 0 51.529 0 52.5387V55.5246C0 56.5344 0.821338 57.3557 1.83105 57.3557H2.06646V71.8973C2.06646 72.9071 2.88779 73.7284 3.89751 73.7284H9.10898C10.1187 73.7284 10.94 72.9071 10.94 71.8973V68.9942C10.94 68.3873 10.4481 67.8955 9.84141 67.8955C9.23467 67.8955 8.74277 68.3873 8.74277 68.9942V71.531H4.26372V61.6475H8.74277V63.8672C8.74277 64.4741 9.23467 64.9658 9.84141 64.9658C10.4481 64.9658 10.94 64.4741 10.94 63.8672V61.6477H20.543L35.9183 72.8375C36.3913 73.1817 36.9456 73.3537 37.5 73.3537C38.0543 73.3537 38.6087 73.1816 39.0817 72.8375L54.457 61.6477H64.06V71.8973C64.06 72.9071 64.8813 73.7284 65.891 73.7284H71.1025C72.1122 73.7284 72.9335 72.9071 72.9335 71.8973V57.3557H73.1689C74.1787 57.3557 75 56.5344 75 55.5246V52.5387C75 51.529 74.1787 50.7077 73.1689 50.7077V50.7077ZM62.9987 24.7694H64.7754V27.4644H62.9987V24.7694ZM60.2169 38.7718C60.2169 37.3489 61.0586 36.0403 62.361 35.438C62.7498 35.2582 62.9987 34.869 62.9987 34.4407V29.6617H64.7754V34.4407C64.7754 34.869 65.0243 35.2582 65.413 35.438C66.7156 36.0402 67.5573 37.3487 67.5573 38.7718V39.4218H60.2171V38.7718H60.2169ZM60.2169 41.6189H67.5571V45.6208H60.2169V41.6189ZM60.2169 47.8181H67.5571V50.7077H60.2169V47.8181ZM51.9511 39.2346H54.6816V40.7332H51.9511V39.2346ZM51.9511 43.9379V42.9305H54.6816V43.9379C54.6816 44.6907 54.0691 45.303 53.3164 45.303C52.5636 45.303 51.9511 44.6907 51.9511 43.9379ZM26.3588 49.3284H48.641V50.7077H26.3588V49.3284ZM20.6364 39.2346H23.3669V40.7332H20.6364V39.2346ZM20.6364 43.9379V42.9305H23.3669V43.9379C23.3669 44.6907 22.7544 45.303 22.0017 45.303C21.2489 45.303 20.6364 44.6907 20.6364 43.9379V43.9379ZM13.6657 44.9057H10.7626C10.7972 44.8644 10.8297 44.821 10.8583 44.7745C11.1533 44.2916 11.6646 44.0034 12.2257 44.0034C12.8583 44.0034 13.4048 44.3724 13.6657 44.9057ZM9.9208 41.3009C10.4458 41.3009 10.9113 41.5556 11.204 41.9467C10.7379 42.0759 10.3027 42.2904 9.9208 42.5833C9.53892 42.2904 9.10356 42.0759 8.63745 41.9467C8.93013 41.5556 9.3958 41.3009 9.9208 41.3009ZM7.61587 44.0034C8.17705 44.0034 8.68828 44.2916 8.9833 44.7746C9.01187 44.8213 9.04424 44.8645 9.07881 44.9059H6.17593C6.43667 44.3724 6.98335 44.0034 7.61587 44.0034ZM14.984 47.103C14.6353 48.7099 13.5347 50.0354 12.0835 50.7077H7.75811C6.30703 50.0354 5.20649 48.7099 4.85757 47.103H14.984ZM2.19727 55.1584V52.9049H8.52993L11.6263 55.1584H2.19727ZM4.26372 59.4504V57.3557H14.6455L17.5238 59.4504H4.26372ZM37.789 71.0606C37.6162 71.1862 37.3838 71.1865 37.2111 71.0606L27.9901 64.3499H47.0101L37.789 71.0606ZM50.0291 62.1526H24.9709L20.3455 58.7864H29.4434C30.0501 58.7864 30.542 58.2947 30.542 57.6878C30.542 57.0809 30.0501 56.5891 29.4434 56.5891H17.3263L12.2641 52.9051H62.7359L57.6737 56.5891H34.5703C33.9636 56.5891 33.4717 57.0809 33.4717 57.6878C33.4717 58.2947 33.9636 58.7864 34.5703 58.7864H54.6545L50.0291 62.1526ZM70.7363 71.531H66.2572V61.6475H70.7363V71.531ZM70.7363 59.4504H57.4762L60.3545 57.3557H70.7364V59.4504H70.7363ZM72.8027 55.1584H63.3735L66.4699 52.9049H72.8027V55.1584Z" fill="#C4C4C4"/>
</g>
<defs>
<clipPath id="clip0_609_5">
<rect width="75" height="75" fill="white"/>
</clipPath>
</defs>
</svg>
