<svg width="72" height="70" viewBox="0 0 72 70" fill="none" xmlns="http://www.w3.org/2000/svg">
<path d="M40.893 27.6936L40.8993 27.6952C42.3231 28.6323 43.9902 29.1324 45.6949 29.1336C46.3046 29.1332 46.9128 29.0698 47.5098 28.9445C52.2648 27.9509 55.314 23.2908 54.3205 18.536C53.3269 13.781 48.6668 10.7318 43.912 11.7253C39.1571 12.7187 36.1078 17.379 37.1013 22.1338C37.5781 24.4164 38.9419 26.4163 40.893 27.6936ZM40.7292 17.0721C41.5929 15.7476 42.9503 14.8236 44.4992 14.5058C44.9038 14.4212 45.3161 14.3783 45.7296 14.3781C49.022 14.3847 51.6856 17.059 51.679 20.3514C51.6724 23.6438 48.9981 26.3073 45.7058 26.3008C44.5499 26.2985 43.4198 25.9603 42.4527 25.3272C39.6991 23.5242 38.928 19.8306 40.7308 17.0768L40.7292 17.0721Z" fill="#C4C4C4"/>
<path d="M20.6943 25.0093C19.9648 21.5174 16.5427 19.278 13.0508 20.0074C9.55887 20.7369 7.31946 24.159 8.04892 27.6509C8.39917 29.3274 9.40095 30.7963 10.8339 31.7344H10.8323C11.8791 32.4235 13.1049 32.791 14.3582 32.7915C14.8065 32.7914 15.2537 32.7448 15.6926 32.653C19.1845 31.9233 21.4239 28.5013 20.6943 25.0093ZM10.748 26.3189C10.7495 25.6174 10.9544 24.9314 11.3381 24.3441V24.3425C11.8629 23.5366 12.6882 22.9739 13.6303 22.7798C13.8764 22.7284 14.1271 22.7025 14.3786 22.7027C16.3798 22.7067 17.9989 24.3321 17.995 26.3333C17.991 28.3345 16.3656 29.9535 14.3644 29.9497C12.3632 29.9455 10.7442 28.3201 10.748 26.3189Z" fill="#C4C4C4"/>
<path d="M70.8261 39.6383C70.3874 39.385 69.8469 39.385 69.4082 39.6383L61.2554 44.3331V39.276C61.2554 38.493 60.6207 37.8581 59.8374 37.8581H56.069C65.7377 32.1303 68.9325 19.6489 63.2047 9.98021C57.4769 0.311529 44.9955 -2.88326 35.3269 2.84454C30.061 5.96412 26.4792 11.2881 25.5737 17.3413C20.6122 11.151 11.5717 10.1549 5.38128 15.1166C-0.809083 20.0783 -1.8051 29.1188 3.1566 35.3092C4.10686 36.4947 5.23904 37.5221 6.51123 38.3526C6.82003 38.5554 7.13508 38.7443 7.45653 38.9198C7.42485 39.0374 7.40837 39.1587 7.40773 39.2806V45.0561H3.49741C2.71435 45.0561 2.07946 45.6909 2.07946 46.4741V53.4689C2.07946 54.252 2.71419 54.8869 3.49741 54.8869H7.39973V68.582C7.39973 69.3651 8.03446 70 8.81767 70H59.8376C60.6207 70 61.2556 69.3653 61.2556 68.582V60.7491L69.4084 65.4437C70.0871 65.8345 70.9538 65.6009 71.3446 64.9223C71.4684 64.7071 71.5337 64.4632 71.5337 64.2149V40.8656C71.5335 40.3594 71.2639 39.8917 70.8261 39.6383ZM7.39973 52.0508H4.91535V47.8917H7.39973V52.0508ZM28.2032 19.9718C28.271 16.6879 29.2602 13.4892 31.0578 10.7404C36.3573 2.64438 47.2164 0.37745 55.3122 5.67692C63.4081 10.9764 65.675 21.8355 60.3755 29.9313C57.8308 33.8188 53.8461 36.5363 49.2979 37.486C48.2041 37.7145 47.0911 37.839 45.9738 37.8579H45.3656C35.6873 37.6581 28.0034 29.6502 28.2032 19.9718ZM34.5694 37.368C34.8308 37.5396 35.0957 37.7005 35.3571 37.8579H22.946C25.3929 36.03 27.1976 33.4736 28.1008 30.5558C29.6938 33.3018 31.9095 35.6351 34.5694 37.368ZM8.0567 35.9785C2.72971 32.4922 1.23768 25.3477 4.72399 20.0207C4.72431 20.0204 4.72447 20.0199 4.72479 20.0196C8.21174 14.6931 15.3565 13.2019 20.683 16.6888C26.0096 20.1758 27.5008 27.3206 24.0138 32.6471C20.527 37.9729 13.3832 39.4645 8.0567 35.9785ZM58.4197 67.1638H10.2355V40.6968H58.4197V67.1638ZM68.6962 61.768L61.254 57.4813V47.605L68.6962 43.3183V61.768Z" fill="#C4C4C4"/>
<path d="M14.9223 61.6643H33.0917C33.8747 61.6643 34.5096 61.0296 34.5096 60.2464V46.6821C34.5096 45.8991 33.8749 45.2642 33.0917 45.2642H14.9223C14.1393 45.2642 13.5044 45.8989 13.5044 46.6821V60.2464C13.5044 61.0294 14.1393 61.6643 14.9223 61.6643ZM31.6737 48.0999V58.8284H16.3449L16.3401 48.0999H31.6737Z" fill="#C4C4C4"/>
<path d="M51.4565 59.8224C52.2396 59.8224 52.8745 59.1877 52.8745 58.4044V47.5986C52.8745 46.8156 52.2397 46.1807 51.4565 46.1807C50.6735 46.1807 50.0386 46.8154 50.0386 47.5986V58.4044C50.0387 59.1877 50.6735 59.8224 51.4565 59.8224Z" fill="#C4C4C4"/>
<path d="M46.3032 59.8224C47.0863 59.8224 47.7211 59.1877 47.7211 58.4044V47.5986C47.7211 46.8156 47.0864 46.1807 46.3032 46.1807C45.5201 46.1807 44.8853 46.8154 44.8853 47.5986V58.4044C44.8854 59.1877 45.5201 59.8224 46.3032 59.8224Z" fill="#C4C4C4"/>
<path d="M41.1484 59.8224C41.9315 59.8224 42.5664 59.1877 42.5664 58.4044V47.5986C42.5664 46.8156 41.9316 46.1807 41.1484 46.1807C40.3654 46.1807 39.7305 46.8154 39.7305 47.5986V58.4044C39.7305 59.1877 40.3654 59.8224 41.1484 59.8224Z" fill="#C4C4C4"/>
</svg>
