<svg width="75" height="75" viewBox="0 0 75 75" fill="none" xmlns="http://www.w3.org/2000/svg">
<path d="M57.6877 19.4279L53.3374 15.0775C53.0626 14.8028 52.6901 14.6484 52.3016 14.6484C51.9131 14.6484 51.5406 14.8028 51.2658 15.0775L46.9154 19.4279C46.6407 19.7026 46.4863 20.0752 46.4863 20.4637C46.4863 20.8522 46.6407 21.2249 46.9154 21.4995L51.2658 25.8498C51.5519 26.1359 51.9268 26.2789 52.3016 26.2789C52.6765 26.2789 53.0513 26.1357 53.3374 25.8498L57.6877 21.4995C58.2599 20.9275 58.2599 20 57.6877 19.4279Z" fill="#C4C4C4"/>
<path d="M52.3016 11.7188C53.1105 11.7188 53.7665 11.0629 53.7665 10.2539V1.46484C53.7665 0.655811 53.1105 0 52.3016 0C51.4927 0 50.8368 0.655811 50.8368 1.46484V10.2539C50.8368 11.0629 51.4926 11.7188 52.3016 11.7188Z" fill="#C4C4C4"/>
<path d="M52.3016 29.2085C51.4927 29.2085 50.8368 29.8643 50.8368 30.6733V53.4955C50.8368 54.3045 51.4927 54.9603 52.3016 54.9603C53.1105 54.9603 53.7665 54.3045 53.7665 53.4955V30.6733C53.7665 29.8643 53.1105 29.2085 52.3016 29.2085V29.2085Z" fill="#C4C4C4"/>
<path d="M52.3016 60.4407C51.4927 60.4407 50.8368 61.0965 50.8368 61.9055V73.5351C50.8368 74.3441 51.4927 74.9999 52.3016 74.9999C53.1105 74.9999 53.7665 74.3441 53.7665 73.5351V61.9055C53.7665 61.0965 53.1105 60.4407 52.3016 60.4407Z" fill="#C4C4C4"/>
<path d="M62.5114 18.9988C61.7025 18.9988 61.0465 19.6546 61.0465 20.4636C61.0465 21.2727 61.7025 21.9285 62.5114 21.9285C66.1887 21.9285 69.7705 23.218 72.5968 25.5594C72.8701 25.7858 73.2013 25.8963 73.5305 25.8963C73.9516 25.8963 74.3697 25.7155 74.6594 25.3659C75.1754 24.7429 75.0889 23.8194 74.4659 23.3034C71.1151 20.5275 66.8696 18.9988 62.5114 18.9988Z" fill="#C4C4C4"/>
<path d="M58.8304 14.078C59.1094 14.078 59.3917 13.9984 59.6413 13.832C61.9596 12.2875 64.652 11.3453 67.4271 11.1074C68.2332 11.0383 68.8307 10.329 68.7616 9.52288C68.6925 8.71692 67.9832 8.11941 67.1771 8.18855C63.9118 8.46833 60.7444 9.57693 58.0168 11.3941C57.3436 11.8426 57.1613 12.7521 57.61 13.4254C57.8923 13.8489 58.3569 14.078 58.8304 14.078V14.078Z" fill="#C4C4C4"/>
<path d="M66.1248 38.9692C66.1634 38.9692 66.2024 38.9678 66.2417 38.9645C67.0482 38.901 67.6503 38.1955 67.5867 37.3891C67.2189 32.7294 65.1356 28.3935 61.7201 25.1798C61.1311 24.6255 60.2037 24.6535 59.6494 25.2428C59.0951 25.8321 59.1233 26.759 59.7126 27.3135C62.5966 30.0272 64.3557 33.6873 64.6661 37.6195C64.7266 38.387 65.368 38.9692 66.1248 38.9692V38.9692Z" fill="#C4C4C4"/>
<path d="M36.9293 22.7127C37.074 22.7127 37.2212 22.6912 37.3665 22.6457C38.8895 22.1697 40.4793 21.9285 42.0917 21.9285C42.9006 21.9285 43.5565 21.2727 43.5565 20.4636C43.5565 19.6546 42.9006 18.9988 42.0917 18.9988C40.1828 18.9988 38.2989 19.285 36.4928 19.8494C35.7206 20.0907 35.2903 20.9123 35.5315 21.6844C35.7274 22.3112 36.3056 22.7127 36.9293 22.7127V22.7127Z" fill="#C4C4C4"/>
<path d="M46.9934 13.425C47.4419 12.7518 47.2597 11.8424 46.5866 11.3937C43.3679 9.24932 39.6145 8.11597 35.7318 8.11597C34.0253 8.11597 32.3308 8.33584 30.6953 8.76943C29.9133 8.97686 29.4474 9.77886 29.6548 10.5608C29.8622 11.3427 30.6644 11.8085 31.4461 11.6013C32.8367 11.2326 34.2786 11.0457 35.7318 11.0457C39.0345 11.0457 42.2262 12.0091 44.9621 13.8319C45.2119 13.9982 45.494 14.0779 45.773 14.0779C46.2463 14.0779 46.7111 13.8488 46.9934 13.425V13.425Z" fill="#C4C4C4"/>
<path d="M23.7316 42.972C23.457 42.6974 23.0843 42.543 22.6958 42.543C22.3074 42.543 21.9347 42.6974 21.66 42.972L17.3098 47.3225C16.7377 47.8945 16.7377 48.822 17.3098 49.394L21.66 53.7443C21.9461 54.0304 22.321 54.1734 22.6958 54.1734C23.0707 54.1734 23.4457 54.0303 23.7316 53.7443L28.0821 49.394C28.3567 49.1194 28.5111 48.7467 28.5111 48.3583C28.5111 47.9698 28.3567 47.5971 28.0821 47.3225L23.7316 42.972Z" fill="#C4C4C4"/>
<path d="M21.231 38.1487C21.231 38.9577 21.8868 39.6135 22.6958 39.6135C23.5048 39.6135 24.1606 38.9577 24.1606 38.1487V29.3596C24.1606 28.5506 23.5048 27.8948 22.6958 27.8948C21.8868 27.8948 21.231 28.5506 21.231 29.3596V38.1487Z" fill="#C4C4C4"/>
<path d="M22.6958 57.1033C21.8868 57.1033 21.231 57.7591 21.231 58.5681V73.5352C21.231 74.3442 21.8868 75 22.6958 75C23.5048 75 24.1606 74.3442 24.1606 73.5352V58.5681C24.1606 57.7591 23.5047 57.1033 22.6958 57.1033Z" fill="#C4C4C4"/>
<path d="M44.86 51.198C41.5091 48.4223 37.2637 46.8936 32.9055 46.8936C32.0965 46.8936 31.4407 47.5494 31.4407 48.3584C31.4407 49.1674 32.0965 49.8232 32.9055 49.8232C36.5827 49.8232 40.1646 51.1127 42.9911 53.4543C43.2643 53.6806 43.5955 53.7911 43.9247 53.7911C44.346 53.7911 44.7639 53.6103 45.0536 53.2606C45.5698 52.6375 45.4831 51.7141 44.86 51.198Z" fill="#C4C4C4"/>
<path d="M44.3023 36.6642C42.9481 36.305 41.553 36.095 40.1444 36.0326C40.7477 32.7097 42.3991 29.6581 44.8909 27.3135C45.4801 26.7592 45.5083 25.8321 44.954 25.243C44.3999 24.6539 43.4726 24.6255 42.8833 25.18C39.7793 28.1006 37.7757 31.9487 37.1602 36.1238C34.0341 36.4581 31.0436 37.5347 28.4113 39.2886C27.738 39.7371 27.5558 40.6467 28.0043 41.3199C28.2866 41.7435 28.7512 41.9728 29.2248 41.9728C29.5039 41.9728 29.786 41.8932 30.0356 41.7268C32.7715 39.904 35.9633 38.9406 39.2659 38.9406C40.7192 38.9406 42.161 39.1275 43.5515 39.4962C44.3337 39.7034 45.1355 39.2376 45.3428 38.4557C45.5501 37.6738 45.0841 36.8716 44.3023 36.6642V36.6642Z" fill="#C4C4C4"/>
<path d="M36.0756 58.4035C35.0795 56.4036 33.7468 54.6106 32.1144 53.0746C31.5251 52.5201 30.598 52.5484 30.0437 53.1375C29.4892 53.7267 29.5175 54.6538 30.1067 55.2082C31.4861 56.5061 32.612 58.0206 33.4531 59.7096C33.7093 60.224 34.2273 60.5217 34.7655 60.5217C34.9849 60.5217 35.2077 60.4721 35.4173 60.3677C36.1417 60.0071 36.4363 59.1277 36.0756 58.4035Z" fill="#C4C4C4"/>
<path d="M13.9509 48.3584C13.9509 47.5494 13.2951 46.8936 12.4861 46.8936C8.12786 46.8936 3.88231 48.4223 0.531624 51.1981C-0.0913742 51.7142 -0.178093 52.6376 0.338118 53.2606C0.627864 53.6103 1.04578 53.7911 1.46693 53.7911C1.79622 53.7911 2.12728 53.6806 2.40062 53.4541C5.22703 51.1127 8.80872 49.8232 12.4861 49.8232C13.2951 49.8232 13.9509 49.1674 13.9509 48.3584Z" fill="#C4C4C4"/>
<path d="M17.3876 41.3196C17.8361 40.6464 17.6539 39.737 16.9806 39.2883C14.36 37.5424 11.3208 36.4462 8.19141 36.1183C7.38589 36.0336 6.66607 36.6178 6.58184 37.4224C6.49746 38.2271 7.08135 38.9476 7.88599 39.032C10.5456 39.3107 13.1288 40.2425 15.3563 41.7266C15.606 41.8928 15.888 41.9725 16.167 41.9725C16.6406 41.9725 17.1053 41.7433 17.3876 41.3196V41.3196Z" fill="#C4C4C4"/>
<path d="M13.2773 53.0746C9.86314 56.2872 7.77984 60.6216 7.41114 65.279C7.34727 66.0856 7.94932 66.7911 8.75587 66.8549C8.79527 66.858 8.83424 66.8596 8.87305 66.8596C9.62965 66.8596 10.271 66.2775 10.3317 65.5103C10.6429 61.5797 12.402 57.921 15.285 55.2082C15.8741 54.6538 15.9023 53.7268 15.348 53.1375C14.7937 52.5484 13.8666 52.5201 13.2773 53.0746V53.0746Z" fill="#C4C4C4"/>
<path d="M73.5321 11.6499C73.9174 11.6499 74.2953 11.4946 74.5678 11.2207C74.8402 10.9482 74.9969 10.5718 74.9969 10.1851C74.9969 9.7998 74.8404 9.42188 74.5678 9.14941C74.2951 8.87695 73.9174 8.72021 73.5321 8.72021C73.1469 8.72021 72.7689 8.87695 72.4966 9.14941C72.2241 9.42188 72.0673 9.7998 72.0673 10.1851C72.0673 10.5718 72.224 10.9482 72.4966 11.2207C72.7691 11.4946 73.147 11.6499 73.5321 11.6499Z" fill="#C4C4C4"/>
<path d="M10.6201 12.085C11.0054 12.085 11.3833 11.9282 11.6558 11.6558C11.9282 11.3833 12.085 11.0054 12.085 10.6201C12.085 10.2349 11.9282 9.85693 11.6558 9.58447C11.3833 9.31201 11.0054 9.15527 10.6201 9.15527C10.2349 9.15527 9.85693 9.31201 9.58447 9.58447C9.31201 9.85693 9.15527 10.2349 9.15527 10.6201C9.15527 11.0054 9.31201 11.3833 9.58447 11.6558C9.85693 11.9282 10.2349 12.085 10.6201 12.085Z" fill="#C4C4C4"/>
<path d="M10.6201 6.22559C11.4292 6.22559 12.085 5.56978 12.085 4.76074V1.46484C12.085 0.655811 11.4292 0 10.6201 0C9.81108 0 9.15527 0.655811 9.15527 1.46484V4.76074C9.15527 5.56978 9.81108 6.22559 10.6201 6.22559Z" fill="#C4C4C4"/>
<path d="M10.6201 21.2402C11.4292 21.2402 12.085 20.5844 12.085 19.7754V16.4795C12.085 15.6705 11.4292 15.0146 10.6201 15.0146C9.81108 15.0146 9.15527 15.6705 9.15527 16.4795V19.7754C9.15527 20.5844 9.81108 21.2402 10.6201 21.2402Z" fill="#C4C4C4"/>
<path d="M1.46484 12.085H4.76074C5.56978 12.085 6.22559 11.4292 6.22559 10.6201C6.22559 9.81108 5.56978 9.15527 4.76074 9.15527H1.46484C0.655811 9.15527 0 9.81108 0 10.6201C0 11.4292 0.655811 12.085 1.46484 12.085Z" fill="#C4C4C4"/>
<path d="M15.0146 10.6201C15.0146 11.4292 15.6705 12.085 16.4795 12.085H19.7754C20.5844 12.085 21.2402 11.4292 21.2402 10.6201C21.2402 9.81108 20.5844 9.15527 19.7754 9.15527H16.4795C15.6705 9.15527 15.0146 9.81108 15.0146 10.6201Z" fill="#C4C4C4"/>
<path d="M16.229 18.3005C16.5151 18.5866 16.8899 18.7296 17.2648 18.7296C17.6396 18.7296 18.0146 18.5866 18.3005 18.3005C18.8726 17.7285 18.8726 16.801 18.3005 16.2288L17.1221 15.0504C16.5501 14.4783 15.6225 14.4783 15.0504 15.0504C14.4783 15.6224 14.4783 16.5499 15.0504 17.1221L16.229 18.3005Z" fill="#C4C4C4"/>
<path d="M4.1181 15.0504L2.93964 16.2288C2.36761 16.8008 2.36761 17.7284 2.93964 18.3005C3.22572 18.5866 3.60057 18.7296 3.97543 18.7296C4.35028 18.7296 4.72528 18.5866 5.01122 18.3005L6.18968 17.1221C6.7617 16.5501 6.7617 15.6225 6.18968 15.0504C5.61781 14.4783 4.69027 14.4783 4.1181 15.0504V15.0504Z" fill="#C4C4C4"/>
<path d="M16.0862 6.61901C16.461 6.61901 16.836 6.47604 17.122 6.18995L18.3004 5.01149C18.8725 4.43946 18.8725 3.51193 18.3004 2.93976C17.7284 2.36774 16.8009 2.36774 16.2287 2.93976L15.0502 4.11823C14.4782 4.69025 14.4782 5.61779 15.0502 6.18995C15.3365 6.47589 15.7113 6.61901 16.0862 6.61901Z" fill="#C4C4C4"/>
<path d="M4.11813 6.18995C4.40421 6.47604 4.77906 6.61901 5.15392 6.61901C5.52877 6.61901 5.90377 6.47604 6.18971 6.18995C6.76173 5.61793 6.76173 4.69039 6.18971 4.11823L5.01124 2.93976C4.43922 2.36774 3.51168 2.36774 2.93951 2.93976C2.36749 3.51178 2.36749 4.43932 2.93951 5.01149L4.11813 6.18995Z" fill="#C4C4C4"/>
<path d="M32.1079 25.4678C32.3804 25.1938 32.5371 24.8174 32.5371 24.4307C32.5371 24.0454 32.3804 23.6689 32.1079 23.395C31.8355 23.1226 31.4575 22.9673 31.0723 22.9673C30.687 22.9673 30.3091 23.1226 30.0366 23.395C29.7642 23.6675 29.6074 24.0454 29.6074 24.4307C29.6074 24.8174 29.7642 25.1938 30.0366 25.4678C30.3091 25.7402 30.687 25.8955 31.0723 25.8955C31.4575 25.8955 31.8355 25.7402 32.1079 25.4678Z" fill="#C4C4C4"/>
<path d="M66.5039 50.0977C65.695 50.0977 65.0391 50.7535 65.0391 51.5625V54.3932C65.0391 55.2022 65.695 55.858 66.5039 55.858C67.3128 55.858 67.9688 55.2022 67.9688 54.3932V51.5625C67.9688 50.7535 67.3128 50.0977 66.5039 50.0977Z" fill="#C4C4C4"/>
<path d="M66.5039 61.3296C65.695 61.3296 65.0391 61.9854 65.0391 62.7944V65.6251C65.0391 66.4341 65.695 67.0899 66.5039 67.0899C67.3128 67.0899 67.9688 66.4341 67.9688 65.6251V62.7944C67.9688 61.9854 67.3128 61.3296 66.5039 61.3296Z" fill="#C4C4C4"/>
<path d="M73.5351 57.1289H70.7046C69.8957 57.1289 69.2397 57.7847 69.2397 58.5938C69.2397 59.4028 69.8957 60.0586 70.7046 60.0586H73.5351C74.344 60.0586 75 59.4028 75 58.5938C75 57.7847 74.344 57.1289 73.5351 57.1289Z" fill="#C4C4C4"/>
<path d="M62.3032 57.1289H59.4727C58.6638 57.1289 58.0078 57.7847 58.0078 58.5938C58.0078 59.4028 58.6638 60.0586 59.4727 60.0586H62.3032C63.1121 60.0586 63.768 59.4028 63.768 58.5938C63.768 57.7847 63.1122 57.1289 62.3032 57.1289Z" fill="#C4C4C4"/>
<path d="M36.52 63.9346C36.1348 63.9346 35.7568 64.0898 35.4844 64.3638C35.2119 64.6362 35.0566 65.0127 35.0566 65.3994C35.0566 65.7847 35.2119 66.1626 35.4844 66.4351C35.7568 66.7075 36.1348 66.8643 36.52 66.8643C36.9067 66.8643 37.2832 66.7075 37.5557 66.4351C37.8296 66.1626 37.9849 65.7847 37.9849 65.3994C37.9849 65.0142 37.8296 64.6362 37.5557 64.3638C37.2832 64.0898 36.9067 63.9346 36.52 63.9346Z" fill="#C4C4C4"/>
<path d="M1.46484 39.5449C1.8501 39.5449 2.22803 39.3882 2.50049 39.1157C2.77295 38.8433 2.92969 38.4653 2.92969 38.0801C2.92969 37.6948 2.77295 37.3169 2.50049 37.0444C2.22803 36.772 1.8501 36.6152 1.46484 36.6152C1.07959 36.6152 0.70166 36.772 0.429199 37.0444C0.156738 37.3169 0 37.6948 0 38.0801C0 38.4653 0.156738 38.8433 0.429199 39.1157C0.70166 39.3882 1.07959 39.5449 1.46484 39.5449Z" fill="#C4C4C4"/>
</svg>
