<svg width="75" height="75" viewBox="0 0 75 75" fill="none" xmlns="http://www.w3.org/2000/svg">
<g clip-path="url(#clip0_495_528)">
<path d="M28.8854 15.4694H45.65C46.6812 15.4694 47.5202 16.3083 47.5202 17.3396C47.5202 18.3708 46.6812 19.2097 45.65 19.2097H36.2198C33.977 19.2097 32.1524 21.0343 32.1524 23.2771V25.722C32.1524 26.3287 32.6441 26.8206 33.251 26.8206C33.8579 26.8206 34.3497 26.3287 34.3497 25.722V23.2771C34.3497 22.2459 35.1887 21.407 36.2198 21.407H45.65C47.8929 21.407 49.7175 19.5824 49.7175 17.3396C49.7175 15.0967 47.8929 13.2721 45.65 13.2721H28.8854C27.5652 13.2721 26.4912 12.1981 26.4912 10.8781C26.4912 9.55815 27.5652 8.48413 28.8854 8.48413H37.2065C37.8134 8.48413 38.3052 7.99224 38.3052 7.3855C38.3052 6.77876 37.8134 6.28687 37.2065 6.28687H28.8854C26.3537 6.28687 24.2939 8.34658 24.2939 10.8781C24.2939 13.4097 26.3537 15.4694 28.8854 15.4694V15.4694Z" fill="#C4C4C4"/>
<path d="M12.8194 21.4068H20.5032C21.5343 21.4068 22.3734 22.2458 22.3734 23.277V25.7218C22.3734 26.3286 22.8651 26.8205 23.472 26.8205C24.0789 26.8205 24.5707 26.3286 24.5707 25.7218V23.277C24.5707 21.0342 22.746 19.2096 20.5032 19.2096H12.8194C11.7883 19.2096 10.9492 18.3707 10.9492 17.3394C10.9492 16.3082 11.7883 15.4692 12.8194 15.4692H19.1062C19.7131 15.4692 20.2048 14.9773 20.2048 14.3706C20.2048 13.7639 19.7131 13.272 19.1062 13.272H12.8194C10.5766 13.272 8.75195 15.0966 8.75195 17.3394C8.75195 19.5822 10.5766 21.4068 12.8194 21.4068V21.4068Z" fill="#C4C4C4"/>
<path d="M42.507 8.48394H50.7146C52.9575 8.48394 54.7821 6.65933 54.7821 4.4165C54.7819 1.9812 52.8007 0 50.3654 0H46.698C46.0912 0 45.5994 0.491895 45.5994 1.09863C45.5994 1.70537 46.0912 2.19727 46.698 2.19727H50.3654C51.5892 2.19727 52.5847 3.19292 52.5847 4.41665C52.5847 5.4479 51.7456 6.28682 50.7145 6.28682H42.5068C41.9 6.28682 41.4082 6.77871 41.4082 7.38545C41.4082 7.99219 41.9001 8.48394 42.507 8.48394V8.48394Z" fill="#C4C4C4"/>
<path d="M56.2345 16.1003H59.9017C61.1254 16.1003 62.1211 17.096 62.1211 18.3197C62.1211 19.351 61.282 20.1899 60.2509 20.1899H58.06C55.8828 20.1899 54.1113 21.9613 54.1113 24.1387V25.722C54.1113 26.3288 54.6031 26.8207 55.21 26.8207C55.8168 26.8207 56.3086 26.3288 56.3086 25.722V24.1387C56.3086 23.1729 57.0942 22.3872 58.06 22.3872H60.2509C62.4937 22.3872 64.3184 20.5625 64.3184 18.3197C64.3184 15.8844 62.3372 13.9031 59.9017 13.9031H56.2345C55.6276 13.9031 55.1358 14.395 55.1358 15.0017C55.1358 15.6084 55.6277 16.1003 56.2345 16.1003V16.1003Z" fill="#C4C4C4"/>
<path d="M71.5587 68.3866H69.8425C70.6634 67.0408 71.139 65.4626 71.139 63.7741V57.8702C71.139 56.8145 70.2802 55.9556 69.2245 55.9556H68.2424C67.9244 55.1407 67.4511 54.3998 66.8489 53.7755C67.0177 52.6883 67.1054 51.5816 67.1054 50.4619V49.7315H68.2147C69.6406 49.7315 70.8006 48.5715 70.8006 47.1456V45.7676C70.8006 44.3418 69.6406 43.1817 68.2147 43.1817H67.1054V41.3485C67.1054 40.2626 66.2221 39.3793 65.1364 39.3793H64.3577V38.2102C64.3577 36.6277 63.0702 35.3403 61.4877 35.3403H60.4912L57.1867 32.0357C56.6447 31.4938 55.924 31.1952 55.1573 31.1952C54.6799 31.1952 54.2204 31.3112 53.8106 31.5295L51.702 29.4209C51.16 28.8789 50.4393 28.5803 49.6726 28.5803C48.9059 28.5803 48.1853 28.8789 47.6432 29.4209L45.5857 31.4782C45.1826 31.3625 44.7705 31.255 44.3505 31.1554C43.0498 29.5367 39.7665 28.6981 36.5133 28.6981C33.2602 28.6981 29.9769 29.5367 28.6761 31.1554C28.2184 31.2638 27.7704 31.382 27.333 31.5097C27.1619 31.0707 26.9133 30.6541 26.5796 30.2838C25.8617 29.4871 24.8763 29.0176 23.8052 28.9619C23.0341 28.9213 22.2854 29.1005 21.6289 29.4714C21.61 29.4494 21.5929 29.4266 21.5734 29.405C20.8555 28.6083 19.8701 28.1388 18.799 28.0832C17.7273 28.0276 16.6991 28.3922 15.9025 29.1103C15.264 29.6857 14.854 30.4212 14.6775 31.202C14.6469 31.1996 14.6166 31.1965 14.5858 31.1949C13.5153 31.14 12.4859 31.504 11.6894 32.2221C10.8926 32.9401 10.423 33.9254 10.3673 34.9965C10.3584 35.1696 10.3618 35.3413 10.3745 35.5114C10.18 35.634 9.99394 35.773 9.81963 35.9302C9.0229 36.6482 8.55327 37.6335 8.49761 38.7046C8.48574 38.9321 8.49336 39.1575 8.51899 39.3793H7.93496C6.84922 39.3793 5.96592 40.2626 5.96592 41.3485V43.1817H4.85659C3.43071 43.1817 2.2707 44.3418 2.2707 45.7676V47.1456C2.2707 48.5715 3.43071 49.7315 4.85659 49.7315H5.96592V50.4617C5.96592 57.9348 9.79663 64.5288 15.5967 68.3866H3.44082C2.42495 68.3866 1.59863 69.213 1.59863 70.2289V73.1579C1.59863 74.1737 2.4251 75.0002 3.44082 75.0002H71.5587C72.5746 75.0002 73.4009 74.1737 73.4009 73.1579V70.2289C73.4009 69.2129 72.5744 68.3866 71.5587 68.3866V68.3866ZM61.4876 37.5376C61.8585 37.5376 62.1602 37.8393 62.1602 38.2102V39.3793H47.3538V38.2102C47.3538 37.8393 47.6555 37.5376 48.0264 37.5376H61.4876ZM54.6816 33.5894C54.8086 33.4624 54.9775 33.3923 55.1571 33.3923C55.3367 33.3923 55.5056 33.4624 55.6326 33.5894L57.3835 35.3403H52.9307L54.6816 33.5894ZM49.1971 30.9745C49.3241 30.8475 49.493 30.7774 49.6726 30.7774C49.8522 30.7774 50.0211 30.8475 50.1481 30.9745L52.1687 32.9949L51.1541 34.0095C50.4747 33.5275 49.6943 33.078 48.8148 32.6683C48.5184 32.5303 48.2126 32.3984 47.8998 32.2717L49.1971 30.9745ZM31.7453 31.6772C32.9829 31.1803 34.7208 30.8955 36.5133 30.8955C38.3059 30.8955 40.0437 31.1804 41.2814 31.6772C42.3809 32.1184 42.7366 32.5807 42.7366 32.7355C42.7366 32.8903 42.3809 33.3526 41.2814 33.7939C40.0437 34.2907 38.3059 34.5755 36.5133 34.5755C34.7208 34.5755 32.9829 34.2906 31.7453 33.7939C30.6458 33.3526 30.2901 32.8903 30.2901 32.7355C30.2901 32.5807 30.6458 32.1184 31.7453 31.6772V31.6772ZM22.3795 31.6213C22.7163 31.3178 23.1444 31.1538 23.5944 31.1538C23.6265 31.1538 23.6586 31.1546 23.691 31.1563C24.176 31.1814 24.622 31.3941 24.9472 31.7548C25.0758 31.8976 25.1744 32.0563 25.2494 32.2227C24.8935 32.3643 24.5467 32.5124 24.2119 32.6684C23.6609 32.9251 23.1485 33.1972 22.6752 33.4832C22.5299 33.2236 22.3563 32.9775 22.1523 32.751C22.0581 32.6464 21.9591 32.548 21.8561 32.455C21.9479 32.1441 22.1217 31.8537 22.3795 31.6213V31.6213ZM25.1397 34.66C26.0791 34.2223 27.119 33.8475 28.234 33.5369C28.9956 35.6643 32.7737 36.7728 36.5133 36.7728C40.2529 36.7728 44.0311 35.6643 44.7926 33.5369C45.9077 33.8473 46.9474 34.2223 47.887 34.66C48.3509 34.8761 48.7788 35.1039 49.1728 35.3403H48.0264C46.4439 35.3403 45.1565 36.6277 45.1565 38.2102V39.3793H20.8802C20.8748 39.3125 20.8711 39.2456 20.8711 39.1789C20.8711 37.5708 22.4271 35.9237 25.1397 34.66V34.66ZM20.5202 34.2219C20.6766 34.3955 20.7948 34.5937 20.8739 34.8062C20.4726 35.1701 20.1245 35.5489 19.8304 35.94C19.1501 35.3215 18.3008 34.9769 17.4315 34.9117C17.5238 34.6046 17.6974 34.3181 17.9524 34.0883C18.2892 33.7848 18.7174 33.6207 19.1674 33.6207C19.1995 33.6207 19.2315 33.6216 19.2639 33.6232C19.7488 33.6485 20.195 33.8611 20.5202 34.2219V34.2219ZM17.3734 30.7424C17.7102 30.4389 18.1383 30.2749 18.5883 30.2749C18.6204 30.2749 18.6525 30.2757 18.6849 30.2773C19.1699 30.3025 19.6159 30.5152 19.9411 30.8759C19.9906 30.931 20.0353 30.9885 20.0769 31.0477C19.9991 31.1905 19.9276 31.336 19.8682 31.4857C19.7072 31.4576 19.5437 31.4379 19.3779 31.4293C18.4985 31.3833 17.6482 31.6216 16.9309 32.1055C16.8806 32.0639 16.8293 32.0236 16.7773 31.9846C16.8044 31.5244 17.0045 31.0747 17.3734 30.7424V30.7424ZM15.9138 37.5623C16.2608 37.2496 16.6962 37.0956 17.1302 37.0956C17.6277 37.0956 18.1232 37.2981 18.4818 37.6958C18.6072 37.8349 18.7082 37.9899 18.7842 38.1553C18.712 38.4916 18.674 38.8331 18.674 39.1788C18.674 39.2459 18.6781 39.3125 18.6809 39.3792H15.3756C15.2072 38.7414 15.391 38.0335 15.9138 37.5623ZM13.1601 33.8542C13.4968 33.5507 13.925 33.3866 14.375 33.3866C14.4071 33.3866 14.4392 33.3875 14.4715 33.3891C14.8572 33.4092 15.2173 33.5494 15.5124 33.7868C15.2806 34.3023 15.1622 34.8581 15.1588 35.416C15.0433 35.4812 14.9302 35.5527 14.82 35.6303C14.2071 35.1967 13.4838 34.943 12.7158 34.9032C12.6723 34.901 12.6291 34.9005 12.5857 34.8997C12.6537 34.4971 12.8523 34.1315 13.1601 33.8542ZM10.6916 38.8186C10.7168 38.3336 10.9294 37.8875 11.2902 37.5623C11.627 37.2588 12.0553 37.0947 12.5053 37.0947C12.5374 37.0947 12.5694 37.0956 12.6018 37.0972C12.9012 37.1127 13.1857 37.2002 13.4362 37.3495C13.1656 37.9922 13.0679 38.6926 13.1476 39.3793H10.7504C10.7026 39.1988 10.6817 39.0103 10.6916 38.8186V38.8186ZM4.85615 47.5342C4.64185 47.5342 4.46753 47.3599 4.46753 47.1456V45.7676C4.46753 45.5533 4.64185 45.379 4.85615 45.379H20.5076C21.1145 45.379 21.6062 44.8871 21.6062 44.2804C21.6062 43.6736 21.1145 43.1817 20.5076 43.1817H8.16289V41.5766H64.9081V43.1817H25.781C25.1741 43.1817 24.6824 43.6736 24.6824 44.2804C24.6824 44.8871 25.1741 45.379 25.781 45.379H68.2147C68.429 45.379 68.6034 45.5533 68.6034 45.7676V47.1456C68.6034 47.3599 68.429 47.5342 68.2147 47.5342H61.5957C61.4828 47.4072 61.3659 47.2823 61.2422 47.1611C60.6113 46.5422 59.75 46.277 58.8797 46.4337C58.1746 46.5606 57.5513 46.9603 57.1367 47.5344H4.85615V47.5342ZM62.919 49.7315H64.908V50.4617C64.908 51.0948 64.8733 51.7225 64.8123 52.3451C64.4463 52.18 64.0631 52.0426 63.6613 51.9439C63.455 51.8932 63.305 51.702 63.2882 51.4681C63.2882 51.4681 63.2882 51.4681 63.2882 51.4679C63.245 50.8685 63.1203 50.2871 62.919 49.7315V49.7315ZM63.1372 54.0777C64.2608 54.3537 65.1888 55.0416 65.7834 55.9555H49.9815C50.769 54.7505 52.1272 53.9507 53.6712 53.9507C54.6438 53.9507 55.567 53.5284 56.2042 52.7919C57.4196 51.3871 58.3143 50.0817 58.8638 48.9121C58.9763 48.6726 59.1844 48.6113 59.2689 48.5962C59.2941 48.5917 59.3256 48.588 59.3612 48.588C59.4588 48.588 59.5874 48.6157 59.7037 48.7298C60.5491 49.5589 61.0178 50.5335 61.0968 51.6261C61.1822 52.8137 62.0022 53.7989 63.1372 54.0777V54.0777ZM13.8381 64.1035C10.1785 60.4438 8.16289 55.5989 8.16289 50.4617V49.7315H55.8213C55.453 50.2512 55.0263 50.7951 54.5426 51.3543C54.323 51.608 54.0055 51.7536 53.6713 51.7536C50.8767 51.7536 48.4824 53.4983 47.5193 55.9556H46.5402C45.4845 55.9556 44.6256 56.8145 44.6256 57.8702V63.7741C44.6256 65.4625 45.1011 67.0408 45.9222 68.3866H20.2933C17.9098 67.4248 15.7171 65.9826 13.8381 64.1035V64.1035ZM71.2036 72.8028H3.7959V70.5838H57.8611C58.468 70.5838 58.9597 70.092 58.9597 69.4852C58.9597 68.8785 58.468 68.3866 57.8611 68.3866H48.673C47.5279 67.1851 46.8226 65.561 46.8226 63.7741V58.1527H68.9417V63.7741C68.9417 65.5609 68.2364 67.1851 67.0913 68.3866H63.1345C62.5276 68.3866 62.0359 68.8785 62.0359 69.4852C62.0359 70.092 62.5276 70.5838 63.1345 70.5838H71.2036V72.8028Z" fill="#C4C4C4"/>
</g>
<defs>
<clipPath id="clip0_495_528">
<rect width="75" height="75" fill="white"/>
</clipPath>
</defs>
</svg>
