<svg width="68" height="68" viewBox="0 0 68 68" fill="none" xmlns="http://www.w3.org/2000/svg">
<path d="M60.6097 44.4117C60.5439 44.3017 60.4747 44.1964 60.4057 44.1035C59.7189 43.1435 58.6977 42.5089 57.5327 42.3173C56.3732 42.1257 55.198 42.3988 54.2414 43.0857L41.5707 52.1332H28.3334C27.7089 52.1332 27.2001 51.6254 27.2001 50.9999C27.2001 50.3743 27.7089 49.8666 28.3334 49.8666H35.7001C37.8874 49.8666 39.6668 48.0873 39.6668 45.8999C39.6668 45.8874 39.6656 45.7831 39.6646 45.7719C39.5943 43.5856 37.7504 41.8811 35.6095 41.9333H20.866C19.5593 41.9446 18.2865 42.4128 17.2835 43.2491L11.7415 47.8618C11.483 48.0783 11.3335 48.3968 11.3335 48.7333V62.3333C11.3335 62.9601 11.8412 63.4666 12.4668 63.4666H40.586C42.4266 63.4644 44.2195 62.8161 45.6362 61.6431L59.3757 50.2905C61.2421 48.9608 61.7839 46.3792 60.6097 44.4117ZM57.9974 48.494L44.1922 59.8965C43.1789 60.7352 41.8972 61.1975 40.5847 61.1998H13.6001V49.2646L18.7352 44.9896C19.3381 44.4876 20.1009 44.2064 20.8761 44.1996L35.6457 44.1986C36.5852 44.1974 37.3694 44.908 37.4001 45.8998C37.4001 46.837 36.6374 47.5998 35.7001 47.5998H28.3334C26.4589 47.5998 24.9334 49.1252 24.9334 50.9998C24.9334 52.8743 26.4589 54.3998 28.3334 54.3998H41.9334C42.1692 54.3998 42.3992 54.3261 42.5942 54.189L55.5617 44.9285C56.0287 44.593 56.5965 44.4627 57.1654 44.5533C57.7332 44.6473 58.2297 44.9556 58.5707 45.4316C58.6047 45.4781 58.6353 45.5256 58.6648 45.5744C59.2384 46.5345 58.972 47.7958 57.9974 48.494Z" fill="#C4C4C4"/>
<path d="M12.4327 46.4663H0V48.733H11.2993V65.7331H0V67.9996H12.4327C13.0583 67.9996 13.566 67.4931 13.566 66.8664V47.5996C13.566 46.9729 13.0583 46.4663 12.4327 46.4663Z" fill="#C4C4C4"/>
<path d="M5.66673 56.6665C3.79221 56.6665 2.26672 58.192 2.26672 60.0665C2.26672 61.941 3.79221 63.4665 5.66673 63.4665C7.54125 63.4665 9.06674 61.941 9.06674 60.0665C9.06674 58.192 7.54125 56.6665 5.66673 56.6665ZM5.66673 61.1998C5.04224 61.1998 4.53344 60.6921 4.53344 60.0665C4.53344 59.441 5.04224 58.9332 5.66673 58.9332C6.29122 58.9332 6.80002 59.441 6.80002 60.0665C6.80002 60.6921 6.29122 61.1998 5.66673 61.1998Z" fill="#C4C4C4"/>
<path d="M66.8668 35.1328H1.13329C0.507743 35.1328 0 35.6394 0 36.2661C0 40.6396 3.55872 44.1994 7.93331 44.1994H60.0667C64.4402 44.1994 68 40.6396 68 36.2661C68.0001 35.6395 67.4936 35.1328 66.8668 35.1328ZM60.0668 41.9328H7.93331C5.1963 41.9328 2.90701 39.9823 2.38107 37.3995H65.6189C65.0931 39.9823 62.8038 41.9328 60.0668 41.9328Z" fill="#C4C4C4"/>
<path d="M34 5.6665C17.7525 5.6665 4.5332 18.8858 4.5332 35.1333V36.2666C4.5332 36.8933 5.04095 37.3999 5.66649 37.3999H62.3333C62.9601 37.3999 63.4666 36.8933 63.4666 36.2666V35.1333C63.4667 18.8856 50.2486 5.6665 34 5.6665ZM6.79992 35.1331C6.79992 20.1357 19.0025 7.93309 34 7.93309C48.9975 7.93309 61.2 20.1357 61.2 35.1331H6.79992Z" fill="#C4C4C4"/>
<path d="M15.359 18.5942C14.5668 19.485 13.8325 20.4382 13.1763 21.4287L15.0655 22.681C15.664 21.7788 16.3326 20.9096 17.0533 20.0993L15.359 18.5942Z" fill="#C4C4C4"/>
<path d="M33.9998 10.2002C27.635 10.2036 21.5751 12.6085 16.9375 16.9685L18.4902 18.6197C22.7062 14.6553 28.2153 12.4702 34.001 12.4669L33.9998 10.2002Z" fill="#C4C4C4"/>
<path d="M37.4001 0H30.6001V2.26672H37.4001V0Z" fill="#C4C4C4"/>
<path d="M35.1334 1.1333H32.8667V6.80002H35.1334V1.1333Z" fill="#C4C4C4"/>
</svg>
