<svg width="85" height="85" viewBox="0 0 85 85" fill="none" xmlns="http://www.w3.org/2000/svg">
<path d="M83.6307 57.6578C82.6479 55.9179 80.9612 54.6695 79.0088 54.2445C78.0393 54.032 77.0299 54.0187 76.0737 54.2179V29.3395L77.0379 30.1231C77.4071 30.4246 77.8507 30.5693 78.293 30.5693C78.3474 30.5693 78.4019 30.5561 78.4564 30.5521C78.4922 30.5534 78.5254 30.5693 78.5613 30.5693C79.1403 30.5693 79.7141 30.3183 80.1085 29.8336C80.8018 28.9796 80.673 27.7258 79.819 27.0312L75.3419 23.3895C75.3406 23.3882 75.3379 23.3868 75.3366 23.3842L47.8749 1.0491C47.4725 0.722378 46.9745 0.592222 46.4844 0.625425C45.9943 0.592222 45.4963 0.72105 45.0925 1.0491L13.1458 27.0325C12.2918 27.7258 12.163 28.9809 12.8576 29.8349C13.2932 30.3714 13.9506 30.6198 14.5908 30.56C15.0596 30.5786 15.5364 30.4418 15.9282 30.1231L16.8924 29.3395V51.4953C12.5229 53.4476 9.62759 55.9711 9.37525 56.2101L1.65884 60.1546C1.18072 60.407 0.822124 60.832 0.662749 61.3367C0.503374 61.8414 0.556499 62.3992 0.808843 62.8773L11.2612 82.4406C11.5135 82.932 11.9651 83.2906 12.4963 83.4234C12.669 83.4765 12.8417 83.5031 13.0143 83.5031C13.3862 83.5031 13.7448 83.3968 14.0635 83.1976L21.8596 78.35C21.8862 78.3367 21.8995 78.3101 21.926 78.2968C21.9526 78.2836 21.9924 78.2703 22.019 78.257C22.6698 77.8984 23.4534 77.8984 24.1174 78.2437C33.5604 83.264 39.3643 84.3797 42.6713 84.3797C43.4549 84.3797 44.0924 84.3132 44.6104 84.2336C46.5362 84.1273 63.5893 82.7992 81.2135 66.3968L82.6479 64.9625C84.587 63.0234 84.9854 60.0218 83.6307 57.6578V57.6578ZM20.8768 26.0989L46.4831 5.27121L72.0893 26.0975V56.1025L67.9721 58.4135C65.0503 60.0471 62.4206 61.6674 60.0034 63.3408C59.6049 63.6064 59.2331 63.8854 58.8479 64.151C58.9807 63.8854 59.087 63.6064 59.1534 63.3408C59.3792 62.5572 59.3924 61.7869 59.1534 61.0432C58.901 60.1932 58.2768 59.2369 56.8956 58.4932V40.9221C56.8956 38.1728 55.8198 35.5564 53.8542 33.551C51.7026 31.4127 48.8604 30.3369 45.819 30.5228C40.3604 30.8549 36.0706 35.583 36.0706 41.2674V51.3744C30.6253 48.6385 25.3128 48.8244 20.8768 50.0463V26.0989ZM52.9112 57.432C52.712 57.4054 52.5128 57.3921 52.3135 57.3789C42.3924 56.7148 40.5331 54.8687 40.3471 54.6695C40.2542 54.5632 40.1612 54.457 40.0549 54.3507V41.2687C40.0549 37.7359 42.751 34.7078 46.0713 34.5086C47.9573 34.4023 49.7104 35.0531 51.0253 36.3546C52.2471 37.6031 52.9112 39.2234 52.9112 40.9234V57.432ZM13.7713 78.6953L5.27134 62.7843L9.72056 60.5L18.1542 75.9593L13.7713 78.6953ZM79.7924 62.1867L78.4378 63.5281C77.3487 64.5375 76.2596 65.4937 75.1706 66.3968L75.1573 66.4101C74.9714 66.5562 74.7854 66.7156 74.5995 66.8617C58.901 79.5718 44.4776 80.2492 44.3182 80.2492C44.2253 80.2625 44.119 80.2757 44.0128 80.289C42.3393 80.6078 37.2128 80.7007 25.9901 74.7375C25.0737 74.2461 24.0643 73.9937 23.0682 73.9937C22.6432 73.9937 22.2315 74.0468 21.8065 74.1265L17.4237 65.9586C17.3174 65.7859 17.2112 65.6132 17.1315 65.4273L13.2534 58.2156C14.0901 57.6047 15.3385 56.7679 16.8924 55.9578C18.0612 55.3468 19.4026 54.7359 20.8768 54.2711C24.9542 52.9164 30.001 52.5179 35.0213 55.307C35.3667 55.5062 35.7253 55.7453 36.0706 56.0375C36.4956 56.3828 36.9206 56.7945 37.3456 57.2859C37.9565 57.9898 38.8463 58.6007 40.0549 59.1187C42.6315 60.2609 46.6026 60.9914 52.0479 61.3632C52.3667 61.3898 52.6456 61.4164 52.9112 61.4429C54.5979 61.6554 55.262 62.0804 55.3417 62.1734C55.3417 62.2664 55.1823 62.7179 54.5182 63.3422C54.3721 63.4882 54.2128 63.6343 54.0135 63.7937C53.7081 64.0461 53.3362 64.3117 52.9112 64.5507C50.1753 66.2109 45.1948 67.6453 39.6167 66.5695C38.6471 66.3836 37.6643 66.1179 36.6682 65.7726C36.4823 65.7062 36.2963 65.6797 36.1104 65.6797C35.3667 65.6265 34.6495 66.0117 34.2643 66.689C34.1448 66.8882 34.0784 67.114 34.0385 67.3265C33.9323 68.0172 34.1846 68.7476 34.7557 69.2125C35.0745 69.425 35.4065 69.5711 35.7518 69.7039C37.0534 70.182 38.3948 70.514 39.776 70.6336C54.1198 71.882 60.8401 67.5523 60.8401 67.5523L61.1987 67.3265L67.587 63.3422L69.9245 61.8812L72.0893 60.6593L75.5026 58.7468C75.569 58.7203 75.6354 58.6804 75.6885 58.6406C75.8081 58.5476 75.9409 58.4679 76.0737 58.4015C76.7112 58.0695 77.4284 57.9765 78.1456 58.1359C78.9956 58.3218 79.6995 58.8265 80.1378 59.5703C80.6026 60.3539 80.4299 61.5359 79.7924 62.1867V62.1867Z" fill="#C4C4C4"/>
</svg>
