<svg width="60" height="52" viewBox="0 0 60 52" fill="none" xmlns="http://www.w3.org/2000/svg">
<path d="M54.1406 8.65625H49.2875L45.5446 1.32641C45.3444 0.934297 44.9413 0.6875 44.5009 0.6875H23.8584C23.4182 0.6875 23.015 0.934297 22.8148 1.32641L19.0719 8.65625H14.2969V6.19531C14.2969 4.96754 13.2981 3.96875 12.0703 3.96875H8.55469C7.32691 3.96875 6.32812 4.96754 6.32812 6.19531V8.65625H5.85938C2.62852 8.65625 0 11.2848 0 14.5156V45.4531C0 48.684 2.62852 51.3125 5.85938 51.3125H54.1406C57.3715 51.3125 60 48.684 60 45.4531V14.5156C60 11.2848 57.3715 8.65625 54.1406 8.65625ZM24.5759 3.03125H43.7835L46.6559 8.65625H21.7035L24.5759 3.03125ZM8.67188 6.3125H11.9531V8.65625H8.67188V6.3125ZM57.6562 45.4531C57.6562 47.3916 56.0791 48.9688 54.1406 48.9688H5.85938C3.92086 48.9688 2.34375 47.3916 2.34375 45.4531V14.5156C2.34375 12.5771 3.92086 11 5.85938 11H54.1406C56.0791 11 57.6562 12.5771 57.6562 14.5156V45.4531Z" fill="#C4C4C4"/>
<path d="M34.1797 13.8125C30.807 13.8125 27.5749 14.8406 24.8328 16.7857C22.152 18.6875 20.1359 21.3161 19.0029 24.3874C18.7788 24.9946 19.0895 25.6685 19.6968 25.8924C20.3038 26.1166 20.9777 25.8058 21.2018 25.1986C23.197 19.7901 28.4125 16.1562 34.1797 16.1562C41.8045 16.1562 48.0079 22.3596 48.0079 29.9844C48.0079 37.6092 41.8045 43.8125 34.1797 43.8125C28.4125 43.8125 23.197 40.1786 21.2018 34.7702C20.9777 34.1629 20.3037 33.8521 19.6968 34.0763C19.0895 34.3003 18.7788 34.9741 19.0029 35.5814C20.1359 38.6526 22.1518 41.2814 24.8328 43.1831C27.5749 45.1282 30.807 46.1562 34.1797 46.1562C43.0969 46.1562 50.3516 38.9015 50.3516 29.9844C50.3516 21.0672 43.0969 13.8125 34.1797 13.8125Z" fill="#C4C4C4"/>
<path d="M34.1797 41C40.2538 41 45.1954 36.0584 45.1954 29.9844C45.1954 23.9103 40.2538 18.9688 34.1797 18.9688C28.1057 18.9688 23.1641 23.9103 23.1641 29.9844C23.1641 36.0584 28.1057 41 34.1797 41ZM34.1797 21.3125C38.9615 21.3125 42.8516 25.2027 42.8516 29.9844C42.8516 34.7661 38.9615 38.6562 34.1797 38.6562C29.398 38.6562 25.5079 34.7661 25.5079 29.9844C25.5079 25.2027 29.398 21.3125 34.1797 21.3125Z" fill="#C4C4C4"/>
<path d="M34.1797 26.9844C35.8341 26.9844 37.1798 28.3302 37.1798 29.9845C37.1798 30.6317 37.7045 31.1564 38.3517 31.1564C38.9989 31.1564 39.5236 30.6317 39.5236 29.9845C39.5236 27.0379 37.1263 24.6406 34.1797 24.6406C33.5325 24.6406 33.0078 25.1653 33.0078 25.8125C33.0078 26.4597 33.5325 26.9844 34.1797 26.9844Z" fill="#C4C4C4"/>
<path d="M10.3125 15.2554C8.37117 15.2554 6.79172 16.8348 6.79172 18.7762C6.79172 20.7175 8.37117 22.2969 10.3125 22.2969C12.2538 22.2969 13.8333 20.7175 13.8333 18.7762C13.8333 16.8348 12.2538 15.2554 10.3125 15.2554ZM10.3125 19.9532C9.66351 19.9532 9.13547 19.4251 9.13547 18.7762C9.13547 18.1272 9.66351 17.5991 10.3125 17.5991C10.9615 17.5991 11.4895 18.1272 11.4895 18.7762C11.4895 19.4251 10.9615 19.9532 10.3125 19.9532Z" fill="#C4C4C4"/>
<path d="M19.1801 31.1562C19.8273 31.1562 20.352 30.6316 20.352 29.9844C20.352 29.3372 19.8273 28.8125 19.1801 28.8125C18.5329 28.8125 18.0082 29.3372 18.0082 29.9844C18.0082 30.6316 18.5329 31.1562 19.1801 31.1562Z" fill="#C4C4C4"/>
</svg>
