<svg width="62" height="65" viewBox="0 0 62 65" fill="none" xmlns="http://www.w3.org/2000/svg">
<path d="M23.0483 14.817C23.1979 14.9627 23.2662 15.1728 23.2309 15.3787L22.3826 20.3243C22.0225 22.2206 24.1401 24.0207 26.0665 23.0007L30.5078 20.6657C30.6928 20.5686 30.9136 20.5683 31.0985 20.6657L35.54 23.0007C37.238 23.9688 39.6016 22.3967 39.2239 20.3243L38.3756 15.3787C38.3403 15.1728 38.4085 14.9628 38.5582 14.817L42.1513 11.3143C42.8484 10.6347 43.0946 9.63752 42.7938 8.71165C42.493 7.78578 41.7076 7.12359 40.7442 6.98369L35.7783 6.26209C35.5717 6.23213 35.3931 6.10226 35.3006 5.915L33.08 1.41527C32.6492 0.542344 31.7767 0 30.8033 0C29.8298 0 28.9574 0.542344 28.5265 1.41527L26.3058 5.91487C26.2133 6.10238 26.0346 6.23213 25.8278 6.26209L20.8621 6.98369C18.9025 7.20294 17.9394 9.8602 19.455 11.3144L23.0483 14.817ZM20.6237 9.30021C20.6603 9.18734 20.7836 8.91934 21.136 8.86818L26.1015 8.14658C26.9286 8.02661 27.6434 7.5075 28.0135 6.75784L30.2341 2.25824C30.3917 1.93883 30.6846 1.90442 30.8033 1.90442C30.922 1.90442 31.2148 1.93883 31.3724 2.25824L33.5932 6.75797C33.9632 7.5075 34.6779 8.02661 35.5048 8.14658L40.4705 8.86818C40.8229 8.91934 40.9463 9.18747 40.9829 9.30021C41.0194 9.41294 41.0773 9.70226 40.8223 9.95071L37.2291 13.4532C36.6307 14.0366 36.3576 14.8767 36.4989 15.7005L37.3472 20.6461C37.4074 20.9972 37.1906 21.1972 37.0947 21.2669C36.9987 21.3366 36.7416 21.4808 36.4263 21.3152L31.9848 18.9801C31.2451 18.5913 30.3617 18.5913 29.6218 18.9801L25.1804 21.3152C24.8652 21.4812 24.6079 21.3366 24.512 21.2669C24.416 21.1972 24.1993 20.9972 24.2595 20.6461L25.1078 15.7005C25.2491 14.8767 24.976 14.0366 24.3775 13.4532L20.7844 9.95084C20.5293 9.70227 20.5871 9.41307 20.6237 9.30021Z" fill="#C4C4C4"/>
<path d="M41.7299 17.6468C41.4827 18.4072 41.6849 19.2266 42.2576 19.7849L44.8244 22.2868C44.8671 22.3285 44.8867 22.3886 44.8767 22.4475L44.2707 25.9805C43.956 27.5396 45.7354 28.987 47.297 28.179L50.4697 26.511C50.5226 26.4832 50.5859 26.4832 50.6387 26.511L53.8114 28.179C55.0705 28.9557 57.1923 27.7276 56.8377 25.9805L56.2317 22.4475C56.2216 22.3886 56.2412 22.3284 56.2839 22.2869L58.8509 19.7848C60.0083 18.7359 59.4328 16.4619 57.6949 16.2273L54.1477 15.7119C54.0886 15.7034 54.0375 15.6662 54.0111 15.6126L52.4247 12.3984C51.7436 10.961 49.5531 10.8143 48.684 12.3983L47.0977 15.6125C47.0713 15.6662 47.0201 15.7034 46.9611 15.7119L43.4138 16.2273C42.6221 16.3423 41.9769 16.8862 41.7299 17.6468ZM43.541 18.2352C43.5641 18.164 43.6133 18.1225 43.6874 18.1117L47.2347 17.5962C47.914 17.4975 48.501 17.0709 48.8051 16.4553L50.3915 13.241C50.4246 13.1739 50.4794 13.1398 50.5541 13.1398C50.6289 13.1398 50.6836 13.1738 50.7168 13.2409V13.241L52.3033 16.4554C52.6072 17.071 53.1942 17.4975 53.8737 17.5962L57.4209 18.1117C57.4949 18.1225 57.5443 18.164 57.5674 18.2352C57.5905 18.3064 57.5751 18.369 57.5216 18.4212L54.9545 20.9234C54.4629 21.4027 54.2388 22.0928 54.3547 22.7693L54.9607 26.3024C54.9734 26.3761 54.9491 26.4359 54.8886 26.4796C54.828 26.5237 54.7638 26.5283 54.6975 26.4934L51.5246 24.8253C50.917 24.5059 50.1914 24.5059 49.5836 24.8253L46.4108 26.4934C46.3445 26.528 46.2803 26.5236 46.2197 26.4796C46.1591 26.4357 46.1349 26.3761 46.1476 26.3023L46.7535 22.7693C46.8696 22.0927 46.6452 21.4025 46.1537 20.9232L43.5869 18.4213C43.5332 18.3689 43.5178 18.3063 43.541 18.2352Z" fill="#C4C4C4"/>
<path d="M5.19555 22.2866C5.23833 22.3283 5.25788 22.3884 5.24785 22.4473L4.64191 25.9803C4.37797 27.5148 6.01135 29.0178 7.66821 28.1789L10.8409 26.5108C10.8938 26.483 10.9571 26.483 11.0099 26.5108L14.1827 28.1789C15.5379 28.9554 17.5228 27.7057 17.209 25.9803L16.603 22.4472C16.5929 22.3884 16.6124 22.3283 16.6552 22.2867L19.2218 19.7846C20.3793 18.7357 19.8038 16.4617 18.0658 16.2271L14.5187 15.7117C14.4596 15.7032 14.4084 15.666 14.382 15.6124L12.7956 12.3981C12.1406 10.9511 9.81893 10.8291 9.05492 12.3981L7.46852 15.6123C7.44211 15.666 7.39095 15.7032 7.33192 15.7117L3.78459 16.2271C2.20453 16.4097 1.37769 18.5492 2.62868 19.7847L5.19555 22.2866ZM3.91205 18.235C3.93516 18.1638 3.98442 18.1223 4.05843 18.1115L7.60575 17.596C8.28508 17.4973 8.87211 17.0707 9.17616 16.4551L10.7626 13.2407C10.7957 13.1736 10.8504 13.1396 10.9252 13.1396C11 13.1396 11.0548 13.1736 11.0878 13.2408L12.6742 16.4552C12.9782 17.0708 13.5652 17.4973 14.2446 17.596L17.7918 18.1115C17.8658 18.1223 17.9152 18.1638 17.9383 18.235C17.9614 18.3062 17.9461 18.3688 17.8925 18.421L15.3255 20.9231C14.8338 21.4024 14.6096 22.0926 14.7258 22.7691L15.3317 26.3021C15.3444 26.3759 15.3201 26.4357 15.2596 26.4795C15.1992 26.5235 15.1348 26.5281 15.0686 26.4932L11.8958 24.8251C11.288 24.5057 10.5625 24.5057 9.95464 24.8251L6.78183 26.4932C6.71569 26.5281 6.65132 26.5234 6.59089 26.4795C6.53046 26.4355 6.50609 26.3759 6.51878 26.3021L7.12473 22.7693C7.24089 22.0926 7.01656 21.4024 6.52487 20.923L3.95814 18.4211C3.90444 18.3687 3.88895 18.3061 3.91205 18.235Z" fill="#C4C4C4"/>
<path d="M58.9932 55.9585L54.1979 53.9826V52.1276C55.8028 50.5433 57.149 47.8418 57.382 45.6076C59.0092 41.4243 57.2474 37.8924 55.4445 36.2484C55.9504 33.4059 53.5604 30.5392 50.6214 30.5961C47.6997 30.6039 45.3261 33.239 45.7957 36.2323C44.7275 37.1613 43.8549 38.5782 43.4107 40.1346C42.842 42.1272 43.0187 44.1694 43.9023 45.9081C44.2335 48.0901 45.4587 50.5158 47.0471 52.1235V53.9827L43.2527 55.5463C42.8105 54.9989 42.2485 54.5446 41.5923 54.2344C41.1169 54.0096 40.5493 54.2126 40.3245 54.688C40.0997 55.1634 40.3028 55.731 40.7781 55.9558C41.7724 56.4261 42.4149 57.4409 42.4149 58.5414V63.0957H31.7544V58.2979C32.7394 58.2638 33.5301 57.4521 33.5301 56.4591V53.8836C33.8138 53.7142 34.0817 53.5168 34.3316 53.2955L36.7154 54.2779C37.0637 54.4106 37.6699 54.3482 37.9585 53.7603C38.1589 53.2741 37.9271 52.7175 37.4409 52.5172L35.0598 51.536V47.9257C37.2916 46.0784 38.6153 43.0772 39.0284 39.8476C40.1417 37.9732 41.9779 33.053 38.7477 29.7823C37.4161 28.4342 35.5309 28.171 33.9956 28.4886C32.7575 25.7753 28.6749 25.4494 25.2219 27.4684C24.7694 27.7363 24.6199 28.3204 24.8879 28.7729C25.1558 29.2252 25.74 29.3749 26.1923 29.1069C28.9221 27.6132 31.7861 27.642 32.3565 29.5836L31.1364 32.8396C30.4625 33.588 29.6112 34.166 28.6608 34.5118C26.3042 35.3695 24.7116 36.7382 23.7726 37.7655C23.2982 36.2076 23.0458 33.8761 23.7581 31.9374C23.9394 31.4437 23.6864 30.8967 23.1927 30.7153C22.6993 30.5341 22.1521 30.7871 21.9706 31.2806C20.8651 34.2896 21.5863 38.0497 22.578 39.8551C23.0151 43.0714 24.1903 45.9183 26.547 47.9272V51.5361L20.2372 54.136C19.4733 54.4507 18.826 54.9468 18.3332 55.5613L14.5025 53.9827V51.9073C16.3056 49.9384 17.7899 46.3216 17.7439 43.8955C17.7439 39.4721 15.1951 36.8312 10.9261 36.8312C9.23533 36.8312 7.80622 37.2442 6.67888 38.0585C6.25257 38.3665 6.15659 38.9616 6.46458 39.3879C6.77257 39.8143 7.36772 39.9102 7.79391 39.6022C8.59003 39.0271 9.64387 38.7355 10.9261 38.7355C14.9871 38.7355 15.8396 41.5416 15.8396 43.8955C15.9848 46.3237 13.3864 51.7839 10.9261 52.0279C8.0327 51.4847 5.52805 45.6899 6.07991 42.8158C6.14821 42.2944 5.78094 41.8163 5.25954 41.748C4.73827 41.6811 4.26017 42.047 4.19174 42.5684C3.7488 45.5814 5.11075 49.3068 7.35147 51.9083V53.9825L2.5562 55.9584C1.00344 56.5981 0 58.0968 0 59.7762V62.7768C0 64.0025 0.997217 64.9999 2.22295 64.9999H59.3265C60.5522 64.9999 61.5494 64.0026 61.5494 62.7768V59.7762C61.5493 58.0969 60.546 56.5982 58.9932 55.9585ZM37.3928 31.1204C39.3343 33.0861 38.657 36.0853 37.8898 37.8795C37.1951 37.1788 36.1573 36.2422 34.8847 35.4276C34.0225 34.8757 33.3451 34.1256 32.9845 33.3342L34.0714 30.4337C34.9876 30.1701 36.443 30.1588 37.3928 31.1204ZM24.5027 39.8847C24.9426 39.2519 26.457 37.3402 29.3118 36.3012C30.1823 35.9843 30.9904 35.519 31.6998 34.9328C32.2286 35.7382 32.965 36.4596 33.858 37.0313C35.4237 38.0336 36.613 39.2731 37.1093 39.8294C36.5847 43.5902 34.4148 47.5548 30.8021 47.5548C27.2092 47.5548 25.0401 43.6245 24.5027 39.8847ZM30.8021 49.4591C31.6243 49.4591 32.4118 49.3131 33.1553 49.0305V51.7933C31.9757 52.9743 29.7557 53.0534 28.4512 51.7941V49.0314C29.1941 49.3135 29.9809 49.4591 30.8021 49.4591ZM17.2876 63.0957H15.3853L17.2875 60.3913V63.0957H17.2876ZM7.35135 61.0393L4.6263 57.1652L7.35135 56.0424V61.0393ZM9.25565 57.713C10.1825 58.103 11.4743 58.17 12.5981 57.7129V63.0957H9.25565V57.713ZM14.5024 56.0423L17.2284 57.1656L14.5024 61.0413V56.0423ZM12.5981 53.4747V55.503C11.7673 56.2739 10.2375 56.3734 9.25565 55.5024C9.25565 55.0174 9.25565 53.9939 9.25565 53.4753C10.2588 53.9972 11.3801 54.1334 12.5981 53.4747ZM1.90417 62.7769V59.7764C1.90417 59.0372 2.26497 58.3635 2.85289 57.9536L6.46966 63.0957H2.22282C2.04712 63.0957 1.90417 62.9527 1.90417 62.7769ZM19.1919 58.5412C19.1919 57.3778 19.887 56.3396 20.9625 55.8966L27.275 53.2955C28.4366 54.2728 29.9358 54.8281 31.6257 54.5707V56.3957C30.6406 56.4298 29.85 57.2415 29.85 58.2346V63.0957H19.1919V58.5412ZM50.6214 32.5002C52.1301 32.5002 53.3797 33.6271 53.575 35.0831C51.7428 34.3344 49.5432 34.3423 47.6648 35.1073C47.8493 33.6396 49.1043 32.5002 50.6214 32.5002ZM47.3519 37.428C48.2319 36.8111 49.4616 36.4308 50.7168 36.4308C51.8216 36.4308 52.9464 36.7254 53.8701 37.4124C54.8175 38.1171 56.8613 40.619 55.8596 44.1723C55.0304 43.5653 53.8868 41.9858 53.143 40.5367C52.9982 40.2541 52.7221 40.0627 52.4069 40.0255C52.0918 39.9883 51.7785 40.1111 51.5719 40.3519C50.6227 41.4603 47.8037 44.2038 45.3996 44.6114C44.2594 41.7895 45.6856 38.5964 47.3519 37.428ZM45.9514 46.441C48.433 45.9114 50.8412 43.8199 52.1071 42.5597C52.7313 43.682 54.3728 45.7116 55.3767 46.0805C54.7281 49.1861 52.2582 52.0279 50.6213 52.0279C49.0857 52.0279 46.7156 49.3849 45.9514 46.441ZM50.6214 53.9322C51.1639 53.9322 51.7284 53.791 52.2935 53.523C52.2936 53.5163 52.2934 54.5521 52.2936 54.6332C52.3284 56.106 51.7015 57.7574 50.6246 58.8918C49.6217 57.8521 48.9308 56.21 48.9507 54.6754C48.9515 54.6256 48.9508 53.689 48.951 53.526C49.4979 53.7854 50.0595 53.9322 50.6214 53.9322ZM47.1515 55.9991C47.3891 57.4445 48.0234 58.8042 48.9972 59.9225L49.6703 60.6956V63.0957H44.3191V58.5412C44.3191 58.096 44.2548 57.6594 44.1354 57.242L47.1515 55.9991ZM59.645 62.7769C59.645 62.9527 59.502 63.0957 59.3263 63.0957H51.5745V60.696L52.225 59.9555C53.2146 58.8288 53.8568 57.4587 54.0949 55.9999L58.2678 57.7193C59.1044 58.064 59.6451 58.8714 59.6451 59.7765V62.7769H59.645Z" fill="#C4C4C4"/>
<path d="M35.4241 59.2729C34.8983 59.2729 34.472 59.6991 34.472 60.2251C34.472 60.7511 34.8983 61.1772 35.4241 61.1772H39.0206C39.5464 61.1772 39.9727 60.7511 39.9727 60.2251C39.9727 59.6991 39.5464 59.2729 39.0206 59.2729H35.4241Z" fill="#C4C4C4"/>
</svg>
