<svg width="70" height="56" viewBox="0 0 70 56" fill="none" xmlns="http://www.w3.org/2000/svg">
<path d="M40.8334 45.5H29.1668C28.5228 45.5 28.0001 46.0214 28.0001 46.6666V54.8332C28.0001 55.4784 28.5228 55.9999 29.1668 55.9999H40.8334C41.4786 55.9999 42 55.4784 42 54.8332V46.6666C42 46.0214 41.4786 45.5 40.8334 45.5ZM39.6666 53.6666H30.3332V47.8332H39.6666V53.6666Z" fill="#C4C4C4"/>
<path d="M36.1668 46.6665H33.8334V54.8332H36.1668V46.6665Z" fill="#C4C4C4"/>
<path d="M46.6666 0H23.3334C22.6894 0 22.1667 0.522676 22.1667 1.16662V54.8332C22.1667 55.4784 22.6894 55.9999 23.3334 55.9999H46.6667C47.3119 55.9999 47.8334 55.4784 47.8334 54.8332V1.16662C47.8334 0.522676 47.3118 0 46.6666 0ZM45.5 53.6666H24.5V2.33338H45.5V53.6666Z" fill="#C4C4C4"/>
<path d="M23.3334 4.6665H14C13.3561 4.6665 12.8334 5.18918 12.8334 5.83313V54.8331C12.8334 55.4783 13.3561 55.9998 14 55.9998H23.3334C23.9773 55.9998 24.5 55.4783 24.5 54.8331V5.83313C24.5 5.18918 23.9773 4.6665 23.3334 4.6665ZM22.1666 53.6665H15.1666V6.99988H22.1666V53.6665Z" fill="#C4C4C4"/>
<path d="M14 4.6665H10.5V6.99988H14V4.6665Z" fill="#C4C4C4"/>
<path d="M50.1668 0H19.8334V2.33338H50.1668V0Z" fill="#C4C4C4"/>
<path d="M29.1668 39.6665H26.8334V43.1665H29.1668V39.6665Z" fill="#C4C4C4"/>
<path d="M33.8334 39.6665H31.5V43.1665H33.8334V39.6665Z" fill="#C4C4C4"/>
<path d="M38.5 39.6665H36.1666V43.1665H38.5V39.6665Z" fill="#C4C4C4"/>
<path d="M43.1668 39.6665H40.8334V43.1665H43.1668V39.6665Z" fill="#C4C4C4"/>
<path d="M29.1668 33.8335H26.8334V37.3335H29.1668V33.8335Z" fill="#C4C4C4"/>
<path d="M33.8334 33.8335H31.5V37.3335H33.8334V33.8335Z" fill="#C4C4C4"/>
<path d="M38.5 33.8335H36.1666V37.3335H38.5V33.8335Z" fill="#C4C4C4"/>
<path d="M43.1668 33.8335H40.8334V37.3335H43.1668V33.8335Z" fill="#C4C4C4"/>
<path d="M29.1668 28H26.8334V31.5H29.1668V28Z" fill="#C4C4C4"/>
<path d="M33.8334 28H31.5V31.5H33.8334V28Z" fill="#C4C4C4"/>
<path d="M38.5 28H36.1666V31.5H38.5V28Z" fill="#C4C4C4"/>
<path d="M43.1668 28H40.8334V31.5H43.1668V28Z" fill="#C4C4C4"/>
<path d="M29.1668 22.1665H26.8334V25.6665H29.1668V22.1665Z" fill="#C4C4C4"/>
<path d="M33.8334 22.1665H31.5V25.6665H33.8334V22.1665Z" fill="#C4C4C4"/>
<path d="M38.5 22.1665H36.1666V25.6665H38.5V22.1665Z" fill="#C4C4C4"/>
<path d="M43.1668 22.1665H40.8334V25.6665H43.1668V22.1665Z" fill="#C4C4C4"/>
<path d="M29.1668 16.3335H26.8334V19.8335H29.1668V16.3335Z" fill="#C4C4C4"/>
<path d="M33.8334 16.3335H31.5V19.8335H33.8334V16.3335Z" fill="#C4C4C4"/>
<path d="M38.5 16.3335H36.1666V19.8335H38.5V16.3335Z" fill="#C4C4C4"/>
<path d="M43.1668 16.3335H40.8334V19.8335H43.1668V16.3335Z" fill="#C4C4C4"/>
<path d="M29.1668 10.5H26.8334V14H29.1668V10.5Z" fill="#C4C4C4"/>
<path d="M33.8334 10.5H31.5V14H33.8334V10.5Z" fill="#C4C4C4"/>
<path d="M38.5 10.5H36.1666V14H38.5V10.5Z" fill="#C4C4C4"/>
<path d="M43.1668 10.5H40.8334V14H43.1668V10.5Z" fill="#C4C4C4"/>
<path d="M29.1668 4.6665H26.8334V8.1665H29.1668V4.6665Z" fill="#C4C4C4"/>
<path d="M33.8334 4.6665H31.5V8.1665H33.8334V4.6665Z" fill="#C4C4C4"/>
<path d="M38.5 4.6665H36.1666V8.1665H38.5V4.6665Z" fill="#C4C4C4"/>
<path d="M43.1668 4.6665H40.8334V8.1665H43.1668V4.6665Z" fill="#C4C4C4"/>
<path d="M19.8334 45.5H17.5V49H19.8334V45.5Z" fill="#C4C4C4"/>
<path d="M19.8334 39.6665H17.5V43.1665H19.8334V39.6665Z" fill="#C4C4C4"/>
<path d="M19.8334 33.8335H17.5V37.3335H19.8334V33.8335Z" fill="#C4C4C4"/>
<path d="M19.8334 28H17.5V31.5H19.8334V28Z" fill="#C4C4C4"/>
<path d="M19.8334 22.1665H17.5V25.6665H19.8334V22.1665Z" fill="#C4C4C4"/>
<path d="M19.8334 16.3335H17.5V19.8335H19.8334V16.3335Z" fill="#C4C4C4"/>
<path d="M19.8334 10.5H17.5V14H19.8334V10.5Z" fill="#C4C4C4"/>
<path d="M56 4.6665H46.6666C46.0214 4.6665 45.5 5.18918 45.5 5.83313V54.8331C45.5 55.4783 46.0214 55.9998 46.6666 55.9998H56C56.6452 55.9998 57.1666 55.4783 57.1666 54.8331V5.83313C57.1666 5.18918 56.6452 4.6665 56 4.6665ZM54.8334 53.6665H47.8334V6.99988H54.8334V53.6665Z" fill="#C4C4C4"/>
<path d="M59.5 4.6665H56V6.99988H59.5V4.6665Z" fill="#C4C4C4"/>
<path d="M52.5 45.5H50.1666V49H52.5V45.5Z" fill="#C4C4C4"/>
<path d="M52.5 39.6665H50.1666V43.1665H52.5V39.6665Z" fill="#C4C4C4"/>
<path d="M52.5 33.8335H50.1666V37.3335H52.5V33.8335Z" fill="#C4C4C4"/>
<path d="M52.5 28H50.1666V31.5H52.5V28Z" fill="#C4C4C4"/>
<path d="M52.5 22.1665H50.1666V25.6665H52.5V22.1665Z" fill="#C4C4C4"/>
<path d="M52.5 16.3335H50.1666V19.8335H52.5V16.3335Z" fill="#C4C4C4"/>
<path d="M52.5 10.5H50.1666V14H52.5V10.5Z" fill="#C4C4C4"/>
<path d="M14 53.667H0V56.0004H14V53.667Z" fill="#C4C4C4"/>
<path d="M70 53.667H56V56.0004H70V53.667Z" fill="#C4C4C4"/>
<path d="M7 30.333H4.66662V54.833H7V30.333Z" fill="#C4C4C4"/>
<path d="M1.8667 31.7334L0.466675 33.6001L9.79998 40.6001L11.2 38.7334L1.8667 31.7334Z" fill="#C4C4C4"/>
<path d="M9.79697 31.7337L0.464409 38.7363L1.8649 40.6028L11.1975 33.6002L9.79697 31.7337Z" fill="#C4C4C4"/>
<path d="M65.3334 30.333H63V54.833H65.3334V30.333Z" fill="#C4C4C4"/>
<path d="M60.1993 31.7344L58.8 33.6001L68.1333 40.6001L69.5326 38.7344L60.1993 31.7344Z" fill="#C4C4C4"/>
<path d="M68.1275 31.7404L58.7934 38.7378L60.1921 40.6036L69.5262 33.6062L68.1275 31.7404Z" fill="#C4C4C4"/>
</svg>
