<svg width="70" height="70" viewBox="0 0 70 70" fill="none" xmlns="http://www.w3.org/2000/svg">
<path d="M45.5 23.333C43.567 23.333 42 24.9 42 26.833V27.9997H44.3333V26.833C44.3333 26.1887 44.8557 25.6663 45.5 25.6663C46.1443 25.6663 46.6667 26.1887 46.6667 26.833V27.9997H49V26.833C49 24.9 47.433 23.333 45.5 23.333Z" fill="#C4C4C4"/>
<path d="M57.1667 23.333C55.2337 23.333 53.6667 24.9 53.6667 26.833V27.9997H56V26.833C56 26.1887 56.5224 25.6663 57.1667 25.6663C57.811 25.6663 58.3334 26.1887 58.3334 26.833V27.9997H60.6667V26.833C60.6667 24.9 59.0997 23.333 57.1667 23.333Z" fill="#C4C4C4"/>
<path d="M46.6667 30.333V32.6663C46.6667 35.2437 48.756 37.333 51.3334 37.333C53.9107 37.333 56 35.2437 56 32.6663V30.333H46.6667ZM51.3334 34.9997C50.0446 34.9997 49 33.9551 49 32.6663H53.6667C53.6667 33.9551 52.6221 34.9997 51.3334 34.9997Z" fill="#C4C4C4"/>
<path d="M68.8333 40.8334H57.1667V40.7108C61.3677 38.7753 64.344 34.8928 65.1222 30.3334H66.5C68.433 30.3334 70 28.7664 70 26.8334C70 24.9003 68.433 23.3334 66.5 23.3334H65.3333V19.8334C65.3252 14.5523 62.0852 9.81446 57.1667 7.89135V5.83335C57.1667 2.61175 54.5549 1.97375e-05 51.3333 1.97375e-05C48.1117 1.97375e-05 45.5 2.61175 45.5 5.83335V7.89135C40.5815 9.81446 37.3415 14.5523 37.3333 19.8334V23.3334H36.1667C34.2336 23.3334 32.6667 24.9003 32.6667 26.8334C32.6667 28.7664 34.2336 30.3334 36.1667 30.3334H37.5445C38.3227 34.8928 41.299 38.7753 45.5 40.7108V40.8334H25.2572L21 31.2527V24.5C21 23.8557 20.4776 23.3334 19.8333 23.3334H16.3333V1.97375e-05H12.1497C10.7834 -0.00377193 9.47231 0.538874 8.5085 1.50735C7.9816 2.03746 7.26454 2.33481 6.517 2.33335H0V16.3334H6.517C7.88331 16.3371 9.19435 15.7945 10.1582 14.826C10.6852 14.2959 11.4021 13.9986 12.1497 14H14V23.3334H12.8333C12.189 23.3334 11.6667 23.8557 11.6667 24.5V31.5C11.6667 31.6486 11.6947 31.7959 11.7495 31.934L17.5758 46.4998C18.4555 48.7199 20.6048 50.1749 22.9927 50.1667H32.6667V68.8334C32.6667 69.4776 33.189 70 33.8333 70H68.8333C69.4776 70 70 69.4776 70 68.8334V42C70 41.3557 69.4776 40.8334 68.8333 40.8334ZM65.3333 25.6667H66.5C67.1443 25.6667 67.6667 26.1891 67.6667 26.8334C67.6667 27.4776 67.1443 28 66.5 28H65.3333V25.6667ZM37.3333 28H36.1667C35.5224 28 35 27.4776 35 26.8334C35 26.1891 35.5224 25.6667 36.1667 25.6667H37.3333V28ZM47.8333 5.83335C47.8333 3.90033 49.4003 2.33335 51.3333 2.33335C53.2664 2.33335 54.8333 3.90033 54.8333 5.83335V7.00002H47.8333V5.83335ZM50.1667 9.33335H52.5C57.8449 9.33992 62.3344 13.3556 62.9347 18.6667H61.8333C59.9003 18.6667 58.3333 17.0997 58.3333 15.1667C58.3333 14.5224 57.811 14 57.1667 14H54.8333C54.189 14 53.6667 14.5224 53.6667 15.1667C53.6667 17.0997 52.0997 18.6667 50.1667 18.6667H39.732C40.3322 13.3556 44.8217 9.33992 50.1667 9.33335ZM39.6667 28V21H50.1667C52.9376 20.9965 55.3252 19.0475 55.8833 16.3334H56.1167C56.6748 19.0475 59.0624 20.9965 61.8333 21H63V28C63 34.4434 57.7767 39.6667 51.3333 39.6667C44.89 39.6667 39.6667 34.4434 39.6667 28ZM54.8333 43.1667C54.8333 45.0997 53.2664 46.6667 51.3333 46.6667C49.4003 46.6667 47.8333 45.0997 47.8333 43.1667H54.8333ZM45.5 43.1667C45.5 46.3883 48.1117 49 51.3333 49C54.5549 49 57.1667 46.3883 57.1667 43.1667H59.8675L54.1403 53.6667H48.5263L42.7992 43.1667H45.5ZM53.6667 56V63H49V56H53.6667ZM12.1497 11.6667C10.7834 11.6629 9.47231 12.2055 8.5085 13.174C7.98146 13.7041 7.26454 14.0015 6.517 14H2.33333V4.66669H6.517C7.88331 4.67048 9.19435 4.12783 10.1582 3.15935C10.6852 2.62925 11.4021 2.33189 12.1497 2.33335H14V11.6667H12.1497ZM14 25.6667H18.6667V30.3334H14V25.6667ZM28 47.8334H22.9927C21.56 47.8383 20.2707 46.9652 19.7435 45.633L14.5565 32.6667H19.075L23.4337 42.4737C23.6209 42.8951 24.0389 43.1667 24.5 43.1667H28V47.8334ZM67.6667 67.6667H35V49C35 48.3557 34.4776 47.8334 33.8333 47.8334H30.3333V43.1667H40.1403L46.6667 55.1309V64.1667C46.6667 64.811 47.189 65.3334 47.8333 65.3334H54.8333C55.4776 65.3334 56 64.811 56 64.1667V55.1309L62.5263 43.1667H67.6667V67.6667Z" fill="#C4C4C4"/>
</svg>
