<svg width="65" height="65" viewBox="0 0 65 65" fill="none" xmlns="http://www.w3.org/2000/svg">
<path d="M46.7188 30.4688H18.2812C17.7425 30.4688 17.2259 30.2547 16.8449 29.8738C16.464 29.4929 16.25 28.9762 16.25 28.4375C16.25 27.8988 16.464 27.3821 16.8449 27.0012C17.2259 26.6203 17.7425 26.4062 18.2812 26.4062H60.9375C61.2069 26.4062 61.4652 26.2992 61.6557 26.1088C61.8461 25.9183 61.9531 25.66 61.9531 25.3906V13.2031C61.9531 12.9338 61.8461 12.6754 61.6557 12.485C61.4652 12.2945 61.2069 12.1875 60.9375 12.1875H57.4844C57.7314 11.5376 57.8686 10.8512 57.8906 10.1562C57.8906 8.00137 57.0346 5.93474 55.5109 4.41101C53.9871 2.88727 51.9205 2.03125 49.7656 2.03125C47.6107 2.03125 45.5441 2.88727 44.0204 4.41101C42.4967 5.93474 41.6406 8.00137 41.6406 10.1562C41.6642 10.8514 41.8032 11.5379 42.052 12.1875H18.2812C13.9732 12.1931 9.84324 13.907 6.797 16.9532C3.75075 19.9995 2.03689 24.1295 2.03125 28.4375C2.03636 32.7457 3.75005 36.876 6.79641 39.9223C9.84277 42.9687 13.973 44.6824 18.2812 44.6875H46.7188C47.2575 44.6875 47.7741 44.9015 48.1551 45.2824C48.536 45.6634 48.75 46.18 48.75 46.7188C48.75 47.2575 48.536 47.7741 48.1551 48.1551C47.7741 48.536 47.2575 48.75 46.7188 48.75H3.04688C2.77751 48.75 2.51919 48.857 2.32872 49.0475C2.13825 49.2379 2.03125 49.4963 2.03125 49.7656V61.9531C2.03125 62.2225 2.13825 62.4808 2.32872 62.6713C2.51919 62.8617 2.77751 62.9688 3.04688 62.9688H46.7188C51.0285 62.9688 55.1618 61.2567 58.2092 58.2092C61.2567 55.1618 62.9688 51.0285 62.9688 46.7188C62.9688 42.409 61.2567 38.2757 58.2092 35.2283C55.1618 32.1808 51.0285 30.4688 46.7188 30.4688ZM49.7656 4.0625C51.3813 4.06411 52.9303 4.70665 54.0728 5.8491C55.2152 6.99155 55.8578 8.54058 55.8594 10.1562C55.7816 11.0879 55.496 11.9902 55.0235 12.7969L55.0134 12.8172C53.5464 15.3602 51.7851 17.7215 49.7656 19.8524C47.7459 17.722 45.9848 15.3606 44.5189 12.8172C44.5189 12.808 44.5088 12.7989 44.5047 12.7898C44.0342 11.985 43.7496 11.0852 43.6719 10.1562C43.6735 8.54058 44.316 6.99155 45.4585 5.8491C46.6009 4.70665 48.15 4.06411 49.7656 4.0625ZM46.7188 60.9375H4.0625V50.7812H46.7188C47.7962 50.7812 48.8295 50.3532 49.5914 49.5914C50.3532 48.8295 50.7812 47.7962 50.7812 46.7188C50.7812 45.6413 50.3532 44.608 49.5914 43.8461C48.8295 43.0843 47.7962 42.6562 46.7188 42.6562H18.2812C14.5114 42.6522 10.8972 41.1529 8.23153 38.4872C5.56587 35.8216 4.06653 32.2073 4.0625 28.4375C4.06841 24.6683 5.56835 21.0551 8.2336 18.3899C10.8989 15.7246 14.512 14.2247 18.2812 14.2188H42.9813C44.6884 17.0534 46.7221 19.678 49.0405 22.0391C49.135 22.1355 49.2479 22.2121 49.3724 22.2644C49.4969 22.3167 49.6306 22.3436 49.7656 22.3436C49.9007 22.3436 50.0344 22.3167 50.1589 22.2644C50.2834 22.2121 50.3962 22.1355 50.4908 22.0391C52.8092 19.678 54.8428 17.0534 56.55 14.2188H59.9219V24.375H18.2812C17.2038 24.375 16.1705 24.803 15.4086 25.5649C14.6468 26.3267 14.2188 27.3601 14.2188 28.4375C14.2188 29.5149 14.6468 30.5483 15.4086 31.3101C16.1705 32.072 17.2038 32.5 18.2812 32.5H46.7188C50.4898 32.5 54.1064 33.998 56.7729 36.6646C59.4395 39.3311 60.9375 42.9477 60.9375 46.7188C60.9375 50.4898 59.4395 54.1064 56.7729 56.7729C54.1064 59.4395 50.4898 60.9375 46.7188 60.9375Z" fill="#C4C4C4"/>
<path d="M10.2578 29.7208C10.1904 29.2962 10.1564 28.867 10.1562 28.4371C10.1562 28.2634 10.1613 28.0918 10.1725 27.9211C10.1899 27.6518 10.0995 27.3865 9.92135 27.1838C9.74317 26.981 9.49174 26.8574 9.22238 26.84C9.08901 26.8314 8.95525 26.8492 8.82874 26.8922C8.70222 26.9353 8.58544 27.0029 8.48504 27.0912C8.28229 27.2693 8.15863 27.5208 8.14125 27.7901C8.12703 28.0044 8.12094 28.2197 8.12094 28.4371C8.12112 28.9734 8.16322 29.5089 8.24688 30.0387C8.28478 30.2772 8.4064 30.4943 8.58992 30.6512C8.77343 30.8081 9.00684 30.8945 9.24828 30.8949C9.30202 30.8953 9.3557 30.8913 9.40875 30.8827C9.5409 30.8624 9.66774 30.8162 9.782 30.7468C9.89625 30.6773 9.99568 30.586 10.0746 30.4781C10.1534 30.3701 10.2102 30.2477 10.2417 30.1177C10.2731 29.9878 10.2786 29.8529 10.2578 29.7208Z" fill="#C4C4C4"/>
<path d="M15.143 20.9403C15.6979 20.7077 16.277 20.5374 16.8695 20.4325C17.0024 20.4112 17.1297 20.3637 17.244 20.2928C17.3584 20.2218 17.4575 20.1289 17.5356 20.0193C17.6137 19.9098 17.6693 19.7858 17.6991 19.6546C17.7289 19.5234 17.7323 19.3875 17.7092 19.255C17.686 19.1224 17.6368 18.9958 17.5643 18.8825C17.4918 18.7691 17.3975 18.6713 17.2868 18.5947C17.1762 18.5181 17.0515 18.4642 16.9199 18.4363C16.7882 18.4083 16.6524 18.4067 16.5202 18.4317C15.778 18.5612 15.0527 18.7734 14.3579 19.0644C14.2349 19.116 14.1232 19.1913 14.0292 19.286C13.9353 19.3807 13.8609 19.493 13.8104 19.6164C13.7598 19.7399 13.7341 19.8721 13.7346 20.0055C13.7352 20.1389 13.762 20.2709 13.8135 20.3939C13.8651 20.5169 13.9404 20.6286 14.0351 20.7226C14.1298 20.8165 14.2421 20.8909 14.3655 20.9414C14.489 20.992 14.6212 21.0177 14.7546 21.0172C14.888 21.0166 15.0199 20.9898 15.143 20.9383V20.9403Z" fill="#C4C4C4"/>
<path d="M11.5863 33.043C11.5121 32.9296 11.4161 32.8321 11.3037 32.7564C11.1914 32.6807 11.065 32.6282 10.932 32.6021C10.7991 32.5759 10.6622 32.5767 10.5296 32.6042C10.3969 32.6318 10.2711 32.6856 10.1596 32.7625C10.048 32.8394 9.953 32.9379 9.88008 33.0521C9.80717 33.1663 9.75785 33.2939 9.73501 33.4275C9.71218 33.561 9.7163 33.6978 9.74714 33.8298C9.77797 33.9617 9.83489 34.0861 9.91455 34.1957C10.3414 34.8155 10.8356 35.3861 11.3882 35.8969C11.5861 36.0798 11.8485 36.1766 12.1177 36.166C12.3869 36.1555 12.6409 36.0384 12.8238 35.8405C13.0067 35.6427 13.1035 35.3803 13.0929 35.1111C13.0824 34.8418 12.9653 34.5878 12.7674 34.405C12.3246 33.996 11.9284 33.5392 11.5863 33.043Z" fill="#C4C4C4"/>
<path d="M23.6478 36.5625H21.6165C21.3472 36.5625 21.0889 36.6695 20.8984 36.86C20.7079 37.0504 20.6009 37.3088 20.6009 37.5781C20.6009 37.8475 20.7079 38.1058 20.8984 38.2963C21.0889 38.4867 21.3472 38.5938 21.6165 38.5938H23.6478C23.9172 38.5938 24.1755 38.4867 24.3659 38.2963C24.5564 38.1058 24.6634 37.8475 24.6634 37.5781C24.6634 37.3088 24.5564 37.0504 24.3659 36.86C24.1755 36.6695 23.9172 36.5625 23.6478 36.5625Z" fill="#C4C4C4"/>
<path d="M17.6353 36.5369C17.0351 36.49 16.4421 36.3762 15.8671 36.1977C15.6099 36.1177 15.3314 36.1431 15.0929 36.2685C14.8545 36.3938 14.6756 36.6087 14.5956 36.866C14.5156 37.1232 14.541 37.4017 14.6664 37.6401C14.7917 37.8786 15.0066 38.0575 15.2638 38.1375C15.983 38.3611 16.725 38.5035 17.4759 38.5621H17.5571C17.6905 38.5672 17.8236 38.546 17.9488 38.4997C18.074 38.4534 18.1888 38.3829 18.2867 38.2922C18.3847 38.2016 18.4638 38.0925 18.5196 37.9712C18.5754 37.85 18.6067 37.7189 18.6119 37.5855C18.617 37.4522 18.5958 37.3191 18.5495 37.1939C18.5032 37.0687 18.4327 36.9539 18.342 36.8559C18.2514 36.758 18.1423 36.6789 18.021 36.6231C17.8998 36.5673 17.7687 36.5359 17.6353 36.5308V36.5369Z" fill="#C4C4C4"/>
<path d="M29.7415 36.5625H27.7103C27.4409 36.5625 27.1826 36.6695 26.9921 36.86C26.8017 37.0504 26.6947 37.3088 26.6947 37.5781C26.6947 37.8475 26.8017 38.1058 26.9921 38.2963C27.1826 38.4867 27.4409 38.5938 27.7103 38.5938H29.7415C30.0109 38.5938 30.2692 38.4867 30.4597 38.2963C30.6502 38.1058 30.7572 37.8475 30.7572 37.5781C30.7572 37.3088 30.6502 37.0504 30.4597 36.86C30.2692 36.6695 30.0109 36.5625 29.7415 36.5625Z" fill="#C4C4C4"/>
<path d="M32.9367 20.3125H34.968C35.2373 20.3125 35.4957 20.2055 35.6861 20.015C35.8766 19.8246 35.9836 19.5662 35.9836 19.2969C35.9836 19.0275 35.8766 18.7692 35.6861 18.5787C35.4957 18.3883 35.2373 18.2812 34.968 18.2812H32.9367C32.6674 18.2812 32.409 18.3883 32.2186 18.5787C32.0281 18.7692 31.9211 19.0275 31.9211 19.2969C31.9211 19.5662 32.0281 19.8246 32.2186 20.015C32.409 20.2055 32.6674 20.3125 32.9367 20.3125Z" fill="#C4C4C4"/>
<path d="M9.79774 24.8831C9.91429 24.9481 10.0425 24.9895 10.1751 25.0049C10.3076 25.0204 10.442 25.0095 10.5703 24.973C10.6987 24.9365 10.8186 24.8751 10.9232 24.7922C11.0279 24.7093 11.1151 24.6066 11.18 24.49C11.4732 23.9636 11.8244 23.4717 12.2271 23.0235C12.4068 22.8227 12.4993 22.5587 12.4844 22.2897C12.4694 22.0206 12.3482 21.7686 12.1474 21.5889C11.9466 21.4092 11.6826 21.3167 11.4136 21.3316C11.1446 21.3466 10.8925 21.4678 10.7128 21.6686C10.2113 22.2281 9.77291 22.8412 9.40571 23.4967C9.34001 23.6134 9.29803 23.7419 9.28218 23.8749C9.26633 24.0078 9.27693 24.1426 9.31336 24.2715C9.3498 24.4003 9.41135 24.5207 9.49448 24.6256C9.57761 24.7306 9.68067 24.8181 9.79774 24.8831Z" fill="#C4C4C4"/>
<path d="M39.0305 20.3125H41.0617C41.3311 20.3125 41.5894 20.2055 41.7799 20.015C41.9703 19.8246 42.0773 19.5662 42.0773 19.2969C42.0773 19.0275 41.9703 18.7692 41.7799 18.5787C41.5894 18.3883 41.3311 18.2812 41.0617 18.2812H39.0305C38.7611 18.2812 38.5028 18.3883 38.3123 18.5787C38.1218 18.7692 38.0148 19.0275 38.0148 19.2969C38.0148 19.5662 38.1218 19.8246 38.3123 20.015C38.5028 20.2055 38.7611 20.3125 39.0305 20.3125Z" fill="#C4C4C4"/>
<path d="M20.7492 20.3125H22.7805C23.0498 20.3125 23.3082 20.2055 23.4986 20.015C23.6891 19.8246 23.7961 19.5662 23.7961 19.2969C23.7961 19.0275 23.6891 18.7692 23.4986 18.5787C23.3082 18.3883 23.0498 18.2812 22.7805 18.2812H20.7492C20.4799 18.2812 20.2215 18.3883 20.0311 18.5787C19.8406 18.7692 19.7336 19.0275 19.7336 19.2969C19.7336 19.5662 19.8406 19.8246 20.0311 20.015C20.2215 20.2055 20.4799 20.3125 20.7492 20.3125Z" fill="#C4C4C4"/>
<path d="M26.843 20.3125H28.8742C29.1436 20.3125 29.4019 20.2055 29.5924 20.015C29.7828 19.8246 29.8898 19.5662 29.8898 19.2969C29.8898 19.0275 29.7828 18.7692 29.5924 18.5787C29.4019 18.3883 29.1436 18.2812 28.8742 18.2812H26.843C26.5736 18.2812 26.3153 18.3883 26.1248 18.5787C25.9343 18.7692 25.8273 19.0275 25.8273 19.2969C25.8273 19.5662 25.9343 19.8246 26.1248 20.015C26.3153 20.2055 26.5736 20.3125 26.843 20.3125Z" fill="#C4C4C4"/>
<path d="M51.0026 53.6252C50.4916 53.9437 49.9466 54.2039 49.3776 54.4011C49.2508 54.4441 49.1336 54.5117 49.033 54.6001C48.9323 54.6885 48.8502 54.7959 48.7912 54.9162C48.7323 55.0365 48.6977 55.1673 48.6895 55.301C48.6813 55.4347 48.6997 55.5687 48.7435 55.6953C48.7873 55.8219 48.8557 55.9385 48.9448 56.0386C49.0338 56.1386 49.1418 56.22 49.2625 56.2782C49.3832 56.3363 49.5142 56.37 49.6479 56.3773C49.7817 56.3846 49.9156 56.3653 50.0419 56.3207C50.7529 56.0738 51.4342 55.7485 52.0731 55.3508C52.1865 55.2803 52.2849 55.1883 52.3627 55.0798C52.4405 54.9714 52.4961 54.8487 52.5265 54.7187C52.5569 54.5888 52.5613 54.4541 52.5396 54.3224C52.518 54.1907 52.4706 54.0646 52.4001 53.9512C52.3297 53.8378 52.2377 53.7395 52.1292 53.6617C52.0208 53.5839 51.8981 53.5282 51.7681 53.4979C51.6382 53.4675 51.5035 53.463 51.3718 53.4847C51.2401 53.5064 51.114 53.5538 51.0006 53.6242L51.0026 53.6252Z" fill="#C4C4C4"/>
<path d="M54.0668 39.7111C53.5479 39.1676 52.9709 38.6826 52.3463 38.2649C52.1223 38.1169 51.8489 38.0637 51.5858 38.1167C51.3226 38.1698 51.0912 38.3249 50.9421 38.5481C50.793 38.7713 50.7383 39.0445 50.79 39.3079C50.8417 39.5713 50.9955 39.8035 51.218 39.9538C51.7194 40.2892 52.1826 40.6784 52.5992 41.1147C52.6905 41.2146 52.8008 41.2952 52.9237 41.3518C53.0466 41.4085 53.1795 41.44 53.3148 41.4446C53.45 41.4491 53.5848 41.4266 53.7112 41.3783C53.8376 41.3301 53.9531 41.257 54.0509 41.1635C54.1487 41.07 54.2268 40.9579 54.2806 40.8337C54.3345 40.7096 54.363 40.5759 54.3645 40.4406C54.3659 40.3053 54.3404 40.1711 54.2893 40.0458C54.2381 39.9206 54.1625 39.8067 54.0668 39.7111Z" fill="#C4C4C4"/>
<path d="M33.5156 54.8438H31.4844C31.215 54.8438 30.9567 54.9508 30.7662 55.1412C30.5758 55.3317 30.4688 55.59 30.4688 55.8594C30.4688 56.1287 30.5758 56.3871 30.7662 56.5775C30.9567 56.768 31.215 56.875 31.4844 56.875H33.5156C33.785 56.875 34.0433 56.768 34.2338 56.5775C34.4242 56.3871 34.5312 56.1287 34.5312 55.8594C34.5312 55.59 34.4242 55.3317 34.2338 55.1412C34.0433 54.9508 33.785 54.8438 33.5156 54.8438Z" fill="#C4C4C4"/>
<path d="M39.6094 54.8438H37.5781C37.3088 54.8438 37.0504 54.9508 36.86 55.1412C36.6695 55.3317 36.5625 55.59 36.5625 55.8594C36.5625 56.1287 36.6695 56.3871 36.86 56.5775C37.0504 56.768 37.3088 56.875 37.5781 56.875H39.6094C39.8787 56.875 40.1371 56.768 40.3275 56.5775C40.518 56.3871 40.625 56.1287 40.625 55.8594C40.625 55.59 40.518 55.3317 40.3275 55.1412C40.1371 54.9508 39.8787 54.8438 39.6094 54.8438Z" fill="#C4C4C4"/>
<path d="M45.7031 54.8438H43.6719C43.4025 54.8438 43.1442 54.9508 42.9537 55.1412C42.7633 55.3317 42.6562 55.59 42.6562 55.8594C42.6562 56.1287 42.7633 56.3871 42.9537 56.5775C43.1442 56.768 43.4025 56.875 43.6719 56.875H45.7031C45.9725 56.875 46.2308 56.768 46.4213 56.5775C46.6117 56.3871 46.7188 56.1287 46.7188 55.8594C46.7188 55.59 46.6117 55.3317 46.4213 55.1412C46.2308 54.9508 45.9725 54.8438 45.7031 54.8438Z" fill="#C4C4C4"/>
<path d="M55.6563 48.89C55.5307 48.8442 55.3973 48.8237 55.2638 48.8296C55.1303 48.8355 54.9993 48.8676 54.8783 48.9242C54.7572 48.9809 54.6485 49.0608 54.5584 49.1595C54.4683 49.2582 54.3986 49.3737 54.3532 49.4994C54.1474 50.0656 53.8786 50.607 53.5519 51.1132C53.406 51.3397 53.3561 51.6149 53.4132 51.8783C53.4702 52.1416 53.6295 52.3715 53.8561 52.5173C54.0826 52.6632 54.3578 52.7131 54.6211 52.656C54.8844 52.599 55.1143 52.4397 55.2602 52.2131C55.6692 51.5788 56.0064 50.9009 56.2656 50.192C56.3112 50.0665 56.3316 49.9333 56.3257 49.7999C56.3197 49.6665 56.2875 49.5356 56.2309 49.4147C56.1743 49.2937 56.0944 49.1851 55.9958 49.0951C55.8972 49.0051 55.7818 48.9354 55.6563 48.89Z" fill="#C4C4C4"/>
<path d="M35.8353 36.5625H33.8041C33.5347 36.5625 33.2764 36.6695 33.0859 36.86C32.8954 37.0504 32.7884 37.3088 32.7884 37.5781C32.7884 37.8475 32.8954 38.1058 33.0859 38.2963C33.2764 38.4867 33.5347 38.5938 33.8041 38.5938H35.8353C36.1047 38.5938 36.363 38.4867 36.5535 38.2963C36.7439 38.1058 36.8509 37.8475 36.8509 37.5781C36.8509 37.3088 36.7439 37.0504 36.5535 36.86C36.363 36.6695 36.1047 36.5625 35.8353 36.5625Z" fill="#C4C4C4"/>
<path d="M56.3672 43.5472C56.3268 43.419 56.2614 43.3 56.1747 43.1973C56.0881 43.0945 55.9818 43.0099 55.8623 42.9485C55.7427 42.8871 55.612 42.8501 55.478 42.8396C55.344 42.829 55.2092 42.8452 55.0815 42.8871C54.9537 42.9291 54.8356 42.996 54.7339 43.0839C54.6323 43.1719 54.5491 43.2791 54.4892 43.3995C54.4292 43.5199 54.3938 43.6509 54.385 43.7851C54.3761 43.9192 54.394 44.0538 54.4375 44.181C54.625 44.7532 54.7479 45.3446 54.8041 45.9441C54.8277 46.1968 54.9451 46.4314 55.133 46.6019C55.321 46.7724 55.566 46.8664 55.8198 46.8653H55.9162C56.184 46.8396 56.4306 46.7086 56.602 46.5013C56.7734 46.2939 56.8555 46.0271 56.8303 45.7593C56.7581 45.0071 56.6028 44.2652 56.3672 43.5472Z" fill="#C4C4C4"/>
<path d="M48.1609 36.6641C47.6832 36.5966 47.2013 36.5626 46.7188 36.5625H45.9916C45.7222 36.5625 45.4639 36.6695 45.2734 36.86C45.0829 37.0504 44.9759 37.3088 44.9759 37.5781C44.9759 37.8475 45.0829 38.1058 45.2734 38.2963C45.4639 38.4867 45.7222 38.5938 45.9916 38.5938H46.7188C47.1058 38.5936 47.4924 38.6211 47.8755 38.676C47.923 38.6821 47.9709 38.6851 48.0188 38.6852C48.2756 38.6849 48.5228 38.5873 48.7106 38.4121C48.8983 38.2369 49.0128 37.997 49.0308 37.7408C49.0488 37.4846 48.9691 37.2311 48.8077 37.0313C48.6463 36.8315 48.4152 36.7003 48.1609 36.6641Z" fill="#C4C4C4"/>
<path d="M9.14062 54.8438H7.10938C6.84001 54.8438 6.58169 54.9508 6.39122 55.1412C6.20075 55.3317 6.09375 55.59 6.09375 55.8594C6.09375 56.1287 6.20075 56.3871 6.39122 56.5775C6.58169 56.768 6.84001 56.875 7.10938 56.875H9.14062C9.40999 56.875 9.66831 56.768 9.85878 56.5775C10.0492 56.3871 10.1562 56.1287 10.1562 55.8594C10.1562 55.59 10.0492 55.3317 9.85878 55.1412C9.66831 54.9508 9.40999 54.8438 9.14062 54.8438Z" fill="#C4C4C4"/>
<path d="M41.9291 36.5625H39.8978C39.6285 36.5625 39.3701 36.6695 39.1797 36.86C38.9892 37.0504 38.8822 37.3088 38.8822 37.5781C38.8822 37.8475 38.9892 38.1058 39.1797 38.2963C39.3701 38.4867 39.6285 38.5938 39.8978 38.5938H41.9291C42.1984 38.5938 42.4567 38.4867 42.6472 38.2963C42.8377 38.1058 42.9447 37.8475 42.9447 37.5781C42.9447 37.3088 42.8377 37.0504 42.6472 36.86C42.4567 36.6695 42.1984 36.5625 41.9291 36.5625Z" fill="#C4C4C4"/>
<path d="M21.3281 54.8438H19.2969C19.0275 54.8438 18.7692 54.9508 18.5787 55.1412C18.3883 55.3317 18.2812 55.59 18.2812 55.8594C18.2812 56.1287 18.3883 56.3871 18.5787 56.5775C18.7692 56.768 19.0275 56.875 19.2969 56.875H21.3281C21.5975 56.875 21.8558 56.768 22.0463 56.5775C22.2367 56.3871 22.3438 56.1287 22.3438 55.8594C22.3438 55.59 22.2367 55.3317 22.0463 55.1412C21.8558 54.9508 21.5975 54.8438 21.3281 54.8438Z" fill="#C4C4C4"/>
<path d="M15.2344 54.8438H13.2031C12.9338 54.8438 12.6754 54.9508 12.485 55.1412C12.2945 55.3317 12.1875 55.59 12.1875 55.8594C12.1875 56.1287 12.2945 56.3871 12.485 56.5775C12.6754 56.768 12.9338 56.875 13.2031 56.875H15.2344C15.5037 56.875 15.7621 56.768 15.9525 56.5775C16.143 56.3871 16.25 56.1287 16.25 55.8594C16.25 55.59 16.143 55.3317 15.9525 55.1412C15.7621 54.9508 15.5037 54.8438 15.2344 54.8438Z" fill="#C4C4C4"/>
<path d="M27.4219 54.8438H25.3906C25.1213 54.8438 24.8629 54.9508 24.6725 55.1412C24.482 55.3317 24.375 55.59 24.375 55.8594C24.375 56.1287 24.482 56.3871 24.6725 56.5775C24.8629 56.768 25.1213 56.875 25.3906 56.875H27.4219C27.6912 56.875 27.9496 56.768 28.14 56.5775C28.3305 56.3871 28.4375 56.1287 28.4375 55.8594C28.4375 55.59 28.3305 55.3317 28.14 55.1412C27.9496 54.9508 27.6912 54.8438 27.4219 54.8438Z" fill="#C4C4C4"/>
<path d="M49.7656 14.2188C50.5691 14.2188 51.3546 13.9805 52.0226 13.5341C52.6907 13.0877 53.2114 12.4532 53.5189 11.7109C53.8264 10.9686 53.9068 10.1517 53.7501 9.3637C53.5933 8.57565 53.2064 7.85178 52.6382 7.28363C52.0701 6.71548 51.3462 6.32856 50.5582 6.17181C49.7701 6.01506 48.9533 6.09551 48.211 6.40299C47.4686 6.71047 46.8342 7.23117 46.3878 7.89925C45.9414 8.56732 45.7031 9.35277 45.7031 10.1563C45.7031 11.2337 46.1311 12.267 46.893 13.0289C47.6549 13.7907 48.6882 14.2188 49.7656 14.2188ZM49.7656 8.125C50.1674 8.125 50.5601 8.24413 50.8941 8.46733C51.2282 8.69053 51.4885 9.00776 51.6423 9.37893C51.796 9.75009 51.8362 10.1585 51.7578 10.5525C51.6795 10.9466 51.486 11.3085 51.2019 11.5926C50.9179 11.8766 50.5559 12.0701 50.1619 12.1485C49.7679 12.2268 49.3595 12.1866 48.9883 12.0329C48.6171 11.8791 48.2999 11.6188 48.0767 11.2848C47.8535 10.9507 47.7344 10.558 47.7344 10.1563C47.7344 9.61753 47.9484 9.10088 48.3293 8.71994C48.7102 8.33901 49.2269 8.125 49.7656 8.125Z" fill="#C4C4C4"/>
</svg>
