<svg width="50" height="75" viewBox="0 0 50 75" fill="none" xmlns="http://www.w3.org/2000/svg">
<path d="M14.1451 15.923H36.1469C36.5709 15.897 36.9088 15.5589 36.935 15.1349C36.9635 14.6712 36.6107 14.2721 36.1469 14.2437H14.1451C14.1107 14.2417 14.0763 14.2417 14.0418 14.2437C13.578 14.2723 13.2254 14.6713 13.2538 15.1349C13.2823 15.5987 13.6814 15.9516 14.1451 15.923Z" fill="#C4C4C4"/>
<path d="M16.3577 47.0552V47.0488C14.4404 47.0487 12.6021 47.8131 11.2501 49.1725C9.89524 50.528 9.1345 52.3661 9.13513 54.2825C9.1364 58.2727 12.3722 61.5063 16.3625 61.5051C20.3527 61.5038 23.5863 58.268 23.585 54.2777C23.5837 50.2875 20.3479 47.0539 16.3577 47.0552ZM20.2736 58.2026C18.1068 60.367 14.5954 60.3651 12.4308 58.1983C10.2663 56.0314 10.2682 52.5201 12.4351 50.3554C14.6021 48.191 18.1133 48.1929 20.2779 50.3597V50.3534C21.3202 51.3938 21.9042 52.8074 21.9 54.2801C21.8999 55.7516 21.3148 57.1626 20.2736 58.2026Z" fill="#C4C4C4"/>
<path d="M41.7878 25.1484H8.50106C8.07712 25.1745 7.7392 25.5125 7.71301 25.9365C7.68445 26.4003 8.03728 26.7993 8.50106 26.8277H41.7878C42.2118 26.8017 42.5497 26.4636 42.5759 26.0396C42.6043 25.576 42.2515 25.177 41.7878 25.1484Z" fill="#C4C4C4"/>
<path d="M49.9524 9.46924L49.927 9.40575L49.9111 9.37401V9.35814L49.8889 9.32957L40.6831 0.123802L40.6292 0.0761856L40.5942 0.0571392H40.572L40.5339 0.0412672H40.4958C40.4322 0.0195226 40.366 0.00571392 40.299 0H3.06647V0.0031744C1.37499 0.00841216 0.00523776 1.37833 0 3.06965V59.4661C0.00523776 61.1574 1.37515 62.5273 3.06647 62.5325H9.65336C9.86223 62.887 10.1344 63.2001 10.4565 63.4563V73.3128C10.4244 73.5233 10.477 73.7377 10.6025 73.9096C10.603 73.9102 10.6035 73.9107 10.6039 73.9113C10.8977 74.2689 11.4258 74.3208 11.7834 74.027L16.2815 70.3352L20.7034 74.0048C20.8546 74.1374 21.0485 74.2105 21.2494 74.2112C21.2548 74.2112 21.2602 74.211 21.2655 74.211C21.7159 74.2005 22.0726 73.8267 22.0621 73.3763V63.6214C22.4621 63.3309 22.8017 62.9654 23.062 62.5452H46.9304C47.7443 62.5449 48.5244 62.2205 49.0985 61.6437C49.6746 61.0704 49.9989 60.2916 50 59.4788V9.71049C49.9962 9.62812 49.9802 9.54685 49.9524 9.46924ZM41.0736 2.88553L47.4224 9.23433L42.4576 9.23116C42.0907 9.231 41.7389 9.08482 41.4799 8.82484C41.2199 8.56581 41.0737 8.21408 41.0736 7.84712V2.88553ZM20.4241 71.6082L16.8021 68.6083C16.4931 68.3547 16.0477 68.3547 15.7387 68.6083L12.0818 71.605V64.1896C12.0818 64.1896 13.142 64.3261 13.7356 64.0086C14.3815 64.7829 15.3368 65.2314 16.345 65.234C17.3465 65.2063 18.2911 64.7622 18.9512 64.0086C19.2572 64.1216 19.578 64.1901 19.9035 64.2118C20.0767 64.2267 20.2509 64.2267 20.4241 64.2118V71.6082ZM24.0397 57.0789C24.4754 57.647 24.5351 58.4187 24.1921 59.047C23.8579 59.6249 23.219 59.9567 22.5541 59.8978C22.0924 59.8594 21.6866 60.2013 21.6462 60.6628C21.6855 61.0361 21.6205 61.4129 21.459 61.7516C21.1444 62.3564 20.5009 62.7168 19.821 62.669C19.6278 62.6549 19.4381 62.6098 19.2591 62.5357H19.24H19.2178H19.1924H19.1321H19.1131H18.7353C18.5825 62.4394 18.3988 62.4041 18.2211 62.4373H18.0814L18.0306 62.4659L18.002 62.4944L17.9766 62.5262L17.9512 62.5611H17.9322H17.8941C17.7236 62.9254 17.4308 63.2182 17.0665 63.3887C16.2075 63.7907 15.1852 63.4201 14.7832 62.5611C14.5867 62.1424 14.0889 61.9608 13.669 62.1548C13.3198 62.4427 12.8714 62.5821 12.4205 62.5427C11.4704 62.4599 10.7673 61.6224 10.8501 60.6723C10.8544 60.6214 10.8541 60.5701 10.849 60.5193C10.8036 60.057 10.3919 59.7191 9.92953 59.7645C9.53194 59.7965 9.13545 59.6891 8.80833 59.4607C8.03076 58.9177 7.84061 57.847 8.3836 57.0694C8.4101 57.0321 8.43343 56.9926 8.45343 56.9515C8.6558 56.5353 8.48248 56.0337 8.06616 55.8314C7.70348 55.6609 7.41159 55.369 7.24113 55.0064C6.83687 54.1464 7.20621 53.1216 8.06616 52.7173C8.11472 52.6943 8.16107 52.6668 8.2044 52.6349C8.57739 52.361 8.6577 51.8364 8.3836 51.4634C8.1598 51.1356 8.05647 50.7404 8.09107 50.3451C8.17377 49.4002 9.00689 48.7014 9.95175 48.7842C10.0027 48.7885 10.054 48.7882 10.1048 48.7831C10.5671 48.7377 10.905 48.326 10.8596 47.8636C10.8055 47.1981 11.1407 46.5612 11.7199 46.2288C12.2986 45.8963 13.0174 45.9284 13.5642 46.3113C13.6015 46.3379 13.641 46.3612 13.6821 46.3812C14.0983 46.5836 14.5999 46.4102 14.8022 45.9939C15.0808 45.3865 15.6895 44.9989 16.3577 45.0035V44.9971C16.9846 45.0898 17.5075 45.5246 17.7132 46.1241C17.9097 46.5428 18.4074 46.7243 18.8274 46.5304C19.3942 46.092 20.1668 46.031 20.7955 46.3748C21.3734 46.7091 21.7051 47.3479 21.6462 48.0128C21.6078 48.4745 21.9497 48.8804 22.4113 48.9207C22.7846 48.8815 23.1614 48.9463 23.5001 49.108C23.5661 49.1424 23.6299 49.1812 23.691 49.224C24.468 49.7681 24.6569 50.8388 24.1128 51.6158C23.8488 51.9946 23.9412 52.5156 24.3191 52.7808C24.6629 52.9333 24.9573 53.1784 25.1698 53.4887C25.2063 53.5469 25.2394 53.6074 25.2687 53.6696C25.6754 54.5323 25.3055 55.5612 24.4429 55.9679C24.0258 56.1642 23.8456 56.6607 24.0397 57.0789ZM48.6096 59.4883C48.6095 59.8552 48.4633 60.207 48.2033 60.466C47.9446 60.7268 47.5928 60.8742 47.2256 60.8755H24.8111V60.866C26.1053 59.9921 26.6359 58.3477 26.0968 56.8821C26.261 56.7462 26.4121 56.5951 26.548 56.4309C27.739 54.9906 27.537 52.8576 26.0968 51.6666C26.1696 51.469 26.2241 51.265 26.2591 51.0572C26.5712 49.2093 25.326 47.4583 23.4779 47.1462C23.4428 46.9434 23.3893 46.744 23.3182 46.5509C22.6701 44.7922 20.7193 43.892 18.9607 44.54C18.8261 44.3777 18.6768 44.2283 18.5144 44.0937C17.0742 42.9 14.9389 43.0998 13.7452 44.54C12.8036 44.194 11.7572 44.2835 10.8882 44.7845C10.0146 45.2854 9.41035 46.1504 9.24068 47.143C9.0372 47.1783 8.83737 47.2321 8.64374 47.3037C6.88591 47.9536 5.98772 49.9056 6.63767 51.6634C6.4734 51.7993 6.3223 51.9504 6.18643 52.1146C4.9954 53.5549 5.19745 55.6879 6.63767 56.8789C6.09485 58.3419 6.61863 59.9864 7.90743 60.866H3.06647C2.30176 60.8625 1.68275 60.2435 1.67926 59.4788V3.06965C1.68275 2.30493 2.30176 1.68592 3.06647 1.68243H39.3816V7.85664C39.3827 8.66945 39.707 9.44829 40.2832 10.0216C40.8561 10.5957 41.6337 10.9188 42.4449 10.9199H48.6096V59.4883Z" fill="#C4C4C4"/>
<path d="M41.791 43.8121H24.8461C24.8116 43.81 24.7772 43.81 24.7427 43.8121C24.2789 43.8407 23.9263 44.2397 23.9548 44.7035C23.9834 45.1672 24.3824 45.5199 24.8462 45.4913H41.7912C42.2151 45.4653 42.553 45.1272 42.5791 44.7035C42.6075 44.2397 42.2546 43.8407 41.791 43.8121Z" fill="#C4C4C4"/>
<path d="M42.5757 40.971C42.6043 40.5073 42.2515 40.1082 41.7878 40.0797H8.50105C8.46661 40.0776 8.43217 40.0776 8.39772 40.0797C7.93394 40.1082 7.58127 40.5073 7.60984 40.971C7.63841 41.4348 8.03743 41.7875 8.50121 41.7589H41.788C42.2118 41.7331 42.5497 41.395 42.5757 40.971Z" fill="#C4C4C4"/>
<path d="M14.1451 18.0742C13.7212 18.1002 13.3833 18.4383 13.3571 18.8623C13.3285 19.326 13.6814 19.7251 14.1451 19.7535H36.1469C36.5709 19.7274 36.9088 19.3894 36.935 18.9654C36.9635 18.5017 36.6107 18.1026 36.1469 18.0742H14.1451Z" fill="#C4C4C4"/>
<path d="M8.50104 38.0265H41.7878C42.2118 38.0005 42.5497 37.6624 42.5759 37.2385C42.6044 36.7747 42.2516 36.3757 41.7878 36.3473H8.50104C8.4666 36.3452 8.43215 36.3452 8.39771 36.3473C7.93393 36.3758 7.58125 36.7748 7.60967 37.2385C7.63824 37.7022 8.03726 38.0551 8.50104 38.0265Z" fill="#C4C4C4"/>
<path d="M8.50106 32.6133C8.07712 32.6393 7.7392 32.9774 7.71301 33.4013C7.68445 33.8651 8.03728 34.2641 8.50106 34.2925H41.7878C42.2118 34.2665 42.5497 33.9284 42.5759 33.5045C42.6045 33.0407 42.2516 32.6417 41.7878 32.6133H8.50106Z" fill="#C4C4C4"/>
<path d="M41.7878 28.8805H8.50104C8.4666 28.8784 8.43215 28.8784 8.39771 28.8805C7.93393 28.909 7.58125 29.308 7.60967 29.7717C7.63824 30.2354 8.03726 30.5881 8.50088 30.5597H41.7877C42.2116 30.5337 42.5495 30.1956 42.5757 29.7717C42.6043 29.308 42.2514 28.909 41.7878 28.8805Z" fill="#C4C4C4"/>
</svg>
