<svg width="80" height="47" viewBox="0 0 80 47" fill="none" xmlns="http://www.w3.org/2000/svg">
<path d="M76.3449 19.5316L61.5037 13.0432L52.6222 2.1129C52.088 1.45159 51.4122 0.918492 50.6447 0.552841C49.8772 0.187189 49.0375 -0.00171155 48.1873 3.89353e-05H12.6635C11.3656 -0.00430608 10.0924 0.355094 8.98833 1.03749C7.88427 1.71988 6.99348 2.69796 6.41698 3.86083L0.736825 15.2197C0.253907 16.1896 0.00173312 17.2579 0 18.3413V33.6508C0.00168054 35.1658 0.604259 36.6183 1.67553 37.6896C2.7468 38.7609 4.19928 39.3634 5.71429 39.3651H7.81064C8.24981 41.5161 9.41853 43.4493 11.1191 44.8377C12.8196 46.2261 14.9475 46.9844 17.1429 46.9844C19.3382 46.9844 21.4661 46.2261 23.1667 44.8377C24.8672 43.4493 26.0359 41.5161 26.4751 39.3651H56.0648C56.5037 41.5181 57.6735 43.4531 59.3761 44.8422C61.0786 46.2312 63.2091 46.9888 65.4064 46.9865C67.6036 46.9843 69.7326 46.2224 71.4323 44.8299C73.132 43.4374 74.2979 41.5 74.7324 39.3461C76.1654 39.2322 77.503 38.583 78.479 37.5277C79.4551 36.4724 79.9981 35.0883 80 33.6508V24.8619C79.9963 23.7092 79.6457 22.5843 78.9938 21.6336C78.3419 20.6829 77.4189 19.9504 76.3449 19.5316ZM49.6646 4.51401L56.3152 12.6985H41.9048V3.80956H48.1873C48.4706 3.80899 48.7503 3.87198 49.006 3.9939C49.2617 4.11581 49.4867 4.29355 49.6646 4.51401ZM30.4762 3.80956V12.6985H14.2984L18.5697 3.80956H30.4762ZM9.82429 5.56464C10.0863 5.03605 10.4912 4.59144 10.993 4.28124C11.4948 3.97103 12.0735 3.80763 12.6635 3.80956H14.3432L10.0719 12.6985H6.25683L9.82429 5.56464ZM17.1429 43.1746C16.0127 43.1746 14.9079 42.8395 13.9682 42.2116C13.0285 41.5837 12.296 40.6913 11.8635 39.6471C11.431 38.603 11.3179 37.454 11.5384 36.3456C11.7589 35.2371 12.3031 34.2189 13.1022 33.4197C13.9014 32.6206 14.9196 32.0764 16.0281 31.8559C17.1365 31.6354 18.2855 31.7485 19.3296 32.181C20.3738 32.6135 21.2662 33.346 21.8941 34.2857C22.522 35.2254 22.8571 36.3302 22.8571 37.4604C22.8555 38.9754 22.2529 40.4278 21.1816 41.4991C20.1103 42.5704 18.6579 43.173 17.1429 43.1746ZM65.3968 43.1746C64.2666 43.1746 63.1618 42.8395 62.2221 42.2116C61.2824 41.5837 60.55 40.6913 60.1175 39.6471C59.685 38.603 59.5719 37.454 59.7923 36.3456C60.0128 35.2371 60.5571 34.2189 61.3562 33.4197C62.1554 32.6206 63.1736 32.0764 64.282 31.8559C65.3905 31.6354 66.5394 31.7485 67.5836 32.181C68.6277 32.6135 69.5202 33.346 70.1481 34.2857C70.776 35.2254 71.1111 36.3302 71.1111 37.4604C71.1094 38.9754 70.5069 40.4278 69.4356 41.4991C68.3643 42.5704 66.9118 43.173 65.3968 43.1746ZM76.1905 33.6508C76.1897 34.0805 76.0439 34.4974 75.7766 34.8338C75.5093 35.1702 75.1362 35.4065 74.7178 35.5043C74.2682 33.3599 73.093 31.436 71.3903 30.0571C69.6876 28.6782 67.5614 27.9285 65.3704 27.9345C63.1793 27.9406 61.0574 28.7019 59.3622 30.0901C57.6671 31.4784 56.5025 33.4087 56.0648 35.5556H26.4751C26.0359 33.4046 24.8672 31.4714 23.1667 30.083C21.4661 28.6946 19.3382 27.9363 17.1429 27.9363C14.9475 27.9363 12.8196 28.6946 11.1191 30.083C9.41853 31.4714 8.24981 33.4046 7.81064 35.5556H5.71429C5.20928 35.555 4.72511 35.3542 4.36802 34.9971C4.01093 34.64 3.81007 34.1558 3.80952 33.6508V18.3413C3.81048 17.8486 3.92526 17.3628 4.14492 16.9218L4.35127 16.508H32.381C32.8861 16.508 33.3706 16.3073 33.7278 15.9501C34.085 15.5929 34.2857 15.1084 34.2857 14.6032V3.80956H38.0952V14.6032C38.0952 15.1084 38.2959 15.5929 38.6531 15.9501C39.0103 16.3073 39.4948 16.508 40 16.508H59.9192L74.8608 23.0405C74.8919 23.0542 74.9233 23.0669 74.9551 23.0788C75.3173 23.216 75.6293 23.4599 75.8499 23.7783C76.0705 24.0967 76.1893 24.4746 76.1905 24.8619V33.6508Z" fill="#C4C4C4"/>
<path d="M17.1429 39.3652C18.1948 39.3652 19.0476 38.5124 19.0476 37.4604C19.0476 36.4085 18.1948 35.5557 17.1429 35.5557C16.0909 35.5557 15.2381 36.4085 15.2381 37.4604C15.2381 38.5124 16.0909 39.3652 17.1429 39.3652Z" fill="#C4C4C4"/>
<path d="M65.3968 39.3652C66.4488 39.3652 67.3016 38.5124 67.3016 37.4604C67.3016 36.4085 66.4488 35.5557 65.3968 35.5557C64.3449 35.5557 63.4921 36.4085 63.4921 37.4604C63.4921 38.5124 64.3449 39.3652 65.3968 39.3652Z" fill="#C4C4C4"/>
<path d="M42.5397 20.3174H40.1587C39.6536 20.3174 39.1691 20.5181 38.8119 20.8753C38.4546 21.2325 38.254 21.717 38.254 22.2221C38.254 22.7273 38.4546 23.2118 38.8119 23.569C39.1691 23.9262 39.6536 24.1269 40.1587 24.1269H42.5397C43.0449 24.1269 43.5293 23.9262 43.8866 23.569C44.2438 23.2118 44.4444 22.7273 44.4444 22.2221C44.4444 21.717 44.2438 21.2325 43.8866 20.8753C43.5293 20.5181 43.0449 20.3174 42.5397 20.3174Z" fill="#C4C4C4"/>
<path d="M19.6825 20.3174H15.873C15.3678 20.3174 14.8834 20.5181 14.5262 20.8753C14.1689 21.2325 13.9683 21.717 13.9683 22.2221C13.9683 22.7273 14.1689 23.2118 14.5262 23.569C14.8834 23.9262 15.3678 24.1269 15.873 24.1269H19.6825C20.1877 24.1269 20.6722 23.9262 21.0294 23.569C21.3866 23.2118 21.5873 22.7273 21.5873 22.2221C21.5873 21.717 21.3866 21.2325 21.0294 20.8753C20.6722 20.5181 20.1877 20.3174 19.6825 20.3174Z" fill="#C4C4C4"/>
</svg>
