<svg width="79" height="79" viewBox="0 0 79 79" fill="none" xmlns="http://www.w3.org/2000/svg">
<line x1="77.7071" y1="0.707107" x2="0.707106" y2="77.7071" stroke="#C4C4C4" stroke-width="2"/>
<path d="M68.9011 42.0725H67.9284V33.3108C67.9284 31.9237 67.238 30.6955 66.1837 29.9493V28.7563C66.1837 27.0258 64.7759 25.6181 63.0454 25.6181H62.3191L65.0979 21.5403C66.0294 20.1735 65.6752 18.3036 64.3084 17.3721L45.452 4.52187C44.7899 4.07055 43.9919 3.90399 43.2042 4.05341C42.417 4.20258 41.7349 4.64933 41.2837 5.31152L25.0082 29.1943H20.4791L21.5718 18.1329C21.5841 18.0082 21.6651 17.9002 21.7781 17.8577C23.1859 17.3269 24.4059 16.3356 25.2133 15.0666C25.2769 14.9667 25.3969 14.9096 25.5211 14.9221L32.6247 15.6239C33.1341 15.6733 33.5872 15.3024 33.6374 14.7933C33.6877 14.2842 33.3159 13.8308 32.8068 13.7806L25.7031 13.0788C24.8786 12.998 24.0922 13.378 23.6504 14.0722C23.0568 15.0053 22.1597 15.734 21.1247 16.1242C20.3456 16.418 19.8106 17.1178 19.7283 17.9507L18.6177 29.1942H17.4367L19.1648 11.6995C19.227 11.0699 19.789 10.6072 20.4195 10.6703L34.7746 12.0884C35.2836 12.1375 35.737 11.7668 35.7873 11.2578C35.8375 10.7487 35.4657 10.2953 34.9566 10.245L20.6015 8.82698C18.9557 8.66461 17.4839 9.8713 17.3213 11.5174L15.9284 25.6181H13.5562C11.8259 25.6181 10.418 27.0258 10.418 28.7563V29.5701C9.00231 30.2219 8.01665 31.6529 8.01665 33.3108V64.8834C8.01665 67.1533 9.86331 69 12.1334 69H63.8118C66.0817 69 67.9284 67.1533 67.9284 64.8834V56.1218H68.9011C70.0492 56.1218 70.9832 55.1879 70.9832 54.0398V44.1546C70.9834 43.0064 70.0492 42.0725 68.9011 42.0725ZM63.0454 27.4706C63.7545 27.4704 64.3313 28.0473 64.3313 28.7565V29.2283C64.1609 29.2068 63.9879 29.1945 63.8118 29.1945H59.882L61.0566 27.4706H63.0454ZM42.8144 6.35457C42.987 6.1013 43.2479 5.93042 43.5491 5.87329C43.621 5.8597 43.6933 5.85285 43.765 5.85285C43.9931 5.85285 44.2161 5.92115 44.4088 6.05242L63.2653 18.9026C63.788 19.259 63.9236 19.9742 63.5674 20.497L57.6405 29.1941H56.2181L59.1239 24.9301C59.5952 24.2386 59.634 23.3585 59.225 22.6333C58.6814 21.6697 58.461 20.5351 58.6044 19.4384C58.7111 18.6224 58.352 17.8259 57.6675 17.3595L47.8924 10.698C47.2077 10.2315 46.335 10.1887 45.6147 10.5864C44.6467 11.1209 43.5101 11.3307 42.4145 11.1774C41.602 11.0634 40.7779 11.4303 40.3136 12.1114L28.6722 29.1942H27.2498L42.8144 6.35457ZM43.2223 22.0829C39.1888 22.0829 35.8779 25.2279 35.6081 29.1942H30.9135L41.8441 13.1546C41.8442 13.1546 41.8442 13.1546 41.8442 13.1546C41.9063 13.0633 42.0092 13.0089 42.115 13.0089C42.1291 13.0089 42.1432 13.01 42.1573 13.0119C43.6474 13.2203 45.1931 12.9352 46.5098 12.2081C46.6134 12.1507 46.7465 12.159 46.8491 12.2288L56.6243 18.8904C56.7267 18.9603 56.7829 19.0811 56.7677 19.1984C56.5725 20.69 56.8724 22.233 57.6116 23.5434C57.6709 23.6486 57.6637 23.7835 57.5934 23.8869L53.9767 29.1941H50.8368C50.5668 25.2279 47.256 22.0829 43.2223 22.0829ZM48.9793 29.1943H37.4653C37.7307 26.2504 40.2106 23.9354 43.2223 23.9354C46.2341 23.9353 48.7141 26.2504 48.9793 29.1943ZM12.2703 28.7563C12.2703 28.0472 12.8471 27.4703 13.5562 27.4703H15.7454L15.5752 29.1942H12.2703V28.7563ZM9.86902 33.3108C9.86902 32.0623 10.8848 31.0466 12.1334 31.0466H63.8118C65.0604 31.0466 66.076 32.0623 66.076 33.3108V35.8808H9.86902V33.3108ZM66.076 64.8834C66.076 66.1318 65.0604 67.1476 63.8118 67.1476H12.1334C10.8848 67.1476 9.86902 66.1318 9.86902 64.8834V62.3133H14.8636C15.3752 62.3133 15.7897 61.8987 15.7897 61.3872C15.7897 60.8757 15.3751 60.4611 14.8636 60.4611H9.86902V37.7332H66.076V42.0725H57.2698H57.2696C54.4949 42.0725 52.0915 43.6898 50.9508 46.031C50.947 46.0388 50.9427 46.0465 50.9387 46.0543C50.9291 46.0743 50.9207 46.095 50.9113 46.115C50.7755 46.4036 50.6574 46.7023 50.5613 47.0105C50.5611 47.0114 50.5608 47.0122 50.5605 47.0131C50.3555 47.6718 50.2449 48.3717 50.2449 49.0971C50.2449 52.9706 53.3962 56.1218 57.2695 56.1218H57.2696H66.0759V60.4611H20.7941C20.2825 60.4611 19.868 60.8757 19.868 61.3872C19.868 61.8987 20.2826 62.3133 20.7941 62.3133H66.076V64.8834ZM69.131 54.0397C69.131 54.1664 69.0279 54.2695 68.9011 54.2695H57.2699C55.3091 54.2695 53.5995 53.1727 52.7227 51.5605C52.6828 51.4873 52.6447 51.4129 52.6083 51.3376C52.5356 51.1869 52.4699 51.0322 52.4119 50.8737C52.2085 50.3195 52.0976 49.721 52.0976 49.0971C52.0976 48.4733 52.2086 47.8748 52.4119 47.3206C52.47 47.1623 52.5357 47.0075 52.6083 46.8567C52.6447 46.7814 52.6828 46.707 52.7227 46.6337C53.5995 45.0216 55.3091 43.9248 57.2699 43.9248H68.9011C69.0278 43.9248 69.131 44.0279 69.131 44.1546V54.0397Z" fill="#C4C4C4"/>
<path d="M57.4868 45.3394C55.4147 45.3394 53.729 47.0252 53.729 49.0972C53.729 51.1692 55.4147 52.8549 57.4868 52.8549C59.559 52.8549 61.2447 51.1692 61.2447 49.0972C61.2447 47.0252 59.559 45.3394 57.4868 45.3394ZM57.4868 51.0025C56.4362 51.0025 55.5814 50.1477 55.5814 49.0972C55.5814 48.0466 56.4362 47.1917 57.4868 47.1917C58.5375 47.1917 59.3923 48.0465 59.3923 49.0972C59.3923 50.1478 58.5375 51.0025 57.4868 51.0025Z" fill="#C4C4C4"/>
</svg>
