<svg width="65" height="65" viewBox="0 0 65 65" fill="none" xmlns="http://www.w3.org/2000/svg">
<path d="M57.8906 8.125H52.8125V6.09375C52.8125 5.01631 52.3845 3.983 51.6226 3.22113C50.8608 2.45926 49.8274 2.03125 48.75 2.03125C47.6726 2.03125 46.6392 2.45926 45.8774 3.22113C45.1155 3.983 44.6875 5.01631 44.6875 6.09375V8.125H36.5625V6.09375C36.5625 5.01631 36.1345 3.983 35.3726 3.22113C34.6108 2.45926 33.5774 2.03125 32.5 2.03125C31.4226 2.03125 30.3892 2.45926 29.6274 3.22113C28.8655 3.983 28.4375 5.01631 28.4375 6.09375V8.125H20.3125V6.09375C20.3125 5.01631 19.8845 3.983 19.1226 3.22113C18.3608 2.45926 17.3274 2.03125 16.25 2.03125C15.1726 2.03125 14.1392 2.45926 13.3774 3.22113C12.6155 3.983 12.1875 5.01631 12.1875 6.09375V8.125H7.10938C5.76257 8.125 4.47093 8.66002 3.5186 9.61235C2.56627 10.5647 2.03125 11.8563 2.03125 13.2031V53.8281C2.03125 55.1749 2.56627 56.4666 3.5186 57.4189C4.47093 58.3712 5.76257 58.9062 7.10938 58.9062H35.5469C35.8162 58.9062 36.0746 58.7992 36.265 58.6088C36.4555 58.4183 36.5625 58.16 36.5625 57.8906C36.5625 57.6213 36.4555 57.3629 36.265 57.1725C36.0746 56.982 35.8162 56.875 35.5469 56.875H7.10938C6.30204 56.8726 5.52845 56.5508 4.95757 55.9799C4.38669 55.409 4.06491 54.6355 4.0625 53.8281V22.3438H60.9375V39.6094C60.9375 39.8787 61.0445 40.1371 61.235 40.3275C61.4254 40.518 61.6838 40.625 61.9531 40.625C62.2225 40.625 62.4808 40.518 62.6713 40.3275C62.8617 40.1371 62.9688 39.8787 62.9688 39.6094V13.2031C62.9688 11.8563 62.4337 10.5647 61.4814 9.61235C60.5291 8.66002 59.2374 8.125 57.8906 8.125ZM46.7188 6.09375C46.7188 5.55503 46.9328 5.03837 47.3137 4.65744C47.6946 4.27651 48.2113 4.0625 48.75 4.0625C49.2887 4.0625 49.8054 4.27651 50.1863 4.65744C50.5672 5.03837 50.7812 5.55503 50.7812 6.09375V12.1875C50.7812 12.7262 50.5672 13.2429 50.1863 13.6238C49.8054 14.0047 49.2887 14.2188 48.75 14.2188C48.2113 14.2188 47.6946 14.0047 47.3137 13.6238C46.9328 13.2429 46.7188 12.7262 46.7188 12.1875V6.09375ZM30.4688 6.09375C30.4688 5.55503 30.6828 5.03837 31.0637 4.65744C31.4446 4.27651 31.9613 4.0625 32.5 4.0625C33.0387 4.0625 33.5554 4.27651 33.9363 4.65744C34.3172 5.03837 34.5312 5.55503 34.5312 6.09375V12.1875C34.5312 12.7262 34.3172 13.2429 33.9363 13.6238C33.5554 14.0047 33.0387 14.2188 32.5 14.2188C31.9613 14.2188 31.4446 14.0047 31.0637 13.6238C30.6828 13.2429 30.4688 12.7262 30.4688 12.1875V6.09375ZM14.2188 6.09375C14.2188 5.55503 14.4328 5.03837 14.8137 4.65744C15.1946 4.27651 15.7113 4.0625 16.25 4.0625C16.7887 4.0625 17.3054 4.27651 17.6863 4.65744C18.0672 5.03837 18.2812 5.55503 18.2812 6.09375V12.1875C18.2812 12.7262 18.0672 13.2429 17.6863 13.6238C17.3054 14.0047 16.7887 14.2188 16.25 14.2188C15.7113 14.2188 15.1946 14.0047 14.8137 13.6238C14.4328 13.2429 14.2188 12.7262 14.2188 12.1875V6.09375ZM60.9375 20.3125H4.0625V13.2031C4.06491 12.3958 4.38669 11.6222 4.95757 11.0513C5.52845 10.4804 6.30204 10.1587 7.10938 10.1562H12.1875V12.1875C12.1875 13.2649 12.6155 14.2983 13.3774 15.0601C14.1392 15.822 15.1726 16.25 16.25 16.25C17.3274 16.25 18.3608 15.822 19.1226 15.0601C19.8845 14.2983 20.3125 13.2649 20.3125 12.1875V10.1562H28.4375V12.1875C28.4375 13.2649 28.8655 14.2983 29.6274 15.0601C30.3892 15.822 31.4226 16.25 32.5 16.25C33.5774 16.25 34.6108 15.822 35.3726 15.0601C36.1345 14.2983 36.5625 13.2649 36.5625 12.1875V10.1562H44.6875V12.1875C44.6875 13.2649 45.1155 14.2983 45.8774 15.0601C46.6392 15.822 47.6726 16.25 48.75 16.25C49.8274 16.25 50.8608 15.822 51.6226 15.0601C52.3845 14.2983 52.8125 13.2649 52.8125 12.1875V10.1562H57.8906C58.698 10.1587 59.4715 10.4804 60.0424 11.0513C60.6133 11.6222 60.9351 12.3958 60.9375 13.2031V20.3125Z" fill="#C4C4C4"/>
<path d="M30.4688 29.4531C30.4688 28.9144 30.2547 28.3977 29.8738 28.0168C29.4929 27.6359 28.9762 27.4219 28.4375 27.4219H24.375C23.8363 27.4219 23.3196 27.6359 22.9387 28.0168C22.5578 28.3977 22.3438 28.9144 22.3438 29.4531V32.5C22.3438 33.0387 22.5578 33.5554 22.9387 33.9363C23.3196 34.3172 23.8363 34.5312 24.375 34.5312H28.4375C28.9762 34.5312 29.4929 34.3172 29.8738 33.9363C30.2547 33.5554 30.4688 33.0387 30.4688 32.5V29.4531ZM24.375 32.5V29.4531H28.4375V32.5H24.375Z" fill="#C4C4C4"/>
<path d="M18.2812 29.4531C18.2812 28.9144 18.0672 28.3977 17.6863 28.0168C17.3054 27.6359 16.7887 27.4219 16.25 27.4219H12.1875C11.6488 27.4219 11.1321 27.6359 10.7512 28.0168C10.3703 28.3977 10.1562 28.9144 10.1562 29.4531V32.5C10.1562 33.0387 10.3703 33.5554 10.7512 33.9363C11.1321 34.3172 11.6488 34.5312 12.1875 34.5312H16.25C16.7887 34.5312 17.3054 34.3172 17.6863 33.9363C18.0672 33.5554 18.2812 33.0387 18.2812 32.5V29.4531ZM12.1875 32.5V29.4531H16.25V32.5H12.1875Z" fill="#C4C4C4"/>
<path d="M52.8125 34.5312C53.3512 34.5312 53.8679 34.3172 54.2488 33.9363C54.6297 33.5554 54.8438 33.0387 54.8438 32.5V29.4531C54.8438 28.9144 54.6297 28.3977 54.2488 28.0168C53.8679 27.6359 53.3512 27.4219 52.8125 27.4219H48.75C48.2113 27.4219 47.6946 27.6359 47.3137 28.0168C46.9328 28.3977 46.7188 28.9144 46.7188 29.4531V32.5C46.7188 33.0387 46.9328 33.5554 47.3137 33.9363C47.6946 34.3172 48.2113 34.5312 48.75 34.5312H52.8125ZM48.75 29.4531H52.8125V32.5H48.75V29.4531Z" fill="#C4C4C4"/>
<path d="M30.4688 38.5938C30.4688 38.055 30.2547 37.5384 29.8738 37.1574C29.4929 36.7765 28.9762 36.5625 28.4375 36.5625H24.375C23.8363 36.5625 23.3196 36.7765 22.9387 37.1574C22.5578 37.5384 22.3438 38.055 22.3438 38.5938V41.6406C22.3438 42.1793 22.5578 42.696 22.9387 43.0769C23.3196 43.4579 23.8363 43.6719 24.375 43.6719H28.4375C28.9762 43.6719 29.4929 43.4579 29.8738 43.0769C30.2547 42.696 30.4688 42.1793 30.4688 41.6406V38.5938ZM24.375 41.6406V38.5938H28.4375V41.6406H24.375Z" fill="#C4C4C4"/>
<path d="M18.2812 38.5938C18.2812 38.055 18.0672 37.5384 17.6863 37.1574C17.3054 36.7765 16.7887 36.5625 16.25 36.5625H12.1875C11.6488 36.5625 11.1321 36.7765 10.7512 37.1574C10.3703 37.5384 10.1562 38.055 10.1562 38.5938V41.6406C10.1562 42.1793 10.3703 42.696 10.7512 43.0769C11.1321 43.4579 11.6488 43.6719 12.1875 43.6719H16.25C16.7887 43.6719 17.3054 43.4579 17.6863 43.0769C18.0672 42.696 18.2812 42.1793 18.2812 41.6406V38.5938ZM12.1875 41.6406V38.5938H16.25V41.6406H12.1875Z" fill="#C4C4C4"/>
<path d="M28.4375 45.7031H24.375C23.8363 45.7031 23.3196 45.9171 22.9387 46.2981C22.5578 46.679 22.3438 47.1957 22.3438 47.7344V50.7812C22.3438 51.32 22.5578 51.8366 22.9387 52.2176C23.3196 52.5985 23.8363 52.8125 24.375 52.8125H28.4375C28.9762 52.8125 29.4929 52.5985 29.8738 52.2176C30.2547 51.8366 30.4688 51.32 30.4688 50.7812V47.7344C30.4688 47.1957 30.2547 46.679 29.8738 46.2981C29.4929 45.9171 28.9762 45.7031 28.4375 45.7031ZM24.375 50.7812V47.7344H28.4375V50.7812H24.375Z" fill="#C4C4C4"/>
<path d="M36.5625 34.5312H40.625C41.1637 34.5312 41.6804 34.3172 42.0613 33.9363C42.4422 33.5554 42.6562 33.0387 42.6562 32.5V29.4531C42.6562 28.9144 42.4422 28.3977 42.0613 28.0168C41.6804 27.6359 41.1637 27.4219 40.625 27.4219H36.5625C36.0238 27.4219 35.5071 27.6359 35.1262 28.0168C34.7453 28.3977 34.5312 28.9144 34.5312 29.4531V32.5C34.5312 33.0387 34.7453 33.5554 35.1262 33.9363C35.5071 34.3172 36.0238 34.5312 36.5625 34.5312ZM36.5625 29.4531H40.625V32.5H36.5625V29.4531Z" fill="#C4C4C4"/>
<path d="M34.5312 41.6406C34.5312 42.1793 34.7453 42.696 35.1262 43.0769C35.5071 43.4579 36.0238 43.6719 36.5625 43.6719C36.8319 43.6719 37.0902 43.5649 37.2807 43.3744C37.4711 43.1839 37.5781 42.9256 37.5781 42.6562C37.5781 42.3869 37.4711 42.1286 37.2807 41.9381C37.0902 41.7476 36.8319 41.6406 36.5625 41.6406V38.5938H40.625C40.8944 38.5938 41.1527 38.4867 41.3432 38.2963C41.5336 38.1058 41.6406 37.8475 41.6406 37.5781C41.6406 37.3088 41.5336 37.0504 41.3432 36.86C41.1527 36.6695 40.8944 36.5625 40.625 36.5625H36.5625C36.0238 36.5625 35.5071 36.7765 35.1262 37.1574C34.7453 37.5384 34.5312 38.055 34.5312 38.5938V41.6406Z" fill="#C4C4C4"/>
<path d="M16.25 45.7031H12.1875C11.6488 45.7031 11.1321 45.9171 10.7512 46.2981C10.3703 46.679 10.1562 47.1957 10.1562 47.7344V50.7812C10.1562 51.32 10.3703 51.8366 10.7512 52.2176C11.1321 52.5985 11.6488 52.8125 12.1875 52.8125H16.25C16.7887 52.8125 17.3054 52.5985 17.6863 52.2176C18.0672 51.8366 18.2812 51.32 18.2812 50.7812V47.7344C18.2812 47.1957 18.0672 46.679 17.6863 46.2981C17.3054 45.9171 16.7887 45.7031 16.25 45.7031ZM12.1875 50.7812V47.7344H16.25V50.7812H12.1875Z" fill="#C4C4C4"/>
<path d="M49.7656 36.5625C47.1543 36.5625 44.6016 37.3368 42.4304 38.7876C40.2591 40.2384 38.5668 42.3004 37.5675 44.713C36.5682 47.1256 36.3068 49.7803 36.8162 52.3414C37.3256 54.9026 38.5831 57.2551 40.4296 59.1016C42.2761 60.9481 44.6287 62.2056 47.1898 62.715C49.751 63.2245 52.4057 62.963 54.8182 61.9637C57.2308 60.9644 59.2928 59.2721 60.7436 57.1009C62.1944 54.9296 62.9687 52.3769 62.9687 49.7656C62.9647 46.2652 61.5724 42.9092 59.0972 40.4341C56.622 37.9589 53.2661 36.5665 49.7656 36.5625ZM49.7656 60.9375C47.556 60.9375 45.3961 60.2823 43.5589 59.0547C41.7217 57.8271 40.2897 56.0823 39.4442 54.0409C38.5986 51.9995 38.3773 49.7532 38.8084 47.5861C39.2395 45.419 40.3035 43.4283 41.8659 41.8659C43.4283 40.3035 45.419 39.2395 47.5861 38.8084C49.7532 38.3773 51.9995 38.5986 54.0409 39.4442C56.0823 40.2897 57.8271 41.7217 59.0547 43.5589C60.2823 45.3961 60.9375 47.556 60.9375 49.7656C60.934 52.7275 59.7558 55.5671 57.6615 57.6615C55.5671 59.7558 52.7275 60.934 49.7656 60.9375Z" fill="#C4C4C4"/>
<path d="M55.6339 45.5082L47.7344 53.4078L44.1441 49.8165C43.9526 49.6315 43.696 49.5292 43.4297 49.5315C43.1635 49.5338 42.9087 49.6406 42.7204 49.8289C42.5321 50.0172 42.4253 50.2719 42.423 50.5382C42.4207 50.8045 42.523 51.0611 42.708 51.2526L47.0163 55.5619C47.2068 55.7523 47.4651 55.8593 47.7344 55.8593C48.0037 55.8593 48.262 55.7523 48.4524 55.5619L57.07 46.9443C57.255 46.7528 57.3574 46.4962 57.3551 46.2299C57.3527 45.9637 57.2459 45.7089 57.0576 45.5206C56.8693 45.3323 56.6146 45.2255 56.3483 45.2232C56.082 45.2209 55.8254 45.3232 55.6339 45.5082Z" fill="#C4C4C4"/>
</svg>
