<svg width="79" height="79" viewBox="0 0 79 79" fill="none" xmlns="http://www.w3.org/2000/svg">
<path d="M22.5647 49.102C23.2969 48.1041 23.7305 46.8743 23.7305 45.5445V44.1621C23.7305 40.8386 21.0267 38.1348 17.7032 38.1348C14.3797 38.1348 11.6758 40.8386 11.6758 44.1621V45.5445C11.6758 46.8742 12.1095 48.1041 12.8416 49.102C9.00625 49.6057 6.03516 52.8933 6.03516 56.8639V63.7308C6.03516 64.432 6.60353 65.0003 7.3047 65.0003H28.1014C28.8026 65.0003 29.3709 64.432 29.3709 63.7308V56.8639C29.3712 52.8933 26.4 49.6057 22.5647 49.102ZM14.215 44.1621C14.215 42.2388 15.7798 40.6738 17.7033 40.6738C19.6268 40.6738 21.1916 42.2387 21.1916 44.1621V45.5445C21.1916 47.468 19.6268 49.0328 17.7033 49.0328C15.7798 49.0328 14.215 47.468 14.215 45.5445V44.1621ZM26.8321 62.4613H8.57435V56.8639C8.57435 53.9459 10.9484 51.5719 13.8665 51.5719H21.5401C24.4581 51.5719 26.8321 53.9459 26.8321 56.8639V62.4613Z" fill="#C4C4C4"/>
<path d="M64.1582 49.102C64.8904 48.1041 65.324 46.8743 65.324 45.5445V44.1621C65.324 40.8386 62.6202 38.1348 59.2967 38.1348C55.9732 38.1348 53.2693 40.8386 53.2693 44.1621V45.5445C53.2693 46.8742 53.703 48.1041 54.4352 49.102C50.5998 49.6057 47.6287 52.8933 47.6287 56.8639V63.7308C47.6287 64.432 48.1971 65.0003 48.8982 65.0003H69.6949C70.3961 65.0003 70.9645 64.432 70.9645 63.7308V56.8639C70.9647 52.8933 67.9935 49.6057 64.1582 49.102ZM55.8085 44.1621C55.8085 42.2388 57.3734 40.6738 59.2968 40.6738C61.2203 40.6738 62.7851 42.2387 62.7851 44.1621V45.5445C62.7851 47.468 61.2203 49.0328 59.2968 49.0328C57.3734 49.0328 55.8085 47.468 55.8085 45.5445V44.1621ZM68.4256 62.4613H50.1679V56.8639C50.1679 53.9459 52.5419 51.5719 55.46 51.5719H63.1336C66.0516 51.5719 68.4256 53.9459 68.4256 56.8639V62.4613Z" fill="#C4C4C4"/>
<path d="M50.7304 46.9797C50.7304 46.2786 50.162 45.7102 49.4609 45.7102H47.2477L45.8819 43.7683C45.6208 43.3969 45.1818 43.1936 44.7286 43.2342C44.2764 43.2754 43.8804 43.5549 43.6903 43.9674L41.822 48.0238L39.741 41.7137C39.5693 41.1933 39.0832 40.8418 38.5353 40.8418C37.9874 40.8418 37.5013 41.1933 37.3296 41.7137L35.1639 48.2806L32.8074 43.8974C32.5818 43.4776 32.1365 43.2192 31.6636 43.2293C31.1871 43.2389 30.7561 43.5147 30.5476 43.9431L29.688 45.7102H27.6097C26.9085 45.7102 26.3402 46.2786 26.3402 46.9797C26.3402 47.6809 26.9085 48.2493 27.6097 48.2493H30.4821C30.968 48.2493 31.4112 47.972 31.6237 47.5351L31.7456 47.2845L34.3262 52.0848C34.5487 52.4988 34.9798 52.7532 35.444 52.7532C35.4808 52.7532 35.518 52.7515 35.5551 52.7483C36.0605 52.704 36.4911 52.363 36.65 51.8813L38.5352 46.1649L40.4203 51.8813C40.5837 52.3766 41.0335 52.7217 41.5542 52.7511C42.0742 52.7807 42.5608 52.4886 42.7791 52.0148L45.0736 47.033L45.5497 47.7101C45.7875 48.0482 46.1748 48.2494 46.5882 48.2494H49.4606C50.162 48.2493 50.7304 47.6809 50.7304 46.9797Z" fill="#C4C4C4"/>
<path d="M28.379 24.5987H32.8223C33.5234 24.5987 34.0918 24.0303 34.0918 23.3292C34.0918 22.628 33.5234 22.0596 32.8223 22.0596H29.6486V18.3224C29.6486 15.4885 31.954 13.1831 34.7879 13.1831H42.2827C45.1165 13.1831 47.422 15.4885 47.422 18.3224V22.0596H44.2481C43.5469 22.0596 42.9785 22.628 42.9785 23.3292C42.9785 24.0303 43.5469 24.5987 44.2481 24.5987H48.6915C49.3927 24.5987 49.9611 24.0303 49.9611 23.3292V18.3224C49.9611 14.4461 47.0731 11.2334 43.3363 10.7181C44.0372 9.74594 44.4518 8.5541 44.4518 7.26667V5.91652C44.4518 2.65408 41.7977 0 38.5353 0C35.2729 0 32.6188 2.65408 32.6188 5.91652V7.2668C32.6188 8.55423 33.0334 9.74607 33.7343 10.7183C29.9974 11.2336 27.1095 14.4462 27.1095 18.3225V23.3293C27.1095 24.0303 27.6779 24.5987 28.379 24.5987ZM35.1578 5.91652C35.1578 4.05425 36.673 2.53906 38.5353 2.53906C40.3976 2.53906 41.9128 4.05412 41.9128 5.91652V7.2668C41.9128 9.12907 40.3976 10.6443 38.5353 10.6443C36.673 10.6443 35.1578 9.1292 35.1578 7.2668V5.91652Z" fill="#C4C4C4"/>
<path d="M37.2658 33.0771L37.2143 33.0053C36.8063 32.435 36.0132 32.3036 35.4431 32.7116C34.8728 33.1196 34.7414 33.9126 35.1495 34.4829L37.5028 37.7715C37.7412 38.1046 38.1256 38.3023 38.5352 38.3023C38.9447 38.3023 39.3291 38.1046 39.5675 37.7715L41.9209 34.4829C42.3289 33.9127 42.1975 33.1198 41.6272 32.7116C41.0572 32.3037 40.264 32.435 39.856 33.0053L39.8046 33.0771V28.4063C39.8046 27.7051 39.2362 27.1367 38.535 27.1367C37.8339 27.1367 37.2655 27.7051 37.2655 28.4063V33.0771H37.2658Z" fill="#C4C4C4"/>
<path d="M15.7114 32.6364H16.4243L15.7642 34.522C15.5325 35.1838 15.8813 35.9081 16.5431 36.1397C16.6818 36.1883 16.8234 36.2113 16.9625 36.2113C17.487 36.2113 17.9778 35.8837 18.1607 35.3608L19.4118 31.7863C19.5478 31.398 19.4871 30.9678 19.249 30.6323C19.0109 30.2966 18.625 30.0973 18.2135 30.0973H17.5047L18.1955 28.137C18.4285 27.4757 18.0814 26.7507 17.4201 26.5177C16.7586 26.2849 16.0339 26.6319 15.8008 27.2932L14.514 30.945C14.3771 31.3335 14.4372 31.7642 14.6752 32.1005C14.9131 32.4366 15.2994 32.6364 15.7114 32.6364Z" fill="#C4C4C4"/>
<path d="M58.0456 32.6364H58.7584L58.0985 34.522C57.8668 35.1837 58.2156 35.908 58.8774 36.1397C59.0161 36.1883 59.1576 36.2113 59.2967 36.2113C59.8211 36.2113 60.3119 35.8837 60.4949 35.3607L61.7459 31.7862C61.8818 31.3978 61.8212 30.9677 61.583 30.6322C61.345 30.2966 60.959 30.0973 60.5476 30.0973H59.8388L60.5295 28.137C60.7625 27.4757 60.4154 26.7507 59.7541 26.5177C59.0928 26.2849 58.3679 26.6319 58.1348 27.2932L56.848 30.945C56.7112 31.3335 56.7712 31.7642 57.0092 32.1005C57.2474 32.4366 57.6337 32.6364 58.0456 32.6364Z" fill="#C4C4C4"/>
<path d="M38.5353 24.5977C39.2364 24.5977 39.8048 24.0293 39.8048 23.3281C39.8048 22.627 39.2364 22.0586 38.5353 22.0586C37.8342 22.0586 37.2658 22.627 37.2658 23.3281C37.2658 24.0293 37.8342 24.5977 38.5353 24.5977Z" fill="#C4C4C4"/>
<line x1="77.7071" y1="0.707107" x2="0.707106" y2="77.7071" stroke="#C4C4C4" stroke-width="2"/>
</svg>
