<svg width="29" height="20" viewBox="0 0 29 20" fill="none" xmlns="http://www.w3.org/2000/svg">
<path d="M29 0H0V20H29V0Z" fill="white"/>
<path fill-rule="evenodd" clip-rule="evenodd" d="M12.5667 0V8H0V12H12.5667V20H16.4333V12H29V8H16.4333V0H12.5667Z" fill="#DE2910"/>
<path fill-rule="evenodd" clip-rule="evenodd" d="M20.8926 3.26342C21.343 3.35142 21.8041 3.40942 22.2739 3.43242C22.2517 2.94642 22.1956 2.46942 22.1106 2.00342C22.3271 2.03142 22.5465 2.04542 22.7698 2.04542C22.9931 2.04542 23.2126 2.03142 23.4291 2.00342C23.344 2.46942 23.288 2.94642 23.2657 3.43242C23.7355 3.40942 24.1966 3.35142 24.6471 3.26342C24.62 3.48742 24.6065 3.71442 24.6065 3.94542C24.6065 4.17642 24.62 4.40342 24.6471 4.62742C24.1966 4.53942 23.7355 4.48142 23.2657 4.45842C23.288 4.94442 23.344 5.42142 23.4291 5.88742C23.2126 5.85942 22.9931 5.84542 22.7698 5.84542C22.5465 5.84542 22.3271 5.85942 22.1106 5.88742C22.1956 5.42142 22.2517 4.94442 22.2739 4.45842C21.8041 4.48142 21.343 4.53942 20.8926 4.62742C20.9196 4.40342 20.9332 4.17642 20.9332 3.94542C20.9332 3.71442 20.9196 3.48742 20.8926 3.26342Z" fill="#DE2910"/>
<path fill-rule="evenodd" clip-rule="evenodd" d="M20.8926 15.3733C21.343 15.4613 21.8041 15.5193 22.2739 15.5423C22.2517 15.0563 22.1956 14.5793 22.1106 14.1133C22.3271 14.1413 22.5465 14.1553 22.7698 14.1553C22.9931 14.1553 23.2126 14.1413 23.4291 14.1133C23.344 14.5793 23.288 15.0563 23.2657 15.5423C23.7355 15.5193 24.1966 15.4613 24.6471 15.3733C24.62 15.5973 24.6065 15.8243 24.6065 16.0553C24.6065 16.2863 24.62 16.5133 24.6471 16.7373C24.1966 16.6493 23.7355 16.5913 23.2657 16.5683C23.288 17.0543 23.344 17.5313 23.4291 17.9973C23.2126 17.9693 22.9931 17.9553 22.7698 17.9553C22.5465 17.9553 22.3271 17.9693 22.1106 17.9973C22.1956 17.5313 22.2517 17.0543 22.2739 16.5683C21.8041 16.5913 21.343 16.6493 20.8926 16.7373C20.9196 16.5133 20.9332 16.2863 20.9332 16.0553C20.9332 15.8243 20.9196 15.5973 20.8926 15.3733Z" fill="#DE2910"/>
<path fill-rule="evenodd" clip-rule="evenodd" d="M4.35291 15.3733C4.80337 15.4613 5.26447 15.5193 5.73427 15.5423C5.71204 15.0563 5.65597 14.5793 5.5709 14.1133C5.78744 14.1413 6.00687 14.1553 6.23017 14.1553C6.45347 14.1553 6.6729 14.1413 6.88944 14.1133C6.80437 14.5793 6.7483 15.0563 6.72607 15.5423C7.19587 15.5193 7.65697 15.4613 8.10744 15.3733C8.08037 15.5973 8.06684 15.8243 8.06684 16.0553C8.06684 16.2863 8.08037 16.5133 8.10744 16.7373C7.65697 16.6493 7.19587 16.5913 6.72607 16.5683C6.7483 17.0543 6.80437 17.5313 6.88944 17.9973C6.6729 17.9693 6.45347 17.9553 6.23017 17.9553C6.00687 17.9553 5.78744 17.9693 5.5709 17.9973C5.65597 17.5313 5.71204 17.0543 5.73427 16.5683C5.26447 16.5913 4.80337 16.6493 4.35291 16.7373C4.37997 16.5133 4.39351 16.2863 4.39351 16.0553C4.39351 15.8243 4.37997 15.5973 4.35291 15.3733Z" fill="#DE2910"/>
<path fill-rule="evenodd" clip-rule="evenodd" d="M4.35291 3.26342C4.80337 3.35142 5.26447 3.40942 5.73427 3.43242C5.71204 2.94642 5.65597 2.46942 5.5709 2.00342C5.78744 2.03142 6.00687 2.04542 6.23017 2.04542C6.45347 2.04542 6.6729 2.03142 6.88944 2.00342C6.80437 2.46942 6.7483 2.94642 6.72607 3.43242C7.19587 3.40942 7.65697 3.35142 8.10744 3.26342C8.08037 3.48742 8.06684 3.71442 8.06684 3.94542C8.06684 4.17642 8.08037 4.40342 8.10744 4.62742C7.65697 4.53942 7.19587 4.48142 6.72607 4.45842C6.7483 4.94442 6.80437 5.42142 6.88944 5.88742C6.6729 5.85942 6.45347 5.84542 6.23017 5.84542C6.00687 5.84542 5.78744 5.85942 5.5709 5.88742C5.65597 5.42142 5.71204 4.94442 5.73427 4.45842C5.26447 4.48142 4.80337 4.53942 4.35291 4.62742C4.37997 4.40342 4.39351 4.17642 4.39351 3.94542C4.39351 3.71442 4.37997 3.48742 4.35291 3.26342Z" fill="#DE2910"/>
</svg>
