<svg width="25" height="14" viewBox="0 0 25 14" fill="none" xmlns="http://www.w3.org/2000/svg">
<path fill-rule="evenodd" clip-rule="evenodd" d="M24.103 13.3216V0.330566H0.102966V13.3216H24.103V13.3216Z" fill="#00ACEC"/>
<path fill-rule="evenodd" clip-rule="evenodd" d="M1.4339 1.9326C1.24969 2.05564 1.00033 1.85436 1.00033 1.85436C0.875786 1.70332 0.940652 1.4739 0.940652 1.4739C0.940652 1.4739 1.01658 1.35086 1.10862 1.19423C1.16598 1.09673 1.01112 0.948017 1.01112 0.948017C1.0977 0.981611 1.20612 1.04866 1.23862 1.13824C1.27113 1.22783 1.19534 1.36206 1.19534 1.36206C1.19534 1.36206 1.27126 1.37326 1.33626 1.40685C1.4014 1.44045 1.40673 1.47964 1.42831 1.53549C1.45002 1.59148 1.44592 1.70319 1.32534 1.74251C1.22237 1.77611 1.17362 1.69772 1.14112 1.61948C1.10862 1.54109 1.22743 1.69854 1.27113 1.60814C1.2927 1.56349 1.26034 1.5187 1.26034 1.5187C1.22784 1.4851 1.15191 1.46284 1.08691 1.58588C1.0219 1.70892 1.18441 1.85995 1.32534 1.83196C1.60938 1.77556 1.5097 1.48496 1.5097 1.48496C1.5097 1.48496 1.30376 1.11571 1.29284 0.970276C1.28205 0.824842 1.37955 0.802446 1.47719 0.824842C1.6046 0.854065 1.60802 0.959079 1.60802 0.959079V1.11571C1.60802 1.11571 1.58549 0.959079 1.53127 0.947881C1.47706 0.936683 1.39034 0.970277 1.42284 1.07092C1.45534 1.17156 1.57456 1.40658 1.60706 1.48483C1.63984 1.56335 1.6681 1.77611 1.4339 1.9326V1.9326Z" fill="#FFF22D"/>
<path fill-rule="evenodd" clip-rule="evenodd" d="M1.78239 1.93261C1.96661 2.05564 2.21583 1.85436 2.21583 1.85436C2.34051 1.70332 2.2755 1.4739 2.2755 1.4739C2.2755 1.4739 2.19958 1.35087 2.10754 1.19423C2.05018 1.09673 2.20504 0.948018 2.20504 0.948018C2.11833 0.981611 2.01004 1.04866 1.97754 1.13824C1.94503 1.22783 2.02082 1.36206 2.02082 1.36206C2.02082 1.36206 1.9449 1.37326 1.8799 1.40685C1.81489 1.44045 1.80943 1.47964 1.78786 1.53549C1.76614 1.59148 1.77024 1.70319 1.89068 1.74252C1.99365 1.77611 2.0424 1.69772 2.0749 1.61948C2.1074 1.54109 1.9886 1.69854 1.9449 1.60814C1.92319 1.56349 1.95569 1.5187 1.95569 1.5187C1.98819 1.4851 2.06411 1.46284 2.12911 1.58588C2.19412 1.70892 2.03161 1.85996 1.89068 1.83196C1.60664 1.77556 1.70647 1.48497 1.70647 1.48497C1.70647 1.48497 1.9124 1.11571 1.92319 0.970276C1.93411 0.824842 1.83647 0.802446 1.73897 0.824842C1.61156 0.854065 1.60815 0.959079 1.60815 0.959079V1.11571C1.60815 1.11571 1.63068 0.959079 1.68489 0.947881C1.73897 0.936683 1.82568 0.970277 1.79318 1.07092C1.76068 1.17156 1.6416 1.40658 1.60897 1.48483C1.57646 1.56335 1.5482 1.77611 1.78239 1.93261V1.93261ZM1.4339 11.7595C1.24968 11.6366 1.00033 11.8379 1.00033 11.8379C0.875787 11.9888 0.940652 12.2182 0.940652 12.2182C0.940652 12.2182 1.01658 12.3414 1.10862 12.498C1.16597 12.5956 1.01112 12.7442 1.01112 12.7442C1.09769 12.7106 1.20612 12.6434 1.23862 12.554C1.27112 12.4644 1.19533 12.3302 1.19533 12.3302C1.19533 12.3302 1.27126 12.319 1.33626 12.2854C1.4014 12.2518 1.40672 12.2126 1.4283 12.1569C1.45001 12.1009 1.44592 11.9891 1.32534 11.9499C1.22237 11.9163 1.17362 11.9944 1.14112 12.0728C1.10862 12.1512 1.22742 11.9938 1.27112 12.084C1.2927 12.1288 1.26033 12.1735 1.26033 12.1735C1.22783 12.2069 1.15191 12.2293 1.08691 12.1064C1.0219 11.9832 1.18441 11.8321 1.32534 11.8601C1.60938 11.9164 1.50969 12.2069 1.50969 12.2069C1.50969 12.2069 1.30376 12.5763 1.29283 12.7217C1.28205 12.8673 1.37955 12.8895 1.47719 12.8673C1.6046 12.8379 1.60801 12.7329 1.60801 12.7329V12.5764C1.60801 12.5764 1.58548 12.7329 1.53126 12.7442C1.47705 12.7554 1.39034 12.7218 1.42284 12.6213C1.45534 12.5205 1.57455 12.2855 1.60705 12.2071C1.63983 12.1289 1.6681 11.916 1.4339 11.7595V11.7595Z" fill="#FFF22D"/>
<path fill-rule="evenodd" clip-rule="evenodd" d="M1.78233 11.7597C1.96655 11.6368 2.21578 11.8381 2.21578 11.8381C2.34046 11.989 2.27545 12.2184 2.27545 12.2184C2.27545 12.2184 2.19953 12.3416 2.10748 12.4982C2.05013 12.5959 2.20499 12.7444 2.20499 12.7444C2.11827 12.7108 2.00998 12.6437 1.97748 12.5542C1.94498 12.4646 2.02077 12.3304 2.02077 12.3304C2.02077 12.3304 1.94484 12.3192 1.87984 12.2856C1.81483 12.252 1.80937 12.2128 1.78779 12.1571C1.76608 12.1011 1.77018 11.9893 1.89062 11.9501C1.99359 11.9165 2.04234 11.9946 2.07485 12.073C2.10735 12.1514 1.98854 11.994 1.94484 12.0842C1.92313 12.129 1.95563 12.1738 1.95563 12.1738C1.98813 12.2071 2.06406 12.2295 2.12906 12.1066C2.19406 11.9834 2.03156 11.8324 1.89062 11.8603C1.60658 11.9166 1.7064 12.2071 1.7064 12.2071C1.7064 12.2071 1.91234 12.5765 1.92313 12.7219C1.93405 12.8675 1.83641 12.8897 1.73891 12.8675C1.61149 12.8381 1.60808 12.7331 1.60808 12.7331V12.5766C1.60808 12.5766 1.63061 12.7331 1.68483 12.7444C1.73891 12.7556 1.82562 12.722 1.79312 12.6215C1.76062 12.5207 1.64154 12.2857 1.6089 12.2073C1.5764 12.1291 1.54813 11.9162 1.78233 11.7597V11.7597ZM1.62215 3.06401C1.71965 3.05842 1.68729 3.42767 1.68729 3.42767C1.74136 3.39408 1.86072 3.39968 1.90947 3.46127C1.95822 3.52285 1.84433 3.5955 1.84433 3.5955C1.84979 3.51712 1.81183 3.48366 1.73604 3.55071C1.66025 3.6179 1.73058 3.86398 1.73058 3.86398C1.79558 3.81359 1.90401 3.87518 1.90401 3.87518C1.91493 3.84718 1.96901 3.70175 1.95276 3.75214C1.93651 3.80253 1.96901 3.88651 1.96901 3.88651C1.96901 3.88651 1.95822 3.85852 2.00697 3.85852C2.05573 3.85852 2.07198 3.9369 2.02869 3.96476C1.9854 3.99275 1.96368 3.93117 1.96368 3.93117C1.93118 3.94796 1.92572 4.0934 1.92572 4.071C1.92572 4.04861 1.89868 3.94236 1.839 3.91997C1.77946 3.89757 1.73617 3.95356 1.73071 4.00395C1.72525 4.05434 1.71446 4.22777 2.00165 4.23883C2.28884 4.25003 2.19133 3.93677 2.19133 3.93677C2.19133 3.93677 1.99086 3.34369 1.91493 3.19265C1.83901 3.04162 1.644 2.46151 1.644 2.46151C1.61149 2.38313 1.58323 2.17037 1.81743 2.01401C2.00165 1.89097 2.25101 2.09226 2.25101 2.09226C2.37555 2.24329 2.31055 2.47271 2.31055 2.47271C2.31055 2.47271 2.23476 2.59575 2.14258 2.75239C2.08522 2.85003 2.24008 2.9986 2.24008 2.9986C2.15337 2.96501 2.04508 2.89796 2.01244 2.80838C1.97994 2.71893 2.05586 2.58455 2.05586 2.58455C2.05586 2.58455 1.97994 2.57336 1.91493 2.53976C1.84993 2.50617 1.84447 2.46711 1.82275 2.41112C1.80104 2.35527 1.80527 2.24343 1.92572 2.2041C2.02869 2.17051 2.07744 2.24889 2.10994 2.32714C2.14244 2.40552 2.02364 2.24807 1.97994 2.33834C1.95822 2.38313 1.99086 2.42778 1.99086 2.42778C2.02336 2.46138 2.09915 2.48377 2.16429 2.36073C2.22943 2.23769 2.06679 2.08652 1.92586 2.11452C1.64181 2.17092 1.74164 2.46138 1.74164 2.46138C1.74164 2.46138 2.2618 3.65122 2.3268 3.88064C2.39194 4.11006 2.35398 4.30589 2.20758 4.36734C2.06133 4.42893 1.70149 4.45132 1.6257 4.2331C1.54977 4.45132 1.1902 4.42906 1.04381 4.36734C0.897555 4.30589 0.859591 4.11006 0.924594 3.88064C0.989597 3.65122 1.50989 2.46138 1.50989 2.46138C1.50989 2.46138 1.60958 2.17092 1.32554 2.11452C1.18474 2.08652 1.0221 2.23756 1.0871 2.36073C1.1521 2.48391 1.22803 2.46138 1.26053 2.42778C1.26053 2.42778 1.2929 2.38299 1.27132 2.33834C1.22762 2.24807 1.10881 2.40552 1.14132 2.32714C1.17382 2.24889 1.22257 2.17051 1.32554 2.2041C1.44612 2.24343 1.45022 2.35513 1.4285 2.41112C1.40693 2.46711 1.40146 2.50631 1.33646 2.53976C1.27146 2.57336 1.19553 2.58455 1.19553 2.58455C1.19553 2.58455 1.27146 2.71879 1.23882 2.80838C1.20632 2.89782 1.09789 2.96501 1.01131 2.9986C1.01131 2.9986 1.16617 2.85003 1.10881 2.75239C1.01677 2.59575 0.940845 2.47271 0.940845 2.47271C0.940845 2.47271 0.875841 2.24329 1.00052 2.09226C1.00052 2.09226 1.24988 1.89083 1.4341 2.01401C1.6683 2.17051 1.64004 2.38327 1.60753 2.46151C1.60753 2.46151 1.41239 3.04162 1.3366 3.19265C1.26081 3.34369 1.06034 3.93677 1.06034 3.93677C1.06034 3.93677 0.962831 4.25003 1.25002 4.23883C1.53721 4.22764 1.52642 4.05421 1.52095 4.00395C1.51549 3.95356 1.4722 3.89757 1.41253 3.91997C1.35299 3.94236 1.32581 4.04861 1.32581 4.071C1.32581 4.0934 1.32035 3.94796 1.28785 3.93117C1.28785 3.93117 1.26627 3.99275 1.22284 3.96476C1.17955 3.93676 1.1958 3.85852 1.24456 3.85852C1.29331 3.85852 1.28252 3.88651 1.28252 3.88651C1.28252 3.88651 1.31502 3.80253 1.29877 3.75214C1.28252 3.70188 1.33673 3.84732 1.34752 3.87518C1.34752 3.87518 1.45582 3.81372 1.52095 3.86398C1.52095 3.86398 1.59142 3.61776 1.51549 3.55071C1.43956 3.48366 1.40174 3.51712 1.4072 3.5955C1.4072 3.5955 1.29331 3.52272 1.34206 3.46127C1.39081 3.39981 1.51003 3.39408 1.56424 3.42767C1.56424 3.42767 1.53174 3.05842 1.62938 3.06401H1.62215V3.06401ZM1.62215 7.93277C1.71965 7.92717 1.68729 8.29629 1.68729 8.29629C1.74136 8.26269 1.86072 8.26829 1.90947 8.32988C1.95822 8.39147 1.84433 8.46398 1.84433 8.46398C1.84979 8.38587 1.81183 8.35228 1.73604 8.41919C1.66025 8.48638 1.73058 8.73259 1.73058 8.73259C1.79558 8.6822 1.90401 8.74379 1.90401 8.74379C1.91493 8.7158 1.96901 8.57036 1.95276 8.62061C1.93651 8.671 1.96901 8.75499 1.96901 8.75499C1.96901 8.75499 1.95822 8.72699 2.00697 8.72699C2.05573 8.72699 2.07198 8.80538 2.02869 8.83337C1.9854 8.86109 1.96368 8.79978 1.96368 8.79978C1.93118 8.81658 1.92572 8.96201 1.92572 8.93948C1.92572 8.91695 1.89868 8.81098 1.839 8.78858C1.77946 8.76619 1.73617 8.82218 1.73071 8.87257C1.72525 8.92268 1.71446 9.09639 2.00165 9.10758C2.28884 9.11851 2.19133 8.80538 2.19133 8.80538C2.19133 8.80538 1.99086 8.21216 1.91493 8.06127C1.83901 7.91037 1.644 7.33013 1.644 7.33013C1.61149 7.25174 1.58323 7.03885 1.81743 6.88262C2.00165 6.75945 2.25101 6.96074 2.25101 6.96074C2.37555 7.11191 2.31055 7.34133 2.31055 7.34133C2.31055 7.34133 2.23476 7.46423 2.14258 7.62114C2.08522 7.7185 2.24008 7.86708 2.24008 7.86708C2.15337 7.83376 2.04508 7.76657 2.01244 7.67685C1.97994 7.58754 2.05586 7.45303 2.05586 7.45303C2.05586 7.45303 1.97994 7.44183 1.91493 7.40824C1.84993 7.37492 1.84447 7.33573 1.82275 7.27974C1.80104 7.22375 1.80527 7.11191 1.92572 7.07271C2.02869 7.03912 2.07744 7.11751 2.10994 7.19589C2.14244 7.274 2.02364 7.11669 1.97994 7.20682C1.95822 7.25161 1.99086 7.2964 1.99086 7.2964C2.02336 7.32999 2.09915 7.35239 2.16429 7.22921C2.2293 7.10631 2.06679 6.95527 1.92586 6.98299C1.64181 7.03953 1.74164 7.32999 1.74164 7.32999C1.74164 7.32999 2.2618 8.51983 2.3268 8.74925C2.39194 8.97867 2.35398 9.17436 2.20758 9.23595C2.06119 9.29754 1.70149 9.31993 1.6257 9.10158C1.54977 9.32007 1.1902 9.29768 1.04381 9.23595C0.897555 9.17436 0.859591 8.97854 0.924594 8.74925C0.989597 8.51997 1.50989 7.32999 1.50989 7.32999C1.50989 7.32999 1.60958 7.03953 1.32554 6.98299C1.18474 6.95527 1.0221 7.10617 1.0871 7.22921C1.1521 7.35239 1.22803 7.32999 1.26053 7.2964C1.26053 7.2964 1.2929 7.25161 1.27132 7.20682C1.22762 7.11669 1.10881 7.274 1.14132 7.19589C1.17382 7.11751 1.22257 7.03912 1.32554 7.07271C1.44612 7.11191 1.45022 7.22361 1.4285 7.27974C1.40693 7.33573 1.40146 7.37492 1.33646 7.40824C1.27146 7.44183 1.19553 7.45303 1.19553 7.45303C1.19553 7.45303 1.27146 7.58741 1.23882 7.67685C1.20632 7.76644 1.09789 7.83362 1.01131 7.86708C1.01131 7.86708 1.16617 7.7185 1.10881 7.62114C1.01677 7.46437 0.940845 7.34133 0.940845 7.34133C0.940845 7.34133 0.875841 7.11191 1.00052 6.96074C1.00052 6.96074 1.24988 6.75945 1.4341 6.88262C1.6683 7.03898 1.64004 7.25174 1.60753 7.33013C1.60753 7.33013 1.41239 7.91023 1.3366 8.06127C1.26081 8.2123 1.06034 8.80538 1.06034 8.80538C1.06034 8.80538 0.962831 9.11851 1.25002 9.10758C1.53721 9.09639 1.52642 8.92268 1.52095 8.87257C1.51549 8.82218 1.4722 8.76619 1.41253 8.78858C1.35299 8.81098 1.32581 8.91708 1.32581 8.93948C1.32581 8.96188 1.32035 8.81658 1.28785 8.79978C1.28785 8.79978 1.26627 8.86109 1.22284 8.83337C1.17955 8.80538 1.1958 8.72699 1.24456 8.72699C1.29331 8.72699 1.28252 8.75499 1.28252 8.75499C1.28252 8.75499 1.31502 8.671 1.29877 8.62061C1.28252 8.5705 1.33673 8.7158 1.34752 8.74379C1.34752 8.74379 1.45582 8.6822 1.52095 8.73259C1.52095 8.73259 1.59142 8.48638 1.51549 8.41919C1.43956 8.35228 1.40174 8.38587 1.4072 8.46398C1.4072 8.46398 1.29331 8.39147 1.34206 8.32988C1.39081 8.26829 1.51003 8.26269 1.56424 8.29629C1.56424 8.29629 1.53174 7.92717 1.62938 7.93277H1.62215Z" fill="#FFF22D"/>
<path fill-rule="evenodd" clip-rule="evenodd" d="M1.62214 5.72718C1.71964 5.73278 1.68728 5.36352 1.68728 5.36352C1.74135 5.39712 1.86071 5.39152 1.90946 5.32993C1.95821 5.26834 1.84432 5.19569 1.84432 5.19569C1.84978 5.27394 1.81182 5.30753 1.73603 5.24034C1.66024 5.17329 1.73057 4.92707 1.73057 4.92707C1.79557 4.97747 1.904 4.91588 1.904 4.91588C1.91492 4.94387 1.969 5.08931 1.95275 5.03892C1.9365 4.98853 1.969 4.90468 1.969 4.90468C1.969 4.90468 1.95821 4.93267 2.00696 4.93267C2.05571 4.93267 2.07197 4.85429 2.02868 4.82643C1.98539 4.79843 1.96367 4.86002 1.96367 4.86002C1.93117 4.84323 1.92571 4.69779 1.92571 4.72019C1.92571 4.74258 1.89867 4.84882 1.83899 4.87122C1.77945 4.89362 1.73617 4.83763 1.7307 4.78724C1.72524 4.73698 1.71445 4.56355 2.00164 4.55235C2.28882 4.54102 2.19132 4.85429 2.19132 4.85429C2.19132 4.85429 1.99085 5.44737 1.91492 5.59841C1.83899 5.74944 1.64399 6.32955 1.64399 6.32955C1.61149 6.40794 1.58322 6.6207 1.81742 6.7772C2.00164 6.9001 2.25099 6.69881 2.25099 6.69881C2.37554 6.54777 2.31053 6.31835 2.31053 6.31835C2.31053 6.31835 2.23474 6.19531 2.14257 6.03868C2.08521 5.94117 2.24007 5.79246 2.24007 5.79246C2.15335 5.82605 2.04506 5.8931 2.01243 5.98282C1.97992 6.07227 2.05585 6.20651 2.05585 6.20651C2.05585 6.20651 1.97992 6.21771 1.91492 6.2513C1.84992 6.2849 1.84446 6.32409 1.82274 6.37994C1.80103 6.43593 1.80526 6.54764 1.92571 6.58697C2.02868 6.62056 2.07743 6.54231 2.10993 6.46393C2.14243 6.38568 2.02362 6.54299 1.97992 6.45273C1.95821 6.40794 1.99085 6.36314 1.99085 6.36314C2.02335 6.32955 2.09914 6.30729 2.16428 6.43033C2.22928 6.55337 2.06678 6.70441 1.92585 6.67641C1.6418 6.62015 1.74163 6.32955 1.74163 6.32955C1.74163 6.32955 2.26178 5.1397 2.32678 4.91028C2.39192 4.68086 2.35396 4.48516 2.20757 4.42358C2.06118 4.36199 1.70148 4.33973 1.62569 4.55781C1.54976 4.33959 1.1902 4.36199 1.04381 4.42358C0.897555 4.48516 0.859591 4.68086 0.924593 4.91028C0.989596 5.1397 1.50989 6.32955 1.50989 6.32955C1.50989 6.32955 1.60958 6.62002 1.32553 6.67641C1.18474 6.70441 1.0221 6.55337 1.0871 6.43033C1.1521 6.30729 1.22803 6.32969 1.26053 6.36314C1.26053 6.36314 1.29289 6.40794 1.27132 6.45273C1.22762 6.54299 1.10881 6.38554 1.14131 6.46393C1.17381 6.54231 1.22257 6.62056 1.32553 6.58697C1.44611 6.54764 1.45021 6.43607 1.4285 6.37994C1.40692 6.32409 1.40146 6.2849 1.33646 6.2513C1.27145 6.21771 1.19553 6.20651 1.19553 6.20651C1.19553 6.20651 1.27145 6.07227 1.23882 5.98282C1.20632 5.89324 1.09789 5.82619 1.01131 5.79246C1.01131 5.79246 1.16617 5.94104 1.10881 6.03868C1.01677 6.19531 0.940844 6.31835 0.940844 6.31835C0.940844 6.31835 0.875842 6.54777 1.00052 6.69881C1.00052 6.69881 1.24988 6.90024 1.4341 6.7772C1.6683 6.6207 1.64003 6.4078 1.60753 6.32955C1.60753 6.32955 1.41238 5.74944 1.33659 5.59841C1.2608 5.44737 1.06033 4.85429 1.06033 4.85429C1.06033 4.85429 0.96283 4.54102 1.25001 4.55235C1.5372 4.56355 1.52641 4.73698 1.52095 4.78724C1.51549 4.83763 1.4722 4.89362 1.41252 4.87122C1.35298 4.84882 1.3258 4.74258 1.3258 4.72019C1.3258 4.69779 1.32034 4.84323 1.28784 4.86002C1.28784 4.86002 1.26626 4.79843 1.22284 4.82643C1.17955 4.85442 1.1958 4.93267 1.24455 4.93267C1.2933 4.93267 1.28252 4.90468 1.28252 4.90468C1.28252 4.90468 1.31502 4.98866 1.29877 5.03892C1.28252 5.08917 1.33673 4.94387 1.34752 4.91588C1.34752 4.91588 1.45581 4.97747 1.52095 4.92707C1.52095 4.92707 1.59141 5.17329 1.51549 5.24034C1.43956 5.30753 1.40173 5.27394 1.40719 5.19569C1.40719 5.19569 1.2933 5.26834 1.34206 5.32993C1.39081 5.39152 1.51002 5.39712 1.56424 5.36352C1.56424 5.36352 1.53174 5.73278 1.62938 5.72718H1.62214V5.72718ZM1.62214 10.6522C1.71964 10.6578 1.68728 10.2887 1.68728 10.2887C1.74135 10.3223 1.86071 10.3167 1.90946 10.2551C1.95821 10.1935 1.84432 10.121 1.84432 10.121C1.84978 10.1991 1.81182 10.2327 1.73603 10.1655C1.66024 10.0986 1.73057 9.8524 1.73057 9.8524C1.79557 9.90279 1.904 9.84121 1.904 9.84121C1.91492 9.8692 1.969 10.0146 1.95275 9.96411C1.9365 9.91372 1.969 9.83001 1.969 9.83001C1.969 9.83001 1.95821 9.858 2.00696 9.858C2.05571 9.858 2.07197 9.77962 2.02868 9.75162C1.98539 9.72363 1.96367 9.78521 1.96367 9.78521C1.93117 9.76842 1.92571 9.62298 1.92571 9.64551C1.92571 9.66805 1.89867 9.77402 1.83899 9.79641C1.77945 9.81881 1.73617 9.76282 1.7307 9.71243C1.72524 9.66204 1.71445 9.48861 2.00164 9.47741C2.28882 9.46621 2.19132 9.77962 2.19132 9.77962C2.19132 9.77962 1.99085 10.3726 1.91492 10.5237C1.83899 10.6746 1.64399 11.2549 1.64399 11.2549C1.61149 11.3333 1.58322 11.5459 1.81742 11.7024C2.00164 11.8256 2.25099 11.624 2.25099 11.624C2.37554 11.4731 2.31053 11.2437 2.31053 11.2437C2.31053 11.2437 2.23474 11.1205 2.14257 10.9639C2.08521 10.8662 2.24007 10.7177 2.24007 10.7177C2.15335 10.7512 2.04506 10.8184 2.01243 10.9082C1.97992 10.9975 2.05585 11.132 2.05585 11.132C2.05585 11.132 1.97992 11.1429 1.91492 11.1765C1.84992 11.2101 1.84446 11.2493 1.82274 11.3053C1.80103 11.361 1.80526 11.4731 1.92571 11.5123C2.02868 11.5459 2.07743 11.4675 2.10993 11.3891C2.14243 11.311 2.02362 11.4683 1.97992 11.3779C1.95821 11.3334 1.99085 11.2886 1.99085 11.2886C2.02335 11.255 2.09914 11.2326 2.16428 11.3558C2.22928 11.4787 2.06678 11.6297 1.92585 11.6017C1.6418 11.5455 1.74163 11.255 1.74163 11.255C1.74163 11.255 2.26178 10.0652 2.32678 9.83574C2.39192 9.60632 2.35396 9.41063 2.20757 9.34904C2.06118 9.28745 1.70148 9.26506 1.62569 9.48314C1.54976 9.26492 1.1902 9.28732 1.04381 9.34904C0.897555 9.41063 0.859591 9.60646 0.924593 9.83574C0.989596 10.065 1.50989 11.255 1.50989 11.255C1.50989 11.255 1.60958 11.5455 1.32553 11.6017C1.18474 11.6297 1.0221 11.4788 1.0871 11.3558C1.1521 11.2326 1.22803 11.255 1.26053 11.2886C1.26053 11.2886 1.29289 11.3334 1.27132 11.3779C1.22762 11.4683 1.10881 11.311 1.14131 11.3891C1.17381 11.4675 1.22257 11.5459 1.32553 11.5123C1.44611 11.4731 1.45021 11.3611 1.4285 11.3053C1.40692 11.2493 1.40146 11.2101 1.33646 11.1765C1.29189 11.1549 1.24442 11.1399 1.19553 11.132C1.19553 11.132 1.27145 10.9976 1.23882 10.9082C1.20632 10.8186 1.09789 10.7514 1.01131 10.7177C1.01131 10.7177 1.16617 10.8662 1.10881 10.9639C1.01677 11.1204 0.940844 11.2437 0.940844 11.2437C0.940844 11.2437 0.875842 11.4731 1.00052 11.624C1.00052 11.624 1.24988 11.8257 1.4341 11.7024C1.6683 11.5459 1.64003 11.3333 1.60753 11.2549C1.60753 11.2549 1.41238 10.6748 1.33659 10.5237C1.2608 10.3726 1.06033 9.77962 1.06033 9.77962C1.06033 9.77962 0.96283 9.46621 1.25001 9.47741C1.5372 9.48861 1.52641 9.66204 1.52095 9.71243C1.51549 9.76282 1.4722 9.81881 1.41252 9.79641C1.35298 9.77402 1.3258 9.66791 1.3258 9.64551C1.3258 9.62312 1.32034 9.76842 1.28784 9.78521C1.28784 9.78521 1.26626 9.72363 1.22284 9.75162C1.17955 9.77962 1.1958 9.858 1.24455 9.858C1.2933 9.858 1.28252 9.83001 1.28252 9.83001C1.28252 9.83001 1.31502 9.91372 1.29877 9.96411C1.28252 10.0145 1.33673 9.8692 1.34752 9.84121C1.34752 9.84121 1.45581 9.90279 1.52095 9.8524C1.52095 9.8524 1.59141 10.0986 1.51549 10.1655C1.43956 10.2327 1.40173 10.1991 1.40719 10.121C1.40719 10.121 1.2933 10.1935 1.34206 10.2551C1.39081 10.3167 1.51002 10.3223 1.56424 10.2887C1.56424 10.2887 1.53174 10.6578 1.62938 10.6522H1.62214V10.6522ZM11.9646 10.3308C11.9646 10.3308 11.9903 10.0988 12.325 9.96957C12.6594 9.84052 13.8693 9.71161 14.6414 8.83448C15.4135 7.95735 15.5165 7.33791 15.6454 6.82212C15.6454 6.82212 15.6518 6.64787 15.7097 6.57044C15.7676 6.49301 15.7868 6.89942 15.7868 7.01549C15.7868 7.13184 15.7097 7.38325 15.7097 7.38325C15.7097 7.38325 15.9028 7.13171 15.9607 6.91867C16.0186 6.70591 16.1922 6.47376 16.2117 6.24161C16.231 6.00945 16.2696 5.85459 16.308 6.02871C16.3467 6.20282 16.3662 6.45437 16.3275 6.57044C16.2889 6.68666 16.1152 7.07367 16.1152 7.07367L15.8834 7.57676C15.8834 7.57676 16.1051 7.4656 16.1923 7.32521C16.3854 7.01549 16.4626 6.80273 16.5399 6.64801C16.6169 6.49315 16.6751 6.28039 16.6943 6.41586C16.7136 6.55133 16.5785 7.05428 16.5399 7.13198C16.5012 7.20927 16.2502 7.59629 16.2502 7.59629L15.8643 8.25396C15.8643 8.25396 15.6905 8.6605 15.7678 8.58307C15.8448 8.50578 16.0958 8.23471 16.0958 8.23471C16.0958 8.23471 16.2502 8.04106 16.3854 7.84769C16.5206 7.65405 16.559 7.44115 16.559 7.44115C16.559 7.44115 16.6169 7.67344 16.559 7.82817C16.5011 7.98316 16.2501 8.42808 16.2501 8.42808L16.1538 8.56354C16.1538 8.56354 16.3467 8.48625 16.4241 8.40882C16.5011 8.33153 16.3854 8.64084 16.2502 8.73766C16.1153 8.83448 15.8257 8.96995 15.8257 8.96995L15.5939 9.12467C15.5939 9.12467 16.1925 8.96995 16.1153 9.0665C16.038 9.16332 15.9222 9.20197 15.8257 9.24061C15.7291 9.27926 15.5747 9.41473 15.5747 9.41473C15.5747 9.41473 15.787 9.31818 15.7485 9.41473C15.7099 9.51155 15.5359 9.62762 15.5359 9.62762C15.5359 9.62762 15.7485 9.6858 15.6324 9.76309C15.5166 9.84039 15.2656 9.89856 15.2656 9.89856C15.2656 9.89856 15.5553 10.0146 15.4201 10.034C15.2852 10.0533 15.3235 10.0533 15.1886 10.0533C15.0534 10.0533 14.9569 10.034 14.8411 10.0922C14.7253 10.1501 14.8024 10.2083 14.8024 10.2083C14.8024 10.2083 14.7254 10.2469 14.4549 10.1888C14.1846 10.1308 14.1846 10.034 14.2425 10.0533C14.3004 10.0728 14.4935 10.0533 14.4935 10.0533C14.4935 10.0533 14.648 10.0533 14.648 9.99538C14.648 9.93721 14.6866 9.85991 14.6866 9.85991L14.7832 9.82127C14.7832 9.82127 14.6866 9.74397 14.7637 9.70519C14.8409 9.66654 15.0147 9.56972 15.0147 9.56972C15.0147 9.56972 14.8411 9.53108 14.9763 9.4729C15.1112 9.41473 15.3814 9.31818 15.3814 9.31818C15.3814 9.31818 15.2852 9.24061 15.3622 9.22136C15.4395 9.20183 15.478 9.18271 15.478 9.18271C15.478 9.18271 15.5553 9.10542 15.5359 8.98907C15.5166 8.87299 15.6324 8.7957 15.6324 8.7957C15.6324 8.7957 15.4396 8.83434 15.5554 8.6407C15.6712 8.44733 15.5938 8.4278 15.5938 8.4278C15.5938 8.4278 15.478 8.33125 15.5554 8.21491C15.5554 8.21491 15.4589 8.50537 15.3623 8.4472C15.2658 8.38902 15.1692 8.54402 15.1692 8.54402C15.1692 8.54402 14.6289 9.24047 14.571 9.37594C14.571 9.37594 14.3006 9.39547 14.069 9.51141C13.8372 9.62749 13.5479 9.89842 13.4513 9.97572C13.3548 10.053 13.2778 10.1694 13.2778 10.1694C13.2778 10.1694 13.1617 10.1112 12.9881 10.0921C12.8143 10.0725 12.9881 10.0145 12.6598 10.0531C12.3318 10.0921 12.1387 10.2854 12.1387 10.2854C12.1387 10.2854 11.9453 10.4535 11.9646 10.3308V10.3308ZM11.3856 10.0148C11.3856 10.0148 11.5206 10.0923 11.6364 10.0923C11.7522 10.0923 12.1769 10.0342 12.0418 9.95687C11.9066 9.87958 11.6172 9.8987 11.5206 9.8987C11.4241 9.8987 11.482 9.95687 11.1732 9.8214C11.1732 9.8214 10.5748 9.55047 10.15 9.29892C9.72543 9.04738 9.12703 8.54443 8.95333 8.06059C8.77962 7.57676 8.56714 6.84138 8.54788 6.7253C8.52849 6.60923 8.41269 6.49315 8.41269 6.49315L8.43194 7.03502C8.43194 7.03502 8.54788 7.44129 8.47059 7.38339C8.39343 7.32521 8.33553 7.09292 8.33553 7.09292C8.33553 7.09292 8.20048 6.66726 8.08454 6.4545C7.96874 6.24161 7.89158 6.18357 7.89158 6.18357C7.89158 6.18357 7.89158 6.51254 7.96873 6.74469C8.04589 6.97685 8.3933 7.63493 8.27763 7.6154C8.16169 7.59615 8.04603 7.40251 8.04603 7.40251C8.04603 7.40251 7.93009 7.18961 7.85293 7.01549C7.77578 6.84138 7.62133 6.51241 7.60207 6.60923C7.58268 6.70591 7.65997 6.91867 7.65997 7.01549C7.65997 7.11232 7.89172 7.53798 7.98813 7.75087C8.08454 7.96377 8.37418 8.312 8.23899 8.21518C8.10393 8.11863 7.73713 7.75087 7.73713 7.75087C7.73713 7.75087 7.52478 7.46068 7.46688 7.36386C7.40898 7.26704 7.27378 7.17049 7.29318 7.3446C7.31243 7.51845 7.69862 8.07971 7.69862 8.07971C7.69862 8.07971 8.00752 8.38943 8.14257 8.44747C8.27777 8.50564 8.47073 8.66037 8.41283 8.66037C8.35492 8.66037 8.08467 8.50564 8.02677 8.48625C7.96887 8.467 7.93023 8.42808 7.85307 8.38943C7.77591 8.35078 7.73727 8.54443 7.85307 8.64097C7.96901 8.7378 8.23912 8.89279 8.23912 8.89279L8.35506 9.00887C8.35506 9.00887 8.12332 9.06677 8.20061 9.12494C8.27777 9.18312 8.52876 9.22177 8.52876 9.22177C8.52876 9.22177 8.2779 9.24102 8.35506 9.35723C8.43222 9.47331 8.62531 9.51196 8.62531 9.51196C8.62531 9.51196 8.39357 9.64743 8.58667 9.7056C8.77976 9.7635 8.99211 9.78289 8.99211 9.78289L8.81841 9.91836C8.81841 9.91836 8.77976 9.87971 8.91495 9.91836C9.05001 9.95701 9.16581 10.0344 9.26236 10.0731C9.35891 10.1117 9.43606 10.2667 9.53261 10.286C9.62916 10.3055 9.80286 10.3055 9.93792 10.3246C10.073 10.3442 10.1309 10.3633 10.2082 10.3633C10.2855 10.3633 10.2853 10.4019 10.3819 10.344C10.4784 10.2858 10.71 10.344 10.5363 10.2279C10.3626 10.1116 10.2274 10.2666 10.0537 10.2084C9.88002 10.1502 9.91867 10.1889 9.78347 10.0923C9.64828 9.99552 9.32013 10.0148 9.41667 9.93734C9.51322 9.86005 9.70632 9.84052 9.57112 9.78262C9.43606 9.72445 9.22371 9.74397 9.26222 9.6858C9.30087 9.62762 9.39742 9.51168 9.28162 9.49243C9.16568 9.4729 8.99211 9.53108 9.01137 9.41486C9.03076 9.29879 9.24297 9.27939 9.06927 9.16332C8.89556 9.04724 8.79902 9.04724 8.79902 9.04724C8.79902 9.04724 8.62531 9.0665 8.68321 8.95042C8.74111 8.83434 8.85692 8.87313 8.70247 8.75705C8.54816 8.6407 8.52876 8.54415 8.52876 8.54415L8.60592 8.44733C8.60592 8.44733 8.47073 8.31186 8.47073 8.25369C8.47073 8.19579 8.37418 8.06032 8.54802 8.04079C8.72172 8.02154 8.70233 8.11836 8.76037 8.21491C8.81827 8.31173 9.18493 8.66009 9.18493 8.66009C9.18493 8.66009 9.43593 9.22122 9.59038 9.31804C9.74483 9.41459 9.74483 9.29851 9.95718 9.41459C10.1695 9.53094 10.4011 9.66641 10.4011 9.66641C10.4011 9.66641 10.4011 9.82113 10.4783 9.85978C10.5554 9.89842 10.6714 9.91795 10.7679 9.91795C10.8645 9.91795 11.3083 9.93734 11.3856 10.0148V10.0148ZM11.3856 10.5759C11.3856 10.5759 11.3083 10.518 11.2119 10.5759C11.1153 10.6341 10.9222 10.7309 10.9995 10.6535C11.0767 10.5759 11.0961 10.4406 11.3084 10.4406C11.5208 10.4406 11.6945 10.3242 11.7331 10.3824C11.7716 10.4407 11.3856 10.5759 11.3856 10.5759V10.5759Z" fill="#FFF22D"/>
<path fill-rule="evenodd" clip-rule="evenodd" d="M10.9415 10.6918C10.9415 10.6918 10.7292 10.8465 10.7292 10.9047C10.7292 10.9626 10.8063 11.098 10.8063 11.098C10.8063 11.098 10.7871 11.0012 10.9608 10.9626H11.1539C11.2119 10.9626 11.3662 10.9433 11.5207 10.9626C11.6751 10.9821 11.8681 10.9626 11.8681 10.9626C11.8681 10.9626 12.4666 11.0207 12.3893 10.9433C12.3123 10.866 12.0997 10.866 12.0997 10.866C12.0997 10.866 11.8681 10.9239 11.7717 10.866C11.6751 10.8079 11.733 10.6143 11.733 10.6143L11.598 10.6532L11.4435 10.7497L11.3276 10.6918C11.3276 10.6918 11.2504 10.8465 11.1925 10.8465C11.1346 10.8465 10.9415 10.8465 10.9802 10.7883C11.0187 10.7305 10.9415 10.6918 10.9415 10.6918V10.6918Z" fill="#FFF22D"/>
<path fill-rule="evenodd" clip-rule="evenodd" d="M11.6944 11.0207C11.6944 11.0207 12.2928 11.04 12.3507 11.04C12.4089 11.04 12.4859 11.0595 12.5438 10.9821C12.6017 10.9047 12.7561 10.8274 12.8913 10.808C13.0263 10.7885 13.2389 10.808 13.2968 10.7498C13.3547 10.6919 13.2389 10.7112 13.3933 10.6143C13.5478 10.5178 13.8371 10.4405 13.9532 10.5178C14.069 10.5951 14.1656 10.6533 14.32 10.6533C14.4745 10.6533 14.9765 10.6725 15.0728 10.6919C15.1693 10.7112 14.8604 10.7306 14.7638 10.8274L14.6094 10.9821L14.3779 10.9626L14.2044 10.9433C14.2044 10.9433 14.4746 11.1367 14.3779 11.1562C14.2814 11.1755 14.2044 11.1562 14.2044 11.1562C14.2044 11.1562 14.0499 11.0789 14.0692 11.1562C14.0884 11.2335 14.2815 11.2723 14.1271 11.2917C13.9726 11.3109 13.9726 11.1949 13.8761 11.1949C13.7795 11.1949 13.799 11.1562 13.7795 11.2917C13.7603 11.4272 13.7216 11.4271 13.6637 11.369C13.6058 11.3108 13.432 11.1174 13.432 11.2335C13.432 11.3496 13.5093 11.4851 13.5093 11.4851L13.3357 11.3882C13.3357 11.3882 13.2196 11.2144 13.1812 11.3303C13.1426 11.4464 13.1617 11.5044 13.0461 11.4851C12.9302 11.4658 12.9882 11.253 12.8337 11.369C12.6793 11.4849 12.7951 11.5623 12.6213 11.5044C12.4328 11.4415 12.5248 11.2335 12.4283 11.3108C12.3317 11.3881 12.351 11.4849 12.2738 11.4463C12.1965 11.4076 12.2159 11.2722 12.1386 11.3302C12.0615 11.3881 12.0034 11.5236 12.0615 11.5622C12.1738 11.6375 11.8297 11.5043 11.8297 11.4461C11.8297 11.388 11.7719 11.3493 11.7719 11.3493L11.6367 11.4269L11.3859 11.5042L11.1349 11.4846C11.1349 11.4846 11.6367 11.1749 11.656 11.1172L11.6944 11.0207V11.0207ZM12.103 4.11248C10.9772 4.11248 10.0645 5.0273 10.0645 6.15569C10.0645 7.28421 10.9772 8.19902 12.103 8.19902C13.2286 8.19902 14.1414 7.28421 14.1414 6.15569C14.1414 5.0273 13.2286 4.11248 12.103 4.11248V4.11248ZM12.0912 3.91925C12.5031 3.75156 12.0912 2.86133 12.0912 2.86133C12.0912 2.86133 11.6795 3.75156 12.0912 3.91925ZM11.7002 3.96596C12.0673 3.71482 11.4772 2.93207 11.4772 2.93207C11.4772 2.93207 11.2624 3.88935 11.7002 3.96596ZM11.2869 4.07275C11.6004 3.75702 10.8743 3.09921 10.8743 3.09921C10.8743 3.09921 10.8424 4.07971 11.2869 4.07275ZM10.8883 4.27349C11.1435 3.90874 10.3159 3.3849 10.3159 3.3849C10.3159 3.3849 10.4517 4.35652 10.8883 4.27349ZM10.4898 4.58962C10.6964 4.1951 9.80875 3.7816 9.80875 3.7816C9.80875 3.7816 10.0673 4.72796 10.4898 4.58962ZM10.2223 4.98728C10.342 4.55821 9.38773 4.33986 9.38773 4.33986C9.38773 4.33986 9.83797 5.21111 10.2223 4.98728ZM10.014 5.34343C10.0376 4.89852 9.05875 4.89401 9.05875 4.89401C9.05875 4.89401 9.68762 5.64591 10.014 5.34343ZM9.89751 5.80213C9.84835 5.35927 8.88191 5.51481 8.88191 5.51481C8.88191 5.51481 9.62466 6.15391 9.89751 5.80213ZM9.85859 6.21318C9.71657 5.79107 8.8053 6.14899 8.8053 6.14899C8.8053 6.14899 9.66672 6.61493 9.85859 6.21318ZM12.4877 3.96432C12.1204 3.71318 12.7107 2.93043 12.7107 2.93043C12.7107 2.93043 12.9256 3.88771 12.4877 3.96432ZM12.9012 4.07111C12.5875 3.75538 13.3137 3.09744 13.3137 3.09744C13.3137 3.09744 13.3455 4.07807 12.9012 4.07111ZM13.2996 4.27185C13.0444 3.9071 13.872 3.38326 13.872 3.38326C13.872 3.38326 13.7362 4.35501 13.2996 4.27185ZM13.6981 4.58798C13.4917 4.19346 14.3793 3.77996 14.3793 3.77996C14.3793 3.77996 14.1208 4.72632 13.6981 4.58798ZM13.9657 4.98565C13.8459 4.55658 14.8002 4.33822 14.8002 4.33822C14.8002 4.33822 14.3499 5.20947 13.9657 4.98565ZM14.1739 5.34179C14.1504 4.89688 15.1293 4.89238 15.1293 4.89238C15.1293 4.89238 14.5004 5.64427 14.1739 5.34179ZM14.2904 5.80063C14.3394 5.35777 15.3061 5.51331 15.3061 5.51331C15.3061 5.51331 14.5634 6.15227 14.2904 5.80063ZM14.3295 6.21154C14.4713 5.7893 15.3827 6.14736 15.3827 6.14736C15.3827 6.14736 14.5215 6.61343 14.3295 6.21154ZM12.0912 8.43008C12.5031 8.59791 12.0912 9.48787 12.0912 9.48787C12.0912 9.48787 11.6795 8.59791 12.0912 8.43008ZM11.7002 8.38338C12.0673 8.63465 11.4772 9.41741 11.4772 9.41741C11.4772 9.41741 11.2624 8.46026 11.7002 8.38338ZM11.2869 8.27673C11.6004 8.59245 10.8743 9.25026 10.8743 9.25026C10.8743 9.25026 10.8424 8.26976 11.2869 8.27673ZM10.8883 8.07585C11.1435 8.44073 10.3159 8.96458 10.3159 8.96458C10.3159 8.96458 10.4517 7.99296 10.8883 8.07585ZM10.4898 7.75985C10.6964 8.15437 9.80875 8.56773 9.80875 8.56773C9.80875 8.56773 10.0673 7.62138 10.4898 7.75985ZM10.2223 7.36219C10.342 7.79139 9.38773 8.00948 9.38773 8.00948C9.38773 8.00948 9.83797 7.13837 10.2223 7.36219ZM10.014 7.00577C10.0376 7.45095 9.05875 7.45546 9.05875 7.45546C9.05875 7.45546 9.68762 6.70343 10.014 7.00577Z" fill="#FFF22D"/>
<path fill-rule="evenodd" clip-rule="evenodd" d="M9.89748 6.54753C9.84832 6.99039 8.8819 6.83485 8.8819 6.83485C8.8819 6.83485 9.62464 6.19589 9.89748 6.54753ZM12.4876 8.38534C12.1204 8.63661 12.7106 9.41937 12.7106 9.41937C12.7106 9.41937 12.9255 8.46209 12.4876 8.38534ZM12.9011 8.27869C12.5874 8.59442 13.3136 9.25222 13.3136 9.25222C13.3136 9.25222 13.3454 8.27173 12.9011 8.27869ZM13.2995 8.07781C13.0443 8.4427 13.8719 8.96654 13.8719 8.96654C13.8719 8.96654 13.7361 7.99492 13.2995 8.07781ZM13.698 7.76181C13.4915 8.15633 14.3792 8.5697 14.3792 8.5697C14.3792 8.5697 14.1207 7.62334 13.698 7.76181ZM13.9655 7.36402C13.8458 7.79295 14.8 8.01131 14.8 8.01131C14.8 8.01131 14.3498 7.14033 13.9655 7.36402ZM14.1738 7.00801C14.1503 7.45292 15.1292 7.45742 15.1292 7.45742C15.1292 7.45742 14.5003 6.70553 14.1738 7.00801ZM14.2903 6.54917C14.3393 6.99203 15.306 6.83649 15.306 6.83649C15.306 6.83649 14.5633 6.19739 14.2903 6.54917Z" fill="#FFF22D"/>
</svg>
