<svg width="20" height="20" viewBox="0 0 20 20" fill="none" xmlns="http://www.w3.org/2000/svg">
<path d="M18.7771 0.212158L19.7871 1.22287L9.08001 11.93L8.07001 10.92L18.7771 0.212158Z" fill="#1E1D1D"/>
<path d="M20 7.14286H18.5714V1.42857H12.8571V0H20V7.14286Z" fill="#1E1D1D"/>
<path d="M16.4286 20.0001H2.14286C0.928572 20.0001 0 19.0716 0 17.8573V3.57157C0 2.35728 0.928572 1.42871 2.14286 1.42871H10V2.85728H2.14286C1.71429 2.85728 1.42857 3.143 1.42857 3.57157V17.8573C1.42857 18.2859 1.71429 18.5716 2.14286 18.5716H16.4286C16.8571 18.5716 17.1429 18.2859 17.1429 17.8573V10.0001H18.5714V17.8573C18.5714 19.0716 17.6429 20.0001 16.4286 20.0001Z" fill="#1E1D1D"/>
</svg>
