<svg width="110" height="45" viewBox="0 0 110 45" fill="none" xmlns="http://www.w3.org/2000/svg">
<path fill-rule="evenodd" clip-rule="evenodd" d="M27.2821 23.9925C22.442 12.1988 12.39 10.5645 3.82114 14.8082C9.87278 8.05375 16.9065 6.21194 25.28 11.065C28.1056 15.4974 28.5192 19.7922 27.2821 23.9925Z" fill="url(#paint0_linear_39_3)"/>
<path fill-rule="evenodd" clip-rule="evenodd" d="M11.6803 13.4371C8.89944 13.551 6.21046 14.2452 3.60335 15.4613C-6.09029 28.3987 4.83053 48.914 23.7563 43.5362C7.03299 41.7078 2.08329 24.7545 11.6803 13.4371Z" fill="url(#paint1_linear_39_3)"/>
<path fill-rule="evenodd" clip-rule="evenodd" d="M23.4516 39.6189C34.1662 34.7518 37.4612 20.416 26.4988 11.5875C32.5037 21.6039 26.5002 35.13 14.1806 36.3106C16.8104 38.4505 19.8937 39.5675 23.4516 39.6189Z" fill="url(#paint2_linear_39_3)"/>
<path fill-rule="evenodd" clip-rule="evenodd" d="M24.6259 1.61985C20.9843 2.03303 21.3249 7.16939 15.0068 7.10434C14.9877 6.94276 14.9735 6.78545 14.9617 6.62979C15.2815 5.6856 15.7405 4.89523 16.3218 4.24213C17.0348 3.44133 17.936 2.84184 18.9941 2.41308C19.1201 2.3621 19.181 2.21842 19.13 2.09231C19.079 1.96638 18.9352 1.90546 18.8092 1.95649C17.6813 2.41352 16.7182 3.05507 15.9533 3.91447C15.5628 4.35307 15.2239 4.84823 14.9413 5.40427C15.2496 -0.733564 21.8789 -1.10799 24.6259 1.61985Z" fill="#41E805"/>
<path fill-rule="evenodd" clip-rule="evenodd" d="M8.25992 6.45147C10.0517 6.01612 11.6475 7.77901 13.9618 7.10433C13.9479 7.00819 13.9311 6.91584 13.9117 6.82522C13.6663 6.566 13.3788 6.35315 13.0592 6.17649L13.0415 6.16562C12.5161 5.87866 11.8981 5.68284 11.2325 5.5378C11.0997 5.50918 11.0151 5.37787 11.0437 5.24506C11.0724 5.1121 11.2037 5.0275 11.3365 5.05612C12.0413 5.20984 12.7022 5.42066 13.2781 5.7359L13.2961 5.74473C13.3972 5.80041 13.4952 5.85955 13.5903 5.92212C12.4275 3.7361 9.19654 4.24736 8.25992 6.45147Z" fill="#41E805"/>
<path d="M51.5986 17.2736C51.5986 18.8319 50.4029 19.6119 48.0109 19.6119H42.8321V21.1419C42.8321 21.5498 42.6282 21.7539 42.2229 21.7539H41.7895C41.3838 21.7539 41.1798 21.5498 41.1798 21.1419V14.372C41.1798 13.4567 41.6109 12.8243 42.4728 12.4748C43.0388 12.2454 43.8703 12.1306 44.9665 12.1306H47.6108C50.2703 12.1306 51.5986 12.87 51.5986 14.3516V17.2736ZM49.9156 17.2993V14.3747C49.9156 13.9769 49.6073 13.7166 48.9901 13.5968C48.7302 13.5484 48.2734 13.5228 47.621 13.5228H45.0353C43.5665 13.5228 42.8321 13.8186 42.8321 14.4127V18.2349H48.0109C49.2809 18.2349 49.9156 17.9241 49.9156 17.2993ZM58.5724 12.9134C58.5724 13.3188 58.3634 13.5228 57.9502 13.5228H57.183C55.9386 13.5228 55.3165 13.8366 55.3165 14.4663V19.0509C55.3165 19.4665 55.1124 19.6731 54.7018 19.6731H54.248C53.8375 19.6731 53.6335 19.4642 53.6335 19.0459L53.6641 14.4713C53.6691 13.6225 54.0849 12.9977 54.9134 12.5945C55.5458 12.2863 56.3364 12.1306 57.2849 12.1306H57.9502C58.366 12.1306 58.5724 12.3373 58.5724 12.7476V12.9134ZM70.7148 16.0346C70.7148 16.4909 70.5592 16.7205 70.2506 16.7205H61.9941C61.9941 17.7609 62.7134 18.281 64.1515 18.281H65.3959C65.8062 18.281 66.0103 18.4873 66.0103 18.9032V19.0509C66.0103 19.4665 65.8062 19.6731 65.3982 19.6731H64.3374C63.2767 19.6731 62.4101 19.5329 61.7369 19.2549C60.7755 18.8571 60.2961 18.2017 60.2961 17.2917V14.52C60.2961 13.6504 60.7702 13.0053 61.7215 12.587C62.415 12.2837 63.2642 12.1306 64.2687 12.1306H67.3694C68.2057 12.1306 68.9247 12.2735 69.5264 12.5565C70.3196 12.9288 70.7148 13.4846 70.7148 14.219V16.0346ZM69.1083 15.2824V14.3591C69.1083 14.0735 68.7898 13.8571 68.1495 13.7014C67.7007 13.5918 67.2724 13.5382 66.8647 13.5382H64.455C62.7847 13.5382 61.9485 13.8314 61.9485 14.4181V15.2824H69.1083ZM86.9345 19.0536C86.9345 19.4665 86.7304 19.6731 86.3225 19.6731H85.8861C85.4733 19.6731 85.2667 19.4665 85.2667 19.0509V14.3976C85.2667 13.8136 84.6471 13.5228 83.4054 13.5228H82.3065C81.1996 13.5228 80.6463 13.8876 80.6463 14.6142V19.0509C80.6463 19.4665 80.4399 19.6731 80.0294 19.6731H79.5957C79.1853 19.6731 78.9788 19.4665 78.9788 19.0509V14.5937C78.9788 14.1476 78.8209 13.8469 78.5069 13.6887C78.2879 13.579 77.9282 13.5228 77.4236 13.5228H76.3243C74.9934 13.5228 74.3278 13.8186 74.3278 14.4127V19.0509C74.3278 19.4665 74.1238 19.6731 73.7185 19.6731H73.2851C72.8795 19.6731 72.6754 19.4665 72.6754 19.0536V14.5887C72.6754 12.9493 73.8816 12.1306 76.2914 12.1306H77.4258C78.3415 12.1306 79.1548 12.3449 79.8609 12.7759C80.5673 12.3449 81.3833 12.1306 82.3039 12.1306H83.4538C85.774 12.1306 86.9345 12.9493 86.9345 14.5887V19.0536ZM90.9119 11.7279C90.9119 11.9981 90.7975 12.2123 90.5677 12.3729C90.3691 12.5182 90.1319 12.5896 89.8513 12.5896C89.5735 12.5896 89.3261 12.5182 89.1145 12.3729C88.8747 12.2123 88.7549 11.9981 88.7549 11.7279C88.7549 11.4602 88.8747 11.246 89.1145 11.0853C89.3208 10.9448 89.5683 10.8761 89.8513 10.8761C90.1368 10.8761 90.3766 10.9448 90.5753 11.0853C90.7997 11.2407 90.9119 11.4548 90.9119 11.7279ZM90.6826 19.0536C90.6826 19.4665 90.4761 19.6731 90.0631 19.6731H89.6498C89.2369 19.6731 89.0302 19.4665 89.0302 19.0536V13.352C89.0302 12.9441 89.2369 12.74 89.6498 12.74H90.0631C90.4761 12.74 90.6826 12.9441 90.6826 13.352V19.0536ZM103.116 16.0346C103.116 16.4909 102.96 16.7205 102.651 16.7205H94.395C94.395 17.7609 95.1142 18.281 96.5523 18.281H97.7967C98.207 18.281 98.4109 18.4873 98.4109 18.9032V19.0509C98.4109 19.4665 98.207 19.6731 97.799 19.6731H96.7382C95.6774 19.6731 94.8109 19.5329 94.1377 19.2549C93.1763 18.8571 92.697 18.2017 92.697 17.2917V14.52C92.697 13.6504 93.1711 13.0053 94.1222 12.587C94.8158 12.2837 95.6649 12.1306 96.6695 12.1306H99.7701C100.607 12.1306 101.325 12.2735 101.927 12.5565C102.72 12.9288 103.116 13.4846 103.116 14.219V16.0346ZM101.509 15.2824V14.3591C101.509 14.0735 101.19 13.8571 100.55 13.7014C100.101 13.5918 99.673 13.5382 99.2655 13.5382H96.8557C95.1856 13.5382 94.3492 13.8314 94.3492 14.4181V15.2824H101.509ZM110 12.9134C110 13.3188 109.791 13.5228 109.378 13.5228H108.611C107.366 13.5228 106.744 13.8366 106.744 14.4663V19.0509C106.744 19.4665 106.54 19.6731 106.129 19.6731H105.676C105.265 19.6731 105.061 19.4642 105.061 19.0459L105.092 14.4713C105.097 13.6225 105.513 12.9977 106.341 12.5945C106.973 12.2863 107.764 12.1306 108.713 12.1306H109.378C109.794 12.1306 110 12.3373 110 12.7476V12.9134Z" fill="white"/>
<path d="M40.5935 27.308C40.178 27.308 39.9713 27.1017 39.9713 26.6859V26.5305C39.9713 26.1199 40.178 25.9159 40.5935 25.9159H41.1798V24.4321C41.1798 24.024 41.3839 23.8201 41.7895 23.8201H42.2229C42.6282 23.8201 42.8321 24.024 42.8321 24.4321V25.9159H45.461C45.8743 25.9159 46.0808 26.1199 46.0808 26.5305V26.6859C46.0808 27.1017 45.8743 27.308 45.461 27.308H42.8321V32.7775C42.8321 33.1906 42.6282 33.3971 42.2229 33.3971H41.7895C41.3839 33.3971 41.1798 33.1906 41.1798 32.7775V27.308H40.5935ZM57.9018 31.0565C57.9018 31.9285 57.458 32.571 56.5733 32.979C55.9715 33.257 55.1861 33.3971 54.2199 33.3971H51.4659C49.6888 33.3971 48.5107 32.9558 47.9346 32.0738C47.7254 31.755 47.6207 31.4158 47.6207 31.0565V28.277C47.6207 27.6627 47.9063 27.1323 48.4801 26.6835C49.1812 26.1301 50.1733 25.8547 51.4583 25.8547H54.2199C56.6752 25.8547 57.9018 26.6578 57.9018 28.2617V31.0565ZM56.2035 31.054V28.1445C56.2035 27.5454 55.5253 27.2471 54.1661 27.2471H51.4735C50.9866 27.2471 50.5453 27.3059 50.1528 27.4257C49.5664 27.6066 49.273 27.8873 49.273 28.2723V31.054C49.273 31.4239 49.5714 31.6891 50.1683 31.847C50.5555 31.9516 50.9942 32.0053 51.4815 32.0053H54.1741C54.6022 32.0053 55.0078 31.9464 55.3902 31.8267C55.9334 31.6559 56.2035 31.3982 56.2035 31.054ZM70.4727 31.1485C70.4727 31.9898 69.9804 32.6018 68.9937 32.9868C68.2926 33.2598 67.446 33.3973 66.4567 33.3973H63.9857C61.293 33.3973 59.9468 32.6478 59.9468 31.1485V26.4744C59.9468 26.0615 60.1507 25.8549 60.5564 25.8549H60.9897C61.3951 25.8549 61.5991 26.0615 61.5991 26.4744V31.1459C61.5991 31.7196 62.3923 32.0053 63.9807 32.0053H66.4513C68.0093 32.0053 68.7898 31.7272 68.7898 31.1688V26.4744C68.7898 26.0615 68.9937 25.8549 69.4043 25.8549H69.8531C70.266 25.8549 70.4727 26.0615 70.4727 26.4744V31.1485ZM77.4515 26.6377C77.4515 27.043 77.2425 27.2471 76.8293 27.2471H76.062C74.8177 27.2471 74.1955 27.5609 74.1955 28.1906V32.7751C74.1955 33.1908 73.9916 33.3973 73.5809 33.3973H73.1273C72.7166 33.3973 72.5126 33.1884 72.5126 32.7702L72.5431 28.1955C72.5481 27.3467 72.964 26.7218 73.7925 26.3188C74.4248 26.0105 75.2155 25.8549 76.1641 25.8549H76.8293C77.2453 25.8549 77.4515 26.0615 77.4515 26.4718V26.6377Z" fill="white"/>
<path d="M41.9553 39.2201H42.5751C42.6906 39.2201 42.7502 39.2114 42.8013 39.1774C42.8741 39.1344 42.9039 39.0662 42.9039 38.9806C42.9039 38.895 42.8741 38.8267 42.8013 38.7842C42.7502 38.75 42.6906 38.7412 42.5751 38.7412H41.9553V37.8369C41.9553 37.6871 41.9468 37.6274 41.8997 37.5504C41.8529 37.4737 41.759 37.4166 41.6433 37.4166C41.5278 37.4166 41.4339 37.4737 41.387 37.5504C41.34 37.6274 41.3313 37.6871 41.3313 37.8369V38.7412H41.0364C40.921 38.7412 40.8612 38.75 40.8099 38.7842C40.7373 38.8267 40.7073 38.895 40.7073 38.9806C40.7073 39.0662 40.7373 39.1344 40.8099 39.1774C40.8612 39.2114 40.921 39.2201 41.0364 39.2201H41.3313V41.8185C41.3313 42.4422 41.6859 42.9468 42.3998 42.9468H42.5108C42.6519 42.9468 42.7333 42.9296 42.7888 42.8953C42.8614 42.8484 42.9039 42.7758 42.9039 42.6773C42.9039 42.5789 42.8614 42.5065 42.7888 42.4595C42.7333 42.4252 42.6519 42.4083 42.5108 42.4083C42.1305 42.4083 41.9553 42.1818 41.9553 41.7968V39.2201ZM44.6991 39.1262C44.6991 38.9762 44.6903 38.9166 44.6436 38.8399C44.5965 38.7629 44.5022 38.7072 44.3871 38.7072C44.2713 38.7072 44.1777 38.7629 44.1307 38.8399C44.0838 38.9166 44.0751 38.9762 44.0751 39.1262V42.562C44.0751 42.7115 44.0838 42.7714 44.1307 42.8484C44.1777 42.9254 44.2713 42.981 44.3871 42.981C44.5022 42.981 44.5965 42.9254 44.6436 42.8484C44.6903 42.7714 44.6991 42.7115 44.6991 42.562V40.3811C44.6991 39.7202 45.0924 39.2456 45.7164 39.2456C45.9083 39.2456 46.0836 39.3013 46.2417 39.3951C46.3956 39.4878 46.4642 39.5178 46.5367 39.5178C46.618 39.5178 46.6948 39.4834 46.7506 39.4283C46.8017 39.3764 46.8401 39.2913 46.8401 39.2102C46.8401 39.0718 46.7332 38.9737 46.605 38.8923C46.3785 38.7512 46.1478 38.6917 45.8485 38.6917C45.387 38.6897 44.9342 38.9037 44.6991 39.2456V39.1262ZM47.2389 41.7531C47.2389 42.0931 47.3584 42.4009 47.5609 42.6104C47.826 42.881 48.1763 42.9967 48.7577 42.9967C49.2992 42.9967 49.6193 42.8853 49.9615 42.5508V42.559C49.9615 42.709 49.97 42.7698 50.0171 42.8472C50.0638 42.9254 50.1577 42.981 50.2735 42.981C50.3902 42.981 50.4842 42.9254 50.5312 42.8484C50.5784 42.7714 50.5867 42.7115 50.5867 42.562V40.0975C50.5867 39.1799 50.0213 38.6917 48.9358 38.6917C48.4883 38.6917 48.1593 38.7725 47.8559 38.9662C47.6079 39.1288 47.4528 39.2825 47.4528 39.4364C47.4528 39.5264 47.4828 39.5777 47.5297 39.6333C47.578 39.6828 47.651 39.7085 47.719 39.7085C47.7874 39.7085 47.8855 39.6828 47.9798 39.5989C48.2619 39.3425 48.5014 39.227 48.9314 39.227C49.6663 39.227 49.9656 39.5564 49.9656 40.1961V40.5364H48.6933C47.7791 40.5364 47.2389 41.0152 47.2389 41.7544V41.7529V41.7531ZM47.8516 41.7502C47.8516 41.2673 48.1593 41.0067 48.762 41.0067H49.9656V41.4557C49.9656 41.8145 49.8932 42.0453 49.7476 42.1861C49.487 42.4354 49.1709 42.4698 48.8215 42.4698C48.1679 42.4698 47.8516 42.226 47.8516 41.7489V41.7504V41.7502ZM54.7722 39.1946C54.8147 39.0665 54.8278 38.9764 54.7978 38.8913C54.7592 38.7844 54.6353 38.7075 54.5158 38.7075C54.3363 38.7075 54.2633 38.8401 54.2078 39.0064L53.1864 42.0666L52.165 39.0064C52.1093 38.8401 52.0368 38.7075 51.8573 38.7075C51.7379 38.7075 51.614 38.7844 51.5754 38.8913C51.5452 38.9764 51.5583 39.0665 51.6009 39.1946L52.7805 42.605C52.8319 42.7545 52.8788 42.84 52.9558 42.9042C53.0197 42.9556 53.0925 42.9812 53.1864 42.9812C53.276 42.9812 53.353 42.9556 53.4173 42.9042C53.4942 42.84 53.5412 42.7545 53.5923 42.605L54.7722 39.1946ZM58.607 40.9981C58.7065 40.9981 58.8008 40.998 58.8821 40.9167C58.9629 40.8358 58.9673 40.7203 58.9673 40.6346C58.959 39.4666 58.3077 38.6901 57.2421 38.6901C56.1852 38.6901 55.5083 39.4541 55.5083 40.8398C55.5083 42.3317 56.2366 42.9981 57.3491 42.9981C57.7791 42.9981 58.1413 42.9042 58.3933 42.7545C58.5599 42.6518 58.8308 42.4641 58.8308 42.276C58.8308 42.1348 58.6981 42.0051 58.5644 42.0051C58.4702 42.0051 58.4062 42.0439 58.2738 42.1565C58.023 42.3698 57.698 42.4597 57.3747 42.4597C56.5643 42.4597 56.1296 41.9196 56.1296 40.9981H58.607ZM56.1296 40.5278C56.1424 40.2303 56.168 40.0764 56.2622 39.8469C56.416 39.4666 56.7863 39.2203 57.2421 39.2203C57.698 39.2203 58.0642 39.4622 58.2224 39.8469C58.3163 40.0764 58.3418 40.2303 58.3549 40.5278H56.1296ZM60.8661 37.2457C60.8661 37.0962 60.8574 37.0363 60.8106 36.9594C60.7637 36.8824 60.6693 36.8269 60.5541 36.8269C60.4386 36.8269 60.3447 36.8824 60.2977 36.9594C60.2509 37.0363 60.2421 37.0962 60.2421 37.2457V41.8188C60.2421 42.4425 60.5969 42.947 61.3106 42.947H61.4215C61.5627 42.947 61.6441 42.9298 61.6996 42.8955C61.7721 42.8487 61.8149 42.7761 61.8149 42.6775C61.8149 42.5792 61.7721 42.5067 61.6996 42.4597C61.6441 42.4255 61.5627 42.4085 61.4215 42.4085C61.0414 42.4085 60.8661 42.1821 60.8661 41.7971V37.2457Z" fill="#FFCA0A"/>
<path d="M64.6784 40.8439C64.6784 42.277 65.4649 42.9967 66.5374 42.9967C66.9649 42.9967 67.2769 42.881 67.5633 42.6547C67.7427 42.5178 67.8622 42.4051 67.8622 42.2514C67.8622 42.179 67.8284 42.1062 67.7727 42.0507C67.7214 42.0037 67.6528 41.9737 67.5802 41.9737C67.4864 41.9737 67.3839 42.0464 67.2813 42.1362C67.0162 42.3695 66.8154 42.4423 66.5374 42.4423C66.1273 42.4423 65.7982 42.2844 65.5763 41.9737C65.3794 41.6961 65.3024 41.3752 65.3024 40.8452C65.3024 40.3124 65.3794 39.9923 65.5763 39.7141C65.7982 39.3995 66.1273 39.2456 66.5374 39.2456C66.8154 39.2456 67.0033 39.3181 67.2813 39.549C67.4221 39.6672 67.4864 39.7141 67.5802 39.7141C67.6528 39.7141 67.7214 39.6847 67.7727 39.6373C67.8284 39.582 67.8622 39.509 67.8622 39.4364C67.8622 39.2825 67.7642 39.1957 67.5633 39.0376C67.26 38.7981 66.9649 38.6917 66.5374 38.6917C65.4649 38.6917 64.6784 39.4064 64.6784 40.8452V40.8438V40.8439ZM70.4908 42.4423C70.1789 42.4423 69.9356 42.344 69.7303 42.1388C69.4354 41.8443 69.3883 41.331 69.3883 40.8439C69.3883 40.3568 69.4354 39.8485 69.7303 39.5534C69.9356 39.3484 70.1789 39.2456 70.4908 39.2456C70.8028 39.2456 71.0466 39.3484 71.2517 39.5534C71.5463 39.8485 71.5937 40.3568 71.5937 40.8439C71.5937 41.331 71.5463 41.8443 71.2517 42.1388C71.0466 42.344 70.8028 42.4423 70.4908 42.4423ZM70.4908 38.6899C69.9781 38.6899 69.5722 38.878 69.2814 39.1687C68.8456 39.6133 68.7644 40.1941 68.7644 40.8439C68.7644 41.4892 68.8456 42.075 69.2814 42.5195C69.5722 42.8098 69.9781 42.9979 70.4908 42.9979C71.0036 42.9979 71.41 42.8098 71.7007 42.5195C72.1366 42.075 72.2177 41.4892 72.2177 40.8439C72.2177 40.1941 72.1366 39.6133 71.7007 39.1687C71.41 38.878 71.0036 38.6899 70.4908 38.6899ZM76.2433 40.3568V42.562C76.2433 42.7115 76.2516 42.7714 76.299 42.8484C76.3458 42.9254 76.4398 42.981 76.5554 42.981C76.6705 42.981 76.7648 42.9254 76.8116 42.8484C76.8586 42.7714 76.8674 42.7115 76.8674 42.562V40.2886C76.8674 39.626 77.2989 39.2456 77.9172 39.2456C78.5512 39.2456 78.9527 39.6176 78.9527 40.3568V42.562C78.9527 42.7115 78.9614 42.7714 79.0083 42.8484C79.0553 42.9254 79.1492 42.981 79.2647 42.981C79.3803 42.981 79.474 42.9254 79.5212 42.8484C79.5679 42.7714 79.5767 42.7115 79.5767 42.562V40.2543C79.5767 39.767 79.4184 39.3739 79.1153 39.0831C78.8588 38.8355 78.4825 38.6899 78.028 38.6899C77.4371 38.6899 76.9654 38.9294 76.6405 39.3909C76.3841 38.9294 75.9327 38.6899 75.3512 38.6899C74.8827 38.6899 74.4639 38.8611 74.1662 39.2031V39.1262C74.1662 38.9762 74.1576 38.9166 74.1105 38.8399C74.0636 38.7629 73.9694 38.7072 73.8542 38.7072C73.7386 38.7072 73.6447 38.7629 73.5979 38.8399C73.5509 38.9166 73.5421 38.9762 73.5421 39.1262V42.562C73.5421 42.7115 73.5509 42.7714 73.5979 42.8484C73.6447 42.9254 73.7386 42.981 73.8542 42.981C73.9694 42.981 74.0636 42.9254 74.1105 42.8484C74.1576 42.7714 74.1662 42.7115 74.1662 42.562V40.3568C74.1662 39.626 74.5834 39.2456 75.2148 39.2456C75.847 39.2456 76.2433 39.6176 76.2433 40.3568ZM84.4357 40.8439C84.4357 40.1686 84.3418 39.4851 83.9143 39.0576C83.6922 38.8355 83.3245 38.6899 82.8887 38.6899C82.4185 38.6899 82.0509 38.8011 81.7007 39.2456V39.1262C81.7007 38.9762 81.6921 38.9166 81.6451 38.8399C81.5982 38.7629 81.5037 38.7072 81.3887 38.7072C81.2732 38.7072 81.1793 38.7629 81.1324 38.8399C81.0854 38.9166 81.0767 38.9762 81.0767 39.1262V44.4423C81.0767 44.5918 81.0854 44.6517 81.1324 44.7288C81.1793 44.8056 81.2732 44.8613 81.3887 44.8613C81.5037 44.8613 81.5982 44.8056 81.6451 44.7288C81.6921 44.6517 81.7007 44.5918 81.7007 44.4423V42.4595C82.0509 42.8953 82.4272 42.9979 82.8887 42.9979C83.3245 42.9979 83.6922 42.8529 83.9143 42.6304C84.3418 42.2033 84.4357 41.5191 84.4357 40.8439ZM81.7007 40.8439C81.7007 40.0235 81.8376 39.2456 82.7562 39.2456C83.6753 39.2456 83.8117 40.0235 83.8117 40.8439C83.8117 41.6648 83.6753 42.4423 82.7562 42.4423C81.8376 42.4423 81.7007 41.6648 81.7007 40.8439ZM85.3987 41.7531C85.3987 42.0931 85.5182 42.4009 85.7207 42.6104C85.9857 42.881 86.3359 42.9967 86.9174 42.9967C87.4588 42.9967 87.7791 42.8853 88.1211 42.5508V42.559C88.1211 42.709 88.1297 42.7698 88.1767 42.8472C88.2237 42.9254 88.3174 42.981 88.4331 42.981C88.55 42.981 88.6437 42.9254 88.6908 42.8484C88.7382 42.7714 88.7463 42.7115 88.7463 42.562V40.0975C88.7463 39.1799 88.181 38.6917 87.0956 38.6917C86.6479 38.6917 86.319 38.7725 86.0156 38.9662C85.7675 39.1288 85.6124 39.2825 85.6124 39.4364C85.6124 39.5264 85.6424 39.5777 85.6893 39.6333C85.7375 39.6828 85.8105 39.7085 85.8789 39.7085C85.9469 39.7085 86.0453 39.6828 86.1395 39.5989C86.4215 39.3425 86.661 39.227 87.0912 39.227C87.826 39.227 88.1255 39.5564 88.1255 40.1961V40.5364H86.8532C85.9388 40.5364 85.3987 41.0152 85.3987 41.7544V41.7529V41.7531ZM86.0114 41.7502C86.0114 41.2673 86.319 41.0067 86.9218 41.0067H88.1255V41.4557C88.1255 41.8145 88.0528 42.0453 87.9073 42.1861C87.6466 42.4354 87.3306 42.4698 86.9812 42.4698C86.3278 42.4698 86.0114 42.226 86.0114 41.7489V41.7504V41.7502ZM93.5816 40.2589C93.5816 39.7717 93.4447 39.3742 93.1452 39.0834C92.8844 38.8269 92.5143 38.6901 92.057 38.6901C91.5926 38.6901 91.1825 38.8657 90.8804 39.2033V39.1264C90.8804 38.9764 90.8718 38.9169 90.8247 38.8401C90.7779 38.7631 90.6837 38.7075 90.5683 38.7075C90.4528 38.7075 90.3589 38.7631 90.312 38.8401C90.265 38.9169 90.2563 38.9764 90.2563 39.1264V42.5623C90.2563 42.7161 90.269 42.7761 90.312 42.8487C90.3589 42.9257 90.4572 42.9812 90.5683 42.9812C90.6796 42.9812 90.7779 42.9257 90.8247 42.8487C90.8674 42.7761 90.8804 42.7161 90.8804 42.5623V40.3657C90.8804 39.6262 91.2893 39.2459 91.929 39.2459C92.5699 39.2459 92.9574 39.6178 92.9574 40.3657V42.5623C92.9574 42.7161 92.9702 42.7761 93.0132 42.8487C93.0557 42.9257 93.1583 42.9812 93.2694 42.9812C93.3803 42.9812 93.4789 42.9257 93.5258 42.8487C93.5686 42.7761 93.5816 42.7161 93.5816 42.5623V40.2589ZM96.1713 42.1135L95.1541 39.0064C95.0986 38.8401 95.0258 38.7075 94.8464 38.7075C94.7269 38.7075 94.6031 38.7844 94.5643 38.8913C94.5344 38.9764 94.5476 39.0665 94.5901 39.1946L95.8762 42.8826L95.6117 43.678C95.4791 44.075 95.2822 44.195 94.9747 44.195C94.8596 44.195 94.7996 44.2161 94.7482 44.2548C94.6838 44.3019 94.6502 44.3831 94.6502 44.4726C94.6502 44.5752 94.6838 44.6351 94.7438 44.6864C94.8039 44.7334 94.9021 44.7502 95.0346 44.7502C95.3253 44.7502 95.5898 44.6734 95.8082 44.4639C95.9406 44.34 96.0388 44.1606 96.1075 43.9599L97.7571 39.1946C97.7996 39.0665 97.8127 38.9764 97.7827 38.8913C97.744 38.7844 97.6201 38.7075 97.5007 38.7075C97.3212 38.7075 97.2482 38.8401 97.1931 39.0064L96.1713 42.1135Z" fill="#41E805"/>
<defs>
<linearGradient id="paint0_linear_39_3" x1="27.9444" y1="16.1656" x2="3.82182" y2="16.1656" gradientUnits="userSpaceOnUse">
<stop stop-color="#BE5100"/>
<stop offset="0.559647" stop-color="#FBC418"/>
<stop offset="0.76" stop-color="#FBC418"/>
<stop offset="1" stop-color="#FFCA0A"/>
</linearGradient>
<linearGradient id="paint1_linear_39_3" x1="11.8788" y1="13.4395" x2="11.8788" y2="44.416" gradientUnits="userSpaceOnUse">
<stop stop-color="#BE5100"/>
<stop offset="0.559647" stop-color="#FBC418"/>
<stop offset="0.76" stop-color="#FBC418"/>
<stop offset="1" stop-color="#FFCA0A"/>
</linearGradient>
<linearGradient id="paint2_linear_39_3" x1="23.7291" y1="39.6187" x2="23.7291" y2="11.5865" gradientUnits="userSpaceOnUse">
<stop stop-color="#BE5100"/>
<stop offset="0.559647" stop-color="#FFCA0A"/>
<stop offset="0.76" stop-color="#FFCA0A"/>
<stop offset="1" stop-color="#FFCA0A"/>
</linearGradient>
</defs>
</svg>
