<svg width="90" height="90" viewBox="0 0 90 90" fill="none" xmlns="http://www.w3.org/2000/svg">
<path d="M84.375 68.9062H77.1441C76.5155 66.4861 74.333 64.6875 71.7188 64.6875V54.8072C72.8972 55.7002 74.3484 56.25 75.9375 56.25C79.8145 56.25 82.9688 53.0958 82.9688 49.2188C82.9688 48.7786 82.9237 48.3356 82.8337 47.8927C84.6773 46.5862 85.7812 44.4909 85.7812 42.1875C85.7812 40.2033 84.96 38.3667 83.5284 37.0519C84.0797 36.0337 84.375 34.8989 84.375 33.75C84.375 32.0048 83.7197 30.3441 82.5497 29.0587C82.8281 28.298 82.9688 27.5147 82.9688 26.7188C82.9688 23.1188 80.2505 20.1431 76.7587 19.7353C75.6689 17.1773 73.1517 15.4688 70.3125 15.4688C67.4733 15.4688 64.9561 17.1773 63.8663 19.7353C60.3745 20.1431 57.6562 23.1188 57.6562 26.7188C57.6562 27.5147 57.7969 28.298 58.0753 29.0587C57.3384 29.8673 56.835 30.8334 56.5411 31.867C54.8198 30.3961 52.7963 29.5312 50.625 29.5312C47.9475 29.5312 45.4894 30.8278 43.5558 32.9836C43.3758 31.0992 42.5377 29.2992 41.1933 27.9548L37.1447 23.9062H43.5938V21.0741C43.5938 19.755 42.937 18.4964 41.8373 17.7089C36.7509 14.0639 32.6475 9.14906 29.9742 3.49312C29.3653 2.205 28.1166 1.40625 26.7188 1.40625C25.3209 1.40625 24.0722 2.205 23.4633 3.49312C20.7914 9.14906 16.688 14.0653 11.5988 17.7089C10.5005 18.4964 9.84375 19.755 9.84375 21.0741V23.9062H16.2928L12.2442 27.9548C10.7184 29.4806 9.84375 31.5928 9.84375 33.75V35.1562H16.2928L12.2442 39.2048C10.7184 40.7306 9.84375 42.8428 9.84375 45V46.4062H25.3125V52.0312C21.7125 52.0312 18.7369 54.7495 18.3291 58.2413C15.7711 59.3311 14.0625 61.8483 14.0625 64.6875C14.0625 66.2414 14.5814 67.7348 15.4645 68.9062C13.14 68.9091 11.25 70.8005 11.25 73.125C11.25 73.9012 10.62 74.5312 9.84375 74.5312H5.625C3.29906 74.5312 1.40625 76.4241 1.40625 78.75C1.40625 81.0759 3.29906 82.9688 5.625 82.9688H12.915C12.7575 83.4103 12.6562 83.88 12.6562 84.375C12.6562 86.7009 14.5491 88.5938 16.875 88.5938H71.7188C74.0447 88.5938 75.9375 86.7009 75.9375 84.375C75.9375 82.0491 74.0447 80.1562 71.7188 80.1562H68.9062H67.5C66.7238 80.1562 66.0938 79.5262 66.0938 78.75C66.0938 77.9738 66.7238 77.3438 67.5 77.3438H84.375C86.7009 77.3438 88.5938 75.4509 88.5938 73.125C88.5938 70.7991 86.7009 68.9062 84.375 68.9062V68.9062ZM74.1234 68.9062H55.2586C55.5905 68.3494 56.0925 67.8966 56.738 67.6716L57.7139 67.3313L57.6802 66.2977C57.6773 66.2077 57.6675 66.1205 57.6562 66.0938C57.6562 63.7678 59.5491 61.875 61.875 61.875C63.3769 61.875 64.7775 62.7047 65.5312 64.0392L65.8645 64.6312L66.5367 64.7367C67.6195 64.9083 68.5055 65.7056 68.7937 66.7702L69.2072 68.2973L70.6753 67.7067C72.0281 67.1667 73.447 67.7939 74.1234 68.9062V68.9062ZM52.0312 60.3352C55.1672 59.7937 57.8995 57.4734 59.6869 54.1294C60.9877 55.4456 62.7778 56.25 64.6875 56.25C66.2766 56.25 67.7278 55.7002 68.9062 54.8072V62.6709C68.5069 62.4375 68.0878 62.235 67.635 62.1056C66.3272 60.2128 64.1756 59.0625 61.875 59.0625C58.2173 59.0625 55.2037 61.8694 54.8733 65.4412C53.5514 66.195 52.5966 67.4508 52.2155 68.9062H52.0312V60.3352ZM60.6502 30.4861L61.5628 29.7492L61.0017 28.7198C60.6488 28.0688 60.4688 27.3952 60.4688 26.7188C60.4688 24.3928 62.3616 22.5 64.5961 22.4958L65.9616 22.5661L66.2428 21.4608C66.7195 19.5891 68.3944 18.2812 70.3125 18.2812C72.2306 18.2812 73.9055 19.5891 74.3836 21.4608L74.6648 22.5661L75.8067 22.5183C75.8813 22.5155 75.9558 22.507 75.9375 22.5C78.2634 22.5 80.1562 24.3928 80.1562 26.7188C80.1562 27.3952 79.9762 28.0688 79.6233 28.7184L79.0622 29.7478L79.9748 30.4847C80.9845 31.3003 81.5625 32.49 81.5625 33.75C81.5625 34.9988 81.007 35.9128 80.5416 36.4612L79.4658 37.7283L80.8945 38.5777C82.1925 39.3539 82.9688 40.7025 82.9688 42.1875C82.9688 43.8061 82.0519 45.2573 80.5725 45.9703L79.4152 46.53L79.8694 47.7323C80.0606 48.2386 80.1562 48.7378 80.1562 49.2188C80.1562 51.5447 78.2634 53.4375 75.9375 53.4375C73.6116 53.4375 71.7188 51.5447 71.7188 49.2188V45.495L77.0358 38.8477L74.8378 37.0898L71.7188 40.9894V26.7188H68.9062V35.3644L65.7858 31.4648L63.5878 33.2227L68.9062 39.87V49.2188C68.9062 51.5447 67.0134 53.4375 64.6875 53.4375C63.1083 53.4375 61.6613 52.5277 60.9441 51.1439C61.5403 49.2581 61.875 47.1825 61.875 45C61.875 41.092 60.8077 37.5286 59.0625 34.8033V33.75C59.0625 32.49 59.6405 31.3003 60.6502 30.4861V30.4861ZM50.625 32.3438C55.2783 32.3438 59.0625 38.0208 59.0625 45C59.0625 51.2592 56.0152 56.4567 52.0312 57.4664V46.9013L57.3483 40.2539L55.1503 38.4961L52.0312 42.3956V37.9688H49.2188V48.7927L46.17 44.2195L43.83 45.7791L49.2188 53.8636V57.4664C45.2348 56.4581 42.1875 51.2592 42.1875 45C42.1875 38.0208 45.9717 32.3438 50.625 32.3438V32.3438ZM41.9541 35.1562C41.3522 36.1561 40.8516 37.2698 40.4466 38.4567L37.1447 35.1562H41.9541ZM14.2327 41.1933L20.2697 35.1562H22.5V32.3438H12.8461C13.0922 31.4423 13.5689 30.6084 14.2327 29.9433L20.2697 23.9062H22.5V21.0938H12.6562V21.0741C12.6562 20.6536 12.8672 20.2598 13.237 19.9941C18.7144 16.0734 23.1286 10.7817 26.0058 4.69547C26.2828 4.10484 27.1533 4.10484 27.4317 4.69547C30.3089 10.7817 34.7245 16.0734 40.1991 19.9941C40.5703 20.2598 40.7812 20.655 40.7812 21.0741L30.9375 21.0938V23.9062H33.1678L39.2048 29.9433C39.87 30.6084 40.3467 31.4423 40.5914 32.3438H30.9375V35.1562H33.1678L39.2048 41.1933C39.3623 41.3508 39.5058 41.5167 39.6408 41.6897C39.5423 42.3112 39.4692 42.9455 39.427 43.5938H12.8461C13.0922 42.6923 13.5675 41.8584 14.2327 41.1933V41.1933ZM28.125 46.4062H39.427C39.9038 53.6372 44.0128 59.4366 49.2188 60.3352V68.9062H43.5712C44.4811 67.6969 45 66.2245 45 64.6875C45 60.8105 41.8458 57.6562 37.9688 57.6562C37.5286 57.6562 37.0842 57.7013 36.6427 57.7913C35.3362 55.9477 33.2423 54.8438 30.9375 54.8438C30.9277 54.8438 30.9164 54.8438 30.908 54.8438C30.1781 53.872 29.212 53.1239 28.125 52.6416V46.4062ZM20.0545 60.6164L21.1598 60.3352L21.112 59.1933C21.1092 59.1258 21.1022 59.0583 21.0952 59.0583C21.0952 59.0583 21.0938 59.0597 21.0938 59.0611C21.0938 56.7352 22.9866 54.8423 25.3125 54.8423C26.8186 54.8423 28.2192 55.6734 28.9716 57.0108L29.5636 57.832L30.5156 57.6984C30.6534 57.6816 30.7927 57.6562 30.9375 57.6562C32.5575 57.6562 34.0073 58.5731 34.7203 60.0511L35.28 61.2127L36.4852 60.7542C39.3792 59.6573 42.1889 61.8764 42.1875 64.6875C42.1875 65.8969 41.6672 67.0514 40.7573 67.8516L39.9431 68.9062H19.2895L18.3037 67.8516C17.3953 67.0514 16.875 65.8969 16.875 64.6875C16.875 62.7694 18.1828 61.0945 20.0545 60.6164V60.6164ZM84.375 74.5312H67.5C65.1741 74.5312 63.2812 76.4241 63.2812 78.75C63.2812 79.245 63.3825 79.7147 63.54 80.1562H60.4688V82.9688H67.5H68.9062H71.7188C72.495 82.9688 73.125 83.5988 73.125 84.375C73.125 85.1512 72.495 85.7812 71.7188 85.7812H16.875C16.0988 85.7812 15.4688 85.1512 15.4688 84.375C15.4688 83.5988 16.0988 82.9688 16.875 82.9688H21.0938H25.3125V80.1562H21.0938H16.875H5.625C4.84875 80.1562 4.21875 79.5262 4.21875 78.75C4.21875 77.9738 4.84875 77.3438 5.625 77.3438H9.84375C12.1697 77.3438 14.0625 75.4509 14.0625 73.125C14.0625 72.3488 14.6925 71.7188 15.4688 71.7188H84.375C85.1512 71.7188 85.7812 72.3488 85.7812 73.125C85.7812 73.9012 85.1512 74.5312 84.375 74.5312Z" fill="#C4C4C4"/>
<path d="M33.75 78.0469C33.75 76.1077 32.1736 74.5312 30.2344 74.5312H25.3125V77.3438H30.2344C30.6211 77.3438 30.9375 77.6602 30.9375 78.0469C30.9375 79.9861 32.5139 81.5625 34.4531 81.5625H39.375V78.75H34.4531C34.0664 78.75 33.75 78.4336 33.75 78.0469Z" fill="#C4C4C4"/>
</svg>
