<svg width="85" height="85" viewBox="0 0 85 85" fill="none" xmlns="http://www.w3.org/2000/svg">
<g clip-path="url(#clip0_575_87)">
<path d="M59.8055 63.8487L24.3836 63.8435C23.4066 63.8435 22.6127 64.6356 22.6127 65.6144C22.6127 66.5914 23.4047 67.3853 24.3836 67.3853L59.8055 67.3904C60.7825 67.3904 61.5763 66.5984 61.5763 65.6195C61.5762 64.6424 60.7843 63.8487 59.8055 63.8487Z" fill="#C4C4C4"/>
<path d="M52.7169 70.9321H31.4669C30.4881 70.9321 29.696 71.7242 29.696 72.703C29.696 73.6818 30.4881 74.4739 31.4669 74.4739H52.7169C53.6958 74.4739 54.4878 73.6818 54.4878 72.703C54.4876 71.724 53.6958 70.9321 52.7169 70.9321Z" fill="#C4C4C4"/>
<path d="M42.5001 21.2502C31.7592 21.2502 23.021 29.9885 23.021 40.7293C23.021 51.4702 31.7592 60.2084 42.5001 60.2084C53.241 60.2084 61.9792 51.4702 61.9792 40.7293C61.9792 29.9885 53.241 21.2502 42.5001 21.2502ZM26.7416 42.5002H33.6822C33.8782 47.324 34.8745 52.1212 36.6039 55.5062C31.2633 53.3674 27.4076 48.4208 26.7416 42.5002ZM33.6823 38.9586H26.7417C27.4078 33.038 31.2635 28.0916 36.6041 25.9526C34.8747 29.3377 33.8784 34.1349 33.6823 38.9586ZM42.5001 56.667C40.4712 56.667 37.6177 51.1807 37.2585 42.5004H47.7417C47.3825 51.1807 44.529 56.667 42.5001 56.667ZM37.2585 38.9586C37.6177 30.2783 40.4712 24.792 42.5001 24.792C44.529 24.792 47.3825 30.2783 47.7417 38.9586H37.2585ZM48.3963 55.5064C50.1257 52.1212 51.1219 47.3241 51.318 42.5004H58.2586C57.5926 48.4208 53.7369 53.3674 48.3963 55.5064ZM51.318 38.9586C51.1219 34.1349 50.1257 29.3377 48.3963 25.9526C53.7369 28.0916 57.5927 33.0382 58.2586 38.9586H51.318V38.9586Z" fill="#C4C4C4"/>
<path d="M67.2915 10.6253H63.7499V6.96602C63.7499 3.09687 60.4759 -0.0386534 56.6665 0.000360161C56.1223 0.00600467 55.646 0.0813755 55.0843 0.223484L17.3291 10.6637C13.6018 10.8655 10.6251 13.9322 10.6251 17.7087V77.9169C10.6251 81.8234 13.8018 85.0002 17.7085 85.0002H67.2917C71.1982 85.0002 74.375 81.8235 74.375 77.9169V17.7087C74.3749 13.8022 71.1982 10.6253 67.2915 10.6253ZM55.9939 3.64572C58.0604 3.11829 60.2081 4.79222 60.2081 6.96602V10.6253H30.7558L55.9939 3.64572ZM70.8333 77.9169C70.8333 79.8692 69.244 81.4585 67.2917 81.4585H17.7085C15.7561 81.4585 14.1669 79.8692 14.1669 77.9169V17.7087C14.1669 15.7563 15.7561 14.1671 17.7085 14.1671H67.2917C69.244 14.1671 70.8333 15.7563 70.8333 17.7087V77.9169Z" fill="#C4C4C4"/>
</g>
<defs>
<clipPath id="clip0_575_87">
<rect width="85" height="85" fill="white"/>
</clipPath>
</defs>
</svg>
