<svg width="95" height="95" viewBox="0 0 95 95" fill="none" xmlns="http://www.w3.org/2000/svg">
<path d="M44.5312 47.5001C28.6986 47.7777 28.6962 70.9703 44.5312 71.2501C60.3633 70.9725 60.3657 47.7799 44.5312 47.5001ZM44.5312 68.2814C32.7167 68.222 32.7156 50.5303 44.5312 50.4689C56.3454 50.5282 56.3469 68.2201 44.5312 68.2814ZM66.7969 54.922C65.6158 54.922 64.4832 55.3912 63.648 56.2263C62.8129 57.0614 62.3438 58.1941 62.3438 59.3751C62.3438 60.5562 62.8129 61.6888 63.648 62.524C64.4832 63.3591 65.6158 63.8282 66.7969 63.8282C67.9779 63.8282 69.1106 63.3591 69.9457 62.524C70.7808 61.6888 71.25 60.5562 71.25 59.3751C71.25 58.1941 70.7808 57.0614 69.9457 56.2263C69.1106 55.3912 67.9779 54.922 66.7969 54.922ZM66.7969 60.8595C66.4032 60.8595 66.0256 60.7031 65.7473 60.4247C65.4689 60.1464 65.3125 59.7688 65.3125 59.3751C65.3125 58.9814 65.4689 58.6039 65.7473 58.3255C66.0256 58.0471 66.4032 57.8907 66.7969 57.8907C67.1906 57.8907 67.5681 58.0471 67.8465 58.3255C68.1249 58.6039 68.2812 58.9814 68.2812 59.3751C68.2812 59.7688 68.1249 60.1464 67.8465 60.4247C67.5681 60.7031 67.1906 60.8595 66.7969 60.8595ZM23.75 54.922C22.569 54.922 21.4363 55.3912 20.6012 56.2263C19.766 57.0614 19.2969 58.1941 19.2969 59.3751C19.2969 60.5562 19.766 61.6888 20.6012 62.524C21.4363 63.3591 22.569 63.8282 23.75 63.8282C24.931 63.8282 26.0637 63.3591 26.8988 62.524C27.734 61.6888 28.2031 60.5562 28.2031 59.3751C28.2031 58.1941 27.734 57.0614 26.8988 56.2263C26.0637 55.3912 24.931 54.922 23.75 54.922ZM23.75 60.8595C23.3563 60.8595 22.9788 60.7031 22.7004 60.4247C22.422 60.1464 22.2656 59.7688 22.2656 59.3751C22.2656 58.9814 22.422 58.6039 22.7004 58.3255C22.9788 58.0471 23.3563 57.8907 23.75 57.8907C24.1437 57.8907 24.5212 58.0471 24.7996 58.3255C25.078 58.6039 25.2344 58.9814 25.2344 59.3751C25.2344 59.7688 25.078 60.1464 24.7996 60.4247C24.5212 60.7031 24.1437 60.8595 23.75 60.8595ZM87.2041 39.1867C82.6916 31.4086 73.8318 26.4116 60.8594 24.3198V14.9831C60.855 14.6915 60.7654 14.4076 60.6016 14.1663C60.4377 13.9251 60.2069 13.737 59.9375 13.6254C59.668 13.5138 59.3718 13.4835 59.0854 13.5383C58.799 13.593 58.5348 13.7304 58.3255 13.9335L39.3417 32.9173C39.0634 33.1957 38.9071 33.5732 38.9071 33.9668C38.9071 34.3604 39.0634 34.7379 39.3417 35.0162L41.4347 37.1092H7.42188C6.24189 37.1126 5.11122 37.5829 4.27685 38.4173C3.44247 39.2517 2.9722 40.3823 2.96875 41.5623V77.1876C2.9722 78.3676 3.44247 79.4983 4.27685 80.3326C5.11122 81.167 6.24189 81.6373 7.42188 81.6407H81.6406C82.8206 81.6373 83.9513 81.167 84.7857 80.3326C85.62 79.4983 86.0903 78.3676 86.0938 77.1876V68.2432C86.3623 68.23 86.6209 68.1375 86.8368 67.9774C87.0528 67.8172 87.2164 67.5967 87.3071 67.3435C90.3094 59.7535 92.7289 48.7062 87.2041 39.1867ZM81.6406 78.672H7.42188C7.02854 78.6709 6.65165 78.5141 6.37352 78.236C6.09539 77.9578 5.93864 77.581 5.9375 77.1876V41.5626C5.93864 41.1693 6.09539 40.7924 6.37352 40.5143C6.65165 40.2361 7.02854 40.0794 7.42188 40.0782H44.4037L47.3725 43.047H14.8438C14.4504 43.0481 14.0735 43.2049 13.7954 43.483C13.5173 43.7611 13.3605 44.138 13.3594 44.5314C13.3571 45.318 13.0435 46.0718 12.4873 46.628C11.931 47.1843 11.1773 47.4978 10.3906 47.5001C9.99729 47.5013 9.6204 47.658 9.34227 47.9361C9.06414 48.2143 8.90739 48.5912 8.90625 48.9845V69.7657C8.90739 70.1591 9.06414 70.536 9.34227 70.8141C9.6204 71.0922 9.99729 71.249 10.3906 71.2501C11.1773 71.2524 11.931 71.5659 12.4873 72.1222C13.0435 72.6784 13.3571 73.4322 13.3594 74.2189C13.3605 74.6122 13.5173 74.9891 13.7954 75.2672C14.0735 75.5454 14.4504 75.7021 14.8438 75.7032H74.2188C74.6121 75.7021 74.989 75.5454 75.2671 75.2672C75.5452 74.9891 75.702 74.6122 75.7031 74.2189C75.7054 73.4322 76.019 72.6784 76.5752 72.1222C77.1315 71.5659 77.8852 71.2524 78.6719 71.2501C79.0652 71.249 79.4421 71.0922 79.7202 70.8141C79.9984 70.536 80.1551 70.1591 80.1562 69.7657V56.4579C81.3245 58.2508 82.3186 60.1513 83.125 62.1335V77.1876C83.1239 77.581 82.9671 77.9578 82.689 78.236C82.4109 78.5141 82.034 78.6709 81.6406 78.672V78.672ZM77.1875 52.4694V68.4743C76.1626 68.7411 75.2274 69.2766 74.4785 70.0255C73.7296 70.7744 73.1941 71.7096 72.9273 72.7345H16.1352C15.8684 71.7096 15.3329 70.7744 14.584 70.0255C13.8351 69.2766 12.8999 68.7411 11.875 68.4743V50.2759C12.8999 50.0091 13.8351 49.4736 14.584 48.7247C15.3329 47.9758 15.8684 47.0407 16.1352 46.0157H50.3412L58.3255 54C58.5348 54.2032 58.7989 54.3407 59.0854 54.3954C59.3718 54.4502 59.668 54.42 59.9375 54.3084C60.2069 54.1968 60.4378 54.0087 60.6016 53.7674C60.7654 53.5262 60.8551 53.2422 60.8594 52.9506V43.5297C66.9293 43.3005 72.8055 47.3263 77.1875 52.4694V52.4694ZM86.1473 61.522C82.3283 51.9329 70.6337 38.1919 58.9546 40.9147C58.6475 41.0055 58.3779 41.1932 58.1862 41.4497C57.9944 41.7063 57.8908 42.0179 57.8906 42.3382V49.3672L42.4902 33.9668L57.8906 18.5664V25.5955C57.8908 25.9525 58.0195 26.2975 58.2532 26.5673C58.4869 26.8372 58.81 27.0139 59.1633 27.065C71.8863 28.8929 80.4562 33.4722 84.637 40.6751C88.5363 47.3986 87.9362 55.1298 86.1473 61.522ZM45.0778 57.8965V54.6915C45.4145 54.7672 45.7148 54.9569 45.9279 55.2284C46.141 55.4998 46.254 55.8365 46.2476 56.1816C46.2599 56.2902 46.3118 56.3905 46.3933 56.4633C46.4749 56.536 46.5804 56.5762 46.6897 56.576H48.2553C48.3141 56.5757 48.3723 56.5638 48.4266 56.5409C48.4808 56.5181 48.53 56.4848 48.5714 56.4429C48.6127 56.401 48.6454 56.3514 48.6676 56.2968C48.6898 56.2423 48.701 56.1839 48.7006 56.1251C48.7155 55.1487 48.3425 54.2062 47.6636 53.5043C46.9846 52.8024 46.0551 52.3984 45.0787 52.3809V51.5496C45.0787 50.879 43.2729 50.8797 43.2738 51.5496V52.3715C42.2974 52.4323 41.3809 52.863 40.711 53.5759C40.041 54.2889 39.6681 55.2303 39.6681 56.2086C39.6681 57.1869 40.041 58.1285 40.711 58.8414C41.3809 59.5543 42.2974 59.985 43.2738 60.0458V63.7597C42.1855 63.4726 41.8191 62.7809 41.807 61.5128C41.8071 61.4543 41.7957 61.3963 41.7734 61.3422C41.751 61.2881 41.7182 61.239 41.6769 61.1976C41.6355 61.1562 41.5863 61.1234 41.5322 61.1011C41.4782 61.0787 41.4202 61.0673 41.3617 61.0675H39.8041C39.7456 61.0673 39.6876 61.0787 39.6335 61.1011C39.5794 61.1234 39.5303 61.1562 39.4889 61.1976C39.4475 61.239 39.4147 61.2881 39.3924 61.3422C39.3701 61.3963 39.3587 61.4543 39.3588 61.5128C39.2893 62.0734 39.338 62.6423 39.5016 63.183C39.6652 63.7237 39.9402 64.2242 40.3088 64.6522C40.6775 65.0802 41.1316 65.4264 41.6421 65.6684C42.1525 65.9104 42.7079 66.0429 43.2726 66.0573V67.2735C43.2718 67.9434 45.0779 67.9441 45.0775 67.2735V66.0282C50.2661 65.4035 50.4827 58.6306 45.0778 57.8965V57.8965ZM43.2729 57.5574C42.935 57.4913 42.6306 57.3099 42.4117 57.0442C42.1928 56.7784 42.0732 56.4448 42.0732 56.1005C42.0732 55.7562 42.1928 55.4226 42.4117 55.1569C42.6306 54.8911 42.935 54.7097 43.2729 54.6437V57.5574ZM46.0287 63.3316C45.7613 63.5757 45.4327 63.7425 45.0778 63.8143V60.5015C45.3813 60.5502 45.6657 60.681 45.9002 60.8797C46.1348 61.0784 46.3105 61.3375 46.4084 61.6288C46.5063 61.9202 46.5227 62.2328 46.4558 62.5328C46.3889 62.8328 46.2412 63.1088 46.0287 63.331V63.3316Z" fill="#C4C4C4"/>
</svg>
