<svg width="20" height="33" viewBox="0 0 20 33" fill="none" xmlns="http://www.w3.org/2000/svg">
<path d="M0 4.00391C0 2.94304 0.421427 1.92562 1.17157 1.17548C1.92172 0.425334 2.93913 0.00390625 4 0.00390625L16 0.00390625C17.0609 0.00390625 18.0783 0.425334 18.8284 1.17548C19.5786 1.92562 20 2.94304 20 4.00391V28.0039C20 29.0648 19.5786 30.0822 18.8284 30.8323C18.0783 31.5825 17.0609 32.0039 16 32.0039H4C2.93913 32.0039 1.92172 31.5825 1.17157 30.8323C0.421427 30.0822 0 29.0648 0 28.0039V4.00391ZM12 26.0039C12 25.4735 11.7893 24.9648 11.4142 24.5897C11.0391 24.2146 10.5304 24.0039 10 24.0039C9.46957 24.0039 8.96086 24.2146 8.58579 24.5897C8.21071 24.9648 8 25.4735 8 26.0039C8 26.5343 8.21071 27.043 8.58579 27.4181C8.96086 27.7932 9.46957 28.0039 10 28.0039C10.5304 28.0039 11.0391 27.7932 11.4142 27.4181C11.7893 27.043 12 26.5343 12 26.0039Z" fill="#383838"/>
</svg>
