<svg width="95" height="95" viewBox="0 0 95 95" fill="none" xmlns="http://www.w3.org/2000/svg">
<g clip-path="url(#clip0_575_45)">
<path d="M78.9504 7.62158C71.6916 7.62158 65.9563 13.4465 65.9563 20.7053C65.9563 27.9641 71.7812 33.6994 78.9504 33.6994C86.1196 33.6994 92.0341 27.8745 92.0341 20.6157C92.0341 13.3569 86.2092 7.62158 78.9504 7.62158ZM78.9504 30.8318C73.3047 30.8318 68.7343 26.2614 68.7343 20.6157C68.7343 14.97 73.3943 10.4892 78.9504 10.4892C84.5961 10.4892 89.1665 15.0596 89.1665 20.7053C89.1665 26.351 84.5961 30.8318 78.9504 30.8318Z" fill="#C4C4C4"/>
<path d="M83.0727 22.6768C82.9831 22.408 82.9831 22.2287 82.8038 21.9599C82.7142 21.7807 82.6246 21.5118 82.4454 21.3326C82.2661 21.1534 82.1765 20.9741 81.9973 20.7949C81.8181 20.6157 81.6388 20.4364 81.37 20.3468C81.1908 20.1676 80.9219 20.078 80.7427 19.9884C80.4739 19.8988 80.2946 19.7195 80.0258 19.6299C79.7569 19.5403 79.4881 19.4507 79.3089 19.3611C79.2193 19.3611 79.04 19.2715 78.9504 19.1818C78.8608 19.0922 78.6816 19.0922 78.5919 19.0026C78.5023 18.913 78.3231 18.913 78.2335 18.8234C78.1439 18.7338 78.0543 18.6441 77.9646 18.5545C77.875 18.4649 77.7854 18.3753 77.7854 18.1961C77.6958 18.1065 77.6958 17.9272 77.6958 17.8376C77.6958 17.6584 77.6958 17.5688 77.6958 17.3895C77.6958 17.2999 77.7854 17.1207 77.7854 17.0311C77.875 16.9415 77.875 16.7622 77.9646 16.6726C78.0543 16.583 78.1439 16.4934 78.2335 16.4038C78.3231 16.3142 78.5023 16.2246 78.6816 16.2246C78.8608 16.1349 78.9504 16.1349 79.1296 16.1349C79.2193 16.1349 79.3089 16.1349 79.3985 16.1349C79.4881 16.1349 79.5777 16.1349 79.6673 16.1349C79.8466 16.1349 79.9362 16.1349 80.1154 16.2246C80.2946 16.2246 80.4739 16.3142 80.5635 16.3142C80.6531 16.3142 80.8323 16.4038 80.9219 16.4038C81.1012 16.4038 81.1908 16.4934 81.2804 16.4934L81.7285 16.6726L81.8181 16.1349L81.9973 14.7011V14.3426L81.6388 14.253C81.5492 14.253 81.37 14.1634 81.2804 14.1634C81.1908 14.1634 81.1012 14.0738 80.9219 14.0738C80.8323 14.0738 80.6531 13.9842 80.4739 13.9842C80.2946 13.9842 80.205 13.8946 80.0258 13.8946H79.9362V12.64V12.1919H79.4881H78.2335H77.7854V12.64V13.9842H77.6958C77.427 14.0738 77.1581 14.1634 76.8893 14.3426C76.6204 14.4323 76.4412 14.6115 76.262 14.7907C76.0827 14.9699 75.9035 15.1492 75.7243 15.418C75.5451 15.5973 75.4554 15.8661 75.3658 16.1349C75.2762 16.4038 75.1866 16.6726 75.097 16.9415C75.0074 17.2103 75.0074 17.5688 75.0074 17.8376C75.0074 18.1065 75.0074 18.2857 75.097 18.5545C75.1866 18.8234 75.1866 19.0026 75.3658 19.2714C75.4554 19.4507 75.6347 19.7195 75.7243 19.8988C75.9035 20.078 75.9931 20.2572 76.1724 20.4364C76.3516 20.6157 76.5308 20.7949 76.7997 20.8845C76.9789 21.0637 77.2477 21.1534 77.427 21.243C77.6958 21.3326 77.9646 21.5118 78.1439 21.6014C78.4127 21.691 78.6816 21.7807 78.8608 21.8703C78.9504 21.8703 79.1296 21.9599 79.2193 22.0495C79.3089 22.1391 79.4881 22.1391 79.5777 22.2287C79.6673 22.3183 79.7569 22.408 79.8466 22.408C79.9362 22.4976 80.0258 22.5872 80.1154 22.6768C80.205 22.7664 80.205 22.856 80.2946 23.0353C80.2946 23.1249 80.3842 23.3041 80.3842 23.4833C80.3842 23.6626 80.3842 23.7522 80.3842 23.9314C80.3842 24.021 80.2946 24.2003 80.205 24.2899C80.1154 24.3795 80.0258 24.4691 79.9362 24.5587C79.8465 24.6483 79.7569 24.7379 79.5777 24.8276C79.4881 24.9172 79.3089 24.9172 79.2193 25.0068C79.1296 25.0068 78.9504 25.0964 78.7712 25.0964C78.6816 25.0964 78.5919 25.0964 78.4127 25.0964C78.3231 25.0964 78.1439 25.0964 78.0543 25.0964C77.875 25.0964 77.6958 25.0964 77.6062 25.0964C77.427 25.0964 77.2477 25.0068 77.1581 25.0068C76.9789 25.0068 76.7997 24.9172 76.6204 24.8276C76.4412 24.7379 76.262 24.7379 76.0827 24.6483C75.9931 24.6483 75.9035 24.5587 75.8139 24.5587C75.7243 24.5587 75.6347 24.4691 75.5451 24.4691L75.0074 24.2003L74.9178 24.8276L74.7385 26.4406V26.7095L75.0074 26.7991C75.3658 26.7095 75.5451 26.7991 75.8139 26.8887C75.9931 26.9783 76.262 27.0679 76.4412 27.0679C76.6204 27.1575 76.8893 27.1575 77.1581 27.2472C77.427 27.3368 77.6062 27.3368 77.875 27.3368H78.0543V28.681V29.1291H78.5023H79.7569H80.205V28.681V27.2472H80.2946C80.5635 27.1575 80.8323 27.0679 81.1012 26.8887C81.37 26.7991 81.5492 26.6198 81.8181 26.4406C81.9973 26.2614 82.1765 26.0822 82.3558 25.8133C82.535 25.6341 82.6246 25.3652 82.8038 25.0964C82.8934 24.8276 82.9831 24.5587 83.0727 24.2899C83.1623 24.021 83.1623 23.7522 83.1623 23.3937C83.1623 23.1249 83.1623 22.9456 83.0727 22.6768Z" fill="#C4C4C4"/>
<path d="M72.6774 35.4022C72.2293 34.7749 71.2436 34.6852 70.6163 35.1333L56.0987 46.6936L37.3692 38.8971C36.9212 38.7179 36.3835 38.8075 36.025 39.0764L15.9514 53.4147C15.3241 53.8628 15.1448 54.7589 15.5929 55.3862C15.8617 55.8343 16.3098 56.0135 16.7579 56.0135C17.0267 56.0135 17.2956 55.9239 17.5644 55.7447L37.0108 41.8544L55.8298 49.6509C56.2779 49.8301 56.9052 49.7405 57.2637 49.4717L72.4085 37.4633C73.0358 37.0152 73.1255 36.0295 72.6774 35.4022Z" fill="#C4C4C4"/>
<path d="M93.6473 84.5108H87.0158V43.0193C87.0158 42.2127 86.3885 41.5854 85.5819 41.5854H72.4086C71.6021 41.5854 70.9748 42.2127 70.9748 43.0193V84.5108H66.1356V57.3576C66.1356 56.5511 65.5083 55.9238 64.7017 55.9238H51.4388C50.6323 55.9238 50.0049 56.5511 50.0049 57.3576V84.5108H45.1658V55.2069C45.1658 54.4003 44.5385 53.773 43.7319 53.773H30.5586C29.752 53.773 29.1247 54.4003 29.1247 55.2069V84.5108H24.2856V63.6306C24.2856 62.8241 23.6583 62.1968 22.8517 62.1968H9.58876C8.78223 62.1968 8.15493 62.8241 8.15493 63.6306V84.5108H1.43383C0.627302 84.5108 0 85.1381 0 85.9447C0 86.7512 0.627302 87.3785 1.43383 87.3785H9.49915H22.6725H30.5586H43.7319H51.4388H64.6121H72.319H85.4923H93.5576C94.3642 87.3785 94.9915 86.7512 94.9915 85.9447C95.0811 85.1381 94.4538 84.5108 93.6473 84.5108ZM21.3283 84.5108H11.0226V65.0645H21.3283V84.5108ZM42.2981 84.5108H31.9924V56.6407H42.2981V84.5108ZM63.1783 84.5108H52.8726V58.7914H63.1783V84.5108ZM84.1481 84.5108H73.8424V44.4531H84.1481V84.5108Z" fill="#C4C4C4"/>
</g>
<defs>
<clipPath id="clip0_575_45">
<rect width="95" height="95" fill="white"/>
</clipPath>
</defs>
</svg>
