<svg width="68" height="68" viewBox="0 0 68 68" fill="none" xmlns="http://www.w3.org/2000/svg">
<path d="M24.4375 47.8124H43.5625V36.9919C44.7961 36.5521 45.6875 35.3833 45.6875 33.9999V31.4351L34 19.7476L22.3125 31.4351V33.9999C22.3125 35.3833 23.2039 36.5521 24.4375 36.9919V47.8124ZM24.4375 32.9374H26.5625V33.9999C26.5625 34.5864 26.0865 35.0624 25.5 35.0624C24.9135 35.0624 24.4375 34.5864 24.4375 33.9999V32.9374ZM28.6875 32.9374H30.8125V33.9999C30.8125 34.5864 30.3365 35.0624 29.75 35.0624C29.1635 35.0624 28.6875 34.5864 28.6875 33.9999V32.9374ZM31.3193 30.8124L34 24.1112L36.6807 30.8124H31.3193ZM32.9375 32.9374H35.0625V33.9999C35.0625 34.5864 34.5865 35.0624 34 35.0624C33.4135 35.0624 32.9375 34.5864 32.9375 33.9999V32.9374ZM37.1875 32.9374H39.3125V33.9999C39.3125 34.5864 38.8365 35.0624 38.25 35.0624C37.6635 35.0624 37.1875 34.5864 37.1875 33.9999V32.9374ZM38.9693 30.8124L36.9091 25.6614L42.0601 30.8124H38.9693ZM29.0307 30.8124H25.9399L31.0909 25.6614L29.0307 30.8124ZM37.1875 45.6874H30.8125V44.6249C30.8125 42.8675 32.2426 41.4374 34 41.4374C35.7574 41.4374 37.1875 42.8675 37.1875 44.6249V45.6874ZM39.3125 45.6874V44.6249C39.3125 41.6956 36.9293 39.3124 34 39.3124C31.0707 39.3124 28.6875 41.6956 28.6875 44.6249V45.6874H26.5625V36.9919C26.9599 36.8506 27.3179 36.636 27.625 36.3587C28.1902 36.8687 28.9308 37.1874 29.75 37.1874C30.5692 37.1874 31.3097 36.8676 31.875 36.3587C32.4403 36.8687 33.1808 37.1874 34 37.1874C34.8192 37.1874 35.5597 36.8676 36.125 36.3587C36.6903 36.8687 37.4308 37.1874 38.25 37.1874C39.0692 37.1874 39.8097 36.8676 40.375 36.3587C40.6821 36.6349 41.0401 36.8506 41.4375 36.9919V45.6874H39.3125ZM42.5 35.0624C41.9135 35.0624 41.4375 34.5864 41.4375 33.9999V32.9374H43.5625V33.9999C43.5625 34.5864 43.0865 35.0624 42.5 35.0624Z" fill="#C4C4C4"/>
<path d="M24.4375 49.9375H30.8125V52.0625H24.4375V49.9375Z" fill="#C4C4C4"/>
<path d="M32.9375 49.9375H43.5625V52.0625H32.9375V49.9375Z" fill="#C4C4C4"/>
<path d="M24.4375 54.1875H43.5625V56.3125H24.4375V54.1875Z" fill="#C4C4C4"/>
<path d="M34 13.8125C34.5868 13.8125 35.0625 13.3368 35.0625 12.75C35.0625 12.1632 34.5868 11.6875 34 11.6875C33.4132 11.6875 32.9375 12.1632 32.9375 12.75C32.9375 13.3368 33.4132 13.8125 34 13.8125Z" fill="#C4C4C4"/>
<path d="M29.75 13.8125C30.3368 13.8125 30.8125 13.3368 30.8125 12.75C30.8125 12.1632 30.3368 11.6875 29.75 11.6875C29.1632 11.6875 28.6875 12.1632 28.6875 12.75C28.6875 13.3368 29.1632 13.8125 29.75 13.8125Z" fill="#C4C4C4"/>
<path d="M25.5 14.875C26.0868 14.875 26.5625 14.3993 26.5625 13.8125C26.5625 13.2257 26.0868 12.75 25.5 12.75C24.9132 12.75 24.4375 13.2257 24.4375 13.8125C24.4375 14.3993 24.9132 14.875 25.5 14.875Z" fill="#C4C4C4"/>
<path d="M42.5 14.875C43.0868 14.875 43.5625 14.3993 43.5625 13.8125C43.5625 13.2257 43.0868 12.75 42.5 12.75C41.9132 12.75 41.4375 13.2257 41.4375 13.8125C41.4375 14.3993 41.9132 14.875 42.5 14.875Z" fill="#C4C4C4"/>
<path d="M38.25 13.8125C38.8368 13.8125 39.3125 13.3368 39.3125 12.75C39.3125 12.1632 38.8368 11.6875 38.25 11.6875C37.6632 11.6875 37.1875 12.1632 37.1875 12.75C37.1875 13.3368 37.6632 13.8125 38.25 13.8125Z" fill="#C4C4C4"/>
<path d="M61.3913 17.3889C64.753 15.7431 66.9375 12.3229 66.9375 8.5C66.9375 4.39981 63.6002 1.0625 59.5 1.0625C58.3589 1.0625 57.2804 1.32919 56.3125 1.79031V1.0625H11.6875V27.2903C10.7196 26.8292 9.64112 26.5625 8.5 26.5625C4.39981 26.5625 1.0625 29.8998 1.0625 34C1.0625 38.2723 3.78569 42.0484 7.837 43.3989L7.92519 43.4286L11.0118 46.5152C11.4474 46.9508 11.6875 47.5299 11.6875 48.1461C11.6875 49.2777 10.8768 50.235 9.76013 50.422L8.31194 50.6642C6.57475 50.9532 5.3125 52.4418 5.3125 54.2034C5.3125 55.1491 5.695 56.0734 6.36331 56.7417L7.12619 57.5046C7.32487 57.7023 7.4375 57.9753 7.4375 58.2547V60.5625H9.5625V58.2547C9.5625 57.4037 9.22994 56.6026 8.62856 56.0012L7.86569 55.2383C7.59369 54.9652 7.4375 54.5891 7.4375 54.2034C7.4375 53.4852 7.95175 52.8774 8.6615 52.7595L10.1086 52.5173C10.6856 52.4206 11.2136 52.2113 11.6864 51.9233V66.9375H56.3114V29.2347V16.6271C57.0754 17.1583 57.9201 17.5929 58.8359 17.8989L58.9241 17.9286L62.0107 21.0152C62.4463 21.4508 62.6864 22.0299 62.6864 22.6461C62.6864 23.7777 61.8758 24.735 60.7591 24.922L59.8358 25.0771C57.7947 25.415 56.3125 27.1639 56.3125 29.2347C56.3125 30.5522 56.9415 31.8123 57.9944 32.6028L59.7178 33.8991C60.2544 34.3007 60.5625 34.9191 60.5625 35.5938V38.25H62.6875V35.5938C62.6875 34.2635 62.0542 32.9949 60.9939 32.1991L59.2705 30.9039C58.7488 30.5129 58.4375 29.8881 58.4375 29.2347C58.4375 28.2083 59.1717 27.3413 60.1864 27.1724L61.1097 27.0173C63.2549 26.6592 64.8125 24.82 64.8125 22.6451C64.8125 21.4614 64.3514 20.349 63.5141 19.5118L61.3913 17.3889ZM54.1875 3.30544C53.3779 4.13313 52.7584 5.14569 52.4036 6.27619L49.3149 3.1875H54.1875V3.30544ZM13.8125 40.1242C15.1544 38.4189 15.9375 36.2822 15.9375 34C15.9375 31.9791 15.1247 30.1474 13.8125 28.8054V19.6934L16.8502 21.7186L15.4998 27.1192L18.0625 26.265V55.6899L22.9351 60.5625H45.0649L49.9375 55.6899V26.265L52.5002 27.1192L51.1498 21.7186L54.1875 19.6934V56.9351L46.3101 64.8125H21.6899L13.8125 56.9351V40.1242ZM20.1875 25.5574L27.9671 22.9638L26.3404 18.8966C28.1956 18.4578 30.7604 18.0625 34 18.0625C37.2598 18.0625 39.8183 18.4524 41.6628 18.8881L40.0329 22.9649L47.8125 25.5574V54.8101L44.1851 58.4375H23.8149L20.1875 54.8101V25.5574ZM49.4998 23.8808L42.8421 21.6612L43.7176 19.4724C44.6717 19.7976 45.1701 20.0536 45.1817 20.06L46.0339 20.5211L47.9102 17.7066L51.0117 19.2578L48.7252 20.7825L49.4998 23.8808ZM45.3029 17.7873C43.6921 17.1381 39.916 15.9375 34 15.9375C28.1318 15.9375 24.3206 17.1456 22.7003 17.7916L19.5341 13.0411C21.3393 11.9468 26.1704 9.5625 34 9.5625C41.8317 9.5625 46.6639 11.9478 48.4659 13.0411L45.3029 17.7873ZM21.9608 20.5062L22.8066 20.0664C22.8204 20.0589 23.3261 19.8039 24.2856 19.4799L25.1579 21.6612L18.5002 23.8808L19.2748 20.7814L16.9883 19.2568L20.0919 17.7044L21.9608 20.5062ZM49.0992 15.9237L51.3602 12.5322L50.6047 11.9234C50.3774 11.7406 44.9204 7.4375 34 7.4375C23.0796 7.4375 17.6226 11.7406 17.3953 11.9234L16.6398 12.5322L18.9029 15.9237L13.8125 18.4684V11.0649L21.6899 3.1875H46.3101L52.0806 8.95794C52.1772 11.067 52.9359 13.0337 54.1875 14.6243V18.4684L49.0992 15.9237ZM18.6851 3.1875L13.8125 8.06012V3.1875H18.6851ZM3.1875 34C3.1875 31.0707 5.57069 28.6875 8.5 28.6875C11.4293 28.6875 13.8125 31.0707 13.8125 34C13.8125 36.0272 13.0231 37.9036 11.7034 39.3125H11.6875V39.3316C10.8269 40.2443 9.74844 40.9626 8.5 41.3801C5.32206 40.3166 3.1875 37.3522 3.1875 34ZM10.3912 42.8889C10.846 42.6668 11.2784 42.4118 11.6875 42.1271V44.1851L10.3912 42.8889ZM13.8125 59.9399L18.6851 64.8125H13.8125V59.9399ZM49.3149 64.8125L54.1875 59.9399V64.8125H49.3149ZM54.1875 8.5C54.1875 5.57069 56.5707 3.1875 59.5 3.1875C62.4293 3.1875 64.8125 5.57069 64.8125 8.5C64.8125 11.8522 62.6779 14.8166 59.5 15.8801C56.3221 14.8166 54.1875 11.8522 54.1875 8.5Z" fill="#C4C4C4"/>
</svg>
