<svg width="20" height="20" viewBox="0 0 20 20" fill="none" xmlns="http://www.w3.org/2000/svg">
<path d="M0 2.625C0 1.175 1.175 0 2.625 0H15.375C16.825 0 18 1.175 18 2.625V9.022C17.61 8.772 17.191 8.5625 16.75 8.4V2.625C16.75 2.26033 16.6051 1.91059 16.3473 1.65273C16.0894 1.39487 15.7397 1.25 15.375 1.25H2.625C2.26033 1.25 1.91059 1.39487 1.65273 1.65273C1.39487 1.91059 1.25 2.26033 1.25 2.625V15.375C1.25 15.7397 1.39487 16.0894 1.65273 16.3473C1.91059 16.6051 2.26033 16.75 2.625 16.75H8.4C8.5625 17.191 8.772 17.61 9.022 18H2.625C1.92881 18 1.26113 17.7234 0.768845 17.2312C0.276562 16.7389 0 16.0712 0 15.375V2.625Z" fill="#383838"/>
<path d="M2 7.75C2 7.15326 2.23705 6.58097 2.65901 6.15901C3.08097 5.73705 3.65326 5.5 4.25 5.5C4.84674 5.5 5.41903 5.73705 5.84099 6.15901C6.26295 6.58097 6.5 7.15326 6.5 7.75C6.5 8.34674 6.26295 8.91903 5.84099 9.34099C5.41903 9.76295 4.84674 10 4.25 10C3.65326 10 3.08097 9.76295 2.65901 9.34099C2.23705 8.91903 2 8.34674 2 7.75ZM4.25 6.75C3.98478 6.75 3.73043 6.85536 3.54289 7.04289C3.35536 7.23043 3.25 7.48478 3.25 7.75C3.25 8.01522 3.35536 8.26957 3.54289 8.45711C3.73043 8.64464 3.98478 8.75 4.25 8.75C4.51522 8.75 4.76957 8.64464 4.95711 8.45711C5.14464 8.26957 5.25 8.01522 5.25 7.75C5.25 7.48478 5.14464 7.23043 4.95711 7.04289C4.76957 6.85536 4.51522 6.75 4.25 6.75Z" fill="#383838"/>
<path d="M4.25 11.5C3.65326 11.5 3.08097 11.7371 2.65901 12.159C2.23705 12.581 2 13.1533 2 13.75C2 14.3467 2.23705 14.919 2.65901 15.341C3.08097 15.7629 3.65326 16 4.25 16C4.84674 16 5.41903 15.7629 5.84099 15.341C6.26295 14.919 6.5 14.3467 6.5 13.75C6.5 13.1533 6.26295 12.581 5.84099 12.159C5.41903 11.7371 4.84674 11.5 4.25 11.5ZM3.25 13.75C3.25 13.4848 3.35536 13.2304 3.54289 13.0429C3.73043 12.8554 3.98478 12.75 4.25 12.75C4.51522 12.75 4.76957 12.8554 4.95711 13.0429C5.14464 13.2304 5.25 13.4848 5.25 13.75C5.25 14.0152 5.14464 14.2696 4.95711 14.4571C4.76957 14.6446 4.51522 14.75 4.25 14.75C3.98478 14.75 3.73043 14.6446 3.54289 14.4571C3.35536 14.2696 3.25 14.0152 3.25 13.75Z" fill="#383838"/>
<path d="M7.50049 7.125C7.50049 6.78 7.78049 6.5 8.12549 6.5H15.375C15.4571 6.5 15.5383 6.51617 15.6142 6.54757C15.69 6.57898 15.7589 6.62502 15.8169 6.68306C15.875 6.74109 15.921 6.80999 15.9524 6.88582C15.9838 6.96165 16 7.04292 16 7.125C16 7.20708 15.9838 7.28835 15.9524 7.36418C15.921 7.44001 15.875 7.50891 15.8169 7.56694C15.7589 7.62498 15.69 7.67102 15.6142 7.70243C15.5383 7.73383 15.4571 7.75 15.375 7.75H8.12549C7.78049 7.75 7.50049 7.47 7.50049 7.125Z" fill="#383838"/>
<path d="M2.63135 2.54749C2.46559 2.54749 2.30662 2.61333 2.18941 2.73054C2.0722 2.84775 2.00635 3.00673 2.00635 3.17249C2.00635 3.33825 2.0722 3.49722 2.18941 3.61443C2.30662 3.73164 2.46559 3.79749 2.63135 3.79749H15.3648C15.5306 3.79749 15.6896 3.73164 15.8068 3.61443C15.924 3.49722 15.9898 3.33825 15.9898 3.17249C15.9898 3.00673 15.924 2.84775 15.8068 2.73054C15.6896 2.61333 15.5306 2.54749 15.3648 2.54749H2.63135Z" fill="#383838"/>
<path d="M20 14.5C20 17.5375 17.5375 20 14.5 20C11.4625 20 9 17.5375 9 14.5C9 11.4625 11.4625 9 14.5 9C17.5375 9 20 11.4625 20 14.5ZM15 11C15 10.8674 14.9473 10.7402 14.8536 10.6464C14.7598 10.5527 14.6326 10.5 14.5 10.5C14.3674 10.5 14.2402 10.5527 14.1464 10.6464C14.0527 10.7402 14 10.8674 14 11V14H11C10.8674 14 10.7402 14.0527 10.6464 14.1464C10.5527 14.2402 10.5 14.3674 10.5 14.5C10.5 14.6326 10.5527 14.7598 10.6464 14.8536C10.7402 14.9473 10.8674 15 11 15H14V18C14 18.1326 14.0527 18.2598 14.1464 18.3536C14.2402 18.4473 14.3674 18.5 14.5 18.5C14.6326 18.5 14.7598 18.4473 14.8536 18.3536C14.9473 18.2598 15 18.1326 15 18V15H18C18.1326 15 18.2598 14.9473 18.3536 14.8536C18.4473 14.7598 18.5 14.6326 18.5 14.5C18.5 14.3674 18.4473 14.2402 18.3536 14.1464C18.2598 14.0527 18.1326 14 18 14H15V11Z" fill="#383838"/>
</svg>
