<svg width="80" height="80" viewBox="0 0 80 80" fill="none" xmlns="http://www.w3.org/2000/svg">
<g clip-path="url(#clip0_609_20)">
<path d="M78.8116 11.5961H73.3466C72.6904 11.5961 72.1588 12.1283 72.1588 12.7844V21.59C72.1588 22.2461 72.6904 22.7783 73.3466 22.7783C74.0033 22.7783 74.5349 22.2461 74.5349 21.59V13.9728H77.6239V50.1032H74.5349V25.5506C74.5349 24.8944 74.0033 24.3622 73.3466 24.3622C72.6904 24.3622 72.1588 24.8944 72.1588 25.5506V50.1032H59.8407V40.6891C59.8407 38.0847 57.7216 35.9656 55.1172 35.9656H47.981C48.3575 34.9542 48.5535 33.8745 48.5535 32.7692C48.5535 29.7974 47.1136 27.0343 44.7528 25.3961V20.481C44.7528 19.8248 44.2212 19.2926 43.5651 19.2926H41.1688V16.7359C44.2249 16.1749 46.5485 13.4937 46.5485 10.2777V7.3102C46.5485 6.81642 46.2433 6.37392 45.7819 6.19875L44.7815 5.81911V1.18837C44.7815 0.784317 44.5758 0.40834 44.2365 0.189224C43.8965 -0.0292817 43.4692 -0.0604097 43.1012 0.106827L37.0148 2.87355L35.0226 2.11794C34.657 1.97939 34.2474 2.02882 33.9264 2.25099C33.6047 2.47255 33.4131 2.83815 33.4131 3.22878V10.2777C33.4131 13.4931 35.7367 16.1749 38.7927 16.7359V19.2926H36.4362C35.78 19.2926 35.2484 19.8242 35.2484 20.4804V25.3955C32.887 27.0331 31.4459 29.7968 31.4459 32.7686C31.4459 33.8745 31.6418 34.9542 32.019 35.965H24.8834C22.2784 35.965 20.1593 38.0841 20.1593 40.6891V50.1032H7.84119V12.7844C7.84119 12.1283 7.30957 11.5961 6.65344 11.5961H1.18835C0.532227 11.5961 0 12.1283 0 12.7844V56.7566C0 57.4127 0.532227 57.945 1.18835 57.945H3.38867V70.3003C3.38867 70.9564 3.9209 71.4887 4.57703 71.4887C5.23315 71.4887 5.76477 70.9564 5.76477 70.3003V57.945H7.66602V77.5257H5.76477V74.2615C5.76477 73.6048 5.23315 73.0731 4.57703 73.0731C3.9209 73.0731 3.38867 73.6048 3.38867 74.2615V78.714C3.38867 79.3701 3.9209 79.9024 4.57703 79.9024H8.85376C9.50989 79.9024 10.0421 79.3701 10.0421 78.714V71.4887H20.1593V78.714C20.1593 79.3701 20.6909 79.9017 21.347 79.9017H25.6244C26.2805 79.9017 26.8127 79.3701 26.8127 78.714V65.4669C27.3694 65.5896 28.0194 65.6671 28.808 65.6671C30.9589 65.6671 32.0844 65.0934 33.078 64.5874C33.8586 64.1895 34.5447 63.8422 35.8331 63.7781V73.0066H29.4843C28.8281 73.0066 28.2965 73.5388 28.2965 74.195V78.714C28.2965 79.3701 28.8281 79.9024 29.4843 79.9024H50.5157C51.1719 79.9024 51.7041 79.3701 51.7041 78.714V74.195C51.7041 73.5388 51.1719 73.0066 50.5157 73.0066H44.1687V65.658C46.037 65.586 47.0764 65.058 47.9999 64.5874C48.8641 64.1467 49.6112 63.7665 51.1914 63.7665C52.0532 63.7665 52.6666 63.88 53.1873 64.0546V78.714C53.1873 79.3701 53.7195 79.9024 54.3756 79.9024H58.653C59.3091 79.9024 59.8407 79.3701 59.8407 78.714V71.4887H69.9585V78.714C69.9585 79.3701 70.4901 79.9024 71.1462 79.9024H75.4236C76.0797 79.9024 76.6119 79.3701 76.6119 78.714V57.945H78.8116C79.4678 57.945 80 57.4127 80 56.7566V12.7844C80 12.1283 79.4678 11.5961 78.8116 11.5961V11.5961ZM42.4048 3.03346V4.91823L40.1447 4.06068L42.4048 3.03346ZM35.7892 10.2777V4.94997L44.1718 8.1299V10.2777C44.1718 12.5891 42.2919 14.4696 39.9805 14.4696C37.6697 14.4696 35.7892 12.5891 35.7892 10.2777V10.2777ZM49.3274 77.5257H30.6726V75.3833H49.3274V77.5257ZM33.822 32.7692C33.822 30.401 35.0513 28.2202 37.0306 27.077C37.3981 26.8646 37.6245 26.4728 37.6245 26.048V21.6687H42.3767V26.048C42.3767 26.4722 42.6031 26.8646 42.97 27.0764C44.9481 28.2202 46.1774 30.4016 46.1774 32.7692C46.1774 33.9014 45.9015 34.9945 45.3772 35.9656H34.6228C34.0985 34.9951 33.822 33.9026 33.822 32.7692ZM2.3761 13.9728H5.46509V50.1032H2.3761V13.9728ZM2.3761 55.5683V52.4799H20.1593V55.5683H2.3761ZM10.0421 69.1126V57.945H20.1593V69.1126H10.0421ZM22.5354 77.5257V63.8556C23.3228 63.9856 23.8623 64.2438 24.436 64.5355V77.5257H22.5354ZM38.2086 64.0363C38.6664 64.184 39.0503 64.3787 39.4598 64.5868C40.1013 64.914 40.7996 65.268 41.7926 65.4785V73.006H38.2092V64.0363H38.2086ZM46.9208 62.4701C46.0565 62.9108 45.3094 63.291 43.7292 63.291C42.1497 63.291 41.4032 62.9108 40.5383 62.4701C39.5453 61.9641 38.4192 61.3898 36.2689 61.3898C34.118 61.3898 32.9926 61.9641 31.9989 62.4701C31.1346 62.9108 30.3882 63.291 28.808 63.291C27.2278 63.291 26.4813 62.9108 25.6171 62.4701C24.8248 62.0667 23.9484 61.6199 22.5354 61.4551V40.6891C22.5354 39.3945 23.5889 38.3417 24.8828 38.3417H55.1166C56.4111 38.3417 57.464 39.3945 57.464 40.6891V63.2025C56.629 63.0652 56.0748 62.7826 55.4608 62.4701C54.4678 61.9641 53.3417 61.3898 51.1908 61.3898C49.0399 61.3898 47.9144 61.9635 46.9208 62.4701ZM55.5634 77.5257V65.1355C56.087 65.3394 56.6968 65.5115 57.4646 65.6006V77.5257H55.5634ZM59.8407 69.1126V57.945H69.9579V69.1126H59.8407ZM74.2352 77.5257H72.334V57.945H74.2352V77.5257ZM77.6239 55.5683H59.8407V52.4799H77.6239V55.5683Z" fill="#C4C4C4"/>
</g>
<defs>
<clipPath id="clip0_609_20">
<rect width="80" height="80" fill="white"/>
</clipPath>
</defs>
</svg>
