<svg width="110" height="73" viewBox="0 0 110 73" fill="none" xmlns="http://www.w3.org/2000/svg">
<path d="M108.389 51.6663C103.637 51.6663 101.231 52.597 98.905 53.4969C96.7605 54.3267 94.7345 55.1106 90.5844 55.1106C86.434 55.1106 84.4082 54.3269 82.2635 53.4969C79.9373 52.597 77.532 51.6663 72.7798 51.6663C68.0307 51.6663 65.6268 52.5972 63.302 53.4972C61.1589 54.3269 59.1347 55.1106 54.9878 55.1106C50.8391 55.1106 48.8142 54.3269 46.6705 53.4972C44.345 52.597 41.9405 51.6663 37.1901 51.6663C32.4412 51.6663 30.0373 52.5972 27.7125 53.4972C25.5694 54.3269 23.5454 55.1106 19.3985 55.1106C15.2528 55.1106 13.2292 54.3269 11.0868 53.4972C8.76262 52.597 6.35938 51.6663 1.61133 51.6663C0.721445 51.6663 0 52.3877 0 53.2776C0 54.1675 0.721445 54.8889 1.61133 54.8889C5.75695 54.8889 7.78035 55.6727 9.92299 56.5024C12.2472 57.4026 14.6504 58.3333 19.3985 58.3333C24.1474 58.3333 26.5512 57.4024 28.8761 56.5024C31.0191 55.6727 33.0432 54.8889 37.1901 54.8889C41.3385 54.8889 43.3634 55.6727 45.5071 56.5024C47.8326 57.4026 50.2373 58.3333 54.9878 58.3333C59.7369 58.3333 62.1408 57.4024 64.4656 56.5024C66.6087 55.6727 68.6329 54.8889 72.7798 54.8889C76.93 54.8889 78.9559 55.6727 81.1005 56.5026C83.4268 57.4026 85.8322 58.3333 90.5844 58.3333C95.3365 58.3333 97.7417 57.4026 100.068 56.5026C102.213 55.6729 104.239 54.8889 108.389 54.8889C109.279 54.8889 110 54.1675 110 53.2776C110 52.3877 109.279 51.6663 108.389 51.6663Z" fill="#C4C4C4"/>
<path d="M101.281 61.1969C100.961 60.3665 100.028 59.953 99.1977 60.2731L98.904 60.3865C97.934 60.7619 97.0177 61.1164 95.9274 61.3995C95.0661 61.6234 94.5492 62.503 94.7728 63.3643C94.9612 64.0898 95.615 64.5708 96.3313 64.5708C96.4656 64.5708 96.6018 64.5539 96.7376 64.5186C98.0077 64.1886 99.0544 63.7836 100.067 63.3918L100.357 63.2798C101.187 62.9597 101.601 62.0271 101.281 61.1969Z" fill="#C4C4C4"/>
<path d="M89.5015 61.9811C86.0638 61.8571 84.2174 61.1428 82.2626 60.3863C79.9362 59.4863 77.5309 58.5556 72.7789 58.5556C68.0298 58.5556 65.6259 59.4865 63.3011 60.3865C61.158 61.2163 59.1338 62 54.9869 62C50.8382 62 48.8135 61.2163 46.6696 60.3863C44.3442 59.4863 41.9396 58.5554 37.1892 58.5554C32.4403 58.5554 30.0364 59.4863 27.7116 60.3863C25.7615 61.1415 23.9194 61.8546 20.4956 61.9802C19.6062 62.0129 18.9118 62.7603 18.9445 63.6496C18.9771 64.539 19.7248 65.2315 20.6138 65.2007C24.5785 65.0553 26.7631 64.2095 28.8754 63.3915C31.0185 62.5618 33.0425 61.7781 37.1894 61.7781C41.3378 61.7781 43.3627 62.5618 45.5065 63.3918C47.8319 64.2917 50.2367 65.2227 54.9871 65.2227C59.7362 65.2227 62.1401 64.2917 64.4649 63.3918C66.608 62.562 68.6322 61.7783 72.7792 61.7783C76.9293 61.7783 78.9553 62.562 81.0998 63.392C83.2171 64.2112 85.4064 65.0583 89.3855 65.2018C90.2692 65.2334 91.0217 64.539 91.0538 63.6496C91.0858 62.7601 90.3908 62.0131 89.5015 61.9811Z" fill="#C4C4C4"/>
<path d="M72.7792 65.4443C68.0301 65.4443 65.6262 66.3753 63.3013 67.2752C61.1583 68.105 59.134 68.8887 54.9871 68.8887C50.8385 68.8887 48.8138 68.105 46.6699 67.2752C44.3444 66.375 41.9399 65.4443 37.1895 65.4443C36.2996 65.4443 35.5781 66.1658 35.5781 67.0557C35.5781 67.9455 36.2996 68.667 37.1895 68.667C41.3379 68.667 43.3628 69.4507 45.5067 70.2805C47.8322 71.1807 50.2367 72.1114 54.9871 72.1114C59.7362 72.1114 62.1401 71.1804 64.4649 70.2805C66.608 69.4507 68.6323 68.667 72.7792 68.667C73.6691 68.667 74.3905 67.9455 74.3905 67.0557C74.3905 66.1658 73.6691 65.4443 72.7792 65.4443Z" fill="#C4C4C4"/>
<path d="M14.0738 61.4033C12.977 61.1191 12.0577 60.7629 11.0845 60.3858C10.2547 60.0644 9.32124 60.4765 8.99984 61.3062C8.67843 62.1362 9.0905 63.0694 9.92023 63.3908C10.9364 63.7844 11.9872 64.1916 13.2651 64.5228C13.4007 64.5581 13.5367 64.5748 13.6705 64.5748C14.387 64.5748 15.041 64.0932 15.2292 63.3674C15.4527 62.5059 14.9353 61.6268 14.0738 61.4033Z" fill="#C4C4C4"/>
<path d="M76.1158 29.9729C71.3018 23.0672 63.4084 18.9443 55.0007 18.9443C40.8174 18.9443 29.2783 30.4832 29.2783 44.6667C29.2781 45.2788 29.2998 45.8965 29.3428 46.5026C29.4027 47.3516 30.1102 48.0004 30.9485 48.0004C30.9868 48.0004 31.025 47.9992 31.0637 47.9964C31.9514 47.9336 32.6202 47.1632 32.5575 46.2755C32.5199 45.7444 32.501 45.2032 32.501 44.6667C32.501 32.2603 42.5941 22.167 55.0007 22.167C62.355 22.167 69.2603 25.774 73.4719 31.8158C73.9809 32.5457 74.985 32.7248 75.7153 32.2163C76.4453 31.7073 76.6245 30.7029 76.1158 29.9729Z" fill="#C4C4C4"/>
<path d="M22.2777 43.0557H11.9443C11.0545 43.0557 10.333 43.7771 10.333 44.667C10.333 45.5569 11.0545 46.2783 11.9443 46.2783H22.2777C23.1676 46.2783 23.889 45.5569 23.889 44.667C23.889 43.7771 23.1676 43.0557 22.2777 43.0557Z" fill="#C4C4C4"/>
<path d="M55 0C54.1101 0 53.3887 0.721445 53.3887 1.61133V11.9447C53.3887 12.8348 54.1101 13.556 55 13.556C55.8899 13.556 56.6113 12.8346 56.6113 11.9447V1.61133C56.6113 0.721445 55.8899 0 55 0Z" fill="#C4C4C4"/>
<path d="M86.5848 13.0828C85.9555 12.4535 84.9352 12.4535 84.3061 13.0828L76.9993 20.3896C76.37 21.0189 76.37 22.0392 76.9993 22.6683C77.3138 22.9828 77.7261 23.1403 78.1386 23.1403C78.5509 23.1403 78.9634 22.983 79.2779 22.6683L86.5848 15.3614C87.2141 14.7322 87.2141 13.7119 86.5848 13.0828Z" fill="#C4C4C4"/>
<path d="M43.9663 13.8189L42.6482 10.6366C42.3077 9.81443 41.3652 9.42427 40.543 9.76458C39.7208 10.1051 39.3304 11.0478 39.6709 11.8698L40.989 15.0521C41.2459 15.6726 41.846 16.0473 42.4783 16.0473C42.6839 16.0473 42.8927 16.0077 43.0942 15.9241C43.9165 15.5836 44.3068 14.6409 43.9663 13.8189Z" fill="#C4C4C4"/>
<path d="M89.9028 30.2099C89.5622 29.3879 88.6197 28.9974 87.7975 29.3379L84.6152 30.656C83.793 30.9963 83.4027 31.939 83.7432 32.7612C84.0001 33.3817 84.6002 33.7564 85.2325 33.7564C85.4381 33.7564 85.6469 33.7168 85.8484 33.6333L89.0307 32.3152C89.8529 31.9747 90.2433 31.0319 89.9028 30.2099Z" fill="#C4C4C4"/>
<path d="M69.4575 9.76443C68.6355 9.4239 67.6928 9.81427 67.3523 10.6365L66.0342 13.8187C65.6937 14.6407 66.084 15.5833 66.9063 15.924C67.1078 16.0076 67.3168 16.0471 67.5222 16.0471C68.1545 16.0471 68.7546 15.6724 69.0115 15.0519L70.3296 11.8697C70.6701 11.0475 70.2797 10.105 69.4575 9.76443Z" fill="#C4C4C4"/>
<path d="M25.3842 30.6557L22.202 29.3377C21.3795 28.9971 20.4372 29.3875 20.0967 30.2097C19.7562 31.0319 20.1465 31.9744 20.9688 32.315L24.151 33.633C24.3528 33.7166 24.5616 33.7561 24.767 33.7561C25.3993 33.7561 25.9993 33.3815 26.2563 32.761C26.5968 31.9388 26.2064 30.9963 25.3842 30.6557Z" fill="#C4C4C4"/>
<path d="M25.108 10.3335C22.7279 10.3335 20.4297 11.1267 18.5361 12.5853C17.6735 12.3152 16.7845 12.1786 15.8819 12.1786C10.9236 12.1786 6.88965 16.2125 6.88965 21.1709C6.88965 22.0607 7.61109 22.7822 8.50098 22.7822H34.3342C35.2241 22.7822 35.9455 22.0607 35.9455 21.1709C35.9455 15.1952 31.0838 10.3335 25.108 10.3335ZM10.3413 19.5593C11.0402 17.1597 13.2596 15.4012 15.8819 15.4012C16.6758 15.4012 17.457 15.5684 18.2037 15.8982C18.7922 16.1579 19.4786 16.043 19.9502 15.6055C21.3755 14.2838 23.2075 13.5559 25.1082 13.5559C28.7543 13.5559 31.81 16.1319 32.5517 19.5593H10.3413Z" fill="#C4C4C4"/>
<path d="M82.0636 37.3968C81.1611 37.3968 80.272 37.5333 79.4094 37.8035C77.5158 36.345 75.2174 35.5518 72.8376 35.5518C66.8617 35.5518 62 40.4135 62 46.3891C62 47.279 62.7214 48.0004 63.6113 48.0004H89.4446C90.3345 48.0004 91.0559 47.279 91.0559 46.3891C91.0559 41.4307 87.022 37.3968 82.0636 37.3968ZM65.3941 44.7778C66.1355 41.3504 69.1915 38.7744 72.8376 38.7744C74.7383 38.7744 76.5701 39.5023 77.9955 40.824C78.4673 41.2612 79.1533 41.376 79.7418 41.1164C80.4886 40.7866 81.2698 40.6195 82.0636 40.6195C84.686 40.6195 86.9053 42.378 87.6044 44.7778H65.3941V44.7778Z" fill="#C4C4C4"/>
</svg>
