<svg width="65" height="65" viewBox="0 0 65 65" fill="none" xmlns="http://www.w3.org/2000/svg">
<circle cx="32.5" cy="32.5" r="32" stroke="#615F61"/>
<path fill-rule="evenodd" clip-rule="evenodd" d="M23 33.2327C23 33.0196 23.0753 32.8152 23.2092 32.6645C23.3431 32.5138 23.5248 32.4292 23.7142 32.4292H40.5603L36.0649 27.3734C35.9308 27.2225 35.8554 27.0179 35.8554 26.8045C35.8554 26.5912 35.9308 26.3865 36.0649 26.2356C36.199 26.0848 36.3809 26 36.5706 26C36.7602 26 36.9421 26.0848 37.0762 26.2356L42.7902 32.6638C42.8567 32.7384 42.9095 32.8271 42.9455 32.9247C42.9815 33.0224 43 33.127 43 33.2327C43 33.3384 42.9815 33.443 42.9455 33.5407C42.9095 33.6383 42.8567 33.7269 42.7902 33.8016L37.0762 40.2297C36.9421 40.3806 36.7602 40.4654 36.5706 40.4654C36.3809 40.4654 36.199 40.3806 36.0649 40.2297C35.9308 40.0789 35.8554 39.8742 35.8554 39.6609C35.8554 39.4475 35.9308 39.2428 36.0649 39.092L40.5603 34.0362H23.7142C23.5248 34.0362 23.3431 33.9516 23.2092 33.8009C23.0753 33.6502 23 33.4458 23 33.2327Z" fill="white"/>
</svg>
