<svg width="65" height="65" viewBox="0 0 65 65" fill="none" xmlns="http://www.w3.org/2000/svg">
<circle cx="32.5" cy="32.5" r="32" stroke="#615F61"/>
<path fill-rule="evenodd" clip-rule="evenodd" d="M43 33.2326C43 33.4457 42.9247 33.6501 42.7908 33.8008C42.6569 33.9515 42.4752 34.0362 42.2858 34.0362H25.4397L29.9351 39.0919C30.0692 39.2428 30.1446 39.4474 30.1446 39.6608C30.1446 39.8742 30.0692 40.0788 29.9351 40.2297C29.801 40.3806 29.6191 40.4653 29.4294 40.4653C29.2398 40.4653 29.0579 40.3806 28.9238 40.2297L23.2098 33.8015C23.1433 33.7269 23.0905 33.6382 23.0545 33.5406C23.0185 33.443 23 33.3383 23 33.2326C23 33.1269 23.0185 33.0223 23.0545 32.9247C23.0905 32.8271 23.1433 32.7384 23.2098 32.6637L28.9238 26.2356C29.0579 26.0847 29.2398 25.9999 29.4294 25.9999C29.6191 25.9999 29.801 26.0847 29.9351 26.2356C30.0692 26.3865 30.1446 26.5911 30.1446 26.8045C30.1446 27.0179 30.0692 27.2225 29.9351 27.3734L25.4397 32.4291H42.2858C42.4752 32.4291 42.6569 32.5138 42.7908 32.6645C42.9247 32.8152 43 33.0195 43 33.2326Z" fill="white"/>
</svg>
