<svg width="75" height="75" viewBox="0 0 75 75" fill="none" xmlns="http://www.w3.org/2000/svg">
<g clip-path="url(#clip0_609_69)">
<path d="M24.0973 32.9568C24.7246 33.2763 25.4127 33.4359 26.1009 33.4359C26.789 33.4359 27.4771 33.2763 28.1045 32.9568C28.6452 32.6814 28.8602 32.0199 28.5849 31.4792C28.3096 30.9385 27.6478 30.7236 27.1074 30.9987C26.4772 31.3197 25.7249 31.3197 25.0944 30.9987C24.5539 30.7235 23.8922 30.9385 23.617 31.4792C23.3416 32.0197 23.5566 32.6814 24.0973 32.9568V32.9568Z" fill="#C4C4C4"/>
<path d="M26.1009 41.2002C28.7367 41.2002 30.881 39.0557 30.881 36.4198V35.978C30.881 35.3711 30.3891 34.8794 29.7823 34.8794H22.4194C21.8127 34.8794 21.3208 35.3711 21.3208 35.978V36.4198C21.3208 39.0558 23.465 41.2002 26.1009 41.2002ZM28.5992 37.0768C28.308 38.1841 27.2982 39.0029 26.1009 39.0029C24.9035 39.0029 23.8939 38.1839 23.6026 37.0768H28.5992Z" fill="#C4C4C4"/>
<path d="M40.1099 66.0891C38.1526 64.2934 35.2919 63.7642 32.8216 64.741L32.4928 64.871C29.7756 65.9452 26.8065 66.325 23.9058 65.9694C23.3039 65.8951 22.7554 66.3239 22.6816 66.9261C22.6078 67.5283 23.0361 68.0766 23.6385 68.1502C26.9017 68.5504 30.2431 68.123 33.3009 66.9142L33.6296 66.7841C35.3228 66.1153 37.2832 66.4778 38.6247 67.7082C39.6104 68.6124 40.1755 69.8981 40.1755 71.2356V72.4926C40.1755 73.0995 40.6674 73.5913 41.2741 73.5913C41.8809 73.5913 42.3728 73.0995 42.3728 72.4926V71.2356C42.3729 69.284 41.5481 67.408 40.1099 66.0891V66.0891Z" fill="#C4C4C4"/>
<path d="M19.2088 64.7193C16.7587 63.8014 13.9998 64.2861 12.0091 65.9851C10.4035 67.3553 9.48254 69.3516 9.48254 71.4626V72.4926C9.48254 73.0995 9.97444 73.5913 10.5812 73.5913C11.1879 73.5913 11.6798 73.0995 11.6798 72.4926V71.4626C11.6798 69.9958 12.3197 68.6086 13.4353 67.6566C14.8184 66.4761 16.7354 66.139 18.4377 66.7771C19.0058 66.9895 19.6392 66.702 19.852 66.1337C20.065 65.5654 19.777 64.9323 19.2088 64.7193Z" fill="#C4C4C4"/>
<path d="M74.6777 40.9439L68.4019 34.6559C68.2304 34.4995 67.985 34.3302 67.6242 34.3334H50.4639C49.4542 34.3334 48.6328 35.1554 48.6328 36.1659V54.4054C47.9429 53.8975 47.1725 53.5007 46.3515 53.2372C46.3515 45.4672 46.3515 24.0105 46.3515 16.5789C46.3515 12.9869 44.9093 9.65457 42.2908 7.19597C39.7291 4.79085 36.4053 3.56096 32.9048 3.72151L29.3502 2.43494C25.0509 0.861695 20.0276 1.12727 15.7942 3.02864C12.5077 4.50462 9.79277 6.91399 7.94941 10.0104C7.63901 10.5319 7.80996 11.206 8.3313 11.5164C8.85278 11.8268 9.52705 11.6558 9.8373 11.1345C11.448 8.42908 13.8401 6.3679 16.6913 5.03445C20.3294 3.33318 24.7657 3.08401 28.6025 4.5011L32.3672 5.8637C32.509 5.91497 32.6599 5.93665 32.8102 5.92713C35.7825 5.73963 38.6153 6.75916 40.7867 8.79793C42.9583 10.8368 44.1542 13.6001 44.1542 16.5789V23.8165C43.5895 23.4581 42.5247 23.0913 41.5458 23.1279C41.0738 14.0579 34.8382 11.1272 34.5627 11.0025C34.0277 10.7601 33.397 10.9814 33.1305 11.505C33.079 11.606 33.0447 11.7115 33.0265 11.8181C32.8685 12.2988 30.6816 18.368 22.2652 20.7607C21.5229 20.3762 20.6814 20.1575 19.7893 20.1575C17.6624 20.1575 15.8193 21.3935 14.9388 23.1847C12.4683 25.0082 11.0622 27.8728 11.0021 30.8213C10.9506 31.035 11.0026 51.8777 10.9847 52.0912L7.69849 52.7465L7.69863 18.9087C7.69863 17.8003 7.82007 16.6912 8.05972 15.6124C8.19126 15.02 7.81772 14.4332 7.22534 14.3018C6.63281 14.1697 6.04629 14.5436 5.9146 15.136C5.64038 16.371 5.50137 17.6403 5.50137 18.9087L5.50122 53.2379C2.2667 54.274 0 57.3114 0 60.7713V72.4926C0 73.0994 0.491895 73.5912 1.09863 73.5912C1.70537 73.5912 2.19727 73.0994 2.19727 72.4926V60.7713C2.19727 58.0551 4.13057 55.698 6.79424 55.167L15.2615 53.4787C16.372 55.9441 18.3079 57.9554 20.7337 59.1591C20.6438 62.0016 23.0336 64.4781 25.9276 64.4753C28.7355 64.4898 31.2127 62.0719 31.1215 59.1591C33.5473 57.9553 35.4832 55.9441 36.5937 53.4787L45.0609 55.167C46.505 55.4548 47.7921 56.3015 48.6325 57.5059V71.7585C48.6325 72.7688 49.4539 73.591 50.4636 73.591H73.1687C74.1784 73.591 74.9997 72.769 74.9997 71.7585V41.7212C75 41.451 74.8992 41.1625 74.6777 40.9439V40.9439ZM40.3961 44.7836C39.7894 44.7836 39.2975 45.2753 39.2975 45.8822V51.7772L33.5776 50.6368C33.4582 50.6129 33.3709 50.5114 33.3653 50.3897L33.0621 43.8124C34.9397 42.263 37.4032 39.5731 39.2975 36.7621V40.7958C39.2975 41.4027 39.7894 41.8945 40.3961 41.8945C41.0029 41.8945 41.4948 41.4027 41.4948 40.7958V33.6257C42.4898 33.4389 43.3988 33.0046 44.1542 32.3875V52.7457L41.4948 52.2155V45.8823C41.4948 45.2755 41.0029 44.7836 40.3961 44.7836V44.7836ZM44.1542 27.7019V27.8718C44.1021 29.6318 42.8438 31.0928 41.1813 31.4485C41.4451 29.8277 41.5601 27.4854 41.5689 25.325C42.7969 25.2326 44.1394 26.3054 44.1542 27.7019ZM32.5482 16.849C33.5604 15.6468 34.2416 14.4962 34.6604 13.6224C36.3076 14.8192 39.3775 17.8983 39.3778 24.2257C39.3775 24.3049 39.3772 24.3824 39.3769 24.4608H37.702C37.1931 22.0069 35.0149 20.1571 32.4126 20.1571C29.9045 20.1571 27.7906 21.8753 27.185 24.1965C26.8368 24.0973 26.473 24.045 26.1009 24.045C25.7288 24.045 25.3651 24.0973 25.0169 24.1965C24.8511 23.5609 24.5713 22.9715 24.2021 22.4492C28.4089 20.9714 31.0367 18.6445 32.5482 16.849V16.849ZM35.6172 25.5594C35.6172 27.3266 34.1796 28.7643 32.4126 28.7643C30.6456 28.7643 29.2078 27.3267 29.2078 25.5594C29.2078 23.7921 30.6454 22.3543 32.4126 22.3543C34.1798 22.3543 35.6172 23.7921 35.6172 25.5594V25.5594ZM19.7893 22.3543C21.5563 22.3543 22.9939 23.7921 22.9939 25.5594C22.9939 27.3267 21.5563 28.7643 19.7893 28.7643C18.0223 28.7643 16.5845 27.3267 16.5845 25.5594C16.5845 23.7921 18.0221 22.3543 19.7893 22.3543ZM14.5187 26.7395C15.0586 29.1524 17.216 30.9616 19.7893 30.9616C22.4246 30.9616 24.6237 29.0643 25.0961 26.5641C25.6961 26.1386 26.5058 26.1386 27.1058 26.5641C27.5782 29.0642 29.7773 30.9616 32.4126 30.9616C35.0149 30.9616 37.1931 29.1118 37.702 26.658H39.3522C39.2597 30.8235 38.8475 33.7529 36.9753 36.2721C32.7608 41.9427 29.0691 44.5353 25.9816 44.5353C22.1865 44.5353 18.8665 41.2641 15.1304 36.2756C14.5573 35.4789 14.1079 34.6805 13.7562 33.8361C12.7692 31.4654 13.1169 28.7867 14.5187 26.7395V26.7395ZM13.1818 37.3236C14.7571 39.4781 16.8145 42.0263 18.8971 43.785L18.5043 50.3906C18.4972 50.5104 18.41 50.6104 18.2925 50.6339L13.182 51.6528V37.3236H13.1818ZM25.9277 62.2781C24.2736 62.2781 22.928 60.9322 22.928 59.2782C22.928 57.6242 24.2738 56.2783 25.9277 56.2783C27.5817 56.2783 28.9274 57.6242 28.9274 59.2782C28.9274 60.9322 27.5818 62.2781 25.9277 62.2781ZM30.5785 56.9626C29.7253 55.256 27.9617 54.0809 25.9277 54.0809C23.8938 54.0809 22.1301 55.256 21.277 56.9626C19.6567 56.0516 18.3376 54.6842 17.4857 53.0353L18.722 52.7888C19.8189 52.5701 20.6313 51.6376 20.6977 50.5211L21.0084 45.2971C22.5086 46.1812 24.1255 46.7306 25.8814 46.7306C27.4875 46.7306 29.1933 46.364 30.9321 45.3242L31.1703 50.4912C31.2226 51.6237 32.0357 52.5697 33.1478 52.7917L34.3698 53.0353C33.5178 54.684 32.1987 56.0516 30.5785 56.9626V56.9626ZM68.723 38.0879L71.2526 40.6225H68.723V38.0879ZM50.8301 71.3938V36.5305H66.5257V40.9873C66.5257 41.9976 67.3471 42.8198 68.3568 42.8198H72.8027V71.3938H50.8301Z" fill="#C4C4C4"/>
<path d="M68.8701 46.8786C68.6756 45.8808 67.9587 45.0549 66.9989 44.7228L65.1686 44.0901C65.148 42.6928 64.0061 41.5623 62.6054 41.5623H61.0276C59.627 41.5623 58.4851 42.6928 58.4645 44.0901L56.634 44.7229C55.6742 45.0549 54.9573 45.8808 54.7628 46.8786L54.5872 47.7804C54.4651 48.4066 54.6276 49.0482 55.0332 49.5405C55.4382 50.0321 56.0357 50.3141 56.6724 50.3141C56.8084 50.3141 56.9324 50.3894 56.9959 50.5106L57.6239 51.7059C57.9389 52.3057 57.9235 53.0131 57.5828 53.5983C56.6479 55.2041 56.1538 57.0354 56.1538 58.8941V61.2271C56.1538 61.6816 56.4336 62.0891 56.8577 62.2523L60.718 63.7385V67.3933H58.8868C58.28 67.3933 57.7881 67.8851 57.7881 68.492C57.7881 69.0988 58.28 69.5906 58.8868 69.5906H64.7461C65.3529 69.5906 65.8448 69.0988 65.8448 68.492C65.8448 67.8851 65.3529 67.3933 64.7461 67.3933H62.9151V64.5845L65.9858 65.7668C66.1136 65.816 66.2473 65.8401 66.3805 65.8401C66.5995 65.8401 66.8169 65.7747 67.0024 65.6472C67.3008 65.4424 67.4792 65.1036 67.4792 64.7415V59.7388C67.4792 59.1319 66.9874 58.6401 66.3806 58.6401C65.7739 58.6401 65.282 59.1319 65.282 59.7388V63.1413L58.3511 60.4727V58.8941C58.3511 57.4233 58.742 55.9743 59.4816 54.704C60.1856 53.5372 60.2296 51.7637 59.456 50.4685C60.9277 49.6604 62.7072 49.6599 64.1778 50.4673C63.4692 51.6133 63.3856 53.4159 64.1514 54.7038C64.2664 54.9014 64.3747 55.1063 64.4731 55.3132C64.7338 55.8609 65.3895 56.0934 65.9374 55.8328C66.4852 55.5719 66.7178 54.9164 66.4569 54.3685C66.3324 54.1072 66.1956 53.8481 66.0503 53.5981C65.7096 53.0131 65.6942 52.3057 66.0091 51.706L66.6371 50.5106C66.7007 50.3894 66.8248 50.3141 66.9607 50.3141C67.5973 50.3141 68.1948 50.0321 68.5999 49.5405C69.0055 49.0483 69.1679 48.4067 69.0459 47.7805L68.8701 46.8786ZM65.409 48.6407C63.19 47.3387 60.4443 47.3371 58.2235 48.6404C57.8081 48.3238 57.2999 48.1365 56.7598 48.1183L56.9195 47.2989C56.9646 47.0676 57.1303 46.8761 57.3521 46.7995L59.9217 45.9114C60.3644 45.7583 60.6613 45.3413 60.6613 44.873V44.1287C60.6613 43.925 60.8256 43.7595 61.0275 43.7595H62.6053C62.8071 43.7595 62.9715 43.925 62.9715 44.1287V44.873C62.9715 45.3413 63.2684 45.7583 63.7111 45.9114L66.2807 46.7995C66.5025 46.8761 66.6682 47.0676 66.7133 47.2989L66.873 48.1183C66.3329 48.1365 65.8246 48.324 65.409 48.6407V48.6407Z" fill="#C4C4C4"/>
</g>
<defs>
<clipPath id="clip0_609_69">
<rect width="75" height="75" fill="white"/>
</clipPath>
</defs>
</svg>
