<svg width="65" height="57" viewBox="0 0 65 57" fill="none" xmlns="http://www.w3.org/2000/svg">
<path d="M53.2798 26.5039H54.2798V27.5039C54.2798 28.0562 54.7275 28.5039 55.2798 28.5039C55.832 28.5039 56.2798 28.0562 56.2798 27.5039V26.5039H57.2798C57.832 26.5039 58.2798 26.0562 58.2798 25.5039C58.2798 24.9517 57.832 24.5039 57.2798 24.5039H56.2798V23.5039C56.2798 22.9517 55.832 22.5039 55.2798 22.5039C54.7275 22.5039 54.2798 22.9517 54.2798 23.5039V24.5039H53.2798C52.7275 24.5039 52.2798 24.9517 52.2798 25.5039C52.2798 26.0562 52.7275 26.5039 53.2798 26.5039Z" fill="#C4C4C4"/>
<path d="M49.4283 16.1753C49.7238 16.1753 50.0246 16.1323 50.3213 16.0426C51.9488 15.5488 52.8716 13.8233 52.3786 12.1958C51.8848 10.5678 50.1578 9.64456 48.5323 10.1386C47.7438 10.3773 47.0953 10.9091 46.7066 11.6356C46.3178 12.3621 46.2358 13.1966 46.4746 13.9851C46.8778 15.3158 48.1046 16.1753 49.4283 16.1753ZM48.4703 12.5791C48.6071 12.3238 48.8346 12.1366 49.1118 12.0528C49.2163 12.0211 49.3218 12.0058 49.4258 12.0058C49.8911 12.0058 50.3223 12.3081 50.4643 12.7758C50.6376 13.3481 50.3133 13.9551 49.7411 14.1283C49.1698 14.3021 48.5618 13.9773 48.3886 13.4051C48.3046 13.1278 48.3336 12.8346 48.4703 12.5791Z" fill="#C4C4C4"/>
<path d="M37.9545 32.4836C38.37 31.8444 38.433 31.0471 38.1235 30.3504L34.2798 21.7054V11.7391C37.648 10.1779 40.2798 6.42639 40.2798 2.50439C40.2798 1.95214 39.832 1.50439 39.2798 1.50439H14.5908C10.4833 1.50439 6.61078 3.30664 3.96528 6.44864C1.31978 9.59064 0.203531 13.7146 0.903781 17.7621L4.00153 35.6746C4.08453 36.1541 4.50053 36.5041 4.98678 36.5041H7.27978V51.5041C7.27978 52.0564 7.72753 52.5041 8.27978 52.5041C8.83203 52.5041 9.27978 52.0564 9.27978 51.5041V36.2469L13.5128 30.5116C13.7368 30.2079 13.771 29.8041 13.6008 29.4671C13.4308 29.1301 13.0855 28.9179 12.7083 28.9179H11.987C10.8568 28.9179 9.83078 28.2206 9.30978 27.0976C8.86653 26.1426 8.95128 25.0629 9.54278 24.1361C10.195 23.1141 11.2985 22.5044 12.4945 22.5044H15.2803C15.8325 22.5044 16.2803 22.0566 16.2803 21.5044V16.8176C16.2803 14.4391 18.2153 12.5041 20.5938 12.5041H32.2803V21.9176C32.2803 22.0579 32.3095 22.1959 32.3668 22.3239L36.297 31.1626C36.341 31.2621 36.3113 31.3434 36.2785 31.3936C36.2458 31.4439 36.1838 31.5039 36.0755 31.5039H33.2805C32.7283 31.5039 32.2805 31.9516 32.2805 32.5039V33.5039H28.2805C27.9618 33.5039 27.6613 33.6561 27.4733 33.9136C27.2848 34.1714 27.2305 34.5029 27.3273 34.8071L28.067 37.1324C28.1545 37.4074 28.3565 37.6309 28.6208 37.7461C29.8365 38.2754 30.877 38.6036 32.1223 38.6036C32.1735 38.6036 32.2285 38.5979 32.2805 38.5969V39.9144C32.2805 41.8939 30.6703 43.5041 28.6908 43.5041H23.2805C20.409 43.5041 17.5475 42.3571 15.6268 40.4364L13.9875 38.7971C13.597 38.4066 12.964 38.4066 12.5735 38.7971C12.183 39.1876 12.183 39.8206 12.5735 40.2111L14.2128 41.8504C16.5003 44.1384 19.8905 45.5041 23.2805 45.5041V51.5041C23.2805 52.0564 23.7283 52.5041 24.2805 52.5041C24.8328 52.5041 25.2805 52.0564 25.2805 51.5041V45.5041H28.6908C31.7728 45.5041 34.2805 42.9964 34.2805 39.9144V33.5041H36.0755C36.8363 33.5041 37.5395 33.1229 37.9545 32.4836ZM14.2798 16.8176V20.5041H12.494C10.6118 20.5041 8.87828 21.4596 7.85678 23.0599C6.89053 24.5741 6.75853 26.3524 7.49503 27.9394C8.16053 29.3734 9.40628 30.4051 10.8348 30.7719L8.08003 34.5044H5.82853L2.87453 17.4214C2.27553 13.9566 3.23053 10.4266 5.49503 7.73689C7.75953 5.04714 11.075 3.50439 14.5908 3.50439H38.2075C37.6808 7.17139 34.3623 10.5044 30.9868 10.5044H20.5933C17.1118 10.5041 14.2798 13.3361 14.2798 16.8176ZM29.8325 36.0866L29.6475 35.5041H32.2798V36.5956C31.4193 36.6184 30.6953 36.4354 29.8325 36.0866Z" fill="#C4C4C4"/>
<path d="M54.2823 2.61335C54.8728 2.61335 55.3513 2.1346 55.3513 1.5441C55.3513 0.953597 54.8728 0.475098 54.2823 0.475098C53.6918 0.475098 53.213 0.953847 53.213 1.5441C53.213 2.1346 53.6918 2.61335 54.2823 2.61335Z" fill="#C4C4C4"/>
<path d="M30.5868 24.7177C31.0288 24.3862 31.1181 23.7592 30.7866 23.3177C30.4561 22.8757 29.8286 22.7859 29.3866 23.1179C28.4051 23.8542 27.5683 23.8542 26.5868 23.1179C26.1458 22.7859 25.5186 22.8767 25.1868 23.3177C24.8553 23.7597 24.9446 24.386 25.3866 24.7177C26.2251 25.3472 27.1058 25.6615 27.9866 25.6615C28.8673 25.6615 29.7491 25.3465 30.5868 24.7177Z" fill="#C4C4C4"/>
<path d="M64.1954 49.4205C64.0026 49.0347 63.5851 48.817 63.1591 48.878L58.7046 49.5147L54.7796 45.5897C56.5749 43.4312 56.4856 40.2245 54.4621 38.201L46.3304 30.0692C45.9399 29.6787 45.3069 29.6787 44.9164 30.0692L37.8451 37.1405C37.4546 37.531 37.4546 38.164 37.8451 38.5545L45.9769 46.6862C47.0491 47.7585 48.4574 48.2947 49.8656 48.2947C51.1154 48.2947 52.3511 47.848 53.3659 47.004L57.2909 50.929L56.6541 55.3835C56.5931 55.8097 56.8119 56.2267 57.1966 56.4197C57.3386 56.4905 57.4916 56.5252 57.6434 56.5252C57.9031 56.5252 58.1589 56.4242 58.3509 56.2322L64.0081 50.575C64.3126 50.2707 64.3876 49.8052 64.1954 49.4205ZM45.6231 32.19L52.9371 39.504H41.6226L39.9659 37.8472L45.6231 32.19ZM47.3906 45.2722L43.6226 41.5042H54.0154C54.1976 42.5842 53.8796 43.733 53.0479 44.5647L52.3404 45.2722C50.9756 46.636 48.7564 46.6367 47.3906 45.2722ZM59.0581 52.6965L59.2349 51.4592L60.4721 51.2825L59.0581 52.6965Z" fill="#C4C4C4"/>
</svg>
