<svg width="25" height="25" viewBox="0 0 25 25" fill="none" xmlns="http://www.w3.org/2000/svg">
<path d="M12.5 25C19.4035 25 25 19.4035 25 12.5C25 5.59646 19.4035 0 12.5 0C5.59646 0 0 5.59646 0 12.5C0 19.4035 5.59646 25 12.5 25Z" fill="url(#paint0_linear_323_480)"/>
<path d="M4.65534 13.111C6.11658 12.3061 7.74772 11.6343 9.27178 10.9591C11.8938 9.85318 14.5262 8.76641 17.1851 7.75464C17.7025 7.58224 18.632 7.41365 18.7231 8.18032C18.6732 9.26552 18.4679 10.3443 18.3271 11.4232C17.9696 13.7957 17.5565 16.1601 17.1537 18.5248C17.0149 19.3124 16.0281 19.7202 15.3968 19.2161C13.8795 18.1912 12.3505 17.1763 10.8526 16.1277C10.3619 15.6291 10.8169 14.9131 11.2552 14.557C12.5049 13.3255 13.8302 12.2791 15.0145 10.9839C15.334 10.2124 14.3901 10.8626 14.0787 11.0618C12.3679 12.2408 10.6989 13.4917 8.89517 14.5279C7.97382 15.0351 6.89996 14.6016 5.97902 14.3186C5.15328 13.9767 3.94327 13.6323 4.65525 13.111H4.65534Z" fill="white"/>
<defs>
<linearGradient id="paint0_linear_323_480" x1="9.37646" y1="1.0425" x2="3.12646" y2="15.625" gradientUnits="userSpaceOnUse">
<stop stop-color="#37AEE2"/>
<stop offset="1" stop-color="#1E96C8"/>
</linearGradient>
</defs>
</svg>
