<svg width="24" height="18" viewBox="0 0 24 18" fill="none" xmlns="http://www.w3.org/2000/svg">
<path d="M22.5625 7.375C22.778 7.375 22.9847 7.2894 23.137 7.13702C23.2894 6.98465 23.375 6.77799 23.375 6.5625V2.5C23.375 2.06902 23.2038 1.6557 22.899 1.35095C22.5943 1.0462 22.181 0.875 21.75 0.875H2.25C1.81902 0.875 1.4057 1.0462 1.10095 1.35095C0.796205 1.6557 0.625 2.06902 0.625 2.5V6.5625C0.625 6.77799 0.710602 6.98465 0.862976 7.13702C1.01535 7.2894 1.22201 7.375 1.4375 7.375C1.86848 7.375 2.2818 7.54621 2.58655 7.85095C2.8913 8.1557 3.0625 8.56902 3.0625 9C3.0625 9.43098 2.8913 9.8443 2.58655 10.149C2.2818 10.4538 1.86848 10.625 1.4375 10.625C1.22201 10.625 1.01535 10.7106 0.862976 10.863C0.710602 11.0153 0.625 11.222 0.625 11.4375V15.5C0.625 15.931 0.796205 16.3443 1.10095 16.649C1.4057 16.9538 1.81902 17.125 2.25 17.125H21.75C22.181 17.125 22.5943 16.9538 22.899 16.649C23.2038 16.3443 23.375 15.931 23.375 15.5V11.4375C23.375 11.222 23.2894 11.0153 23.137 10.863C22.9847 10.7106 22.778 10.625 22.5625 10.625C22.1315 10.625 21.7182 10.4538 21.4135 10.149C21.1087 9.8443 20.9375 9.43098 20.9375 9C20.9375 8.56902 21.1087 8.1557 21.4135 7.85095C21.7182 7.54621 22.1315 7.375 22.5625 7.375ZM21.75 12.1444V15.5H16.0625V13.0625H14.4375V15.5H2.25V12.1444C2.9455 11.9626 3.5611 11.5554 4.00047 10.9864C4.43984 10.4174 4.67817 9.71886 4.67817 9C4.67817 8.28114 4.43984 7.58256 4.00047 7.0136C3.5611 6.44464 2.9455 6.0374 2.25 5.85563V2.5H14.4375V4.9375H16.0625V2.5H21.75V5.85563C21.0545 6.0374 20.4389 6.44464 19.9995 7.0136C19.5602 7.58256 19.3218 8.28114 19.3218 9C19.3218 9.71886 19.5602 10.4174 19.9995 10.9864C20.4389 11.5554 21.0545 11.9626 21.75 12.1444Z" fill="white"/>
<path d="M14.4375 6.5625H16.0625V11.4375H14.4375V6.5625Z" fill="white"/>
</svg>
