<svg width="83" height="83" viewBox="0 0 83 83" fill="none" xmlns="http://www.w3.org/2000/svg">
<g clip-path="url(#clip0_701_2)">
<path d="M78.85 0H37.35C35.058 0 33.2 1.85802 33.2 4.15V29.7126C27.6292 26.7981 20.9398 27.0091 15.5638 30.269C10.1877 33.5289 6.90789 39.3628 6.91668 45.65V63.7717C3.69847 64.4335 1.38749 67.2644 1.38334 70.55C1.38709 71.0043 1.43668 71.4571 1.53136 71.9015C0.545991 72.9291 -0.00287785 74.2986 1.13487e-05 75.7223V78.85C1.13487e-05 81.142 1.85803 83 4.15001 83H45.65C47.942 83 49.8 81.142 49.8 78.85V75.7223C49.8027 74.299 49.2538 72.9301 48.2687 71.9029C48.3634 71.4581 48.413 71.0048 48.4167 70.55C48.4125 67.2644 46.1016 64.4335 42.8833 63.7717V45.65C42.8859 43.2755 42.4156 40.9242 41.5 38.7333H47.0333V44.2667C47.0249 45.3551 47.6627 46.345 48.6574 46.7871C49.6545 47.2449 50.8285 47.0648 51.6426 46.3292L60.0173 38.7333H78.85C81.142 38.7333 83 36.8753 83 34.5833V4.15C83 1.85802 81.142 0 78.85 0V0ZM24.9 30.4333C33.2998 30.4432 40.1068 37.2502 40.1167 45.65V51.0865C31.226 50.1887 26.127 42.2332 26.0745 42.1516C25.8217 41.7461 25.3777 41.4998 24.9 41.5C24.422 41.5001 23.9779 41.747 23.7256 42.1529C23.673 42.2359 18.6072 50.1901 9.68473 51.0865V45.65C9.69464 37.2507 16.5007 30.444 24.9 30.4333ZM19.3667 68.024C20.8733 69.4662 22.8234 70.3565 24.9 70.55C26.9741 70.3031 28.9139 69.3963 30.4333 67.9632V70.3148C30.176 70.9498 28.9504 73.3167 24.9 73.3167C20.8496 73.3167 19.6129 70.929 19.3667 70.319V68.024ZM24.9 67.7833C21.5994 67.7833 14.2829 59.8721 14.2068 53.9362C14.2068 53.6858 14.1985 53.3413 14.1847 52.9554C18.4115 51.4409 22.1254 48.765 24.9 45.235C27.7016 48.799 31.4614 51.4901 35.7384 52.9927C35.726 53.3593 35.7177 53.6844 35.7177 53.9182C35.6319 59.7254 28.1439 67.7833 24.9 67.7833V67.7833ZM6.96509 66.6393C7.07218 67.2948 7.63585 67.7779 8.30001 67.7833C9.06401 67.7833 9.68334 67.164 9.68334 66.4V53.8767C10.2823 53.8255 10.8689 53.7549 11.436 53.6553V53.9541C11.4817 57.2382 13.695 61.7299 16.6 65.2159V69.2732L5.03258 70.2125C4.74067 70.2435 4.45161 70.2972 4.16799 70.3729C4.2426 68.6712 5.35287 67.1892 6.96509 66.6393V66.6393ZM47.0333 78.85C47.0333 79.614 46.414 80.2333 45.65 80.2333H4.15001C3.38602 80.2333 2.76668 79.614 2.76668 78.85V75.7223C2.75884 74.2933 3.84722 73.0967 5.27051 72.9695L17.1201 72.0011C17.9446 73.5255 20.0487 76.0833 24.9 76.0833C29.7514 76.0833 31.8554 73.5256 32.6799 72.008L44.5171 72.9681C45.9449 73.0912 47.0394 74.2892 47.0333 75.7223V78.85ZM45.632 70.3743C45.3444 70.297 45.0512 70.2424 44.755 70.2111L33.2 69.2732V65.2781C36.105 61.9733 38.429 57.6587 38.4843 53.9348C38.4843 53.8587 38.4843 53.7646 38.4843 53.6719C39.0128 53.7619 39.5564 53.8283 40.1125 53.8753V66.4C40.1125 67.164 40.7319 67.7833 41.4959 67.7833C42.16 67.7779 42.7237 67.2948 42.8308 66.6393C44.4449 67.1883 45.557 68.6711 45.632 70.3743V70.3743ZM80.2333 34.5833C80.2333 35.3473 79.614 35.9667 78.85 35.9667H56.7167C56.0798 35.9622 55.5235 36.3966 55.3735 37.0156C55.2234 37.6346 55.519 38.2755 56.0873 38.5632L49.8 44.2667V38.7333H51.1833C51.9473 38.7333 52.5667 38.114 52.5667 37.35C52.5667 36.586 51.9473 35.9667 51.1833 35.9667H40.0295C38.9345 34.2627 37.5611 32.7546 35.9667 31.5054V4.15C35.9667 3.38601 36.586 2.76667 37.35 2.76667H78.85C79.614 2.76667 80.2333 3.38601 80.2333 4.15V34.5833Z" fill="#C4C4C4"/>
<path d="M41.428 19.804L42.4959 16.6002H46.0373L47.1052 19.804C47.2614 20.2735 47.6562 20.624 48.1408 20.7235C48.6255 20.823 49.1265 20.6564 49.455 20.2864C49.7835 19.9164 49.8897 19.3992 49.7335 18.9297L45.5835 6.47971C45.3969 5.91202 44.8669 5.52832 44.2694 5.52832C43.6718 5.52832 43.1418 5.91202 42.9552 6.47971L38.8052 18.9297C38.649 19.3992 38.7552 19.9164 39.0837 20.2864C39.4122 20.6564 39.9132 20.823 40.3979 20.7235C40.8826 20.624 41.2774 20.2735 41.4335 19.804H41.428ZM45.1146 13.8335H43.4186L44.2666 11.2909L45.1146 13.8335Z" fill="#C4C4C4"/>
<path d="M76.0838 6.91654H71.9338C71.9338 6.15254 71.3144 5.5332 70.5505 5.5332C69.7865 5.5332 69.1671 6.15254 69.1671 6.91654H65.0171C64.2531 6.91654 63.6338 7.53588 63.6338 8.29987C63.6338 9.06386 64.2531 9.6832 65.0171 9.6832H65.1665C65.651 12.1924 66.8114 14.5218 68.5225 16.42C67.6657 17.0757 66.748 17.6478 65.7821 18.1285C65.0983 18.47 64.8209 19.3011 65.1624 19.9849C65.5039 20.6687 66.335 20.9461 67.0188 20.6046C68.2739 19.9798 69.4579 19.2215 70.5505 18.3429C71.6426 19.2239 72.8267 19.9846 74.0821 20.6115C74.5244 20.8325 75.051 20.8006 75.4635 20.528C75.876 20.2554 76.1117 19.7834 76.0818 19.2899C76.052 18.7964 75.7611 18.3563 75.3188 18.1354C74.3529 17.6547 73.4352 17.0826 72.5784 16.427C74.2911 14.5271 75.4516 12.1951 75.9344 9.6832H76.0838C76.8478 9.6832 77.4671 9.06386 77.4671 8.29987C77.4671 7.53588 76.8478 6.91654 76.0838 6.91654V6.91654ZM70.5505 14.5373C69.3109 13.1542 68.431 11.4871 67.9885 9.6832H73.1068C72.6658 11.4864 71.7879 13.1535 70.5505 14.5373V14.5373Z" fill="#C4C4C4"/>
<path d="M59.0783 8.70521C58.5355 8.18097 57.6727 8.18847 57.1391 8.72206C56.6055 9.25566 56.598 10.1185 57.1222 10.6612L57.5276 11.0666H52.5669C51.8029 11.0666 51.1836 11.6859 51.1836 12.4499C51.1836 13.2139 51.8029 13.8332 52.5669 13.8332H57.5276L57.1222 14.2385C56.7626 14.5859 56.6184 15.1002 56.745 15.5838C56.8716 16.0675 57.2493 16.4452 57.733 16.5718C58.2166 16.6984 58.731 16.5542 59.0783 16.1946L61.8449 13.4279C62.385 12.8877 62.385 12.0121 61.8449 11.4719L59.0783 8.70521Z" fill="#C4C4C4"/>
<path d="M59.4829 23.5166H41.4995C40.7356 23.5166 40.1162 24.1359 40.1162 24.8999C40.1162 25.6639 40.7356 26.2833 41.4995 26.2833H59.4829C60.2469 26.2833 60.8662 25.6639 60.8662 24.8999C60.8662 24.1359 60.2469 23.5166 59.4829 23.5166Z" fill="#C4C4C4"/>
<path d="M74.7005 23.5166H65.0171C64.2531 23.5166 63.6338 24.1359 63.6338 24.8999C63.6338 25.6639 64.2531 26.2833 65.0171 26.2833H74.7005C75.4645 26.2833 76.0838 25.6639 76.0838 24.8999C76.0838 24.1359 75.4645 23.5166 74.7005 23.5166Z" fill="#C4C4C4"/>
<path d="M53.9505 29.0498H44.2671C43.5031 29.0498 42.8838 29.6691 42.8838 30.4331C42.8838 31.1971 43.5031 31.8165 44.2671 31.8165H53.9505C54.7145 31.8165 55.3338 31.1971 55.3338 30.4331C55.3338 29.6691 54.7145 29.0498 53.9505 29.0498Z" fill="#C4C4C4"/>
</g>
<defs>
<clipPath id="clip0_701_2">
<rect width="83" height="83" fill="white"/>
</clipPath>
</defs>
</svg>
