<svg width="63" height="68" viewBox="0 0 63 68" fill="none" xmlns="http://www.w3.org/2000/svg">
<path d="M57.9194 0H55.8871C55.325 0 54.871 0.491621 54.871 1.09677V8.77419H5.08065C2.27934 8.77419 0 11.2344 0 14.2581V62.5161C0 65.5398 2.27934 68 5.08065 68H7.1129C7.67505 68 8.12903 67.5084 8.12903 66.9032V59.2258H57.9194C60.7207 59.2258 63 56.7656 63 53.7419V5.48387C63 2.46024 60.7207 0 57.9194 0ZM6.09677 65.8064H5.08065C3.40016 65.8064 2.03226 64.33 2.03226 62.5161V18.643C2.88168 19.3317 3.9375 19.7419 5.08065 19.7419H6.09677V65.8064ZM5.08065 17.5484C3.40016 17.5484 2.03226 16.0719 2.03226 14.2581C2.03226 12.4442 3.40016 10.9677 5.08065 10.9677H30.4839V12.7072L28.7493 14.5794C28.5583 14.7845 28.4516 15.064 28.4516 15.3548V18.191L27.0147 19.7419H24.8078L23.0733 17.8697C22.8832 17.6635 22.6252 17.5484 22.3548 17.5484H19.3065C19.036 17.5484 18.778 17.6635 18.588 17.8697L15.5396 21.16C15.1422 21.589 15.1422 22.282 15.5396 22.7109L18.2903 25.6799V28.062L15.8373 30.7097H13.6304L10.8797 27.7407C10.6897 27.5345 10.4317 27.4194 10.1613 27.4194H8.12903V18.6452C8.12903 18.04 7.67505 17.5484 7.1129 17.5484H5.08065ZM12.4912 44.6464L14.2258 46.5187V48.9007L11.7728 51.5484H8.12903V38.3871H10.7567L12.1935 39.938V43.871C12.1935 44.1618 12.3002 44.4413 12.4912 44.6464ZM57.9194 57.0323H8.12903V53.7419H12.1935C12.464 53.7419 12.722 53.6268 12.912 53.4206L15.9604 50.1303C16.1514 49.9252 16.2581 49.6456 16.2581 49.3548V46.0645C16.2581 45.7737 16.1514 45.4942 15.9604 45.2891L14.2258 43.4168V39.4839C14.2258 39.1931 14.1191 38.9135 13.9281 38.7084L11.8959 36.5149C11.7058 36.3087 11.4478 36.1936 11.1774 36.1936H8.12903V29.6129H9.74055L12.4912 32.5819C12.6813 32.7881 12.9393 32.9032 13.2097 32.9032H16.2581C16.5285 32.9032 16.7865 32.7881 16.9765 32.5819L20.0249 29.2916C20.2159 29.0865 20.3226 28.8069 20.3226 28.5161V25.2258C20.3226 24.935 20.2159 24.6555 20.0249 24.4504L17.6949 21.9355L19.7272 19.7419H21.9341L23.6687 21.6142C23.8587 21.8203 24.1167 21.9355 24.3871 21.9355H27.4355C27.7059 21.9355 27.9639 21.8203 28.1539 21.6142L30.1862 19.4206C30.3772 19.2155 30.4839 18.936 30.4839 18.6452V15.809L32.2184 13.9367C32.4095 13.7316 32.5161 13.4521 32.5161 13.1613V10.9677H54.871V49.3548C54.871 49.96 55.325 50.4516 55.8871 50.4516H57.9194C59.5998 50.4516 60.9677 51.9281 60.9677 53.7419C60.9677 55.5558 59.5998 57.0323 57.9194 57.0323ZM60.9677 49.357C60.1183 48.6683 59.0625 48.2581 57.9194 48.2581H56.9032V2.19355H57.9194C59.5998 2.19355 60.9677 3.67002 60.9677 5.48387V49.357Z" fill="#C4C4C4"/>
<path d="M23.3709 37.2905C20.0085 37.2905 17.2742 40.2419 17.2742 43.8712C17.2742 45.5361 17.7475 47.132 18.6451 48.4864L22.5448 54.3794C22.7349 54.6681 23.0425 54.8389 23.3709 54.8389C23.6994 54.8389 24.007 54.6681 24.197 54.3794L28.0968 48.4864C28.9944 47.132 29.4677 45.5361 29.4677 43.8712C29.4677 40.2419 26.7334 37.2905 23.3709 37.2905ZM26.4436 47.2118L23.3709 51.8554L20.2982 47.2129C19.6498 46.2313 19.3064 45.0767 19.3064 43.8712C19.3064 41.4516 21.1293 39.4841 23.3709 39.4841C25.6126 39.4841 27.4355 41.4516 27.4355 43.8712C27.4355 45.0767 27.0921 46.2313 26.4436 47.2118Z" fill="#C4C4C4"/>
<path d="M22.355 41.6772H24.3872V43.8708H22.355V41.6772Z" fill="#C4C4C4"/>
<path d="M31.5 52.645H33.5323V54.8386H31.5V52.645Z" fill="#C4C4C4"/>
<path d="M37.7148 34.0868L38.0701 36.246C38.2482 36.2123 38.4288 36.1935 38.6129 36.1935H39.9197V34H38.6109C38.3102 34 38.0081 34.0295 37.7148 34.0868Z" fill="#C4C4C4"/>
<path d="M41.9521 34H43.9844V36.1936H41.9521V34Z" fill="#C4C4C4"/>
<path d="M45.2217 46.8357L46.9647 45.7057C46.5395 44.9436 45.9525 44.279 45.2653 43.7842L44.1385 45.6093C44.5757 45.9252 44.9503 46.3483 45.2217 46.8357Z" fill="#C4C4C4"/>
<path d="M27.4355 52.645H29.4678V54.8386H27.4355V52.645Z" fill="#C4C4C4"/>
<path d="M40.7905 42.7744V44.9679H42.1693C42.341 44.9679 42.5107 44.9813 42.6764 45.0076L42.9617 42.836C42.7027 42.7953 42.4388 42.7744 42.1693 42.7744H40.7905Z" fill="#C4C4C4"/>
<path d="M45.7094 48.4434C45.7208 48.5628 45.7258 48.6849 45.7258 48.8086C45.7268 49.2585 45.6558 49.6992 45.5134 50.1207L47.4226 50.8704C47.6474 50.208 47.759 49.5128 47.758 48.8075C47.758 48.6137 47.7491 48.4214 47.7327 48.2329L45.7094 48.4434Z" fill="#C4C4C4"/>
<path d="M43.3337 52.4357L43.9981 54.5088C44.7766 54.218 45.4999 53.7322 46.0894 53.1057L44.6649 51.543C44.2878 51.9409 43.8274 52.2504 43.3337 52.4357Z" fill="#C4C4C4"/>
<path d="M47.7581 34.0003H46.0166V36.1938H47.7581C47.8802 36.1938 48.0007 36.1895 48.1218 36.1794L47.9744 33.9917C47.9045 33.9981 47.8301 34.0003 47.7581 34.0003Z" fill="#C4C4C4"/>
<path d="M50.8066 28.5161H52.8389V30.7097H50.8066V28.5161Z" fill="#C4C4C4"/>
<path d="M39.629 52.645H41.6613V54.8386H39.629V52.645Z" fill="#C4C4C4"/>
<path d="M49.4053 33.4778L50.5067 35.3228C51.2177 34.8268 51.8101 34.1414 52.218 33.3386L50.4353 32.2847C50.1907 32.7672 49.834 33.1806 49.4053 33.4778Z" fill="#C4C4C4"/>
<path d="M35.5645 52.645H37.5967V54.8386H35.5645V52.645Z" fill="#C4C4C4"/>
<path d="M35.5819 39.835L33.5615 40.069C33.6523 40.9789 33.956 41.8587 34.4397 42.6112L36.1093 41.3596C35.8176 40.9087 35.6355 40.3812 35.5819 39.835Z" fill="#C4C4C4"/>
<path d="M37.2483 42.4272L36.3379 44.3884C37.0489 44.7718 37.814 44.9673 38.6128 44.9673H38.7581V42.7737H38.6128C38.133 42.7737 37.674 42.6575 37.2483 42.4272Z" fill="#C4C4C4"/>
<path d="M33.9183 37.3833L35.7963 38.2257C35.9903 37.7191 36.3044 37.2671 36.7018 36.9228L35.4276 35.2139C34.7648 35.7885 34.2438 36.5388 33.9183 37.3833Z" fill="#C4C4C4"/>
<path d="M42.6773 23.9355V31.8068H44.7096V23.9355C46.4585 23.3223 47.758 21.1936 47.758 18.6455C47.758 15.6219 45.9351 13.1616 43.6934 13.1616C41.4518 13.1616 39.6289 15.6219 39.6289 18.6455C39.6289 21.1936 40.9283 23.3212 42.6773 23.9355ZM43.6934 15.3552C44.7949 15.3552 45.7257 16.8622 45.7257 18.6455C45.7257 19.8322 45.3089 20.884 44.7096 21.464V19.7423H42.6773V21.464C42.077 20.8851 41.6612 19.8322 41.6612 18.6455C41.6612 16.8622 42.592 15.3552 43.6934 15.3552Z" fill="#C4C4C4"/>
<path d="M35.5645 31.8063V27.2634C37.3135 26.7734 38.6129 25.0698 38.6129 23.0321C38.6129 20.6126 36.79 18.645 34.5484 18.645C32.3068 18.645 30.4839 20.6126 30.4839 23.0321C30.4839 25.0698 31.7833 26.7734 33.5323 27.2634V31.8063H35.5645ZM32.5161 23.0321C32.5161 21.8223 33.4276 20.8386 34.5484 20.8386C35.6692 20.8386 36.5807 21.8223 36.5807 23.0321C36.5807 23.8402 36.1694 24.5402 35.5645 24.9209V23.0321H33.5323V24.9209C32.9275 24.5402 32.5161 23.8402 32.5161 23.0321Z" fill="#C4C4C4"/>
</svg>
