<svg width="22" height="27" viewBox="0 0 22 27" fill="none" xmlns="http://www.w3.org/2000/svg">
<path opacity="0.2" d="M5.5 20.166H11.9167L5.5 26.5827V20.166Z" fill="black"/>
<path d="M5.5 19.25H11.9167L5.5 25.6667V19.25Z" fill="#694088"/>
<path opacity="0.2" d="M14.2209 0.916992H7.77913C3.48283 0.916992 0 4.56249 0 9.05944V13.8579C0 18.3548 3.48283 22.0003 7.77913 22.0003H14.2209C18.5172 22.0003 22 18.3548 22 13.8579V9.05944C22 4.56249 18.5172 0.916992 14.2209 0.916992Z" fill="black"/>
<path d="M14.2209 0H7.77913C3.48283 0 0 3.6455 0 8.14244V12.9409C0 17.4378 3.48283 21.0833 7.77913 21.0833H14.2209C18.5172 21.0833 22 17.4378 22 12.9409V8.14244C22 3.6455 18.5172 0 14.2209 0Z" fill="#924CC4"/>
<path opacity="0.1" d="M7.77913 0C3.4695 0 0 3.63166 0 8.14258V9.05924C0 4.54833 3.4695 0.916667 7.77913 0.916667H14.2209C18.5305 0.916667 22 4.54833 22 9.05924V8.14258C22 3.63166 18.5305 0 14.2209 0H7.77913Z" fill="white"/>
<path opacity="0.2" d="M12.486 3.66699L12.4878 3.66878C12.1779 3.66878 11.9197 3.91663 11.9167 4.21663C11.9149 4.51799 12.1721 4.77009 12.4843 4.77164C13.8314 4.78176 14.9391 5.20853 15.8322 6.04817C16.7149 6.88002 17.1758 8.03181 17.1875 9.5358V9.53764C17.1908 9.83686 17.4479 10.0837 17.7587 10.0837C17.7587 10.0837 17.7637 10.0819 17.7641 10.0819C18.0755 10.079 18.3342 9.82795 18.3316 9.52685C18.3245 8.64908 18.1824 7.84235 17.9037 7.13314C17.6214 6.41643 17.1917 5.78254 16.6325 5.25504C15.5272 4.21584 14.1162 3.67846 12.4914 3.66699H12.486ZM6.14811 5.51286C5.93112 5.47641 5.697 5.51823 5.4624 5.63102H5.4427L5.41764 5.64534C4.98181 5.8931 4.57223 6.22425 4.18945 6.64079L4.15901 6.6748V6.70345C3.89423 7.03352 3.71944 7.36608 3.6792 7.69889C3.66634 7.7553 3.66666 7.80739 3.66666 7.86181C3.66666 8.01323 3.68979 8.16566 3.73649 8.31657L3.74902 8.35953L3.77409 8.37565C3.92527 8.89418 4.26953 9.69995 5.02018 11.0666C5.52016 11.9723 6.031 12.7297 6.53841 13.3672C6.80568 13.7022 7.10727 14.0506 7.45866 14.402C7.46278 14.4062 7.47834 14.4215 7.49446 14.436C7.50005 14.4416 7.5075 14.4526 7.52669 14.4718L7.56249 14.5076H7.56433C7.57669 14.52 7.58575 14.5284 7.5876 14.5309L7.59301 14.5381L7.60016 14.5452C7.95156 14.8927 8.29798 15.1964 8.63678 15.4619C9.27346 15.9691 10.0297 16.4847 10.9356 16.9855C12.3042 17.7402 13.1196 18.0812 13.6355 18.2298L13.6534 18.253L13.6856 18.2638C13.8318 18.3125 13.9826 18.3341 14.1332 18.3318C14.1943 18.3351 14.2481 18.3309 14.2997 18.3193C14.6531 18.278 15.0046 18.1118 15.3507 17.8216L15.3542 17.8162L15.3578 17.8143C15.3632 17.809 15.3604 17.8108 15.3632 17.8072C15.3663 17.8044 15.3672 17.801 15.3704 17.7982C15.7801 17.4244 16.1099 17.0179 16.3586 16.5825L16.3748 16.5557V16.5288C16.6033 16.0531 16.5132 15.5673 16.142 15.2577C16.1329 15.2499 15.9551 15.1014 15.7338 14.9211C15.5075 14.7367 15.2382 14.5205 15.0571 14.3875C14.7142 14.134 14.1846 13.8054 13.8826 13.6374C13.3025 13.3126 12.6955 13.5015 12.4288 13.8469L11.9615 14.4323C11.7729 14.6699 11.395 14.6477 11.385 14.6472C8.21321 13.8314 7.36099 10.6415 7.3549 10.6188C7.35433 10.6089 7.33199 10.2322 7.56974 10.0405L8.15161 9.57506C8.49788 9.30994 8.69302 8.70281 8.36645 8.12128C8.19601 7.82077 7.8661 7.28695 7.61621 6.94694C7.48117 6.76509 7.26535 6.49667 7.08089 6.27018C6.9891 6.15698 6.90367 6.05229 6.84277 5.97835C6.81188 5.94138 6.7888 5.91153 6.77115 5.89062C6.76235 5.88017 6.75481 5.87335 6.74966 5.86735C6.7471 5.86433 6.74481 5.8627 6.74251 5.86019C6.58139 5.66884 6.37607 5.5517 6.1499 5.51286H6.14811ZM12.52 6.23616C12.2143 6.21461 11.9408 6.44252 11.9185 6.73747C11.8962 7.03273 12.1341 7.29602 12.4395 7.31754C13.1946 7.37091 13.7037 7.59289 14.0866 7.99788V7.99972C14.4775 8.41222 14.6565 8.88314 14.6416 9.5269V9.53047C14.635 9.82672 14.8825 10.0772 15.1895 10.0837H15.2038C15.5062 10.0837 15.7574 9.84446 15.7642 9.55196C15.7849 8.66703 15.4981 7.87784 14.9173 7.26566C14.3325 6.65044 13.5053 6.3062 12.52 6.23616Z" fill="black"/>
<path d="M12.486 2.75L12.4878 2.75179C12.1778 2.75179 11.9196 2.99965 11.9167 3.29964C11.9148 3.601 12.1721 3.8531 12.4842 3.85465C13.8314 3.86477 14.9391 4.29154 15.8322 5.13118C16.7148 5.96304 17.1758 7.11483 17.1875 8.61882V8.62061C17.1907 8.91983 17.4479 9.16667 17.7586 9.16667C17.7587 9.16667 17.7636 9.16497 17.764 9.16488C18.0755 9.16203 18.3341 8.91096 18.3315 8.60986C18.3245 7.73209 18.1824 6.92536 17.9036 6.21615C17.6214 5.49944 17.1917 4.86555 16.6325 4.33805C15.5272 3.29885 14.1162 2.76147 12.4914 2.75H12.486ZM6.14811 4.59587C5.93112 4.55942 5.697 4.60124 5.4624 4.71403H5.4427L5.41764 4.72835C4.98181 4.97611 4.57223 5.30726 4.18945 5.7238L4.15901 5.75781V5.78646C3.89423 6.11653 3.71944 6.44909 3.6792 6.7819C3.66634 6.83831 3.66666 6.8904 3.66666 6.94482C3.66666 7.09624 3.68979 7.24867 3.73649 7.39958L3.74902 7.44255L3.77408 7.45866C3.92526 7.97719 4.26953 8.78296 5.02018 10.1496C5.52016 11.0554 6.031 11.8127 6.53841 12.4502C6.80568 12.7852 7.10727 13.1337 7.45865 13.485C7.46278 13.4892 7.47835 13.5045 7.49446 13.519C7.50005 13.5246 7.50749 13.5356 7.52669 13.5549L7.5625 13.5907H7.56429C7.57665 13.603 7.58571 13.6115 7.58756 13.6139L7.59293 13.6211L7.60009 13.6283C7.95149 13.9757 8.29791 14.2795 8.63671 14.5449C9.27339 15.0522 10.0297 15.5677 10.9356 16.0685C12.3041 16.8233 13.1195 17.1642 13.6354 17.3128L13.6533 17.3361L13.6856 17.3468C13.8317 17.3956 13.9826 17.4171 14.1331 17.4149C14.1942 17.4182 14.2481 17.414 14.2996 17.4023C14.653 17.361 15.0045 17.1949 15.3506 16.9046L15.3542 16.8993L15.3578 16.8975C15.3632 16.8921 15.3603 16.8939 15.3631 16.8903C15.3662 16.8875 15.3671 16.8842 15.3703 16.8813C15.78 16.5076 16.1098 16.101 16.3586 15.6657L16.3747 15.6388V15.612C16.6032 15.1363 16.5131 14.6504 16.1419 14.3408C16.1329 14.333 15.955 14.1845 15.7337 14.0042C15.5074 13.8199 15.2382 13.6036 15.057 13.4707C14.7142 13.2172 14.1846 12.8886 13.8825 12.7205C13.3024 12.3958 12.6954 12.5847 12.4287 12.93L11.9614 13.5155C11.7728 13.753 11.3949 13.7309 11.3849 13.7303C8.21313 12.9145 7.3609 9.72466 7.35481 9.70199C7.35425 9.692 7.33191 9.31535 7.56966 9.1237L8.15152 8.6582C8.49779 8.39309 8.69293 7.78595 8.36637 7.20443C8.19601 6.90378 7.8661 6.36996 7.61621 6.02995C7.48117 5.8481 7.26535 5.57968 7.08089 5.35319C6.9891 5.23999 6.90367 5.1353 6.84277 5.06136C6.81188 5.02439 6.7888 4.99454 6.77115 4.97363C6.76235 4.96318 6.75482 4.95636 6.74967 4.95036C6.7471 4.94734 6.7448 4.94571 6.74251 4.9432C6.58139 4.75185 6.37606 4.63471 6.1499 4.59587H6.14811ZM12.52 5.31917C12.2143 5.29762 11.9408 5.52553 11.9185 5.82048C11.8961 6.11574 12.1341 6.37903 12.4395 6.40055C13.1946 6.45392 13.7037 6.6759 14.0866 7.08089V7.08268C14.4775 7.49519 14.6565 7.9661 14.6416 8.60986V8.61344C14.635 8.90969 14.8825 9.16017 15.1895 9.16667H15.2038C15.5062 9.16667 15.7574 8.92743 15.7642 8.63493C15.7849 7.75 15.4981 6.96081 14.9173 6.34863C14.3325 5.73345 13.5053 5.38921 12.52 5.31917Z" fill="white"/>
</svg>
