<svg width="95" height="95" viewBox="0 0 95 95" fill="none" xmlns="http://www.w3.org/2000/svg">
<path d="M92.0312 14.8438H51.9531C51.1072 14.8465 50.2717 15.0311 49.5034 15.385C48.7351 15.739 48.0518 16.254 47.5 16.8952C46.9482 16.254 46.2649 15.739 45.4966 15.385C44.7283 15.0311 43.8928 14.8465 43.0469 14.8438H2.96875C2.57507 14.8438 2.19751 15.0001 1.91914 15.2785C1.64076 15.5569 1.48438 15.9344 1.48438 16.3281V78.6719C1.48438 79.0656 1.64076 79.4431 1.91914 79.7215C2.19751 79.9999 2.57507 80.1562 2.96875 80.1562H43.0469C43.8928 80.1535 44.7283 79.9689 45.4966 79.615C46.2649 79.261 46.9482 78.746 47.5 78.1048C48.0518 78.746 48.7351 79.261 49.5034 79.615C50.2717 79.9689 51.1072 80.1535 51.9531 80.1562H92.0312C92.4249 80.1562 92.8025 79.9999 93.0809 79.7215C93.3592 79.4431 93.5156 79.0656 93.5156 78.6719V16.3281C93.5156 15.9344 93.3592 15.5569 93.0809 15.2785C92.8025 15.0001 92.4249 14.8438 92.0312 14.8438ZM43.0469 17.8125C43.8342 17.8125 44.5893 18.1253 45.1461 18.682C45.7028 19.2388 46.0156 19.9939 46.0156 20.7812V38.5938H4.45312V17.8125H43.0469ZM43.0469 77.1875H4.45312V41.5625H46.0156V74.2188C46.0156 75.0061 45.7028 75.7612 45.1461 76.318C44.5893 76.8747 43.8342 77.1875 43.0469 77.1875ZM90.5469 77.1875H51.9531C51.1658 77.1875 50.4106 76.8747 49.8539 76.318C49.2972 75.7612 48.9844 75.0061 48.9844 74.2188V20.7812C48.9844 19.9939 49.2972 19.2388 49.8539 18.682C50.4106 18.1253 51.1658 17.8125 51.9531 17.8125H90.5469V77.1875Z" fill="#C4C4C4"/>
<path d="M51.9531 48.9844C51.9531 49.3781 52.1095 49.7556 52.3879 50.034C52.6663 50.3124 53.0438 50.4688 53.4375 50.4688H86.0938C86.4874 50.4688 86.865 50.3124 87.1434 50.034C87.4217 49.7556 87.5781 49.3781 87.5781 48.9844V22.2656C87.5781 21.8719 87.4217 21.4944 87.1434 21.216C86.865 20.9376 86.4874 20.7812 86.0938 20.7812H53.4375C53.0438 20.7812 52.6663 20.9376 52.3879 21.216C52.1095 21.4944 51.9531 21.8719 51.9531 22.2656V48.9844ZM66.7969 32.6562C66.7969 32.0691 66.971 31.4951 67.2972 31.0069C67.6234 30.5187 68.0871 30.1382 68.6295 29.9135C69.172 29.6888 69.7689 29.63 70.3448 29.7445C70.9207 29.8591 71.4497 30.1418 71.8649 30.557C72.28 30.9722 72.5628 31.5012 72.6773 32.0771C72.7919 32.653 72.7331 33.2499 72.5084 33.7923C72.2837 34.3348 71.9032 34.7985 71.415 35.1247C70.9268 35.4509 70.3528 35.625 69.7656 35.625C68.9783 35.625 68.2231 35.3122 67.6664 34.7555C67.1097 34.1987 66.7969 33.4436 66.7969 32.6562ZM69.7656 38.5938C71.3403 38.5938 72.8506 39.2193 73.9641 40.3328C75.0776 41.4463 75.7031 42.9565 75.7031 44.5312V47.5H63.8281V44.5312C63.8281 42.9565 64.4537 41.4463 65.5672 40.3328C66.6807 39.2193 68.1909 38.5938 69.7656 38.5938V38.5938ZM54.9219 23.75H84.6094V47.5H78.6719V44.5312C78.671 42.9378 78.2426 41.3738 77.4314 40.0023C76.6202 38.6309 75.4559 37.5021 74.0599 36.7338C74.8628 35.8929 75.4012 34.8348 75.6082 33.6908C75.8153 32.5467 75.6819 31.367 75.2246 30.2981C74.7673 29.2291 74.0062 28.318 73.0358 27.6777C72.0653 27.0373 70.9283 26.696 69.7656 26.696C68.603 26.696 67.4659 27.0373 66.4955 27.6777C65.5251 28.318 64.764 29.2291 64.3067 30.2981C63.8494 31.367 63.716 32.5467 63.923 33.6908C64.1301 34.8348 64.6684 35.8929 65.4713 36.7338C64.0754 37.5021 62.9111 38.6309 62.0999 40.0023C61.2887 41.3738 60.8603 42.9378 60.8594 44.5312V47.5H54.9219V23.75Z" fill="#C4C4C4"/>
<path d="M51.9531 53.4375H68.2812V56.4062H51.9531V53.4375Z" fill="#C4C4C4"/>
<path d="M71.25 53.4375H87.5781V56.4062H71.25V53.4375Z" fill="#C4C4C4"/>
<path d="M51.9531 59.375H87.5781V62.3438H51.9531V59.375Z" fill="#C4C4C4"/>
<path d="M86.0938 65.3125H53.4375C53.0438 65.3125 52.6663 65.4689 52.3879 65.7473C52.1095 66.0256 51.9531 66.4032 51.9531 66.7969V72.7344C51.9531 73.1281 52.1095 73.5056 52.3879 73.784C52.6663 74.0624 53.0438 74.2188 53.4375 74.2188H86.0938C86.4874 74.2188 86.865 74.0624 87.1434 73.784C87.4217 73.5056 87.5781 73.1281 87.5781 72.7344V66.7969C87.5781 66.4032 87.4217 66.0256 87.1434 65.7473C86.865 65.4689 86.4874 65.3125 86.0938 65.3125ZM84.6094 71.25H54.9219V68.2812H84.6094V71.25Z" fill="#C4C4C4"/>
<path d="M19.2969 20.7812H22.2656V35.625H19.2969V20.7812Z" fill="#C4C4C4"/>
<path d="M28.2031 32.6563C27.8094 32.6563 27.4319 32.4999 27.1535 32.2215C26.8751 31.9431 26.7188 31.5656 26.7188 31.1719H23.75C23.75 32.0526 24.0112 32.9136 24.5005 33.6459C24.9898 34.3782 25.6853 34.949 26.499 35.286C27.3127 35.6231 28.2081 35.7113 29.0719 35.5394C29.9357 35.3676 30.7292 34.9435 31.352 34.3207C31.9747 33.6979 32.3989 32.9045 32.5707 32.0406C32.7425 31.1768 32.6543 30.2814 32.3173 29.4677C31.9802 28.654 31.4095 27.9586 30.6771 27.4692C29.9448 26.9799 29.0839 26.7188 28.2031 26.7188C27.9095 26.7188 27.6226 26.6317 27.3785 26.4686C27.1343 26.3055 26.9441 26.0737 26.8317 25.8024C26.7194 25.5312 26.69 25.2327 26.7473 24.9448C26.8045 24.6568 26.9459 24.3924 27.1535 24.1848C27.3611 23.9772 27.6256 23.8358 27.9135 23.7785C28.2015 23.7212 28.4999 23.7506 28.7712 23.863C29.0424 23.9753 29.2742 24.1656 29.4373 24.4097C29.6004 24.6538 29.6875 24.9408 29.6875 25.2344H32.6562C32.6562 24.3536 32.3951 23.4927 31.9058 22.7604C31.4164 22.028 30.721 21.4573 29.9073 21.1202C29.0936 20.7832 28.1982 20.695 27.3344 20.8668C26.4705 21.0386 25.6771 21.4628 25.0543 22.0855C24.4315 22.7083 24.0074 23.5018 23.8356 24.3656C23.6637 25.2294 23.7519 26.1248 24.089 26.9385C24.426 27.7522 24.9968 28.4477 25.7291 28.937C26.4614 29.4263 27.3224 29.6875 28.2031 29.6875C28.5968 29.6875 28.9744 29.8439 29.2527 30.1223C29.5311 30.4006 29.6875 30.7782 29.6875 31.1719C29.6875 31.5656 29.5311 31.9431 29.2527 32.2215C28.9744 32.4999 28.5968 32.6563 28.2031 32.6563Z" fill="#C4C4C4"/>
<path d="M37.1094 31.1719H40.0781V35.625H43.0469V25.2344C43.0469 24.0533 42.5777 22.9207 41.7426 22.0855C40.9075 21.2504 39.7748 20.7812 38.5938 20.7812C37.4127 20.7812 36.28 21.2504 35.4449 22.0855C34.6098 22.9207 34.1406 24.0533 34.1406 25.2344V35.625H37.1094V31.1719ZM38.5938 23.75C38.9874 23.75 39.365 23.9064 39.6434 24.1848C39.9217 24.4631 40.0781 24.8407 40.0781 25.2344V28.2031H37.1094V25.2344C37.1094 24.8407 37.2658 24.4631 37.5441 24.1848C37.8225 23.9064 38.2001 23.75 38.5938 23.75Z" fill="#C4C4C4"/>
<path d="M10.64 34.9645C10.7756 35.1678 10.9592 35.3344 11.1746 35.4497C11.3901 35.565 11.6307 35.6253 11.875 35.6253C12.1193 35.6253 12.3599 35.565 12.5754 35.4497C12.7908 35.3344 12.9744 35.1678 13.11 34.9645L16.0787 30.5113C16.2409 30.2671 16.3277 29.9806 16.3281 29.6875V20.7812H13.3594V29.2422L11.875 31.4688L10.3906 29.2422V20.7812H7.42188V29.6875C7.42234 29.9806 7.50907 30.2671 7.67125 30.5113L10.64 34.9645Z" fill="#C4C4C4"/>
<path d="M41.1275 55.9714L39.0286 53.8724L37.1093 55.7917C36.979 55.9032 36.8342 55.9966 36.6789 56.0693C35.9031 53.0332 34.0846 50.3664 31.5416 48.5353C28.9986 46.7042 25.8927 45.8254 22.7673 46.0525C19.6419 46.2795 16.6957 47.5981 14.4441 49.7775C12.1924 51.957 10.7785 54.8586 10.4497 57.975C10.1209 61.0914 10.8981 64.2241 12.6454 66.8255C14.3926 69.4269 16.9987 71.3312 20.0079 72.2056C23.0172 73.0799 26.238 72.8686 29.1072 71.6085C31.9764 70.3485 34.3113 68.1199 35.7036 65.3125C37.0212 65.2958 38.2795 64.7628 39.2082 63.8281L41.1275 61.9088L39.0286 59.8099L37.1093 61.7292C37.0318 61.7878 36.9499 61.8404 36.8644 61.8866C37.0252 61.059 37.1072 60.2181 37.1093 59.375C37.1093 59.2934 37.0989 59.2147 37.0975 59.1331C37.8933 58.9005 38.6187 58.4735 39.2082 57.8906L41.1275 55.9714ZM34.1406 59.375C34.1407 60.0913 34.066 60.8057 33.9179 61.5066L33.2707 60.8594C32.6765 60.2809 31.9443 59.864 31.1436 59.6481C31.1436 59.5561 31.1718 59.4685 31.1718 59.375C31.1675 58.453 30.9897 57.5401 30.6479 56.6839C30.8396 56.767 31.0166 56.8808 31.1718 57.0208L32.0417 57.8906C32.6255 58.4674 33.3422 58.8915 34.1287 59.1256C34.1302 59.2103 34.1406 59.2904 34.1406 59.375V59.375ZM26.2838 58.9401L27.7563 57.4676C28.0473 58.0615 28.2001 58.7136 28.2031 59.375C28.2031 59.4745 28.1808 59.568 28.1734 59.6719C27.3954 59.889 26.6841 60.2972 26.1042 60.8594L24.1849 62.7787L25.025 63.6188C24.6127 63.7514 24.183 63.822 23.75 63.8281C22.5689 63.8281 21.4362 63.359 20.6011 62.5239C19.766 61.6887 19.2968 60.5561 19.2968 59.375C19.2968 58.194 19.766 57.0613 20.6011 56.2262C21.4362 55.3911 22.5689 54.9219 23.75 54.9219C24.4112 54.9245 25.0633 55.0767 25.6574 55.3672L24.1849 56.8397L26.2838 58.9401ZM23.75 69.7656C21.8991 69.768 20.0812 69.2758 18.4843 68.3402C16.8873 67.4045 15.5693 66.0593 14.6664 64.4436C13.7636 62.8278 13.3087 61.0003 13.3488 59.1499C13.3889 57.2994 13.9226 55.4933 14.8946 53.9182C15.8666 52.3431 17.2417 51.0563 18.8777 50.1907C20.5136 49.3251 22.3511 48.9122 24.2002 48.9947C26.0492 49.0772 27.8426 49.6521 29.395 50.66C30.9474 51.6678 32.2024 53.0721 33.0303 54.7274C32.4036 54.196 31.6592 53.8218 30.859 53.6356C30.0587 53.4495 29.2256 53.4569 28.4287 53.6572C27.1149 52.562 25.4603 51.9594 23.75 51.9531C22.4186 51.9487 21.1107 52.3025 19.9631 52.9774C18.8155 53.6523 17.8705 54.6234 17.2273 55.789C16.584 56.9546 16.2662 58.2718 16.307 59.6025C16.3478 60.9332 16.7458 62.2284 17.4593 63.3524C18.1727 64.4764 19.1754 65.3878 20.3622 65.9911C21.549 66.5944 22.8762 66.8673 24.2047 66.7814C25.5333 66.6954 26.8142 66.2536 27.9133 65.5024C29.0125 64.7511 29.8893 63.7181 30.4519 62.5115C30.7215 62.6057 30.9672 62.7577 31.1718 62.9568L32.0417 63.8267C32.2751 64.0601 32.5306 64.2704 32.8046 64.4546C31.9028 66.064 30.5886 67.4042 28.9973 68.3376C27.406 69.271 25.5948 69.7639 23.75 69.7656V69.7656Z" fill="#C4C4C4"/>
</svg>
