<svg width="35" height="36" viewBox="0 0 35 36" fill="none" xmlns="http://www.w3.org/2000/svg">
<path d="M0.747973 35.1526C0.550582 35.1526 0.358556 35.0746 0.216146 34.9306C0.0284109 34.7406 -0.0440012 34.465 0.0265336 34.2073L2.31181 25.8622C0.889043 23.2893 0.138906 20.3789 0.139979 17.4244C0.144002 7.81649 7.9629 0 17.5701 0C22.2299 0.00187736 26.6085 1.81701 29.8995 5.11041C33.1899 8.4041 35.0013 12.7823 35 17.4385C34.9956 27.0467 27.1769 34.8638 17.5701 34.8638C17.5701 34.8638 17.5629 34.8638 17.5626 34.8638C14.7565 34.8627 11.9745 34.1787 9.4975 32.8834L0.937586 35.1281C0.874829 35.1446 0.810999 35.1526 0.747973 35.1526Z" fill="#E5E5E5"/>
<path d="M0.747986 34.4027L3.11452 25.7608C1.65474 23.2313 0.88691 20.3623 0.887983 17.4229C0.891737 8.22734 8.37486 0.746094 17.5701 0.746094C22.0324 0.747971 26.2207 2.48479 29.3704 5.63713C32.5198 8.78948 34.2536 12.9797 34.252 17.4364C34.248 26.6316 26.7638 34.1139 17.5701 34.1139C17.5697 34.1139 17.5704 34.1139 17.5701 34.1139H17.5629C14.7709 34.1127 12.0279 33.4125 9.59138 32.0836L0.747986 34.4027ZM10.0009 29.0646L10.5075 29.3648C12.6359 30.6279 15.0762 31.2959 17.5647 31.2973H17.5701C25.212 31.2973 31.432 25.0784 31.4351 17.4352C31.4365 13.7312 29.9958 10.2482 27.3779 7.6282C24.7599 5.00822 21.279 3.56453 17.5753 3.56293C9.92716 3.56293 3.7075 9.78098 3.70454 17.424C3.70348 20.0431 4.43618 22.5937 5.82434 24.8008L6.15422 25.3254L4.75317 30.4404L10.0009 29.0646Z" fill="white"/>
<path d="M1.32809 33.8216L3.61284 25.4784C2.20322 23.0368 1.46218 20.2667 1.463 17.4294C1.46649 8.55225 8.6908 1.33008 17.5671 1.33008C21.8754 1.33196 25.919 3.0087 28.959 6.05189C31.9998 9.09508 33.6732 13.1402 33.6717 17.4421C33.6679 26.3195 26.4433 33.5425 17.568 33.5425C17.5671 33.5425 17.5682 33.5425 17.568 33.5425H17.5608C14.8657 33.5414 12.2173 32.8651 9.86522 31.5831L1.32809 33.8216Z" fill="#64B161"/>
<path d="M0.747986 34.4027L3.11452 25.7608C1.65474 23.2313 0.88691 20.3623 0.887983 17.4229C0.891737 8.22734 8.37486 0.746094 17.5701 0.746094C22.0324 0.747971 26.2207 2.48479 29.3704 5.63713C32.5198 8.78948 34.2536 12.9797 34.252 17.4364C34.248 26.6316 26.7638 34.1139 17.5701 34.1139C17.5697 34.1139 17.5704 34.1139 17.5701 34.1139H17.5629C14.7709 34.1127 12.0279 33.4125 9.59138 32.0836L0.747986 34.4027ZM10.0009 29.0646L10.5075 29.3648C12.6359 30.6279 15.0762 31.2959 17.5647 31.2973H17.5701C25.212 31.2973 31.432 25.0784 31.4351 17.4352C31.4365 13.7312 29.9958 10.2482 27.3779 7.6282C24.7599 5.00822 21.279 3.56453 17.5753 3.56293C9.92716 3.56293 3.7075 9.78098 3.70454 17.424C3.70348 20.0431 4.43618 22.5937 5.82434 24.8008L6.15422 25.3254L4.75317 30.4404L10.0009 29.0646Z" fill="white"/>
<path fill-rule="evenodd" clip-rule="evenodd" d="M13.4008 10.4527C13.0886 9.7586 12.7598 9.74465 12.4626 9.73259C12.2197 9.72213 11.9415 9.72266 11.664 9.72266C11.3861 9.72266 10.9345 9.82726 10.5526 10.2443C10.1704 10.6613 9.09334 11.6698 9.09334 13.7206C9.09334 15.7718 10.5872 17.7534 10.7956 18.0318C11.0039 18.31 13.6792 22.653 17.9158 24.3239C21.4369 25.7125 22.1533 25.4364 22.9176 25.3669C23.682 25.2974 25.3837 24.3584 25.731 23.3853C26.0786 22.412 26.0786 21.5779 25.9742 21.4032C25.8699 21.2297 25.592 21.1254 25.1753 20.917C24.7585 20.7086 22.7092 19.7 22.3271 19.5611C21.9449 19.4219 21.667 19.3527 21.3892 19.7699C21.1111 20.1868 20.313 21.1254 20.0697 21.4032C19.8265 21.6819 19.5832 21.7168 19.1664 21.5081C18.7497 21.2992 17.4071 20.8594 15.8146 19.4393C14.5755 18.3346 13.7387 16.9701 13.4955 16.5527C13.2525 16.136 13.4914 15.93 13.6786 15.7023C14.0157 15.2922 14.5814 14.5549 14.7203 14.2771C14.8593 13.9987 14.7898 13.7555 14.6857 13.5468C14.5814 13.3384 13.7712 11.2771 13.4008 10.4527Z" fill="white"/>
</svg>
