<svg width="20" height="20" viewBox="0 0 20 20" fill="none" xmlns="http://www.w3.org/2000/svg">
<path fill-rule="evenodd" clip-rule="evenodd" d="M17.0048 2.90685C16.0867 1.98268 14.9943 1.24988 13.7909 0.750912C12.5876 0.251943 11.2972 -0.00327912 9.99446 3.18051e-05C4.5319 3.18051e-05 0.0850076 4.44582 0.0827997 9.91059C0.0827997 11.6571 0.538749 13.3617 1.40539 14.8653L0 20L5.25391 18.6211C6.7072 19.4122 8.33538 19.8271 9.99005 19.8278H9.99446C15.4559 19.8278 19.9028 15.382 19.905 9.91722C19.9088 8.61504 19.6544 7.32503 19.1566 6.12175C18.6588 4.91847 17.9275 3.82578 17.0048 2.90685ZM9.99446 18.1552H9.99115C8.51568 18.1554 7.06737 17.7584 5.79818 17.006L5.49789 16.8271L2.38021 17.6452L3.21152 14.6059L3.01611 14.2946C2.1912 12.9813 1.75451 11.4615 1.75646 9.91059C1.75866 5.36876 5.45373 1.67369 9.99778 1.67369C11.08 1.67128 12.1519 1.88354 13.1515 2.29816C14.1511 2.71279 15.0586 3.32156 15.8213 4.08923C16.5882 4.85324 17.196 5.76166 17.6097 6.762C18.0234 7.76233 18.2347 8.83473 18.2314 9.91722C18.2292 14.4591 14.5341 18.1552 9.99446 18.1552ZM14.5131 11.985C14.2647 11.8602 13.0481 11.2619 12.8207 11.1791C12.5944 11.0963 12.4299 11.0554 12.2643 11.3027C12.0987 11.55 11.624 12.1075 11.4793 12.2731C11.3347 12.4387 11.1901 12.4586 10.9428 12.335C10.6955 12.2113 9.89731 11.9497 8.95119 11.1062C8.21482 10.4493 7.71803 9.63901 7.5734 9.39061C7.42878 9.14221 7.55795 9.00863 7.6827 8.88498C7.7942 8.77458 7.92999 8.59573 8.05364 8.45111C8.17729 8.30649 8.21814 8.20382 8.30094 8.03822C8.38374 7.87262 8.34289 7.72799 8.27996 7.60435C8.21814 7.4796 7.72244 6.26079 7.516 5.76509C7.31617 5.28485 7.11193 5.34889 6.95958 5.34226C6.8018 5.33581 6.64389 5.33286 6.48597 5.33343C6.3604 5.33663 6.23684 5.36574 6.12304 5.41893C6.00925 5.47213 5.90767 5.54826 5.82468 5.64255C5.59725 5.89095 4.95804 6.48931 4.95804 7.70812C4.95804 8.92693 5.84565 10.1049 5.9693 10.2705C6.09295 10.4361 7.71582 12.9366 10.1998 14.0097C10.7915 14.2647 11.253 14.4171 11.6118 14.5319C12.2047 14.7207 12.7445 14.6931 13.1718 14.6302C13.6476 14.5595 14.6368 14.0318 14.8432 13.4533C15.0497 12.8748 15.0497 12.3791 14.9878 12.2753C14.926 12.1716 14.7593 12.1086 14.5131 11.985Z" fill="white"/>
</svg>
