<svg width="80" height="80" viewBox="0 0 80 80" fill="none" xmlns="http://www.w3.org/2000/svg">
<g clip-path="url(#clip0_495_537)">
<path d="M0.804625 31.3027C-0.210062 30.3663 -0.273656 28.7847 0.66275 27.7701C5.62494 22.3926 11.5129 18.1566 18.1632 15.1799C25.0501 12.0974 32.397 10.5344 40.0001 10.5344C47.6032 10.5344 54.9501 12.0974 61.8368 15.1799C68.4871 18.1566 74.3753 22.3926 79.3373 27.7701C80.2735 28.7847 80.2101 30.3665 79.1954 31.3027C78.7148 31.7461 78.1068 31.9654 77.5006 31.9654C76.827 31.9654 76.1556 31.6949 75.6626 31.1608C66.499 21.2301 53.5004 15.5344 40.0001 15.5344C26.4998 15.5344 13.5012 21.2301 4.33744 31.1608C3.40103 32.1755 1.81931 32.239 0.804625 31.3027V31.3027ZM64.281 42.4776C65.1985 43.5094 66.7785 43.6021 67.8104 42.6846C68.8423 41.7671 68.9349 40.1869 68.0174 39.1552C60.9049 31.1561 50.6929 26.5686 40.0001 26.5686C29.3071 26.5686 19.0953 31.1563 11.9828 39.1552C11.0653 40.1871 11.1579 41.7672 12.1898 42.6847C12.6662 43.1082 13.2592 43.3165 13.8501 43.3165C14.5392 43.3165 15.2254 43.0332 15.7193 42.4777C21.8838 35.5449 30.7338 31.5688 40.0001 31.5688C49.2663 31.5686 58.1163 35.5447 64.281 42.4776ZM52.8273 53.756C53.3212 54.3705 54.0459 54.6899 54.7773 54.6899C55.327 54.6899 55.8803 54.5094 56.342 54.1383C57.4181 53.2733 57.5893 51.6997 56.7243 50.6235C52.6273 45.5261 46.5315 42.6027 40.0001 42.6027C33.4687 42.6027 27.3731 45.5261 23.2757 50.6235C22.4107 51.6996 22.5818 53.2732 23.6581 54.1383C24.7343 55.0035 26.3079 54.8321 27.1729 53.756C30.3162 49.8455 34.9915 47.6029 40.0001 47.6029C45.0088 47.6027 49.6842 49.8455 52.8273 53.756V53.756ZM40.0001 58.6369C42.9854 58.6369 45.4143 61.0657 45.4143 64.0512C45.4143 67.0365 42.9856 69.4652 40.0001 69.4652C37.0146 69.4652 34.5859 67.0365 34.5859 64.0512C34.5859 61.0658 37.0146 58.6369 40.0001 58.6369ZM40.0001 63.6369C39.7756 63.6369 39.5859 63.8266 39.5859 64.0512C39.5859 64.2757 39.7756 64.4652 40.0001 64.4652C40.2246 64.4652 40.4143 64.2755 40.4143 64.0512C40.4142 63.8268 40.2246 63.6369 40.0001 63.6369Z" fill="#C4C4C4"/>
</g>
<defs>
<clipPath id="clip0_495_537">
<rect width="80" height="80" fill="white"/>
</clipPath>
</defs>
</svg>
