<svg width="86" height="58" viewBox="0 0 86 58" fill="none" xmlns="http://www.w3.org/2000/svg">
<path d="M84.5622 40.1311C80.6486 40.0393 76.7939 41.0978 73.4761 43.1754C72.8469 43.5223 72.2263 43.8649 71.5741 44.1786L85.3118 27.6618C86.0396 26.8109 86.2054 25.614 85.7361 24.5974C85.2668 23.5807 84.2487 22.9304 83.1289 22.9321H70.6953L55.5902 11.9461L54.8592 10.4857C53.4107 7.56541 50.4281 5.72239 47.1683 5.73297H32.4173L30.9841 2.8664H38.6979C39.4895 2.8664 40.1311 2.22463 40.1311 1.4332C40.1311 0.641774 39.4895 0 38.6979 0H22.9321C22.1405 0 21.4989 0.641606 21.4989 1.4332C21.4989 2.2248 22.1405 2.8664 22.9321 2.8664H27.7794L29.2126 5.73297H22.9321C20.5574 5.73297 18.6323 7.65796 18.6323 10.0327C18.6323 12.4075 20.5573 14.3325 22.9321 14.3325H24.9128L20.613 22.9321H19.349C18.4472 22.9339 17.5983 23.3583 17.0558 24.0787L13.616 28.6652H11.1507C10.6624 28.665 10.2076 28.9134 9.94389 29.3244L2.97255 40.1857C2.47808 40.157 1.97924 40.1313 1.4332 40.1313C0.641607 40.1313 0 40.7729 0 41.5645C0 42.3561 0.641607 42.9977 1.4332 42.9977C4.86042 42.9152 8.23524 43.8509 11.1307 45.6866C14.4479 47.7648 18.3022 48.8232 22.2155 48.7309C25.2825 48.8197 28.3263 48.1724 31.0917 46.8433L31.1119 46.8332C31.8758 46.4649 32.5896 46.0736 33.2947 45.6866C36.1883 43.8518 39.5611 42.9161 42.9863 42.9977C46.4149 42.9149 49.7912 43.8506 52.688 45.6866C56.0076 47.7653 59.8644 48.8237 63.7799 48.7309C67.6935 48.8227 71.5482 47.7642 74.8661 45.6866C77.7614 43.8518 81.1354 42.9163 84.5621 42.9977C85.3537 42.9977 85.9953 42.3561 85.9953 41.5645C85.9953 40.7729 85.3538 40.1311 84.5622 40.1311ZM53.9979 14.3325L57.9394 17.1991H41.5645C40.7729 17.1991 40.1313 16.5575 40.1313 15.7659V14.3327H53.9979V14.3325ZM22.9321 11.4661C22.1405 11.4661 21.4989 10.8245 21.4989 10.0329C21.4989 9.24132 22.1405 8.59971 22.9321 8.59971H47.1685C49.2134 8.59619 51.103 9.69061 52.1176 11.4663H22.9321V11.4661ZM28.1177 14.3325H37.2647V15.7657C37.2647 18.1403 39.1897 20.0655 41.5645 20.0655H61.8809L65.8225 22.9321H23.8179L28.1177 14.3325ZM19.349 25.7986H48.7307V27.2318C48.7307 28.0234 48.0891 28.665 47.2975 28.665H17.1991L19.349 25.7986ZM63.7799 45.8643C60.3493 45.9483 56.971 45.0124 54.0725 43.1754C50.7546 41.0978 46.8999 40.0394 42.9863 40.1311C39.0748 40.0394 35.2225 41.0979 31.9072 43.1754C29.0137 45.0105 25.6409 45.9464 22.2155 45.8643C18.7878 45.9469 15.4125 45.0112 12.5167 43.1754C10.5361 41.979 8.37649 41.108 6.12012 40.5956L11.9334 31.5316H47.2975C49.6721 31.5316 51.5973 29.6066 51.5973 27.2318V25.7986H55.897V30.0984C55.897 30.89 56.5388 31.5316 57.3302 31.5316C58.1217 31.5316 58.7634 30.89 58.7634 30.0984V25.7986H61.63V30.0984C61.63 30.89 62.2716 31.5316 63.0632 31.5316C63.8548 31.5316 64.4964 30.89 64.4964 30.0984V25.7986H67.363V30.0984C67.363 30.89 68.0046 31.5316 68.7962 31.5316C69.5878 31.5316 70.2294 30.89 70.2294 30.0984V25.8072H83.1158L66.6003 45.6807C65.6654 45.8042 64.7232 45.8655 63.7799 45.8643Z" fill="#C4C4C4"/>
<path d="M84.5624 48.7312C80.6488 48.6393 76.7941 49.6978 73.4762 51.7755C70.5809 53.6103 67.2069 54.5458 63.7802 54.4643C60.3517 54.5472 56.9753 53.6115 54.0785 51.7755C50.759 49.6968 46.9021 48.6383 42.9866 48.7312C39.0752 48.6395 35.2228 49.698 31.9075 51.7755C29.014 53.6106 25.6412 54.5465 22.2159 54.4643C18.7881 54.547 15.4128 53.6113 12.517 51.7755C9.20032 49.6977 5.34648 48.639 1.43369 48.7312C0.642095 48.7312 0.000488281 49.3728 0.000488281 50.1644C0.000488281 50.956 0.642095 51.5976 1.43369 51.5976C4.86091 51.5151 8.23573 52.4508 11.1312 54.2865C14.4484 56.3646 18.3027 57.4231 22.216 57.3308C26.1276 57.4228 29.9801 56.3638 33.2952 54.2851C36.1889 52.4509 39.5616 51.5157 42.9868 51.5978C46.4154 51.515 49.7917 52.4507 52.6885 54.2867C56.008 56.3653 59.8649 57.4238 63.7804 57.3309C67.694 57.4228 71.5487 56.3643 74.8666 54.2867C77.7619 52.4519 81.1358 51.5163 84.5626 51.5978C85.3541 51.5978 85.9958 50.9562 85.9958 50.1646C85.9958 49.373 85.354 48.7312 84.5624 48.7312Z" fill="#C4C4C4"/>
</svg>
